<svg width="1018" height="512" viewBox="0 0 1018 512" fill="none" xmlns="http://www.w3.org/2000/svg">
<rect width="92.1696" height="103.013" transform="matrix(1 0 0 -1 832.684 409.464)" fill="#BD0B00"/>
<rect width="92.1696" height="103.013" transform="matrix(1 0 0 -1 278.31 409.464)" fill="#DF8200"/>
<rect width="93.525" height="103.013" transform="matrix(1 0 0 -1 646.99 409.464)" fill="#DF8200"/>
<rect width="92.1696" height="103.013" transform="matrix(1 0 0 -1 462.647 409.464)" fill="#BD0B00"/>
<rect width="92.1696" height="103.013" transform="matrix(1 0 0 -1 92.6182 409.464)" fill="#BD0B00"/>
<rect width="92.1696" height="101.658" transform="matrix(1 0 0 -1 740.515 306.45)" fill="#DF8200"/>
<rect width="93.525" height="101.658" transform="matrix(1 0 0 -1 184.785 306.45)" fill="#BD0B00"/>
<rect width="92.1696" height="101.658" transform="matrix(1 0 0 -1 554.819 306.45)" fill="#BD0B00"/>
<rect width="92.1696" height="101.658" transform="matrix(1 0 0 -1 370.479 306.45)" fill="#DF8200"/>
<rect width="92.1696" height="101.658" transform="matrix(1 0 0 -1 0.446289 306.45)" fill="#DF8200"/>
<rect width="92.1696" height="101.658" transform="matrix(1 0 0 -1 740.515 511.12)" fill="#DF8200"/>
<rect width="93.525" height="101.658" transform="matrix(1 0 0 -1 184.785 511.12)" fill="#BD0B00"/>
<rect width="92.1696" height="101.658" transform="matrix(1 0 0 -1 554.819 511.12)" fill="#BD0B00"/>
<rect width="92.1696" height="101.658" transform="matrix(1 0 0 -1 370.479 511.12)" fill="#DF8200"/>
<rect width="92.1696" height="101.658" transform="matrix(1 0 0 -1 0.446289 511.12)" fill="#DF8200"/>
<rect width="92.1696" height="103.013" transform="matrix(1 0 0 -1 832.684 204.793)" fill="#BD0B00"/>
<rect width="92.1696" height="103.013" transform="matrix(1 0 0 -1 278.31 204.793)" fill="#DF8200"/>
<rect width="93.525" height="103.013" transform="matrix(1 0 0 -1 646.99 204.793)" fill="#DF8200"/>
<rect width="92.1696" height="103.013" transform="matrix(1 0 0 -1 462.647 204.793)" fill="#BD0B00"/>
<rect width="92.1696" height="103.013" transform="matrix(1 0 0 -1 92.6182 204.793)" fill="#BD0B00"/>
<rect width="92.1696" height="101.658" transform="matrix(1 0 0 -1 740.515 101.779)" fill="#DF8200"/>
<rect width="93.525" height="101.658" transform="matrix(1 0 0 -1 184.785 101.779)" fill="#BD0B00"/>
<rect width="92.1696" height="101.658" transform="matrix(1 0 0 -1 554.819 101.779)" fill="#BD0B00"/>
<rect width="92.1696" height="101.658" transform="matrix(1 0 0 -1 924.854 306.45)" fill="#BD0B00"/>
<rect width="92.1696" height="101.658" transform="matrix(1 0 0 -1 924.854 511.12)" fill="#BD0B00"/>
<rect width="92.1696" height="101.658" transform="matrix(1 0 0 -1 924.854 101.779)" fill="#BD0B00"/>
<rect width="92.1696" height="101.658" transform="matrix(1 0 0 -1 370.479 101.779)" fill="#DF8200"/>
<rect width="92.1696" height="101.658" transform="matrix(1 0 0 -1 0.446289 101.779)" fill="#DF8200"/>
</svg>
