<svg width="381" height="368" viewBox="0 0 381 368" fill="none" xmlns="http://www.w3.org/2000/svg">
<rect width="381" height="368" fill="black"/>
<ellipse cx="189.53" cy="184.823" rx="83.412" ry="82.6467" fill="#FFAA00"/>
<circle cx="227.956" cy="182.957" r="22.9574" fill="#0060A7"/>
<circle cx="168.956" cy="212.957" r="22.9574" fill="#0060A7"/>
<ellipse cx="208.722" cy="151.957" rx="23.7227" ry="22.9574" fill="#0060A7"/>
<circle cx="154.956" cy="181.957" r="22.9574" fill="#0060A7"/>
<circle cx="204.956" cy="212.957" r="22.9574" fill="#0060A7"/>
<ellipse cx="173.722" cy="149.957" rx="23.7227" ry="22.9574" fill="#0060A7"/>
<path d="M291.341 282.793C293.633 299.137 268.231 320.783 255.375 322.586C242.519 324.389 256.137 307.555 253.845 291.211C251.552 274.867 246.345 254.752 259.201 252.949C272.057 251.146 289.049 266.449 291.341 282.793Z" fill="#FFAA00"/>
<path d="M278.225 295.014C294.151 299.342 318.818 276.862 322.223 264.335C325.628 251.807 307.216 263.202 291.289 258.873C275.363 254.544 256.062 246.849 252.657 259.377C249.253 271.904 262.298 290.685 278.225 295.014Z" fill="#FFAA00"/>
<path d="M85.3289 85.6905C82.9973 69.4917 108.835 48.039 121.911 46.2519C134.987 44.4649 121.136 61.1485 123.467 77.3473C125.799 93.546 131.096 113.482 118.02 115.269C104.943 117.056 87.6604 101.889 85.3289 85.6905Z" fill="#FFAA00"/>
<path d="M98.6688 73.5784C82.4696 69.2884 57.3804 91.5685 53.9172 103.984C50.4541 116.4 69.1812 105.107 85.3804 109.397C101.58 113.687 121.211 121.314 124.674 108.898C128.137 96.482 114.868 77.8685 98.6688 73.5784Z" fill="#FFAA00"/>
<path d="M100.41 293.902C84.3315 297.624 60.533 274.227 57.6048 261.579C54.6765 248.932 72.6439 261.015 88.7228 257.292C104.802 253.57 124.38 246.611 127.308 259.258C130.237 271.905 116.489 290.179 100.41 293.902Z" fill="#FFAA00"/>
<path d="M87.0814 281.913C84.1722 298.158 108.737 320.75 121.516 323.038C134.295 325.326 121.323 307.99 124.232 291.744C127.141 275.498 133.107 255.594 120.328 253.306C107.55 251.018 89.9907 265.667 87.0814 281.913Z" fill="#FFAA00"/>
<path d="M280.614 79.7213C296.826 76.6292 319.693 100.938 322.125 113.69C324.557 126.442 307.075 113.667 290.863 116.759C274.651 119.851 254.816 126.04 252.384 113.288C249.952 100.536 264.402 82.8133 280.614 79.7213Z" fill="#FFAA00"/>
<path d="M293.466 92.2216C297.008 76.1018 273.343 52.5684 260.664 49.7828C247.984 46.9971 260.269 64.8273 256.728 80.9471C253.186 97.0669 246.448 116.722 259.128 119.508C271.807 122.294 289.925 108.341 293.466 92.2216Z" fill="#FFAA00"/>
<path d="M354.063 223.086C354.063 232.384 333.894 223.086 316.566 223.086C299.238 223.086 285.19 215.548 285.19 206.25C285.19 196.953 299.238 189.415 316.566 189.415C333.894 189.415 354.063 213.788 354.063 223.086Z" fill="#F1001B"/>
<path d="M353.297 147.327C353.297 156.625 333.894 180.233 316.566 180.233C299.238 180.233 285.19 172.695 285.19 163.397C285.19 154.099 299.238 146.562 316.566 146.562C333.894 146.562 353.297 138.029 353.297 147.327Z" fill="#F1001B"/>
<path d="M227.541 17.9998C236.839 17.9998 227.541 38.1689 227.541 55.4969C227.541 72.8249 220.004 86.8721 210.706 86.8721C201.408 86.8721 193.87 72.8249 193.87 55.4969C193.87 38.1689 218.243 17.9998 227.541 17.9998Z" fill="#F1001B"/>
<path d="M151.781 19.1791C161.079 19.1791 184.687 38.583 184.687 55.911C184.687 73.239 177.149 87.2861 167.851 87.2861C158.553 87.2861 151.016 73.239 151.016 55.911C151.016 38.583 142.483 19.1791 151.781 19.1791Z" fill="#F1001B"/>
<path d="M230.598 349C239.896 349 230.598 328.831 230.598 311.503C230.598 294.175 223.06 280.128 213.762 280.128C204.464 280.128 196.927 294.175 196.927 311.503C196.927 328.831 221.3 349 230.598 349Z" fill="#F1001B"/>
<path d="M154.847 347.821C164.145 347.821 187.753 328.417 187.753 311.089C187.753 293.761 180.216 279.714 170.918 279.714C161.62 279.714 154.082 293.761 154.082 311.089C154.082 328.417 145.549 347.821 154.847 347.821Z" fill="#F1001B"/>
<path d="M24.9998 223.6C24.9998 232.898 45.1689 223.6 62.4969 223.6C79.8249 223.6 93.8721 216.062 93.8721 206.764C93.8721 197.466 79.8249 189.929 62.4969 189.929C45.1689 189.929 24.9998 214.302 24.9998 223.6Z" fill="#F1001B"/>
<path d="M25.7651 147.84C25.7651 157.138 45.1689 180.746 62.4969 180.746C79.8249 180.746 93.8721 173.209 93.8721 163.911C93.8721 154.613 79.8249 147.075 62.4969 147.075C45.1689 147.075 25.7651 138.542 25.7651 147.84Z" fill="#F1001B"/>
<ellipse cx="190.191" cy="183.427" rx="22.1922" ry="21.4269" fill="black"/>
</svg>
