<svg width="697" height="351" viewBox="0 0 697 351" fill="none" xmlns="http://www.w3.org/2000/svg">
<rect width="63.1947" height="70.6293" transform="matrix(1 0 0 -1 570.61 280.659)" fill="#BD0B00"/>
<rect width="63.1947" height="70.6293" transform="matrix(1 0 0 -1 190.514 280.659)" fill="#DF8200"/>
<rect width="64.124" height="70.6293" transform="matrix(1 0 0 -1 443.292 280.659)" fill="#DF8200"/>
<rect width="63.1947" height="70.6293" transform="matrix(1 0 0 -1 316.902 280.659)" fill="#BD0B00"/>
<rect width="63.1947" height="70.6293" transform="matrix(1 0 0 -1 63.1943 280.659)" fill="#BD0B00"/>
<rect width="63.1947" height="69.7" transform="matrix(1 0 0 -1 507.416 210.029)" fill="#DF8200"/>
<rect width="64.124" height="69.7" transform="matrix(1 0 0 -1 126.39 210.029)" fill="#BD0B00"/>
<rect width="63.1947" height="69.7" transform="matrix(1 0 0 -1 380.098 210.029)" fill="#BD0B00"/>
<rect width="63.1947" height="69.7" transform="matrix(1 0 0 -1 253.708 210.029)" fill="#DF8200"/>
<rect width="63.1947" height="69.7" transform="matrix(1 0 0 -1 0 210.029)" fill="#DF8200"/>
<rect width="63.1947" height="69.7" transform="matrix(1 0 0 -1 507.416 350.359)" fill="#DF8200"/>
<rect width="64.124" height="69.7" transform="matrix(1 0 0 -1 126.39 350.359)" fill="#BD0B00"/>
<rect width="63.1947" height="69.7" transform="matrix(1 0 0 -1 380.098 350.359)" fill="#BD0B00"/>
<rect width="63.1947" height="69.7" transform="matrix(1 0 0 -1 253.708 350.359)" fill="#DF8200"/>
<rect width="63.1947" height="69.7" transform="matrix(1 0 0 -1 0 350.359)" fill="#DF8200"/>
<rect width="63.1947" height="70.6293" transform="matrix(1 0 0 -1 570.61 140.329)" fill="#BD0B00"/>
<rect width="63.1947" height="70.6293" transform="matrix(1 0 0 -1 190.514 140.329)" fill="#DF8200"/>
<rect width="64.124" height="70.6293" transform="matrix(1 0 0 -1 443.292 140.329)" fill="#DF8200"/>
<rect width="63.1947" height="70.6293" transform="matrix(1 0 0 -1 316.902 140.329)" fill="#BD0B00"/>
<rect width="63.1947" height="70.6293" transform="matrix(1 0 0 -1 63.1943 140.329)" fill="#BD0B00"/>
<rect width="63.1947" height="69.7" transform="matrix(1 0 0 -1 507.416 69.7002)" fill="#DF8200"/>
<rect width="64.124" height="69.7" transform="matrix(1 0 0 -1 126.39 69.7002)" fill="#BD0B00"/>
<rect width="63.1947" height="69.7" transform="matrix(1 0 0 -1 380.098 69.7002)" fill="#BD0B00"/>
<rect width="63.1947" height="69.7" transform="matrix(1 0 0 -1 633.806 210.029)" fill="#BD0B00"/>
<rect width="63.1947" height="69.7" transform="matrix(1 0 0 -1 633.806 350.359)" fill="#BD0B00"/>
<rect width="63.1947" height="69.7" transform="matrix(1 0 0 -1 633.806 69.7002)" fill="#BD0B00"/>
<rect width="63.1947" height="69.7" transform="matrix(1 0 0 -1 253.708 69.7002)" fill="#DF8200"/>
<rect width="63.1947" height="69.7" transform="matrix(1 0 0 -1 0 69.7002)" fill="#DF8200"/>
</svg>
