<svg width="368" height="368" viewBox="0 0 368 368" fill="none" xmlns="http://www.w3.org/2000/svg">
<rect width="368" height="368" fill="black"/>
<rect x="65.4209" y="65.9707" width="101.682" height="100.242" fill="#FFAA00"/>
<rect width="99.7005" height="102.162" transform="matrix(0.71877 -0.695248 0.71877 0.695248 210.688 182.381)" fill="#FFAA00"/>
<rect width="99.7005" height="102.162" transform="matrix(0.71877 -0.695248 0.71877 0.695248 13 186.011)" fill="#FFAA00"/>
<rect x="210.683" y="206.437" width="101.051" height="100.242" fill="#FFAA00"/>
<rect x="57.8398" y="206.437" width="101.682" height="100.242" fill="#FFAA00"/>
<rect x="210.683" y="65.9707" width="101.051" height="100.242" fill="#FFAA00"/>
<rect width="101.605" height="99.7003" transform="matrix(0.703247 -0.710946 0.703247 0.710946 116.576 276.119)" fill="#FFAA00"/>
<rect width="101.605" height="99.7003" transform="matrix(0.703247 -0.710946 0.703247 0.710946 116.576 92.2358)" fill="#FFAA00"/>
<path d="M184.825 63.8741C193.653 84.211 202.664 153.407 180.683 162.334C158.703 171.261 114.054 116.54 105.226 96.2026C96.3977 75.8657 107.06 52.1424 129.041 43.2151C151.021 34.2878 175.997 43.5372 184.825 63.8741Z" fill="#C70016"/>
<path d="M275.698 265.457C254.663 256.94 198.087 213.705 207.292 192.434C216.497 171.163 287.997 179.91 309.031 188.427C330.066 196.944 339.656 221.091 330.451 242.363C321.246 263.634 296.732 273.973 275.698 265.457Z" fill="#C70016"/>
<path d="M300.539 181.054C278.681 187.338 206.589 188.501 199.797 166.397C193.005 144.293 254.086 107.293 275.944 101.009C297.802 94.725 321.027 107.55 327.819 129.653C334.611 151.757 322.397 174.77 300.539 181.054Z" fill="#C70016"/>
<path d="M270.274 95.6685C261.778 116.137 217.911 171.487 195.788 162.894C173.665 154.302 181.664 85.0218 190.16 64.5532C198.657 44.0847 223.479 34.4571 245.602 43.0493C267.725 51.6415 278.771 75.1999 270.274 95.6685Z" fill="#C70016"/>
<path d="M71.2109 182.594C92.6513 175.084 164.549 169.842 172.667 191.523C180.785 213.205 122.048 253.599 100.607 261.11C79.167 268.62 55.2055 257.133 47.0879 235.451C38.9702 213.77 49.7705 190.105 71.2109 182.594Z" fill="#C70016"/>
<path d="M274.974 273.598C265.15 250.967 217.358 189.306 195.377 198.233C173.396 207.161 185.551 283.296 195.375 305.926C205.198 328.557 230.981 339.665 252.962 330.738C274.942 321.811 284.797 296.228 274.974 273.598Z" fill="#C70016"/>
<path d="M180.857 302.508C189.685 282.171 198.696 212.976 176.715 204.048C154.735 195.121 110.086 249.843 101.258 270.18C92.43 290.517 103.092 314.24 125.073 323.167C147.053 332.094 172.029 322.845 180.857 302.508Z" fill="#C70016"/>
<path d="M104.569 101.894C125.621 110.371 182.284 153.499 173.122 174.787C163.961 196.076 92.4432 187.464 71.3913 178.987C50.3394 170.51 40.7006 146.381 49.8624 125.092C59.0242 103.804 83.5173 93.4176 104.569 101.894Z" fill="#C70016"/>
<ellipse cx="189.523" cy="182.175" rx="33.7889" ry="33.8395" fill="black"/>
</svg>
