<svg width="368" height="368" viewBox="0 0 368 368" fill="none" xmlns="http://www.w3.org/2000/svg">
<g clip-path="url(#clip0_109_806)">
<rect width="368" height="368" fill="black"/>
<rect x="0.00292969" y="-6" width="183.999" height="190.061" fill="#FFAA00"/>
<rect x="183.999" y="-6" width="183.999" height="190.061" fill="#C70016"/>
<rect x="367.999" y="374.121" width="183.999" height="190.061" transform="rotate(180 367.999 374.121)" fill="#FFAA00"/>
<rect x="183.999" y="374.121" width="183.999" height="190.061" transform="rotate(180 183.999 374.121)" fill="#C70016"/>
<path d="M183.999 94.6993C183.999 88.6567 188.555 83.5864 194.564 82.9429C201.107 82.2421 206.963 87.0183 207.592 93.5687L207.976 97.5623C208.573 103.776 213.794 108.52 220.036 108.52C226.301 108.52 231.533 113.295 232.102 119.534L232.396 122.751C233.02 129.579 238.59 134.898 245.439 135.206L245.752 135.22C253.564 135.571 259.424 142.498 258.476 150.261L258.366 151.16C257.506 158.196 262.641 164.547 269.701 165.18L273.001 165.476C278.207 165.943 282.009 170.603 281.422 175.796C280.889 180.503 276.907 184.06 272.17 184.06H205.646C193.691 184.06 183.999 174.368 183.999 162.413V94.6993Z" fill="#FFAA00"/>
<path d="M183.999 94.7262C183.999 88.6686 179.431 83.5862 173.407 82.9425C166.851 82.2418 160.984 87.0273 160.352 93.5905L159.972 97.5385C159.372 103.766 154.139 108.52 147.882 108.52C141.604 108.52 136.36 113.305 135.788 119.558L135.497 122.729C134.871 129.57 129.29 134.898 122.427 135.206L122.079 135.221C114.267 135.571 108.408 142.499 109.358 150.26L109.465 151.133C110.328 158.183 105.183 164.547 98.1086 165.18L94.7836 165.478C89.5765 165.944 85.7737 170.605 86.3627 175.799C86.8962 180.505 90.8774 184.06 95.6132 184.06H162.352C174.307 184.06 183.999 174.368 183.999 162.413V94.7262Z" fill="black"/>
<path d="M183.999 266.035C183.999 272.092 179.431 277.175 173.407 277.818C166.851 278.519 160.984 273.733 160.352 267.17L159.972 263.222C159.372 256.994 154.139 252.241 147.882 252.241C141.604 252.241 136.36 247.455 135.788 241.203L135.497 238.032C134.871 231.191 129.29 225.863 122.427 225.555L122.079 225.54C114.267 225.189 108.408 218.262 109.358 210.501L109.465 209.628C110.328 202.578 105.183 196.213 98.1086 195.581L94.7836 195.283C89.5765 194.817 85.7737 190.156 86.3627 184.961C86.8962 180.256 90.8774 176.701 95.6132 176.701H162.352C174.307 176.701 183.999 186.392 183.999 198.348V266.035Z" fill="#FFAA00"/>
<path d="M183.999 266.061C183.999 272.104 188.555 277.174 194.564 277.818C201.107 278.519 206.963 273.742 207.592 267.192L207.976 263.198C208.573 256.984 213.794 252.241 220.036 252.241C226.301 252.241 231.533 247.465 232.102 241.227L232.396 238.009C233.02 231.181 238.59 225.863 245.439 225.555L245.752 225.541C253.564 225.19 259.424 218.263 258.476 210.5L258.366 209.6C257.506 202.564 262.641 196.214 269.701 195.581L273.001 195.285C278.207 194.818 282.009 190.158 281.422 184.965C280.889 180.257 276.907 176.701 272.17 176.701H205.646C193.691 176.701 183.999 186.392 183.999 198.348V266.061Z" fill="black"/>
<rect width="80.3317" height="79.5479" transform="matrix(0.690277 -0.723545 0.690277 0.723545 129.104 184.043)" fill="#0060A7"/>
</g>
<defs>
<clipPath id="clip0_109_806">
<rect width="368" height="368" fill="white"/>
</clipPath>
</defs>
</svg>
