<svg width="368" height="368" viewBox="0 0 368 368" fill="none" xmlns="http://www.w3.org/2000/svg">
<rect width="368" height="368" fill="black"/>
<ellipse cx="34.0711" cy="36.7418" rx="34.0711" ry="36.7418" transform="matrix(1 0 0 -1 147.471 318.599)" fill="#C70016"/>
<ellipse cx="88.3116" cy="184.661" rx="35.5278" ry="35.2041" transform="rotate(-90 88.3116 184.661)" fill="#C70016"/>
<ellipse cx="185.589" cy="87.1422" rx="34.0711" ry="36.7418" fill="#C70016"/>
<ellipse cx="35.5278" cy="35.2851" rx="35.5278" ry="35.2851" transform="matrix(0 -1 -1 0 315.643 220.189)" fill="#C70016"/>
<ellipse cx="150.605" cy="78.5507" rx="150.605" ry="78.5507" transform="matrix(-0.691993 -0.721904 -0.691993 0.721904 340.148 236.531)" fill="#FFAA00"/>
<ellipse cx="150.605" cy="78.5507" rx="150.605" ry="78.5507" transform="matrix(0.691993 -0.721904 0.691993 0.721904 23.002 236.531)" fill="#FFAA00"/>
<ellipse cx="185.589" cy="46.5159" rx="24.0359" ry="27.5159" fill="#C70016"/>
<ellipse cx="24.0359" cy="27.5159" rx="24.0359" ry="27.5159" transform="matrix(1 0 0 -1 157.506 350)" fill="#C70016"/>
<ellipse cx="25.088" cy="26.3829" rx="25.088" ry="26.3829" transform="matrix(0 -1 -1 0 345.586 207.241)" fill="#C70016"/>
<ellipse cx="49.3848" cy="182.153" rx="25.088" ry="26.3829" transform="rotate(-90 49.3848 182.153)" fill="#C70016"/>
<path d="M138.24 136.843C137.187 135.138 139.319 133.263 140.876 134.525L181.04 167.076C181.7 167.611 182.646 167.605 183.299 167.062L221.814 135.024C223.37 133.73 225.535 135.62 224.463 137.336L197.263 180.857C196.905 181.43 196.902 182.157 197.256 182.733L223.185 224.901C224.277 226.677 221.952 228.561 220.442 227.124L183.387 191.885C182.706 191.237 181.639 191.231 180.95 191.869L142.081 227.883C140.566 229.287 138.277 227.418 139.349 225.653L165.414 182.725C165.761 182.153 165.758 181.435 165.407 180.866L138.24 136.843Z" fill="#D9D9D9"/>
<ellipse cx="10.1971" cy="9.63055" rx="10.1971" ry="9.63055" transform="matrix(0 -1 -1 0 191.01 189.922)" fill="#BD0B00"/>
</svg>
