<svg width="369" height="369" viewBox="0 0 369 369" fill="none" xmlns="http://www.w3.org/2000/svg">
<rect width="370" height="369" fill="black"/>
<path d="M167 102.726C167 96.6686 162.432 91.5862 156.408 90.9425C149.852 90.2418 143.985 95.0273 143.353 101.591L142.973 105.538C142.373 111.766 137.14 116.52 130.883 116.52C124.605 116.52 119.361 121.305 118.789 127.558L118.498 130.729C117.872 137.57 112.291 142.898 105.428 143.206L105.08 143.221C97.2684 143.571 91.4091 150.499 92.3594 158.26L92.4662 159.133C93.3294 166.183 88.1841 172.547 81.1096 173.18L77.7845 173.478C72.5774 173.944 68.7747 178.605 69.3637 183.799C69.8972 188.505 73.8784 192.06 78.6142 192.06H145.353C157.308 192.06 167 182.368 167 170.413V102.726Z" fill="black"/>
<rect x="87.1758" y="19" width="97.1163" height="331" rx="48.5582" fill="#FFAA00"/>
<rect x="184.293" y="19" width="96.5417" height="331" rx="48.2708" fill="#0060A7"/>
<rect x="5" y="281.042" width="96.5417" height="358.009" rx="48.2708" transform="rotate(-90 5 281.042)" fill="#0060A7"/>
<rect x="5" y="184.5" width="96.5417" height="358.009" rx="48.2708" transform="rotate(-90 5 184.5)" fill="#FFAA00"/>
<rect x="87.1758" y="87.9585" width="97.1163" height="96.5417" fill="#F1001B"/>
<rect x="184.293" y="184.5" width="96.5417" height="96.5417" fill="#F1001B"/>
<rect x="184.293" y="87.9585" width="96.5417" height="96.5417" fill="#21070A"/>
<rect x="87.1758" y="184.5" width="97.1163" height="96.5417" fill="#21070A"/>
</svg>
