<svg width="1280" height="377" viewBox="0 0 1280 377" fill="none" xmlns="http://www.w3.org/2000/svg">
<path d="M475.906 257.006C470.416 261.87 468.336 267.106 470.392 270.17C472.448 273.233 477.529 273.307 483.019 268.442C488.509 263.578 489.604 255.057 489.851 252.899C487.2 252.619 481.396 252.142 475.906 257.006Z" fill="#D9D9D9"/>
<path d="M482.571 86.8851C487.683 95.339 493.566 98.665 497.333 95.6775C501.1 92.6901 501.69 85.0339 496.578 76.58C491.466 68.126 481.665 66.164 479.18 65.7138C478.591 69.6988 477.46 78.4312 482.571 86.8851Z" fill="#D9D9D9"/>
<path d="M525.67 75.5938C520.562 84.0501 519.91 91.5366 523.67 94.5361C527.43 97.5355 533.887 95.4844 538.996 87.028C544.105 78.5717 542.269 67.3546 541.765 64.5266C538.305 65.2906 530.779 67.1375 525.67 75.5938Z" fill="#D9D9D9"/>
<path d="M554.271 81.3247C551.253 86.3193 551.179 90.9886 553.846 93.1165C556.514 95.2444 560.746 94.3666 563.763 89.372C566.781 84.3774 565.006 77.2015 564.531 75.3896C562.247 75.6492 557.288 76.3301 554.271 81.3247Z" fill="#D9D9D9"/>
<path d="M570.548 42.5808C563.781 42.3286 559.361 45.4591 559.22 50.1972C559.08 54.9353 562.837 59.5173 569.603 59.7694C576.37 60.0216 581.853 52.8946 583.218 51.0619C581.391 48.4413 577.314 42.8329 570.548 42.5808Z" fill="#D9D9D9"/>
<path d="M462.317 45.3219C469.78 45.0783 474.471 41.6694 474.361 36.9863C474.251 32.3031 469.859 28.0575 462.397 28.301C454.935 28.5446 449.297 35.9723 447.896 37.8791C450.054 40.3307 454.855 45.5654 462.317 45.3219Z" fill="#D9D9D9"/>
<path d="M435.356 146.357C441.268 148.59 445.663 147.875 446.554 144.79C447.444 141.705 444.88 137.533 438.968 135.299C433.057 133.065 427.08 136.095 425.582 136.887C426.766 139.175 429.445 144.123 435.356 146.357Z" fill="#D9D9D9"/>
<path d="M581.546 135.864C575.642 138.126 572.491 141.713 573.385 144.797C574.278 147.88 578.507 149.468 584.41 147.206C590.314 144.944 593.527 138.418 594.315 136.755C592.175 135.732 587.449 133.602 581.546 135.864Z" fill="#D9D9D9"/>
<path d="M456.135 86.313C460.268 90.1147 464.323 90.5263 466.359 87.6222C468.396 84.7181 467.928 79.8137 463.795 76.012C459.662 72.2103 453.298 73.74 451.689 74.1573C451.756 76.7891 452.002 82.5113 456.135 86.313Z" fill="#D9D9D9"/>
<path d="M432.28 241.157C423.27 244.963 418.781 251.361 420.605 257.07C422.429 262.779 429.316 265.937 438.325 262.131C447.335 258.325 451.527 246.539 452.547 243.535C449.032 241.534 441.29 237.351 432.28 241.157Z" fill="#D9D9D9"/>
<path d="M550.063 268.824C554.942 274.481 559.726 276.21 562.126 273.495C564.525 270.78 563.968 264.986 559.089 259.329C554.21 253.672 546.704 253.465 544.807 253.448C544.888 256.5 545.184 263.166 550.063 268.824Z" fill="#D9D9D9"/>
<path d="M554.21 194.918C564.958 184.06 566.011 162.657 558.6 152.592C551.188 142.527 530.129 129.644 519.382 140.503C508.635 151.361 503.066 194.121 510.477 204.185C517.888 214.25 543.463 205.777 554.21 194.918Z" fill="#C70016"/>
<path d="M465.577 192.111C455.505 179.897 455.707 158.438 463.678 149.375C471.65 140.312 493.382 130.215 503.453 142.429C513.525 154.643 516.574 197.964 508.602 207.027C500.631 216.09 475.649 204.325 465.577 192.111Z" fill="#C70016"/>
<path d="M517.097 235.7C508.823 235.963 504.931 261.297 504.649 249.658C495.873 233.754 507.06 217.051 519.302 218.004C527.576 217.742 537.535 239.866 527.473 249.376C527.755 261.015 525.37 235.437 517.097 235.7Z" fill="#DF8200"/>
<path d="M515.64 51.2227C507.366 51.4854 502.348 30.2384 502.587 40.1215C494.533 54.1181 506.45 67.6206 518.633 66.0939C526.906 65.8311 535.864 46.4924 525.391 39.0208C525.152 29.1377 523.914 50.96 515.64 51.2227Z" fill="#DF8200"/>
<path d="M441.398 186.237C444.643 177.503 426.2 162.869 435.537 167.435C451.798 164.925 460.36 183.56 454.495 195.924C451.25 204.658 429.568 205.805 426.234 191.345C416.896 186.78 438.153 194.972 441.398 186.237Z" fill="#DF8200"/>
<path d="M573.772 202.018C578.985 209.394 598.885 197.539 591 204.871C585.329 222.533 566.967 222.497 560.184 210.767C554.972 203.391 564.229 180.87 576.929 184.253C584.813 176.921 568.56 194.642 573.772 202.018Z" fill="#DF8200"/>
<path d="M582.948 258.589C592.177 261.627 599.094 259.509 600.564 253.667C602.033 247.825 598.104 240.609 588.875 237.572C579.646 234.535 570.193 241.2 567.823 242.932C569.627 246.93 573.719 255.552 582.948 258.589Z" fill="#D9D9D9"/>
<ellipse cx="5.6501" cy="4.92536" rx="5.6501" ry="4.92536" transform="matrix(-0.00760746 -0.999971 0.99995 -0.00995632 513.745 270.06)" fill="#D9D9D9"/>
<ellipse cx="5.6501" cy="4.92536" rx="5.6501" ry="4.92536" transform="matrix(-0.00760746 -0.999971 0.99995 -0.00995632 458.378 115.196)" fill="#D9D9D9"/>
<ellipse cx="5.6501" cy="4.92536" rx="5.6501" ry="4.92536" transform="matrix(-0.00760746 -0.999971 0.99995 -0.00995632 556.939 119.865)" fill="#D9D9D9"/>
<ellipse cx="5.6501" cy="4.92536" rx="5.6501" ry="4.92536" transform="matrix(-0.00760746 -0.999971 0.99995 -0.00995632 466.753 245.097)" fill="#D9D9D9"/>
<ellipse cx="5.6501" cy="4.92536" rx="5.6501" ry="4.92536" transform="matrix(-0.00760746 -0.999971 0.99995 -0.00995632 477.606 52.8398)" fill="#D9D9D9"/>
<ellipse cx="5.6501" cy="4.92536" rx="5.6501" ry="4.92536" transform="matrix(-0.00760746 -0.999971 0.99995 -0.00995632 541.646 52.2002)" fill="#D9D9D9"/>
<ellipse cx="5.6501" cy="4.92536" rx="5.6501" ry="4.92536" transform="matrix(-0.00760746 -0.999971 0.99995 -0.00995632 543.089 241.512)" fill="#D9D9D9"/>
<path d="M480.233 148.397C484.042 125.814 513.1 117.463 528.331 121.37C543.562 125.277 553.178 146.882 549.369 169.465C545.56 192.048 520.787 213.734 505.556 209.827C490.325 205.92 476.424 170.98 480.233 148.397Z" fill="#D64851"/>
<path d="M493.637 160.784C496.41 144.344 510.117 139.945 521.115 142.767C532.114 145.588 538.894 159.759 536.121 176.199C533.349 192.639 519.037 213.564 508.038 210.742C497.04 207.921 490.864 177.224 493.637 160.784Z" fill="#6A2129"/>
<path d="M1055.59 248.787C1050.26 253.733 1048.26 259.045 1050.26 262.141C1052.27 265.238 1057.21 265.295 1062.53 260.348C1067.85 255.401 1068.89 246.766 1069.13 244.578C1066.55 244.303 1060.91 243.84 1055.59 248.787Z" fill="#D9D9D9"/>
<path d="M1061.6 76.4209C1066.59 84.968 1072.32 88.3173 1075.97 85.2778C1079.62 82.2383 1080.18 74.4798 1075.18 65.9327C1070.19 57.3855 1060.66 55.4315 1058.25 54.9839C1057.68 59.0232 1056.61 67.8737 1061.6 76.4209Z" fill="#D9D9D9"/>
<path d="M1103.46 64.8324C1098.52 73.4168 1097.9 81.0033 1101.57 84.0291C1105.23 87.0548 1111.5 84.9547 1116.44 76.3703C1121.38 67.786 1119.57 56.4286 1119.07 53.5653C1115.71 54.3512 1108.4 56.2481 1103.46 64.8324Z" fill="#D9D9D9"/>
<path d="M1131.27 70.5409C1128.35 75.6111 1128.29 80.3417 1130.89 82.4882C1133.48 84.6347 1137.6 83.7309 1140.51 78.6607C1143.43 73.5905 1141.69 66.3269 1141.22 64.4931C1139 64.7638 1134.19 65.4707 1131.27 70.5409Z" fill="#D9D9D9"/>
<path d="M1146.98 31.234C1140.4 31.0018 1136.11 34.1883 1135.99 38.9889C1135.87 43.7894 1139.53 48.4183 1146.11 48.6505C1152.68 48.8827 1157.99 41.6438 1159.32 39.7825C1157.53 37.1339 1153.56 31.4662 1146.98 31.234Z" fill="#D9D9D9"/>
<path d="M1027.78 50.6626C1035.03 50.3902 1039.58 46.9207 1039.46 42.1767C1039.34 37.4327 1035.06 33.1467 1027.81 33.4191C1020.56 33.6914 1015.1 41.2355 1013.74 43.1721C1015.85 45.6483 1020.53 50.9349 1027.78 50.6626Z" fill="#D9D9D9"/>
<path d="M1015.87 136.831C1021.63 139.073 1025.9 138.333 1026.75 135.205C1027.61 132.077 1025.11 127.859 1019.35 125.616C1013.6 123.374 1007.8 126.463 1006.35 127.271C1007.51 129.585 1010.12 134.588 1015.87 136.831Z" fill="#D9D9D9"/>
<path d="M1157.93 125.698C1152.2 128.009 1149.14 131.654 1150.02 134.775C1150.9 137.896 1155.01 139.49 1160.74 137.178C1166.48 134.867 1169.58 128.244 1170.34 126.557C1168.26 125.528 1163.66 123.386 1157.93 125.698Z" fill="#D9D9D9"/>
<path d="M1035.9 75.9296C1039.93 79.7668 1043.87 80.1698 1045.84 77.2208C1047.82 74.2718 1047.35 69.3049 1043.32 65.4677C1039.29 61.6305 1033.11 63.2021 1031.55 63.6303C1031.62 66.2963 1031.88 72.0924 1035.9 75.9296Z" fill="#D9D9D9"/>
<path d="M1013.14 232.879C1004.39 236.766 1000.05 243.263 1001.84 249.04C1003.62 254.817 1010.33 257.994 1019.07 254.107C1027.82 250.22 1031.86 238.266 1032.84 235.219C1029.42 233.203 1021.89 228.992 1013.14 232.879Z" fill="#D9D9D9"/>
<path d="M1127.69 260.501C1132.44 266.216 1137.1 267.951 1139.42 265.192C1141.75 262.434 1141.19 256.567 1136.43 250.852C1131.67 245.138 1124.38 244.954 1122.54 244.943C1122.62 248.034 1122.93 254.787 1127.69 260.501Z" fill="#D9D9D9"/>
<path d="M1131.52 185.617C1141.94 174.58 1142.9 152.893 1135.67 142.723C1128.44 132.552 1107.94 119.573 1097.52 130.61C1087.11 141.647 1081.81 184.985 1089.04 195.155C1096.27 205.326 1121.1 196.654 1131.52 185.617Z" fill="#C70016"/>
<path d="M1045.37 183.078C1035.55 170.739 1035.69 149 1043.41 139.791C1051.13 130.582 1072.23 120.278 1082.05 132.617C1091.87 144.956 1094.95 188.833 1087.23 198.041C1079.51 207.25 1055.19 195.417 1045.37 183.078Z" fill="#C70016"/>
<path d="M1095.56 227.061C1087.52 227.356 1083.81 253.036 1083.5 241.245C1074.93 225.162 1085.76 208.201 1097.66 209.126C1105.7 208.831 1115.44 231.211 1105.69 240.881C1105.99 252.672 1103.6 226.767 1095.56 227.061Z" fill="#DF8200"/>
<path d="M1093.65 40.1774C1085.61 40.472 1080.67 18.9645 1080.93 28.9759C1073.14 43.1831 1084.76 56.821 1096.6 55.2326C1104.64 54.938 1113.29 35.3159 1103.09 27.7826C1102.83 17.7711 1101.69 39.8828 1093.65 40.1774Z" fill="#DF8200"/>
<path d="M1021.86 177.211C1024.99 168.351 1007.02 153.589 1016.11 158.183C1031.91 155.584 1040.28 174.433 1034.61 186.978C1031.48 195.838 1010.41 197.074 1007.13 182.437C998.046 177.844 1018.73 186.07 1021.86 177.211Z" fill="#DF8200"/>
<path d="M1150.55 192.744C1155.64 200.198 1174.95 188.12 1167.3 195.574C1161.84 213.487 1143.99 213.514 1137.37 201.653C1132.28 194.199 1141.22 171.352 1153.57 174.736C1161.21 167.281 1145.47 185.289 1150.55 192.744Z" fill="#DF8200"/>
<path d="M1159.62 250.021C1168.6 253.067 1175.32 250.897 1176.73 244.974C1178.14 239.051 1174.31 231.754 1165.33 228.709C1156.35 225.664 1147.18 232.448 1144.88 234.211C1146.65 238.255 1150.65 246.976 1159.62 250.021Z" fill="#D9D9D9"/>
<ellipse cx="5.7239" cy="4.78699" rx="5.7239" ry="4.78699" transform="matrix(-0.00999018 -0.99995 0.999903 -0.0139093 1092.4 261.881)" fill="#D9D9D9"/>
<ellipse cx="5.7239" cy="4.78699" rx="5.7239" ry="4.78699" transform="matrix(-0.00999018 -0.99995 0.999903 -0.0139093 1038.16 105.182)" fill="#D9D9D9"/>
<ellipse cx="5.7239" cy="4.78699" rx="5.7239" ry="4.78699" transform="matrix(-0.00999018 -0.99995 0.999903 -0.0139093 1133.97 109.575)" fill="#D9D9D9"/>
<ellipse cx="5.7239" cy="4.78699" rx="5.7239" ry="4.78699" transform="matrix(-0.00999018 -0.99995 0.999903 -0.0139093 1046.66 236.753)" fill="#D9D9D9"/>
<ellipse cx="5.7239" cy="4.78699" rx="5.7239" ry="4.78699" transform="matrix(-0.00999018 -0.99995 0.999903 -0.0139093 1056.68 41.9443)" fill="#D9D9D9"/>
<ellipse cx="5.7239" cy="4.78699" rx="5.7239" ry="4.78699" transform="matrix(-0.00999018 -0.99995 0.999903 -0.0139093 1118.92 41.0771)" fill="#D9D9D9"/>
<ellipse cx="5.7239" cy="4.78699" rx="5.7239" ry="4.78699" transform="matrix(-0.00999018 -0.99995 0.999903 -0.0139093 1120.84 232.857)" fill="#D9D9D9"/>
<path d="M1059.49 138.743C1063.13 115.851 1091.35 107.292 1106.16 111.198C1120.98 115.104 1130.38 136.957 1126.74 159.849C1123.1 182.74 1099.08 204.794 1084.27 200.888C1069.46 196.982 1055.85 161.634 1059.49 138.743Z" fill="#D64851"/>
<path d="M1072.56 151.247C1075.21 134.583 1088.52 130.079 1099.22 132.9C1109.91 135.72 1116.54 150.053 1113.89 166.718C1111.24 183.382 1097.39 204.629 1086.69 201.808C1075.99 198.988 1069.91 167.912 1072.56 151.247Z" fill="#6A2129"/>
<path d="M806.485 148.603L814.139 128.332L804.525 109.339L796.89 130.559L806.485 148.603Z" fill="#DF8200"/>
<path d="M759.337 35.8868C753.794 36.8431 750.603 40.2629 751.108 44.3061C751.613 48.3494 755.272 51.5861 760.815 50.6298C766.359 49.6735 769.892 42.6801 770.765 40.8894C768.934 38.9826 764.88 34.9305 759.337 35.8868Z" fill="#D9D9D9"/>
<path d="M784.895 17.1938C781.17 12.2977 776.975 11.0527 774.36 13.7635C771.746 16.4743 771.439 21.8266 775.163 26.7227C778.888 31.6188 785.827 31.2395 787.586 31.1108C787.946 28.2752 788.62 22.0899 784.895 17.1938Z" fill="#D9D9D9"/>
<path d="M806.643 12.5658C806.1 6.044 803.337 2.14715 799.859 2.53574C796.38 2.92434 793.435 7.03638 793.977 13.5581C794.52 20.0799 800.318 24.5549 801.804 25.6631C803.524 23.6199 807.185 19.0875 806.643 12.5658Z" fill="#D9D9D9"/>
<path d="M841 45.2373C846.499 46.4964 850.483 44.5161 851.159 40.5074C851.835 36.4987 849.308 32.0211 843.809 30.762C838.309 29.5029 832.984 34.7188 831.651 36.0669C832.834 38.5781 835.501 43.9782 841 45.2373Z" fill="#D9D9D9"/>
<path d="M828.792 24.1796C831.703 18.5814 831.491 13.5258 828.508 11.397C825.525 9.26815 821.059 10.492 818.148 16.0902C815.236 21.6884 817.581 29.3355 818.202 31.2645C820.626 30.8358 825.881 29.7778 828.792 24.1796Z" fill="#D9D9D9"/>
<path d="M846.431 167.431C849.342 161.832 849.13 156.777 846.147 154.648C843.164 152.519 838.697 153.743 835.786 159.341C832.875 164.939 835.22 172.586 835.841 174.516C838.265 174.087 843.52 173.029 846.431 167.431Z" fill="#D9D9D9"/>
<path d="M749.797 190.117C744.192 191.854 739.946 190.229 738.989 186.291C738.031 182.352 740.356 177.666 745.96 175.928C751.565 174.19 757.407 178.924 758.872 180.152C757.811 182.76 755.401 188.379 749.797 190.117Z" fill="#D9D9D9"/>
<path d="M761.065 168.046C757.695 162.719 757.588 157.659 760.535 155.274C763.482 152.89 768.179 153.719 771.549 159.046C774.92 164.373 772.988 172.205 772.47 174.183C769.937 173.968 764.436 173.374 761.065 168.046Z" fill="#D9D9D9"/>
<path d="M867.389 275.941C875.733 274.678 880.564 269.303 879.844 262.729C879.124 256.154 873.654 250.724 865.31 251.987C856.966 253.251 851.585 264.395 850.255 267.251C852.989 270.433 859.045 277.205 867.389 275.941Z" fill="#D9D9D9"/>
<path d="M847.571 253.797C858.995 242.029 860.11 218.836 852.229 207.93C844.348 197.025 821.958 183.066 810.535 194.834C799.112 206.602 793.2 252.939 801.081 263.844C808.962 274.75 836.148 265.565 847.571 253.797Z" fill="#C70016"/>
<path d="M753.348 250.768C742.638 237.534 742.848 214.28 751.321 204.458C759.794 194.636 782.895 183.692 793.604 196.926C804.314 210.161 807.564 257.104 799.091 266.926C790.618 276.748 764.058 264.003 753.348 250.768Z" fill="#C70016"/>
<path d="M768.915 203.394C772.959 178.921 803.848 169.868 820.041 174.101C836.234 178.333 846.461 201.743 842.417 226.216C838.372 250.688 812.041 274.191 795.848 269.959C779.655 265.726 764.87 227.866 768.915 203.394Z" fill="#D64851"/>
<path d="M783.169 216.818C786.114 199.003 800.684 194.234 812.377 197.29C824.071 200.346 831.282 215.702 828.337 233.518C825.393 251.333 810.182 274.009 798.489 270.953C786.796 267.897 780.225 234.634 783.169 216.818Z" fill="#6A2129"/>
<path d="M833.904 47.5746C841.428 55.5547 843.106 72.5295 838.729 81.0005C834.353 89.4715 821.19 101.031 813.666 93.0504C806.142 85.0703 800.525 51.3726 804.902 42.9015C809.279 34.4305 826.38 39.5945 833.904 47.5746Z" fill="#C70016"/>
<path d="M776.126 55.2894C770.11 65.6361 771.235 82.7077 776.862 89.43C782.489 96.1524 797.155 102.847 803.17 92.5003C809.185 82.1536 809.174 47.4762 803.546 40.7538C797.919 34.0315 782.141 44.9426 776.126 55.2894Z" fill="#C70016"/>
<path d="M787.718 89.188C791.251 106.932 810.622 111.783 820.392 107.73C830.163 103.678 835.446 85.8833 831.913 68.1398C828.38 50.3962 811.192 34.6633 801.422 38.7158C791.651 42.7684 784.185 71.4444 787.718 89.188Z" fill="#D64851"/>
<path d="M795.904 78.4949C798.476 91.4119 807.635 94.0667 814.69 91.1402C821.746 88.2138 825.52 76.5123 822.948 63.5954C820.376 50.6785 810.058 34.9051 803.002 37.8315C795.947 40.7579 793.332 65.578 795.904 78.4949Z" fill="#6A2129"/>
<path d="M737.123 237.153C732.228 233.963 727.916 234.402 726.21 237.967C724.505 241.533 725.721 246.706 730.616 249.897C735.511 253.087 741.956 250.059 743.581 249.26C743.122 246.444 742.018 240.343 737.123 237.153Z" fill="#D9D9D9"/>
<path d="M738.317 257.078C729.69 256.816 724.071 261.191 723.918 267.73C723.765 274.269 728.58 280.543 737.207 280.806C745.834 281.068 752.786 271.166 754.516 268.62C752.173 265.027 746.945 257.341 738.317 257.078Z" fill="#D9D9D9"/>
<path d="M838.01 132.708C832.064 125.121 843.449 105.328 836.694 112.566C821.284 114.932 820.127 135.711 829.68 146.073C835.625 153.66 855.406 148.352 853.346 133.21C860.101 125.972 843.956 140.295 838.01 132.708Z" fill="#DF8200"/>
<path d="M777.129 131.165C771.1 138.659 753.375 126.845 760.049 134.187C763.211 151.983 781.018 151.797 789.146 139.892C795.175 132.398 789.179 109.723 776.419 113.244C769.745 105.902 783.158 123.671 777.129 131.165Z" fill="#DF8200"/>
<ellipse cx="5.72147" cy="5.67177" rx="5.72147" ry="5.67177" transform="matrix(-0.629081 -0.77734 0.670485 -0.741923 841.688 106.482)" fill="#D9D9D9"/>
<ellipse cx="5.72147" cy="5.67177" rx="5.72147" ry="5.67177" transform="matrix(-0.629081 -0.77734 0.670485 -0.741923 763.09 106.807)" fill="#D9D9D9"/>
<path d="M231.087 141.019L238.428 120.59L228.523 101.802L221.216 123.179L231.087 141.019Z" fill="#DF8200"/>
<path d="M295.254 234.997C300.174 231.861 302.159 227.364 300.491 223.773C298.823 220.182 294.434 218.621 289.514 221.756C284.594 224.891 283.343 232.882 283.052 234.915C285.333 235.965 290.334 238.132 295.254 234.997Z" fill="#D9D9D9"/>
<path d="M184.381 33.4358C178.853 34.5085 175.715 37.9948 176.282 42.0268C176.85 46.0588 180.558 49.2181 186.085 48.1454C191.613 47.0727 195.039 40.0062 195.883 38.1974C194.024 36.3294 189.908 32.3632 184.381 33.4358Z" fill="#D9D9D9"/>
<path d="M207.479 10.0812C203.679 5.26423 199.465 4.10761 196.893 6.87291C194.321 9.63821 194.096 14.9962 197.895 19.8132C201.694 24.6302 208.627 24.1051 210.384 23.9394C210.699 21.0967 211.278 14.8982 207.479 10.0812Z" fill="#D9D9D9"/>
<path d="M234.975 11.0762C234.332 4.56685 231.509 0.728693 228.038 1.19034C224.566 1.65199 221.684 5.82529 222.326 12.3346C222.969 18.8439 228.835 23.1963 230.339 24.2731C232.026 22.1941 235.617 17.5855 234.975 11.0762Z" fill="#D9D9D9"/>
<path d="M274.69 41.4486C280.208 42.5919 284.16 40.5281 284.774 36.5059C285.389 32.4836 282.793 28.0598 277.276 26.9165C271.758 25.7732 266.514 31.1002 265.202 32.4761C266.423 34.9621 269.172 40.3053 274.69 41.4486Z" fill="#D9D9D9"/>
<path d="M260.342 20.3855C263.166 14.727 262.876 9.67663 259.861 7.61084C256.846 5.54506 252.399 6.86256 249.575 12.5211C246.75 18.1796 249.212 25.7762 249.862 27.6919C252.279 27.2122 257.517 26.044 260.342 20.3855Z" fill="#D9D9D9"/>
<path d="M283.84 179.8C289.358 180.943 293.31 178.88 293.925 174.857C294.539 170.835 291.944 166.411 286.426 165.268C280.908 164.125 275.664 169.452 274.352 170.828C275.573 173.314 278.323 178.657 283.84 179.8Z" fill="#D9D9D9"/>
<path d="M271.312 159.001C274.137 153.342 273.847 148.292 270.832 146.226C267.817 144.16 263.37 145.478 260.545 151.136C257.721 156.795 260.183 164.391 260.833 166.307C263.25 165.827 268.488 164.659 271.312 159.001Z" fill="#D9D9D9"/>
<path d="M175.044 183.717C169.467 185.572 165.197 184.036 164.179 180.118C163.162 176.201 165.414 171.466 170.991 169.611C176.567 167.755 182.481 172.366 183.965 173.563C182.944 176.192 180.621 181.861 175.044 183.717Z" fill="#D9D9D9"/>
<path d="M185.963 161.412C182.511 156.156 182.327 151.099 185.237 148.653C188.146 146.207 192.855 146.937 196.307 152.192C199.759 157.448 197.948 165.319 197.461 167.308C194.924 167.146 189.415 166.667 185.963 161.412Z" fill="#D9D9D9"/>
<path d="M293.933 267.053C302.256 265.615 307.003 260.139 306.182 253.581C305.361 247.023 299.809 241.708 291.485 243.147C283.162 244.585 277.953 255.841 276.668 258.724C279.451 261.849 285.609 268.492 293.933 267.053Z" fill="#D9D9D9"/>
<path d="M273.781 245.331C285.022 233.325 285.78 210.112 277.733 199.374C269.686 188.635 247.085 175.15 235.844 187.156C224.604 199.162 219.405 245.616 227.452 256.354C235.5 267.092 262.541 257.337 273.781 245.331Z" fill="#C70016"/>
<path d="M179.523 244.283C168.612 231.276 168.465 208.022 176.785 198.023C185.105 188.025 208.034 176.597 218.945 189.604C229.856 202.611 233.827 249.479 225.507 259.477C217.187 269.476 190.435 257.29 179.523 244.283Z" fill="#C70016"/>
<path d="M194.359 196.591C198.027 172.037 228.772 162.337 245.027 166.228C261.282 170.119 271.868 193.31 268.2 217.864C264.532 242.418 238.566 266.47 222.311 262.579C206.056 258.688 190.691 221.144 194.359 196.591Z" fill="#D64851"/>
<path d="M208.821 209.712C211.491 191.837 225.985 186.763 237.724 189.573C249.462 192.383 256.908 207.584 254.238 225.459C251.567 243.333 236.708 266.325 224.97 263.516C213.232 260.706 206.15 227.586 208.821 209.712Z" fill="#6A2129"/>
<path d="M256.944 39.4299C264.589 47.2506 266.528 64.1874 262.282 72.749C258.037 81.3107 245.054 93.1446 237.408 85.3239C229.763 77.5032 223.629 43.9288 227.875 35.3672C232.121 26.8055 249.298 31.6092 256.944 39.4299Z" fill="#C70016"/>
<path d="M199.292 48.3573C193.436 58.8289 194.823 75.8741 200.553 82.4771C206.282 89.0801 221.048 95.4655 226.903 84.9939C232.759 74.5224 232.214 39.8507 226.484 33.2477C220.754 26.6448 205.147 37.8858 199.292 48.3573Z" fill="#C70016"/>
<path d="M211.407 82.0053C215.212 99.6718 234.654 104.115 244.361 99.8581C254.067 95.6008 259.076 77.698 255.271 60.0315C251.466 42.365 234.039 26.9959 224.332 31.2531C214.626 35.5104 207.601 64.3388 211.407 82.0053Z" fill="#D64851"/>
<path d="M219.429 71.1422C222.199 84.003 231.397 86.4649 238.406 83.3907C245.415 80.3164 249.009 68.5374 246.239 55.6766C243.469 42.8158 232.91 27.2618 225.901 30.336C218.891 33.4103 216.658 58.2814 219.429 71.1422Z" fill="#6A2129"/>
<path d="M600.758 43.5696C595.23 44.6423 592.092 48.1286 592.659 52.1606C593.227 56.1925 596.935 59.3518 602.462 58.2792C607.99 57.2065 611.416 50.14 612.26 48.3312C610.401 46.4632 606.285 42.497 600.758 43.5696Z" fill="#D9D9D9"/>
<path d="M623.858 20.217C620.058 15.4 615.844 14.2434 613.272 17.0087C610.7 19.774 610.475 25.1319 614.274 29.9489C618.073 34.7659 625.006 34.2408 626.762 34.0752C627.078 31.2325 627.657 25.034 623.858 20.217Z" fill="#D9D9D9"/>
<path d="M651.354 21.21C650.712 14.7006 647.889 10.8625 644.417 11.3241C640.945 11.7858 638.064 15.9591 638.706 22.4684C639.349 28.9777 645.215 33.3301 646.718 34.4069C648.406 32.3279 651.997 27.7193 651.354 21.21Z" fill="#D9D9D9"/>
<path d="M691.068 51.5814C696.586 52.7247 700.538 50.661 701.152 46.6387C701.767 42.6164 699.171 38.1926 693.654 37.0493C688.136 35.906 682.892 41.233 681.58 42.6089C682.801 45.0949 685.55 50.4381 691.068 51.5814Z" fill="#D9D9D9"/>
<path d="M676.715 30.5193C679.539 24.8608 679.249 19.8104 676.234 17.7446C673.219 15.6788 668.772 16.9963 665.948 22.6548C663.123 28.3133 665.585 35.91 666.235 37.8257C668.652 37.346 673.89 36.1778 676.715 30.5193Z" fill="#D9D9D9"/>
<path d="M673.325 49.5637C680.97 57.3844 682.909 74.3212 678.663 82.8828C674.417 91.4445 661.434 103.278 653.789 95.4576C646.144 87.6369 640.01 54.0626 644.256 45.5009C648.502 36.9393 665.679 41.743 673.325 49.5637Z" fill="#C70016"/>
<path d="M615.67 58.4911C609.815 68.9627 611.202 86.0079 616.931 92.6109C622.661 99.2139 637.427 105.599 643.282 95.1277C649.138 84.6562 648.593 49.9845 642.863 43.3815C637.133 36.7785 621.526 48.0196 615.67 58.4911Z" fill="#C70016"/>
<path d="M627.788 92.1391C631.593 109.806 651.035 114.249 660.742 109.992C670.448 105.735 675.457 87.8318 671.652 70.1653C667.846 52.4988 650.419 37.1297 640.713 41.3869C631.006 45.6442 623.982 74.4726 627.788 92.1391Z" fill="#D64851"/>
<path d="M635.808 81.278C638.578 94.1388 647.775 96.6007 654.785 93.5264C661.794 90.4521 665.388 78.6732 662.618 65.8124C659.848 52.9515 649.289 37.3975 642.279 40.4718C635.27 43.5461 633.037 68.4172 635.808 81.278Z" fill="#6A2129"/>
<path d="M357.245 48.1145C351.717 49.1872 348.579 52.6735 349.147 56.7055C349.714 60.7375 353.422 63.8968 358.95 62.8241C364.478 61.7514 367.903 54.6849 368.748 52.8761C366.888 51.0081 362.773 47.0419 357.245 48.1145Z" fill="#D9D9D9"/>
<path d="M380.845 20.6838C377.046 15.8668 372.831 14.7102 370.259 17.4754C367.687 20.2407 367.462 25.5987 371.261 30.4157C375.061 35.2327 381.993 34.7076 383.75 34.542C384.065 31.6993 384.644 25.5008 380.845 20.6838Z" fill="#D9D9D9"/>
<path d="M413.069 22.6758C412.427 16.1665 409.604 12.3283 406.132 12.79C402.66 13.2516 399.778 17.4249 400.421 23.9342C401.064 30.4435 406.93 34.796 408.433 35.8727C410.121 33.7937 413.712 29.1851 413.069 22.6758Z" fill="#D9D9D9"/>
<path d="M441.032 25.8513C443.857 20.1928 443.567 15.1425 440.552 13.0767C437.536 11.0109 433.09 12.3284 430.265 17.9869C427.44 23.6454 429.902 31.242 430.553 33.1577C432.97 32.678 438.208 31.5098 441.032 25.8513Z" fill="#D9D9D9"/>
<path d="M440.137 53.4758C448.649 61.2934 450.803 78.2294 446.072 86.7928C441.341 95.3562 426.879 107.195 418.367 99.3779C409.856 91.5604 403.036 57.9886 407.767 49.4251C412.498 40.8617 431.626 45.6583 440.137 53.4758Z" fill="#C70016"/>
<path d="M375.93 62.4277C369.406 72.9017 370.945 89.9464 377.324 96.547C383.702 103.148 400.144 109.527 406.668 99.0529C413.192 88.579 412.597 53.9075 406.218 47.3069C399.839 40.7062 382.454 51.9538 375.93 62.4277Z" fill="#C70016"/>
<path d="M389.41 96.0699C393.642 113.735 415.293 118.17 426.104 113.909C436.915 109.648 442.498 91.7428 438.266 74.0779C434.034 56.413 414.632 41.051 403.821 45.3123C393.01 49.5736 385.178 78.405 389.41 96.0699Z" fill="#D64851"/>
<path d="M398.346 85.2043C401.427 98.064 411.669 100.522 419.476 97.4449C427.283 94.3677 431.289 82.5872 428.208 69.7276C425.127 56.8679 413.373 41.3182 405.566 44.3954C397.76 47.4726 395.265 72.3446 398.346 85.2043Z" fill="#6A2129"/>
<path d="M163.096 231.012C158.153 227.925 153.848 228.455 152.197 232.056C150.547 235.657 151.842 240.804 156.785 243.891C161.728 246.977 168.126 243.814 169.739 242.982C169.237 240.176 168.039 234.099 163.096 231.012Z" fill="#D9D9D9"/>
<path d="M164.596 250.909C155.966 250.827 150.415 255.32 150.363 261.861C150.31 268.402 155.22 274.574 163.85 274.656C172.48 274.737 179.278 264.69 180.97 262.108C178.571 258.565 173.226 250.99 164.596 250.909Z" fill="#D9D9D9"/>
<path d="M262.356 124.461C256.294 117 267.373 96.9706 260.731 104.35C245.359 107.039 244.522 127.839 254.232 137.999C260.293 145.46 279.989 139.736 277.697 124.641C284.339 117.262 268.417 131.921 262.356 124.461Z" fill="#DF8200"/>
<path d="M201.466 124.201C195.554 131.821 177.65 120.381 184.436 127.582C187.871 145.309 205.672 144.748 213.615 132.674C219.528 125.054 213.185 102.509 200.481 106.298C193.695 99.0975 207.379 116.582 201.466 124.201Z" fill="#DF8200"/>
<ellipse cx="5.70564" cy="5.68769" rx="5.70564" ry="5.68769" transform="matrix(-0.642705 -0.766114 0.657124 -0.753782 265.633 98.1641)" fill="#D9D9D9"/>
<ellipse cx="5.70564" cy="5.68769" rx="5.70564" ry="5.68769" transform="matrix(-0.642705 -0.766114 0.657124 -0.753782 187.053 100.14)" fill="#D9D9D9"/>
<path d="M121.904 66.4277C127.879 73.2178 133.709 75.1415 136.607 71.6657C139.505 68.1899 138.785 61.0327 132.811 54.2425C126.836 47.4524 117.708 47.54 115.4 47.6059C115.521 51.3857 115.93 59.6376 121.904 66.4277Z" fill="#D9D9D9"/>
<path d="M116.985 39.7689C125.035 42.2773 130.925 40.6225 132 35.9334C133.074 31.2443 129.454 25.4116 121.404 22.9032C113.354 20.3948 105.428 25.69 103.443 27.0665C105.128 30.2951 108.935 37.2605 116.985 39.7689Z" fill="#D9D9D9"/>
<path d="M100.249 35.2716C111.228 46.5394 114.019 70.9382 107.928 83.2708C101.837 95.6034 83.2054 112.648 72.2266 101.38C61.2479 90.1123 52.4271 41.7453 58.518 29.4127C64.6088 17.0801 89.27 24.0038 100.249 35.2716Z" fill="#C70016"/>
<path d="M34.9006 96.5946C40.3716 122.045 68.2834 128.45 82.2154 122.32C96.1473 116.189 103.329 90.4 97.8584 64.9496C92.3874 39.4993 67.3633 17.3554 53.4314 23.4861C39.4994 29.6168 29.4296 71.1442 34.9006 96.5946Z" fill="#D64851"/>
<path d="M46.4118 80.9492C50.3946 99.4765 63.5994 103.025 73.6599 98.5979C83.7205 94.1707 88.8742 77.2033 84.8915 58.676C80.9087 40.1487 65.7438 17.74 55.6833 22.1671C45.6227 26.5943 42.4291 62.4219 46.4118 80.9492Z" fill="#6A2129"/>
<ellipse cx="5.62624" cy="5.76624" rx="5.62624" ry="5.76624" transform="matrix(-0.707876 0.706337 -0.589499 -0.807769 157.618 14.4277)" fill="#D9D9D9"/>
<path d="M925.458 42.387C919.93 43.4597 916.792 46.946 917.36 50.9779C917.927 55.0099 921.635 58.1692 927.163 57.0966C932.69 56.0239 936.116 48.9573 936.961 47.1486C935.101 45.2806 930.985 41.3143 925.458 42.387Z" fill="#D9D9D9"/>
<path d="M948.556 19.0334C944.756 14.2164 940.542 13.0598 937.97 15.8251C935.398 18.5904 935.173 23.9483 938.972 28.7653C942.771 33.5823 949.704 33.0572 951.461 32.8916C951.776 30.0489 952.355 23.8504 948.556 19.0334Z" fill="#D9D9D9"/>
<path d="M976.049 20.0283C975.406 13.519 972.584 9.68084 969.112 10.1425C965.64 10.6041 962.758 14.7774 963.401 21.2867C964.043 27.7961 969.91 32.1485 971.413 33.2252C973.1 31.1463 976.692 26.5376 976.049 20.0283Z" fill="#D9D9D9"/>
<path d="M1001.42 29.3366C1004.24 23.6781 1003.95 18.6278 1000.94 16.562C997.921 14.4962 993.474 15.8137 990.65 21.4722C987.825 27.1307 990.287 34.7274 990.938 36.6431C993.354 36.1634 998.592 34.9951 1001.42 29.3366Z" fill="#D9D9D9"/>
<path d="M998.017 48.3821C1005.66 56.2028 1007.6 73.1395 1003.36 81.7012C999.11 90.2629 986.127 102.097 978.481 94.276C970.836 86.4553 964.703 52.881 968.948 44.3193C973.194 35.7576 990.372 40.5613 998.017 48.3821Z" fill="#C70016"/>
<path d="M940.367 57.3095C934.511 67.781 935.898 84.8263 941.628 91.4292C947.357 98.0322 962.123 104.418 967.979 93.9461C973.834 83.4745 973.289 48.8029 967.559 42.1999C961.829 35.5969 946.222 46.8379 940.367 57.3095Z" fill="#C70016"/>
<path d="M952.482 90.9575C956.287 108.624 975.73 113.067 985.436 108.81C995.143 104.553 1000.15 86.6501 996.346 68.9836C992.541 51.3172 975.114 35.948 965.407 40.2053C955.701 44.4625 948.677 73.291 952.482 90.9575Z" fill="#D64851"/>
<path d="M960.507 80.0944C963.277 92.9552 972.475 95.4171 979.484 92.3428C986.493 89.2685 990.087 77.4896 987.317 64.6288C984.547 51.768 973.988 36.2139 966.979 39.2882C959.969 42.3625 957.737 67.2336 960.507 80.0944Z" fill="#6A2129"/>
<path d="M1176.84 44.5345C1171.31 45.6071 1168.18 49.0934 1168.74 53.1254C1169.31 57.1574 1173.02 60.3167 1178.55 59.244C1184.07 58.1714 1187.5 51.1048 1188.34 49.296C1186.48 47.428 1182.37 43.4618 1176.84 44.5345Z" fill="#D9D9D9"/>
<path d="M1199.94 21.1808C1196.14 16.3638 1191.92 15.2072 1189.35 17.9725C1186.78 20.7378 1186.56 26.0958 1190.35 30.9128C1194.15 35.7298 1201.09 35.2047 1202.84 35.039C1203.16 32.1964 1203.74 25.9978 1199.94 21.1808Z" fill="#D9D9D9"/>
<path d="M1227.44 22.1748C1226.79 15.6655 1223.97 11.8273 1220.5 12.289C1217.03 12.7506 1214.15 16.9239 1214.79 23.4332C1215.43 29.9425 1221.3 34.295 1222.8 35.3717C1224.49 33.2927 1228.08 28.6841 1227.44 22.1748Z" fill="#D9D9D9"/>
<path d="M1249.41 50.5276C1257.05 58.3483 1258.99 75.285 1254.75 83.8467C1250.5 92.4084 1237.52 104.242 1229.87 96.4215C1222.23 88.6008 1216.09 55.0265 1220.34 46.4648C1224.59 37.9031 1241.76 42.7069 1249.41 50.5276Z" fill="#C70016"/>
<path d="M1191.76 59.456C1185.9 69.9275 1187.29 86.9727 1193.02 93.5757C1198.75 100.179 1213.51 106.564 1219.37 96.0926C1225.22 85.621 1224.68 50.9494 1218.95 44.3464C1213.22 37.7434 1197.61 48.9844 1191.76 59.456Z" fill="#C70016"/>
<path d="M1203.87 93.104C1207.67 110.77 1227.12 115.214 1236.82 110.957C1246.53 106.699 1251.54 88.7966 1247.73 71.1301C1243.93 53.4636 1226.5 38.0945 1216.79 42.3518C1207.09 46.609 1200.06 75.4375 1203.87 93.104Z" fill="#D64851"/>
<path d="M1211.89 82.2418C1214.66 95.1026 1223.86 97.5645 1230.87 94.4903C1237.88 91.416 1241.47 79.637 1238.7 66.7762C1235.93 53.9154 1225.37 38.3614 1218.36 41.4357C1211.35 44.5099 1209.12 69.381 1211.89 82.2418Z" fill="#6A2129"/>
<path d="M154.652 352.954C159.193 353.2 162.306 351.041 162.611 347.707C162.916 344.373 160.591 341.11 156.05 340.864C151.509 340.618 147.504 345.579 146.503 346.855C147.616 348.719 150.11 352.708 154.652 352.954Z" fill="#D9D9D9"/>
<path d="M132.147 369.307C134.235 373.913 137.329 375.677 139.864 373.982C142.399 372.286 143.573 368.051 141.485 363.446C139.398 358.84 133.856 357.877 132.445 357.658C131.668 359.866 130.06 364.702 132.147 369.307Z" fill="#D9D9D9"/>
<path d="M85.4404 361.34C82.169 365.297 81.4568 369.388 83.4404 371.64C85.424 373.891 89.1617 373.726 92.4331 369.77C95.7045 365.814 95.1847 359.255 95.0303 357.595C93.0429 357.496 88.7118 357.384 85.4404 361.34Z" fill="#D9D9D9"/>
<path d="M3.64785 149.252C2.22421 158.799 -21.035 163.929 -10.6461 163.958C2.34405 173.675 18.9169 160.352 19.8206 146.261C21.2443 136.714 2.85069 125.791 -7.11612 137.634C-17.505 137.605 5.07149 139.706 3.64785 149.252Z" fill="#DF8200"/>
<path d="M27.6465 154.823C12.8864 161.526 2.5969 181.443 5.14442 193.442C7.69195 205.441 21.7625 224.655 36.5227 217.953C51.2828 211.25 75.0756 172.614 72.528 160.615C69.9805 148.615 42.4067 148.12 27.6465 154.823Z" fill="#C70016"/>
<path d="M19.1349 201.875C11.4502 224.472 32.7756 245.405 47.9942 248.723C63.2127 252.042 82.1546 236.457 89.8392 213.86C97.5239 191.263 86.4476 159.959 71.2291 156.641C56.0105 153.322 26.8195 179.278 19.1349 201.875Z" fill="#D64851"/>
<path d="M36.8945 196.528C31.3003 212.978 41.135 223.277 52.1246 225.673C63.1143 228.07 75.9523 218.062 81.5465 201.612C87.1408 185.162 84.8366 159.32 73.847 156.924C62.8573 154.527 42.4888 180.078 36.8945 196.528Z" fill="#6A2129"/>
<path d="M106.486 192.55C110.584 207.471 101.066 227.724 89.6798 233.651C78.2931 239.578 53.603 241.901 49.5049 226.981C45.4069 212.06 61.3931 170.022 72.7798 164.095C84.1664 158.168 102.388 177.629 106.486 192.55Z" fill="#C70016"/>
<path d="M126.239 191.454C134.392 187.011 146.004 207.016 142.688 196.656C146.345 177.758 130.278 169.439 118.628 177.19C110.475 181.634 107.583 206.651 120.333 209.303C123.649 219.663 118.085 195.898 126.239 191.454Z" fill="#DF8200"/>
<path d="M-11.0777 263.617C-2.48622 258.131 4.2781 257.735 6.1137 262.208C7.9493 266.682 4.73064 274.024 -3.8608 279.509C-12.4522 284.994 -21.9757 282.349 -24.3678 281.634C-22.9394 277.684 -19.6691 269.102 -11.0777 263.617Z" fill="#D9D9D9"/>
<path d="M101.583 259.542C97.5265 254.766 96.5218 250.019 98.8065 247.576C101.091 245.134 105.562 245.591 109.619 250.366C113.676 255.141 113.302 262.632 113.18 264.526C110.809 264.498 105.64 264.317 101.583 259.542Z" fill="#D9D9D9"/>
<ellipse cx="5.90292" cy="4.85294" rx="5.90292" ry="4.85294" transform="matrix(-0.473173 0.88097 0.882139 0.47099 72.2705 263.13)" fill="#D9D9D9"/>
<path d="M17.2167 292.601C16.8757 282.464 19.9571 275.251 24.7066 274.19C29.4561 273.13 34.0997 277.962 34.4408 288.098C34.7818 298.235 27.7066 307.763 25.8866 310.146C23.2349 307.867 17.5578 302.737 17.2167 292.601Z" fill="#D9D9D9"/>
<path d="M51.1339 297.52C50.9325 291.533 53.1445 287.186 56.5138 286.433C59.8832 285.681 63.1543 288.417 63.3557 294.404C63.5572 300.391 58.5063 306.213 57.2073 307.671C55.3375 306.392 51.3354 303.507 51.1339 297.52Z" fill="#D9D9D9"/>
<path d="M-16.0451 332.112C-23.1487 328.105 -37.8975 345.452 -32.8686 336.43C-33.0817 319.835 -16.0799 312.782 -6.17639 319.734C0.927229 323.74 -0.675307 345.681 -13.4728 347.821C-18.5017 356.843 -8.94143 336.118 -16.0451 332.112Z" fill="#DF8200"/>
<path d="M105.583 294.07C117.474 279.706 137.121 284.685 143.828 293.084C150.534 301.484 146.472 320.161 134.581 334.526C122.69 348.89 99.6262 354.825 92.9195 346.425C86.2127 338.026 93.6923 308.434 105.583 294.07Z" fill="#D64851"/>
<path d="M78.5487 319.167C78.2887 306.883 87.7026 291.961 96.0281 288.595C104.354 285.228 120.717 286.26 120.977 298.545C121.237 310.829 104.138 342.238 95.8128 345.605C87.4873 348.972 78.8087 331.451 78.5487 319.167Z" fill="#C70016"/>
<path d="M46.4677 340.72C40.4306 337.875 38.0935 332.972 40.2817 328.53C42.4698 324.089 47.9884 321.565 54.0255 324.41C60.0626 327.255 61.3791 336.333 61.6789 338.648C58.8037 340.238 52.5048 343.564 46.4677 340.72Z" fill="#D9D9D9"/>
<ellipse cx="5.90292" cy="4.85294" rx="5.90292" ry="4.85294" transform="matrix(-0.473173 0.88097 0.882139 0.47099 17.7539 325.583)" fill="#D9D9D9"/>
<path d="M107.604 307.719C116.26 297.262 125.727 299.289 130.57 305.354C135.413 311.42 133.009 323.847 124.353 334.304C115.697 344.761 98.7324 354.057 93.8893 347.992C89.0462 341.926 98.9474 318.176 107.604 307.719Z" fill="#6A2129"/>
<path d="M126.221 354.118C136.856 350.53 146.716 335.965 146.991 326.173C147.267 316.38 141.237 299.539 130.602 303.127C119.967 306.715 98.3588 334.525 98.0834 344.317C97.808 354.109 115.587 357.707 126.221 354.118Z" fill="#C70016"/>
<path d="M67.5897 357.926C61.8591 360.559 57.5078 359.657 56.5148 355.936C55.5217 352.215 57.8853 347.217 63.616 344.584C69.3467 341.951 75.3415 345.653 76.8452 346.621C75.768 349.364 73.3204 355.293 67.5897 357.926Z" fill="#D9D9D9"/>
<path d="M899.309 143.472C896.412 122.962 915.199 110.556 927.113 111.334C939.027 112.112 951.323 129.421 954.22 149.931C957.117 170.441 944.734 193.818 932.82 193.04C920.906 192.262 902.206 163.982 899.309 143.472Z" fill="#D64851"/>
<path d="M899.689 184.443C889.408 175.466 884.2 156.573 887.665 147.218C891.13 137.864 904.22 125.202 914.501 134.179C924.781 143.156 937.777 180.694 934.312 190.049C930.847 199.403 909.969 193.42 899.689 184.443Z" fill="#C70016"/>
<path d="M912.034 152.019C909.925 137.088 918.672 130.832 927.275 131.394C935.879 131.956 944.284 143.227 946.393 158.158C948.502 173.089 943.442 193.972 934.839 193.41C926.235 192.849 914.143 166.95 912.034 152.019Z" fill="#6A2129"/>
<path d="M964.052 171.453C969.063 160.036 964.481 141.044 956.647 133.491C948.813 125.939 930.475 118.289 925.464 129.705C920.453 141.122 927.119 179.669 934.953 187.222C942.786 194.774 959.042 182.869 964.052 171.453Z" fill="#C70016"/>
<path d="M664.949 139.712C662.369 121.452 679.095 110.408 689.702 111.1C700.309 111.793 711.256 127.203 713.835 145.462C716.415 163.722 705.39 184.534 694.783 183.841C684.176 183.149 667.528 157.971 664.949 139.712Z" fill="#D64851"/>
<path d="M665.289 176.187C656.137 168.194 651.5 151.374 654.585 143.046C657.67 134.718 669.323 123.445 678.476 131.437C687.628 139.43 699.198 172.849 696.113 181.177C693.029 189.505 674.442 184.179 665.289 176.187Z" fill="#C70016"/>
<path d="M676.277 147.322C674.399 134.029 682.187 128.46 689.846 128.96C697.506 129.46 704.988 139.494 706.866 152.787C708.744 166.08 704.239 184.672 696.58 184.172C688.92 183.672 678.155 160.614 676.277 147.322Z" fill="#6A2129"/>
<path d="M722.588 164.623C727.049 154.459 722.969 137.55 715.995 130.826C709.021 124.103 692.694 117.292 688.234 127.456C683.773 137.62 689.707 171.938 696.681 178.662C703.655 185.385 718.127 174.786 722.588 164.623Z" fill="#C70016"/>
<path d="M314.992 145.916C312.095 125.406 330.882 113.001 342.797 113.779C354.711 114.556 367.006 131.865 369.904 152.375C372.801 172.885 360.418 196.262 348.503 195.484C336.589 194.707 317.89 166.426 314.992 145.916Z" fill="#D64851"/>
<path d="M315.372 186.887C305.092 177.91 299.884 159.017 303.349 149.663C306.814 140.308 319.904 127.646 330.184 136.623C340.465 145.601 353.46 183.139 349.995 192.493C346.531 201.848 325.653 195.865 315.372 186.887Z" fill="#C70016"/>
<path d="M327.716 154.464C325.607 139.534 334.354 133.278 342.958 133.839C351.561 134.401 359.966 145.672 362.075 160.603C364.184 175.534 359.125 196.418 350.521 195.856C341.918 195.294 329.826 169.395 327.716 154.464Z" fill="#6A2129"/>
<path d="M379.733 173.897C384.744 162.481 380.161 143.488 372.328 135.936C364.494 128.383 346.155 120.734 341.145 132.15C336.134 143.566 342.8 182.114 350.633 189.666C358.467 197.218 374.722 185.313 379.733 173.897Z" fill="#C70016"/>
<path d="M101.173 143.775C97.6453 130.542 99.8896 121.718 106.365 121.188C112.841 120.658 120.933 127.767 124.461 141C127.989 154.234 120.726 165.352 118.838 168.125C114.361 164.689 104.702 157.009 101.173 143.775Z" fill="#D9D9D9"/>
<path d="M149.805 119.338C136.686 115.65 128.703 108.769 129.277 102.256C129.852 95.7424 137.929 91.7623 151.048 95.4501C164.167 99.1378 173.489 112.075 175.8 115.375C171.802 117.843 162.923 123.026 149.805 119.338Z" fill="#D9D9D9"/>
<path d="M1204.2 183.326C1211.56 189.569 1203.66 212.038 1209.16 203.225C1224.27 197.309 1221.68 176.202 1210.18 168.006C1202.82 161.764 1183.84 171.636 1188.65 186.349C1183.15 195.161 1196.84 177.084 1204.2 183.326Z" fill="#DF8200"/>
<path d="M1221.59 165.87C1219.5 181.946 1231 201.189 1242.54 205.349C1254.08 209.51 1277.82 207.682 1279.91 191.606C1281.99 175.53 1261.71 134.944 1250.17 130.784C1238.63 126.623 1223.67 149.794 1221.59 165.87Z" fill="#C70016"/>
<path d="M1257.08 197.908C1272.23 216.35 1301.26 209.263 1312.1 198.08C1322.94 186.898 1319.69 162.585 1304.53 144.143C1289.38 125.701 1256.94 118.612 1246.1 129.794C1235.26 140.977 1241.93 179.466 1257.08 197.908Z" fill="#D64851"/>
<path d="M1189 296.076C1183.06 278.399 1197.65 264.329 1208.32 263.057C1219 261.786 1232.73 275.083 1238.66 292.76C1244.6 310.437 1237.49 333.165 1226.81 334.436C1216.14 335.708 1194.94 313.752 1189 296.076Z" fill="#D64851"/>
<path d="M1261.9 179.997C1272.93 193.423 1286.87 190.495 1294.7 182.42C1302.53 174.344 1300.79 158.159 1289.76 144.734C1278.73 131.308 1255.55 119.644 1247.73 127.719C1239.9 135.794 1250.87 166.572 1261.9 179.997Z" fill="#6A2129"/>
<path d="M1196.08 332.277C1185.5 326.022 1177.78 310.157 1179.31 301.307C1180.84 292.458 1190.34 279.097 1200.92 285.352C1211.5 291.606 1229.17 322.694 1227.64 331.543C1226.12 340.393 1206.65 338.532 1196.08 332.277Z" fill="#C70016"/>
<path d="M1295.2 118.761C1310.04 123.144 1322.24 141.908 1321.27 154.709C1320.31 167.509 1309.26 189.715 1294.42 185.332C1279.58 180.949 1252.29 145.204 1253.26 132.403C1254.22 119.603 1280.36 114.378 1295.2 118.761Z" fill="#C70016"/>
<path d="M1220.14 222.313C1223.96 217.326 1228.07 215.761 1230.45 218.094C1232.83 220.427 1232.86 225.478 1229.03 230.465C1225.2 235.451 1218.54 235.727 1216.85 235.765C1216.65 233.108 1216.31 227.3 1220.14 222.313Z" fill="#D9D9D9"/>
<path d="M1201.67 301.55C1197.34 288.682 1204.06 281.706 1211.77 280.787C1219.47 279.869 1228.77 288.463 1233.09 301.331C1237.41 314.2 1236.37 333.516 1228.66 334.434C1220.95 335.352 1205.99 314.418 1201.67 301.55Z" fill="#6A2129"/>
<path d="M1250.91 310.194C1253.46 299.265 1246.28 283.209 1238.11 277.813C1229.93 272.417 1212.44 268.663 1209.88 279.591C1207.33 290.52 1219.57 323.542 1227.74 328.938C1235.92 334.334 1248.35 321.123 1250.91 310.194Z" fill="#C70016"/>
<ellipse cx="5.90292" cy="4.85294" rx="5.90292" ry="4.85294" transform="matrix(0.499188 0.866494 0.865255 -0.501332 1256.1 238.827)" fill="#D9D9D9"/>
<path d="M1246.63 346.823C1249.48 352.94 1249.04 357.82 1245.78 359.217C1242.51 360.615 1237.82 358.408 1234.97 352.29C1232.12 346.172 1234.95 339.251 1235.69 337.512C1238.25 338.48 1243.79 340.705 1246.63 346.823Z" fill="#D9D9D9"/>
<path d="M1269.2 268.856C1270.7 263.35 1273.92 260.939 1277.18 262.533C1280.43 264.127 1282.63 268.783 1281.13 274.289C1279.64 279.795 1273.44 281.617 1271.85 282.049C1270.52 279.644 1267.71 274.361 1269.2 268.856Z" fill="#D9D9D9"/>
<path d="M1263.83 325.345C1269.25 328.902 1271.64 333.539 1270.1 336.945C1268.56 340.35 1264 341.494 1258.58 337.938C1253.16 334.381 1251.32 326.35 1250.89 324.31C1253.24 323.477 1258.41 321.788 1263.83 325.345Z" fill="#D9D9D9"/>
<path d="M1275.6 292.673C1282.05 289.139 1287.83 289.853 1290.21 294.13C1292.59 298.407 1291.11 304.443 1284.66 307.976C1278.21 311.51 1269.51 307.65 1267.31 306.635C1267.85 303.34 1269.15 296.207 1275.6 292.673Z" fill="#D9D9D9"/>
<path d="M822.582 294.079C827.944 298.251 832.728 298.414 834.682 294.813C836.636 291.211 835.384 285.441 830.022 281.269C824.66 277.097 817.466 279.417 815.652 280.04C816.108 283.151 817.22 289.907 822.582 294.079Z" fill="#D9D9D9"/>
<path d="M497.565 312.276C492.202 316.448 487.419 316.612 485.465 313.01C483.51 309.409 484.762 303.638 490.125 299.466C495.487 295.295 502.68 297.614 504.495 298.237C504.038 301.348 502.927 308.104 497.565 312.276Z" fill="#D9D9D9"/>
<path d="M796.429 313.341C798.92 320.118 802.976 323.495 806.523 322.121C810.071 320.747 811.961 315.566 809.47 308.788C806.979 302.011 799.558 298.859 797.667 298.092C796.459 300.737 793.938 306.563 796.429 313.341Z" fill="#D9D9D9"/>
<path d="M762.054 313.809C760.637 320.56 762.349 325.871 766.116 327.308C769.882 328.746 774.224 326.212 775.641 319.461C777.058 312.711 772.338 305.236 771.117 303.358C768.691 304.483 763.471 307.058 762.054 313.809Z" fill="#D9D9D9"/>
<path d="M619.147 174.295C626.979 171.127 632.796 172.107 633.967 176.432C635.139 180.757 631.735 186.629 623.903 189.797C616.071 192.965 608.166 188.746 606.184 187.642C607.756 184.423 611.315 177.463 619.147 174.295Z" fill="#D9D9D9"/>
<path d="M527.597 338.225C522.428 344.939 516.689 346.587 513.181 342.783C509.673 338.978 509.359 331.557 514.528 324.843C519.697 318.128 529.141 318.782 531.535 318.993C531.969 322.928 532.766 331.51 527.597 338.225Z" fill="#D9D9D9"/>
<ellipse cx="7.93259" cy="6.52157" rx="7.93259" ry="6.52157" transform="matrix(-0.00883214 0.999961 0.99998 0.00635576 649.549 217.909)" fill="#D9D9D9"/>
<path d="M565.051 336.554C564.184 345.58 560.345 350.928 555.615 350.325C550.884 349.722 546.953 343.971 547.82 334.945C548.686 325.919 556.671 319.826 558.717 318.318C561.019 321.181 565.917 327.528 565.051 336.554Z" fill="#D9D9D9"/>
<path d="M644.28 261.612C649.761 256.253 655.13 255.652 657.82 259.717C660.509 263.783 659.878 270.669 654.397 276.029C648.917 281.388 640.495 279.276 638.366 278.7C638.46 275.005 638.8 266.971 644.28 261.612Z" fill="#D9D9D9"/>
<path d="M599.594 323.387C603.449 331.197 603.061 338.197 598.957 341.092C594.852 343.986 588.793 342.208 584.937 334.397C581.082 326.587 584.425 316.036 585.309 313.374C588.602 314.013 595.738 315.576 599.594 323.387Z" fill="#D9D9D9"/>
<path d="M635.476 293.557C645.356 293.857 651.559 298.616 651.403 305.191C651.246 311.766 645.422 317.75 635.542 317.45C625.663 317.149 618.216 306.754 616.366 304.085C619.228 300.631 625.597 293.256 635.476 293.557Z" fill="#D9D9D9"/>
<ellipse cx="7.93259" cy="6.52157" rx="7.93259" ry="6.52157" transform="matrix(-0.00883214 0.999961 0.99998 0.00635576 684.979 205.245)" fill="#D9D9D9"/>
<path d="M681.351 259.36C677.368 252.366 677.28 245.812 680.816 242.811C684.353 239.809 689.954 241.017 693.937 248.012C697.92 255.006 695.554 265.088 694.921 267.634C691.897 267.283 685.334 266.354 681.351 259.36Z" fill="#D9D9D9"/>
<path d="M702.816 313.652C693.857 314.044 688.012 309.674 687.837 303.024C687.662 296.374 692.647 289.921 701.606 289.53C710.564 289.138 717.807 299.112 719.61 301.677C717.185 305.365 711.774 313.261 702.816 313.652Z" fill="#D9D9D9"/>
<path d="M738.693 320.909C733.524 327.623 727.785 329.27 724.278 325.466C720.77 321.662 720.456 314.241 725.625 307.526C730.794 300.812 740.238 301.466 742.632 301.676C743.065 305.612 743.862 314.194 738.693 320.909Z" fill="#D9D9D9"/>
<path d="M206.346 319.582C201.95 324.762 197.301 325.9 194.652 322.774C192.003 319.648 192.049 313.744 196.445 308.564C200.841 303.384 208.357 304.184 210.26 304.422C210.449 307.561 210.743 314.402 206.346 319.582Z" fill="#D9D9D9"/>
<path d="M459.129 334.857C457.807 341.956 459.568 346.93 463.32 347.562C467.071 348.194 471.344 344.706 472.666 337.607C473.988 330.508 469.219 324.007 467.985 322.382C465.595 324.038 460.451 327.758 459.129 334.857Z" fill="#D9D9D9"/>
<path d="M429.341 317.694C424.674 322.773 423.431 328.213 425.934 331.373C428.438 334.534 433.465 334.574 438.132 329.495C442.799 324.416 442.562 315.579 442.471 313.341C439.812 313.069 434.008 312.615 429.341 317.694Z" fill="#D9D9D9"/>
<path d="M241.052 338.841C237.365 346.471 232.084 349.257 227.872 346.25C223.661 343.243 221.837 336.043 225.524 328.413C229.211 320.784 238.589 319.493 240.975 319.21C242.204 322.974 244.739 331.212 241.052 338.841Z" fill="#D9D9D9"/>
<path d="M277.371 329.547C278.368 338.559 275.703 344.579 270.95 344.956C266.196 345.333 261.172 340.507 260.175 331.495C259.178 322.482 265.749 314.886 267.443 312.991C270.282 315.323 276.374 320.535 277.371 329.547Z" fill="#D9D9D9"/>
<path d="M339.608 239.992C343.877 233.625 349.011 231.94 352.474 235.369C355.938 238.799 356.728 245.669 352.459 252.036C348.19 258.402 339.514 258.057 337.312 257.928C336.649 254.292 335.339 246.359 339.608 239.992Z" fill="#D9D9D9"/>
<path d="M308.49 309.596C313.861 316.453 314.912 323.385 311.486 327.057C308.06 330.729 301.765 330.228 296.394 323.371C291.023 316.514 292.139 305.501 292.46 302.716C295.813 302.668 303.119 302.739 308.49 309.596Z" fill="#D9D9D9"/>
<path d="M337.519 273.061C347.251 271.335 354.296 274.726 355.487 281.194C356.678 287.661 352.2 294.71 342.468 296.436C332.736 298.162 323.321 289.508 320.964 287.274C323.06 283.308 327.786 274.787 337.519 273.061Z" fill="#D9D9D9"/>
<ellipse cx="7.93259" cy="6.52157" rx="7.93259" ry="6.52157" transform="matrix(-0.518543 0.855052 0.856333 0.516424 418.563 184.992)" fill="#D9D9D9"/>
<path d="M387.792 229.651C387.942 221.604 391.215 215.925 395.789 215.152C400.363 214.379 404.56 218.28 404.41 226.327C404.26 234.375 397.074 241.833 395.229 243.697C392.81 241.85 387.642 237.699 387.792 229.651Z" fill="#D9D9D9"/>
<path d="M378.5 287.29C370.599 283.049 367.807 276.306 371.055 270.501C374.302 264.695 381.884 261.695 389.785 265.936C397.686 270.177 398.815 282.451 399.055 285.578C395.086 287.509 386.4 291.531 378.5 287.29Z" fill="#D9D9D9"/>
<path d="M405.635 311.861C397.76 314.992 391.985 313.475 390.914 308.413C389.843 303.35 393.365 296.811 401.239 293.68C409.113 290.549 416.897 295.937 418.847 297.341C417.209 300.946 413.509 308.73 405.635 311.861Z" fill="#D9D9D9"/>
<path d="M1079.42 308.127C1082.57 314.144 1086.86 316.272 1090.13 313.802C1093.4 311.331 1094.64 305.56 1091.49 299.544C1088.33 293.527 1080.82 292.662 1078.92 292.479C1078.04 295.5 1076.26 302.111 1079.42 308.127Z" fill="#D9D9D9"/>
<path d="M845.165 365.25C845.351 372.042 842.65 375.993 838.591 375.435C834.532 374.877 830.623 370.451 830.437 363.659C830.251 356.868 836.38 352.445 837.956 351.352C840.193 353.562 844.979 358.459 845.165 365.25Z" fill="#D9D9D9"/>
<path d="M1047.64 314.842C1047.1 322.043 1049.39 326.795 1053.19 327.012C1056.99 327.23 1060.85 323.294 1061.39 316.094C1061.93 308.893 1056.48 302.953 1055.07 301.472C1052.88 303.381 1048.17 307.642 1047.64 314.842Z" fill="#D9D9D9"/>
<path d="M1016.15 301.045C1012.06 306.605 1011.42 312.149 1014.26 315.016C1017.09 317.883 1022.09 317.373 1026.18 311.813C1030.26 306.254 1029.06 297.496 1028.72 295.281C1026.05 295.301 1020.23 295.486 1016.15 301.045Z" fill="#D9D9D9"/>
<path d="M883.859 356.415C886.209 364.556 884.138 370.157 878.995 370.73C873.853 371.304 867.686 367.162 865.337 359.02C862.987 350.879 869.107 343.656 870.694 341.852C874.122 343.833 881.51 348.274 883.859 356.415Z" fill="#D9D9D9"/>
<ellipse cx="7.93259" cy="6.52157" rx="7.93259" ry="6.52157" transform="matrix(0.800532 0.599289 0.597305 -0.802014 859.128 186.896)" fill="#D9D9D9"/>
<path d="M904.693 325.244C911.452 331.288 913.488 337.549 910.201 341.003C906.914 344.458 899.951 344.22 893.191 338.176C886.432 332.133 886.251 322.09 886.248 319.549C889.917 319.389 897.933 319.201 904.693 325.244Z" fill="#D9D9D9"/>
<path d="M891.227 217.024C890.154 209.434 892.85 204.751 897.718 204.992C902.586 205.232 907.762 209.819 908.835 217.409C909.908 224.999 903.219 230.534 901.494 231.908C898.572 229.644 892.3 224.613 891.227 217.024Z" fill="#D9D9D9"/>
<path d="M914.535 289.615C923.112 291.133 928.523 295.591 928.424 300.613C928.326 305.634 923.305 309.464 914.728 307.945C906.151 306.427 899.629 297.484 898.008 295.196C900.473 292.921 905.958 288.096 914.535 289.615Z" fill="#D9D9D9"/>
<path d="M911.752 243.034C917.845 235.25 925.353 233.07 930.559 237.09C935.764 241.109 937.137 249.347 931.044 257.13C924.951 264.913 912.165 264.757 908.918 264.668C907.831 260.316 905.659 250.817 911.752 243.034Z" fill="#D9D9D9"/>
<ellipse cx="7.93259" cy="6.52157" rx="7.93259" ry="6.52157" transform="matrix(-0.421768 0.906704 0.907745 0.419522 990.896 170.323)" fill="#D9D9D9"/>
<path d="M965.204 218.085C964.471 210.07 967.103 204.067 971.564 202.797C976.026 201.528 980.625 204.945 981.357 212.961C982.09 220.976 975.764 229.176 974.134 231.232C971.527 229.661 965.936 226.1 965.204 218.085Z" fill="#D9D9D9"/>
<path d="M962.279 276.394C953.962 273.044 950.448 266.647 953.04 260.521C955.633 254.394 962.84 250.582 971.158 253.932C979.476 257.282 981.943 269.359 982.524 272.44C978.79 274.795 970.597 279.744 962.279 276.394Z" fill="#D9D9D9"/>
<path d="M991.941 297.844C984.457 301.818 978.551 300.943 976.932 296.029C975.312 291.114 978.097 284.228 985.581 280.254C993.065 276.279 1001.39 280.782 1003.48 281.964C1002.25 285.727 999.425 293.87 991.941 297.844Z" fill="#D9D9D9"/>
</svg>
