<svg width="443" height="389" viewBox="0 0 443 389" fill="none" xmlns="http://www.w3.org/2000/svg">
<g clip-path="url(#clip0_109_749)">
<rect width="443" height="389" fill="black"/>
<path d="M87.5 45.0462C87.5 42.1656 85.3276 39.7487 82.4633 39.4426C79.3455 39.1094 76.5553 41.385 76.2548 44.5062L76.074 46.3836C75.7889 49.3453 73.3004 51.6057 70.325 51.6057C67.3392 51.6057 64.8456 53.8815 64.5734 56.8548L64.4354 58.3626C64.1376 61.6158 61.4833 64.1496 58.2197 64.2959L58.0542 64.3033C54.3396 64.4699 51.5533 67.7641 52.0051 71.4549L52.056 71.87C52.4664 75.2226 50.0196 78.2492 46.6554 78.5502L45.0742 78.6917C42.598 78.9132 40.7896 81.1297 41.0697 83.6C41.3234 85.8377 43.2166 87.5284 45.4687 87.5284H77.2059C82.8912 87.5284 87.5 82.9196 87.5 77.2343V45.0462Z" fill="black"/>
<path d="M150.681 37.2622L112.785 78.8021L150.681 123.24L186.728 79.7682L150.681 37.2622Z" fill="#DF8200"/>
<path d="M89.6779 37.2622L51.7823 78.8021L89.6781 123.24L125.725 79.7682L89.6779 37.2622Z" fill="#DF8200"/>
<path d="M150.881 50.835L124.024 81.7487L150.881 112.764L177.633 81.7484L150.881 50.835Z" fill="#9D1828"/>
<path d="M88.0305 48.9029L61.1731 79.8166L88.0305 110.831L114.782 79.8162L88.0305 48.9029Z" fill="#9D1828"/>
<path d="M151.024 63.6914L136.235 80.1145L151.024 95.5709L163.964 79.1481L151.024 63.6914Z" fill="#0060A7"/>
<path d="M88.1693 63.6914L73.381 80.1145L88.1697 95.5709L101.11 79.1481L88.1693 63.6914Z" fill="#0060A7"/>
<path d="M150.681 37.2622L112.785 78.8021L150.681 123.24L186.728 79.7682L150.681 37.2622Z" fill="#DF8200"/>
<path d="M89.6779 37.2622L51.7823 78.8021L89.6781 123.24L125.725 79.7682L89.6779 37.2622Z" fill="#DF8200"/>
<path d="M150.881 50.835L124.024 81.7487L150.881 112.764L177.633 81.7484L150.881 50.835Z" fill="#9D1828"/>
<path d="M88.0305 48.9029L61.1731 79.8166L88.0305 110.831L114.782 79.8162L88.0305 48.9029Z" fill="#9D1828"/>
<path d="M151.024 63.6914L136.235 80.1145L151.024 95.5709L163.964 79.1481L151.024 63.6914Z" fill="#0060A7"/>
<path d="M88.1693 63.6914L73.381 80.1145L88.1697 95.5709L101.11 79.1481L88.1693 63.6914Z" fill="#0060A7"/>
<path d="M152.515 174.956L114.619 216.495L152.515 260.934L188.562 217.462L152.515 174.956Z" fill="#DF8200"/>
<path d="M91.5118 174.956L53.6163 216.495L91.512 260.934L127.559 217.462L91.5118 174.956Z" fill="#DF8200"/>
<path d="M91.5118 113.13L53.6163 154.67L91.512 199.108L127.559 155.636L91.5118 113.13Z" fill="#DF8200"/>
<path d="M153.36 113.257L115.464 154.797L153.36 199.235L189.407 155.763L153.36 113.257Z" fill="#DF8200"/>
<path d="M152.49 124.85L125.633 155.764L152.49 186.779L179.242 155.764L152.49 124.85Z" fill="#DF8200"/>
<path d="M152.49 124.85L125.633 155.764L152.49 186.779L179.242 155.764L152.49 124.85Z" fill="#9D1828"/>
<path d="M152.715 188.528L125.858 219.442L152.715 250.457L179.467 219.442L152.715 188.528Z" fill="#9D1828"/>
<path d="M89.8655 124.77L63.0081 155.684L89.8655 186.699L116.617 155.683L89.8655 124.77Z" fill="#9D1828"/>
<path d="M89.8655 186.596L63.0081 217.51L89.8655 248.525L116.617 217.51L89.8655 186.596Z" fill="#9D1828"/>
<path d="M152.862 201.386L138.073 217.809L152.862 233.265L165.802 216.842L152.862 201.386Z" fill="#0060A7"/>
<path d="M90.0121 201.386L75.2238 217.809L90.0125 233.265L102.953 216.842L90.0121 201.386Z" fill="#0060A7"/>
<path d="M152.862 139.56L138.073 155.983L152.862 171.439L165.802 155.016L152.862 139.56Z" fill="#0060A7"/>
<path d="M90.0121 139.56L75.2238 155.983L90.0125 171.439L102.953 155.016L90.0121 139.56Z" fill="#0060A7"/>
<path d="M352.63 30.8379L314.734 72.3778L352.63 116.816L388.677 73.3438L352.63 30.8379Z" fill="#DF8200"/>
<path d="M291.626 30.8379L253.731 72.3778L291.626 116.816L327.673 73.3438L291.626 30.8379Z" fill="#DF8200"/>
<path d="M352.829 44.4092L325.972 75.3229L352.829 106.338L379.581 75.3226L352.829 44.4092Z" fill="#9D1828"/>
<path d="M289.98 42.4766L263.122 73.3903L289.98 104.405L316.731 73.39L289.98 42.4766Z" fill="#9D1828"/>
<path d="M352.976 57.2661L338.188 73.6893L352.976 89.1456L365.916 72.7228L352.976 57.2661Z" fill="#0060A7"/>
<path d="M290.122 57.2661L275.334 73.6893L290.123 89.1456L303.063 72.7228L290.122 57.2661Z" fill="#0060A7"/>
<path d="M352.63 255.737L314.734 297.277L352.63 341.715L388.677 298.243L352.63 255.737Z" fill="#DF8200"/>
<path d="M291.626 255.737L253.731 297.277L291.626 341.715L327.673 298.243L291.626 255.737Z" fill="#DF8200"/>
<path d="M291.626 193.91L253.731 235.45L291.626 279.888L327.673 236.416L291.626 193.91Z" fill="#DF8200"/>
<path d="M353.474 194.037L315.578 235.577L353.474 280.015L389.521 236.543L353.474 194.037Z" fill="#DF8200"/>
<path d="M352.605 205.63L325.747 236.544L352.605 267.559L379.356 236.544L352.605 205.63Z" fill="#DF8200"/>
<path d="M352.605 205.63L325.747 236.544L352.605 267.559L379.356 236.544L352.605 205.63Z" fill="#9D1828"/>
<path d="M352.829 269.308L325.972 300.222L352.829 331.237L379.581 300.222L352.829 269.308Z" fill="#9D1828"/>
<path d="M289.98 205.549L263.122 236.463L289.98 267.477L316.731 236.462L289.98 205.549Z" fill="#9D1828"/>
<path d="M289.98 267.376L263.122 298.29L289.98 329.305L316.731 298.29L289.98 267.376Z" fill="#9D1828"/>
<path d="M352.976 282.165L338.188 298.588L352.976 314.045L365.916 297.622L352.976 282.165Z" fill="#0060A7"/>
<path d="M290.122 282.165L275.334 298.588L290.123 314.045L303.063 297.622L290.122 282.165Z" fill="#0060A7"/>
<path d="M352.976 220.339L338.188 236.762L352.976 252.219L365.916 235.796L352.976 220.339Z" fill="#0060A7"/>
<path d="M290.122 220.339L275.334 236.762L290.123 252.219L303.063 235.796L290.122 220.339Z" fill="#0060A7"/>
<path d="M196.559 215.581L218.692 212.539C219.929 212.369 221.108 213.115 221.484 214.306C221.523 214.431 221.553 214.558 221.573 214.688L222.465 220.51C223.18 225.171 223.457 229.889 223.293 234.601C223.142 238.909 222.624 243.197 221.743 247.416L217.469 267.892C216.299 273.493 214.665 278.987 212.582 284.316C209.618 291.902 205.763 299.108 201.099 305.784L194.669 314.988L184.872 327.012C178.74 334.538 171.846 341.41 164.3 347.518L142.653 360.858C137.303 363.937 131.706 366.564 125.92 368.713L117.548 371.823C114.449 372.975 111.244 373.818 107.979 374.342C105.563 374.729 103.122 374.94 100.675 374.973L98.5743 375.001C96.127 375.034 93.6835 374.798 91.2877 374.298C88.4312 373.702 85.6651 372.734 83.0596 371.421L81.2094 370.488C77.9588 368.849 74.9 366.854 72.0891 364.541L64.1235 357.985C60.8566 355.296 57.8044 352.357 54.9948 349.193C50.1939 343.788 46.1349 337.767 42.925 331.289L41.9552 329.331L41.5141 328.421C35.7761 316.583 31.063 304.274 27.4266 291.631L25.7682 280.815C24.546 272.843 23.9358 264.789 23.9431 256.725C23.953 245.924 25.0703 235.152 27.2775 224.579L29.2117 215.314L30.5921 208.701C32.4614 199.747 35.7753 191.156 40.4039 183.266L42.0091 180.53C43.5968 177.824 45.4336 175.272 47.4957 172.907L48.7356 171.485C48.9409 171.249 49.1839 171.05 49.4546 170.894C50.0542 170.549 50.7597 170.436 51.4368 170.578L51.9077 170.676C52.395 170.778 52.8596 170.968 53.2785 171.237L103.585 203.526L109.923 207.453C114.201 210.104 118.814 212.173 123.639 213.604C126.745 214.526 129.924 215.18 133.142 215.558L139.813 216.341L171.365 217.675L196.559 215.581Z" fill="black" stroke="white" stroke-width="3.67183"/>
<path d="M180.998 276.09L182.899 276.803C184.669 277.466 184.888 279.88 183.267 280.851L180.591 282.455L180.08 282.761C178.645 283.621 177.084 284.25 175.454 284.626L174.875 284.76C173.629 285.048 172.435 285.529 171.337 286.187C170.659 286.593 169.942 286.933 169.198 287.201L166.518 288.168C164.898 288.542 163.215 288.559 161.586 288.219L158.448 287.564C155.501 286.949 152.748 285.624 150.428 283.704L149.387 282.842C147.783 281.515 146.36 279.985 145.152 278.291L144.255 277.032L143.497 275.97C142.21 274.164 141.375 272.074 141.064 269.878L139.902 264.229L139.503 261.407C139.322 260.129 140.853 259.338 141.791 260.225C141.856 260.287 141.928 260.342 142.004 260.39L147.067 263.562L153.366 267.039L161.909 270.986C166.247 272.611 170.702 273.902 175.236 274.849L176.279 275.067L180.524 275.953C180.686 275.987 180.844 276.033 180.998 276.09Z" fill="black" stroke="white" stroke-width="3.67183"/>
<path d="M92.7714 249.137L94.8119 249.137C96.7054 249.138 97.9256 251.268 96.8571 252.707L95.0914 255.086L94.7551 255.54C93.808 256.816 92.6487 257.924 91.3193 258.825C89.99 259.726 88.8307 260.834 87.8836 262.11L87.5473 262.563L84.0147 266.119C83.7217 266.414 83.296 266.553 82.8574 266.497C82.7209 266.48 82.584 266.482 82.4509 266.502L77.0339 267.32C74.0822 267.766 71.008 267.497 68.0771 266.537L66.764 266.107C64.738 265.443 62.7898 264.532 60.9685 263.397L59.6193 262.556L57.4628 261.212C56.2139 260.434 55.2624 259.265 54.7826 257.92C54.4889 257.097 54.0158 256.333 53.3972 255.683L50.3961 252.529C50.2858 252.414 50.1872 252.288 50.1019 252.154L48.6742 249.919C47.9677 248.812 49.03 247.565 50.2618 248.054C50.3477 248.089 50.4362 248.115 50.5261 248.132L56.4901 249.297L58.7649 249.619C62.0573 250.085 65.3636 250.276 68.6466 250.189L71.4879 250.115C73.046 250.074 74.6156 250.171 76.1771 250.405C78.8197 250.802 81.4787 250.805 84.0607 250.415L88.0295 249.815L92.2817 249.173C92.4428 249.149 92.6065 249.137 92.7714 249.137Z" fill="black" stroke="white" stroke-width="3.67183"/>
<path d="M58.101 308.767L57.8561 307.799C57.0419 305.276 59.6104 302.981 62.0276 304.074L64.3236 305.111L85.0826 312.619L108.722 317.688L120.577 320.23C125.425 321.27 130.343 321.955 135.292 322.279L146.545 323.016C146.63 323.021 146.714 323.018 146.798 323.004C147.871 322.834 148.55 324.118 147.806 324.909L133.155 340.495C132.234 341.475 131.093 342.221 129.826 342.673L122.601 345.246C116.873 347.286 110.757 347.999 104.715 347.333L100.182 346.834C96.3056 346.406 92.5061 345.452 88.8891 343.996C85.3145 342.557 81.951 340.642 78.8897 338.304L76.1578 336.216C73.6444 334.296 71.326 332.132 69.238 329.756C66.9249 327.125 64.906 324.247 63.219 321.176C60.9281 317.306 59.2046 313.127 58.101 308.767Z" fill="black" stroke="white" stroke-width="3.67183"/>
<path d="M371.763 79.2771L386.449 70.0186C387.281 69.4943 388.37 69.6545 389.016 70.3961C389.082 70.472 389.142 70.5528 389.196 70.6378L391.682 74.5592C393.684 77.7169 395.391 81.052 396.782 84.5223C398.05 87.687 399.051 90.9525 399.774 94.2844L403.293 110.506C404.252 114.926 404.848 119.418 405.075 123.936C405.398 130.386 404.968 136.851 403.792 143.201L402.184 151.886L399.074 163.766C397.142 171.148 394.457 178.313 391.062 185.148L379.989 201.724C377.182 205.662 374.05 209.358 370.627 212.774L365.692 217.698C363.874 219.512 361.879 221.141 359.738 222.56C358.146 223.615 356.478 224.551 354.747 225.36L353.277 226.047C351.556 226.851 349.749 227.461 347.892 227.863C345.679 228.344 343.411 228.526 341.149 228.407L339.524 228.321C336.705 228.173 333.912 227.707 331.197 226.934L323.475 224.733C320.276 223.822 317.153 222.66 314.136 221.259C309.024 218.884 304.251 215.838 299.943 212.202L298.576 211.047L298.01 210.561C290.137 203.797 282.854 196.376 276.238 188.379L271.624 181.1C268.2 175.699 265.188 170.048 262.612 164.194C259.172 156.376 256.526 148.231 254.715 139.883L253.12 132.529L251.976 127.256C250.445 120.199 250.051 112.944 250.808 105.763L251.074 103.237C251.334 100.776 251.819 98.3443 252.524 95.9726L252.951 94.5396C253.019 94.3082 253.126 94.0898 253.266 93.8932C253.582 93.4496 254.052 93.1399 254.585 93.0244L254.936 92.9482C255.315 92.8661 255.705 92.8552 256.088 92.9162L302.044 100.238L307.806 101.061C311.672 101.613 315.594 101.638 319.467 101.135C321.964 100.81 324.429 100.267 326.832 99.5124L331.804 97.9507L354.583 88.8403L371.763 79.2771Z" fill="black" stroke="white" stroke-width="3.67183"/>
<path d="M380.068 128.079L381.603 127.99C383.095 127.904 384.036 129.57 383.19 130.803L381.806 132.82L381.535 133.214C380.798 134.289 379.895 135.24 378.86 136.033L378.501 136.309C377.705 136.919 377.01 137.652 376.442 138.479C376.091 138.99 375.692 139.465 375.25 139.898L373.661 141.452C372.633 142.24 371.443 142.791 370.177 143.066L367.751 143.592C365.468 144.088 363.097 144.009 360.852 143.362L359.805 143.061C358.257 142.615 356.774 141.968 355.394 141.137L354.331 140.496L353.474 139.981C351.972 139.076 350.707 137.825 349.785 136.333L347.157 132.613L345.952 130.664C345.424 129.809 346.27 128.767 347.215 129.109C347.282 129.133 347.35 129.151 347.421 129.161L352.019 129.841L357.593 130.349L364.906 130.478C368.498 130.27 372.069 129.783 375.585 129.02L376.39 128.845L379.675 128.133C379.804 128.105 379.936 128.087 380.068 128.079Z" fill="black" stroke="white" stroke-width="3.67183"/>
<path d="M308.955 136.73L310.375 136.09C311.734 135.478 313.284 136.62 312.985 138.013L312.495 140.3L312.4 140.744C312.137 141.965 311.671 143.136 311.017 144.213C310.363 145.29 309.896 146.461 309.634 147.682L309.539 148.126L308.171 151.831C308.059 152.137 307.801 152.373 307.473 152.473C307.371 152.504 307.274 152.549 307.186 152.606L303.61 154.929C301.662 156.194 299.401 156.981 297.026 157.221L295.934 157.331C294.295 157.496 292.635 157.459 290.997 157.221L289.751 157.04L287.809 156.757C286.665 156.591 285.613 156.047 284.842 155.225C284.371 154.723 283.792 154.321 283.145 154.048L280.012 152.722C279.897 152.674 279.789 152.615 279.687 152.546L277.936 151.366C277.092 150.797 277.461 149.563 278.488 149.524C278.56 149.521 278.631 149.512 278.701 149.496L283.298 148.435L285.016 147.941C287.495 147.227 289.897 146.31 292.195 145.199L294.183 144.238C295.275 143.711 296.418 143.28 297.598 142.951C299.597 142.394 301.484 141.545 303.191 140.437L305.808 138.738L308.611 136.917C308.72 136.846 308.835 136.784 308.955 136.73Z" fill="black" stroke="white" stroke-width="3.67183"/>
<path d="M373.607 182.764L374.111 183.406C375.509 184.972 374.392 187.454 372.293 187.446L370.412 187.439L353.312 188.726L334.966 192.706L325.777 194.699C322.008 195.517 318.304 196.614 314.698 197.981L306.518 201.083C306.455 201.107 306.395 201.138 306.339 201.175C305.635 201.645 304.735 200.959 305.001 200.156L310.312 184.132C310.646 183.123 311.216 182.209 311.974 181.464L316.188 177.326C319.602 173.974 323.742 171.454 328.288 169.962L331.548 168.892C334.431 167.945 337.432 167.406 340.464 167.288C343.45 167.172 346.438 167.466 349.344 168.163L351.944 168.786C354.361 169.365 356.713 170.184 358.968 171.229C361.447 172.379 363.817 173.816 365.987 175.476C368.86 177.531 371.426 179.985 373.607 182.764Z" fill="black" stroke="white" stroke-width="3.67183"/>
</g>
<defs>
<clipPath id="clip0_109_749">
<rect width="443" height="389" fill="white"/>
</clipPath>
</defs>
</svg>
