<svg width="1280" height="1224" viewBox="0 0 1280 1224" fill="none" xmlns="http://www.w3.org/2000/svg">
<g clip-path="url(#clip0_109_880)">
<rect width="1224" height="1280" transform="matrix(0 -1 1 0 0 1224)" fill="black"/>
<path d="M985.014 289.792L992.783 287.306L985.014 289.792L986.644 294.885C987.106 296.33 987.156 297.876 986.788 299.349L982.805 315.281L990.718 317.26L982.805 315.281C982.76 315.461 982.692 315.634 982.602 315.796L989.732 319.758L982.602 315.796L979.455 321.46C973.558 332.075 982.019 344.942 994.102 343.734L993.29 335.617L994.102 343.734C994.827 343.661 995.546 343.536 996.253 343.359L1019.84 337.462L1046.14 333.614C1046.53 333.557 1046.92 333.528 1047.32 333.528H1066.49C1067.62 333.528 1068.74 333.763 1069.78 334.219L1078.74 338.166C1079.35 338.43 1079.78 338.972 1079.9 339.617L1081.45 347.769C1083.88 360.523 1100.41 364.15 1107.96 353.585C1109.74 351.083 1110.71 348.084 1110.71 345.008V326.278C1110.71 322.09 1109.29 318.024 1106.69 314.743C1105.52 313.269 1106.57 311.097 1108.45 311.097L1120.22 311.097H1145.91C1148.08 311.097 1150.25 310.807 1152.35 310.234L1168.49 305.831C1172.6 304.711 1176.34 302.537 1179.35 299.526L1193.94 284.936C1198.53 280.347 1201.11 274.123 1201.11 267.633V237.807C1201.11 232.398 1199.32 227.142 1196.02 222.86L1189.56 227.842L1196.02 222.86L1190.03 215.102C1187.98 212.441 1188.56 208.606 1191.31 206.673C1197.55 202.283 1201.1 195 1200.71 187.382L1196.45 103.215C1195.79 90.1982 1185.04 79.982 1172.01 79.982L1087.61 79.982C1081.68 79.982 1075.95 82.1334 1071.49 86.0366L1076.86 92.1754L1071.49 86.0367L1069.74 87.5669C1066.84 90.105 1062.56 90.2663 1059.48 87.9537L1052.89 83.0164C1051.03 81.6204 1048.98 80.4971 1046.8 79.6803L1032.51 74.3213C1027.39 72.3999 1021.77 72.2513 1016.55 73.899L1019.01 81.6774L1016.55 73.8991L998.883 79.4789C996.113 80.3536 993.521 81.7144 991.228 83.4977L996.236 89.9365L991.228 83.4978L978.331 93.5289C975.231 95.9395 972.758 99.0605 971.118 102.628L962.716 120.916C961.243 124.121 960.481 127.606 960.481 131.133V153.395V161.626C960.481 167.345 954.748 171.289 949.407 169.243L942.23 166.494C938.929 165.231 935.316 165.034 931.898 165.934C916.672 169.941 914.74 190.769 928.968 197.509L931.438 198.679C931.624 198.767 931.792 198.891 931.93 199.045L938.674 206.539C940.022 208.037 940.768 209.981 940.768 211.996V230.237C940.768 230.904 940.687 231.569 940.525 232.216L933.816 259.052L941.729 261.03L933.816 259.052C933.759 259.279 933.68 259.499 933.58 259.71L932.883 261.182C925.713 276.318 940.03 292.653 955.897 287.685L973.117 283.51C974.719 283.122 976.402 283.228 977.942 283.815L980.149 284.656C982.467 285.539 984.258 287.429 985.014 289.792Z" fill="#C70016" stroke="white" stroke-width="16.314"/>
<rect x="991.205" y="284.586" width="10.876" height="61.2409" transform="rotate(-134.408 991.205 284.586)" fill="#167241"/>
<path d="M698.956 671.314L687.665 679.647C683.112 683.008 683.051 689.796 687.544 693.237C688.461 693.939 689.225 694.821 689.79 695.828L691.221 698.379C693.385 702.239 694.023 706.77 693.008 711.077L690.886 720.085C690.046 723.649 690.334 727.385 691.709 730.778L693.126 734.272C694.546 737.775 697.229 740.618 700.645 742.236C705.808 744.682 709.146 749.836 709.267 755.548L710.047 792.44L711.023 838.581C711.052 839.983 711.249 841.377 711.608 842.733L716.082 859.621C716.674 861.854 717.698 863.95 719.096 865.789L722.722 870.56C726.144 875.061 731.513 877.654 737.166 877.534L804.678 876.106C806.666 876.064 808.632 875.687 810.494 874.991L815.926 872.96C819.34 871.683 822.276 869.382 824.331 866.372L831.065 856.511L839.961 839.669C840.565 838.524 841.294 837.449 842.133 836.463L856.793 819.252L869.308 805.057C871.121 803.002 873.386 801.396 875.926 800.366L883.058 797.475C885.147 796.628 887.055 795.39 888.678 793.826L897.971 784.877C901.524 781.455 903.486 776.704 903.382 771.773L901.993 706.113L899.231 688.909C898.492 684.304 895.962 680.177 892.193 677.429L888.396 674.662C885.269 672.382 881.48 671.192 877.611 671.273L808.141 672.743L790.634 673.113C784.238 673.248 778.269 669.917 775.026 664.403L773.812 662.339C771.616 658.606 768.126 655.809 764.004 654.479L758.036 652.553C754.505 651.414 750.705 651.415 747.174 652.556L738.348 655.408C734.636 656.608 730.566 655.728 727.682 653.101C722.813 648.668 715.152 649.544 711.41 654.963L703.004 667.136C701.895 668.743 700.527 670.154 698.956 671.314Z" fill="#D9D9D9" stroke="black" stroke-width="6.79749"/>
<path d="M767.18 753.499L769.639 747.269C771.267 743.144 774.504 739.86 778.604 738.173L785.254 735.436C790.162 733.415 795.746 733.909 800.224 736.759L804.266 739.332C805.079 739.85 805.844 740.438 806.552 741.09L821.728 755.054C822.456 755.724 823.121 756.458 823.716 757.249L830.956 766.869C833.755 770.588 838.172 772.733 842.826 772.635L843.861 772.613C846.737 772.552 849.492 771.438 851.602 769.481C853.376 767.836 854.599 765.682 855.103 763.316L856.519 756.672C856.707 755.788 856.792 754.886 856.773 753.983C856.684 749.78 858.854 745.852 862.459 743.69L864.937 742.204C865.663 741.768 866.426 741.395 867.216 741.088L868.95 740.416C871.811 739.307 875.009 739.471 877.741 740.869C880.672 742.368 882.756 745.127 883.397 748.356L884.242 752.617C884.523 754.034 884.615 755.483 884.514 756.924L883.248 775.11C883.15 776.513 882.872 777.896 882.42 779.227L879.508 787.794C878.51 790.729 876.697 793.32 874.28 795.262L861.816 805.276C861.006 805.927 860.26 806.653 859.589 807.445L846.103 823.355C845.596 823.954 845.132 824.588 844.716 825.254L832.846 844.236L829.674 848.377C826.661 852.312 822.022 854.663 817.067 854.768L807.916 854.962L797.682 855.178C793.357 855.269 789.172 853.639 786.048 850.645L785.395 850.019C782.272 847.025 780.466 842.912 780.374 838.587L780.313 835.708C780.268 833.553 780.725 831.416 781.648 829.467C783.619 825.307 787.524 822.393 792.074 821.688L801.499 820.228C803.845 819.865 805.989 818.688 807.555 816.905C810.461 813.597 810.896 808.79 808.631 805.014L807.977 803.924C807.197 802.622 806.173 801.482 804.963 800.566L778.855 780.805C777.68 779.916 776.63 778.871 775.736 777.699L769.39 769.39C765.919 764.846 765.081 758.817 767.18 753.499Z" fill="#D64851"/>
<path d="M799.195 789.935L797.173 787.377C794.021 783.388 793.263 778.011 795.188 773.305C796.636 769.765 799.462 766.965 803.015 765.55L803.591 765.321C808.153 763.504 813.305 763.948 817.488 766.519L817.596 766.586C818.385 767.07 819.129 767.623 819.821 768.238L828.76 776.184C829.503 776.844 830.183 777.571 830.794 778.355L835.009 783.769C836.849 786.132 839.697 787.486 842.691 787.423L843.439 787.407C845.222 787.37 846.933 786.694 848.261 785.504C849.424 784.462 850.23 783.082 850.567 781.558L851.454 777.549C851.577 776.996 851.632 776.43 851.621 775.863C851.566 773.276 852.922 770.864 855.16 769.565L856.845 768.588C857.317 768.314 857.811 768.08 858.322 767.889L859.502 767.446C861.291 766.774 863.278 766.873 864.992 767.719C866.907 768.664 868.277 770.441 868.705 772.533L869.163 774.772C869.376 775.811 869.445 776.875 869.368 777.934L868.63 788.065C868.525 789.511 868.227 790.936 867.746 792.303L866.779 795.047C865.738 797.999 863.871 800.59 861.398 802.509L855.276 807.264C854.458 807.899 853.703 808.61 853.02 809.389L845.051 818.47C844.529 819.065 844.051 819.697 843.621 820.362L836.255 831.734L835.933 832.141C832.914 835.948 828.354 838.212 823.495 838.315L820.285 838.382L813.832 838.519C810.991 838.579 808.238 837.533 806.153 835.603C803.973 833.583 802.706 830.765 802.643 827.793L802.617 826.556C802.588 825.174 802.89 823.805 803.499 822.565C804.749 820.02 807.168 818.25 809.971 817.828L816.313 816.874C817.738 816.66 819.046 815.96 820.016 814.894C821.899 812.823 822.18 809.755 820.705 807.377L820.33 806.773C819.842 805.986 819.207 805.301 818.459 804.754L802.368 792.992C801.177 792.121 800.109 791.093 799.195 789.935Z" fill="black"/>
<path d="M578.464 665.804L570.997 653.922C567.986 649.13 561.221 648.563 557.454 652.786C556.686 653.648 555.749 654.344 554.703 654.832L552.052 656.069C548.041 657.939 543.475 658.236 539.256 656.903L530.431 654.113C526.941 653.01 523.193 653.018 519.707 654.136L516.117 655.287C512.517 656.442 509.483 658.906 507.613 662.191C504.788 667.157 499.4 670.1 493.695 669.794L456.847 667.817L410.763 665.344C409.362 665.269 407.958 665.36 406.578 665.617L389.404 668.818C387.132 669.241 384.966 670.106 383.027 671.363L377.999 674.622C373.255 677.698 370.268 682.858 369.965 688.505L366.347 755.935C366.24 757.92 366.47 759.909 367.025 761.818L368.644 767.386C369.663 770.886 371.738 773.986 374.586 776.26L383.917 783.711L400.048 793.84C401.144 794.529 402.162 795.336 403.082 796.246L419.15 812.15L432.371 825.691C434.285 827.652 435.717 830.031 436.554 832.64L438.905 839.969C439.593 842.115 440.686 844.11 442.123 845.846L450.354 855.781C453.501 859.58 458.092 861.891 463.017 862.155L528.598 865.674L545.959 864.206C550.607 863.812 554.911 861.597 557.933 858.044L560.976 854.465C563.483 851.517 564.953 847.827 565.161 843.963L568.884 774.577L569.822 757.091C570.165 750.703 573.933 744.999 579.674 742.177L581.823 741.121C585.709 739.21 588.759 735.939 590.393 731.928L592.759 726.12C594.159 722.684 594.442 718.894 593.568 715.288L591.383 706.274C590.464 702.483 591.645 698.49 594.48 695.809C599.265 691.285 598.963 683.58 593.839 679.444L582.327 670.153C580.808 668.927 579.503 667.457 578.464 665.804Z" fill="#D9D9D9" stroke="black" stroke-width="6.79749"/>
<path d="M491.414 727.697L497.443 730.615C501.435 732.546 504.468 736.019 505.845 740.234L508.077 747.069C509.725 752.115 508.816 757.646 505.639 761.899L502.771 765.738C502.195 766.509 501.551 767.228 500.848 767.886L485.79 781.976C485.067 782.652 484.285 783.261 483.452 783.795L473.318 790.297C469.401 792.81 466.931 797.054 466.682 801.702L466.626 802.736C466.472 805.609 467.378 808.439 469.171 810.689C470.68 812.581 472.736 813.961 475.058 814.641L481.578 816.549C482.445 816.803 483.338 816.955 484.24 817.004C488.438 817.229 492.192 819.686 494.079 823.442L495.377 826.025C495.757 826.782 496.072 827.57 496.319 828.381L496.859 830.16C497.752 833.096 497.349 836.273 495.752 838.893C494.038 841.704 491.131 843.575 487.863 843.973L483.55 844.498C482.116 844.672 480.665 844.655 479.235 844.448L461.194 841.827C459.803 841.625 458.444 841.244 457.151 840.693L448.825 837.15C445.973 835.936 443.525 833.934 441.769 831.378L432.713 818.201C432.125 817.345 431.457 816.547 430.717 815.818L415.858 801.183C415.299 800.632 414.701 800.122 414.069 799.658L396.026 786.402L392.133 782.93C388.435 779.631 386.436 774.83 386.702 769.881L387.193 760.742L387.741 750.52C387.973 746.199 389.912 742.148 393.131 739.257L393.804 738.652C397.023 735.761 401.258 734.267 405.579 734.499L408.453 734.653C410.607 734.769 412.704 735.384 414.578 736.451C418.579 738.727 421.193 742.839 421.556 747.428L422.308 756.936C422.495 759.303 423.508 761.528 425.17 763.224C428.251 766.369 433.012 767.162 436.947 765.185L438.083 764.614C439.44 763.933 440.653 762.997 441.657 761.859L463.312 737.3C464.287 736.194 465.407 735.226 466.642 734.421L475.402 728.714C480.193 725.592 486.268 725.207 491.414 727.697Z" fill="#D64851"/>
<path d="M452.688 756.903L455.39 755.078C459.603 752.233 465.022 751.878 469.571 754.149C472.993 755.858 475.573 758.885 476.72 762.534L476.905 763.126C478.376 767.81 477.549 772.914 474.672 776.894L474.598 776.997C474.056 777.747 473.449 778.448 472.784 779.092L464.192 787.413C463.479 788.104 462.703 788.728 461.876 789.278L456.162 793.078C453.668 794.736 452.105 797.475 451.944 800.465L451.904 801.212C451.809 802.993 452.354 804.75 453.442 806.164C454.394 807.4 455.71 808.308 457.204 808.758L461.136 809.942C461.679 810.105 462.239 810.203 462.805 810.233C465.389 810.372 467.693 811.904 468.821 814.233L469.669 815.986C469.907 816.477 470.104 816.988 470.257 817.512L470.61 818.722C471.146 820.556 470.899 822.53 469.928 824.176C468.842 826.014 466.968 827.248 464.85 827.519L462.583 827.808C461.531 827.943 460.464 827.932 459.414 827.776L449.366 826.284C447.933 826.071 446.534 825.668 445.206 825.085L442.543 823.916C439.677 822.658 437.233 820.602 435.503 817.994L431.219 811.534C430.647 810.67 429.994 809.864 429.268 809.125L420.807 800.5C420.253 799.935 419.659 799.411 419.028 798.932L408.238 790.738L407.856 790.386C404.285 787.091 402.368 782.375 402.629 777.522L402.801 774.315L403.147 767.871C403.299 765.033 404.547 762.366 406.628 760.431C408.805 758.408 411.71 757.355 414.678 757.514L415.914 757.58C417.294 757.654 418.636 758.058 419.828 758.758C422.273 760.195 423.857 762.739 424.068 765.566L424.546 771.961C424.653 773.398 425.253 774.755 426.244 775.802C428.168 777.834 431.207 778.343 433.688 777.05L434.319 776.721C435.14 776.293 435.871 775.711 436.471 775.007L449.403 759.839C450.36 758.716 451.465 757.728 452.688 756.903Z" fill="black"/>
<path d="M376.952 514.35L376.952 514.585L376.985 514.817L379.421 532.069C380.198 537.577 383.121 542.553 387.553 545.914L391.296 548.753C394.972 551.541 399.462 553.045 404.076 553.035L473.562 552.88L491.073 552.841C496.24 552.829 501.01 555.611 503.544 560.113L504.719 562.2C507.252 566.7 511.349 570.113 516.233 571.791L522.164 573.829C526.348 575.267 530.878 575.352 535.112 574.071L543.99 571.386C546.557 570.61 549.344 571.268 551.292 573.111L553.53 570.745L551.292 573.111C557.572 579.049 567.646 578.089 572.691 571.071L581.326 559.059C582.246 557.779 583.372 556.66 584.659 555.748L596.105 547.629C602.567 543.047 602.831 533.548 596.634 528.613L594.517 531.272L596.634 528.613C596.092 528.181 595.643 527.644 595.316 527.033L592.321 528.639L595.316 527.033L593.934 524.455C592.245 521.305 591.799 517.636 592.684 514.173L594.977 505.207C596.058 500.978 595.799 496.518 594.236 492.442L592.886 488.922C591.228 484.597 588.006 481.053 583.858 478.99C579.895 477.02 577.386 472.98 577.376 468.554L577.294 431.653L577.191 385.503C577.187 383.83 576.984 382.164 576.587 380.539L572.433 363.57C571.778 360.894 570.604 358.373 568.979 356.148L565.444 351.31C561.466 345.867 555.125 342.655 548.383 342.67L480.856 342.821C478.485 342.826 476.133 343.231 473.897 344.019L468.428 345.947C464.33 347.392 460.778 350.069 458.26 353.611L451.341 363.343L451.229 363.5L451.136 363.668L441.923 380.339C441.417 381.255 440.813 382.111 440.12 382.895L425.157 399.803L412.394 413.738C410.899 415.37 409.046 416.632 406.979 417.425L399.793 420.181C397.284 421.143 394.982 422.577 393.011 424.404L383.55 433.176C379.237 437.175 376.792 442.794 376.805 448.675L376.952 514.35Z" fill="#D9D9D9" stroke="black" stroke-width="6.79749"/>
<path d="M516.037 466.795L513.461 472.977C511.755 477.07 508.457 480.292 504.326 481.902L497.626 484.513C492.68 486.44 487.106 485.841 482.683 482.907L478.69 480.257C477.888 479.725 477.134 479.122 476.438 478.457L461.529 464.208C460.814 463.525 460.162 462.778 459.582 461.976L452.525 452.221C449.797 448.45 445.422 446.221 440.768 446.231L439.732 446.233C436.855 446.24 434.08 447.302 431.933 449.218C430.128 450.83 428.865 452.96 428.316 455.317L426.775 461.933C426.57 462.813 426.468 463.713 426.47 464.616C426.479 468.82 424.235 472.706 420.59 474.799L418.085 476.239C417.35 476.661 416.58 477.019 415.785 477.311L414.039 477.95C411.157 479.005 407.962 478.78 405.257 477.331C402.355 475.777 400.324 472.979 399.745 469.738L398.98 465.462C398.726 464.04 398.662 462.59 398.789 461.15L400.399 442.992C400.523 441.592 400.828 440.213 401.305 438.891L404.378 430.381C405.431 427.465 407.294 424.909 409.747 423.013L422.398 413.237C423.22 412.602 423.979 411.889 424.666 411.11L438.45 395.458C438.968 394.869 439.444 394.244 439.872 393.586L452.1 374.832L455.35 370.751C458.437 366.874 463.119 364.611 468.075 364.6L477.228 364.58L487.464 364.557C491.791 364.547 495.944 366.257 499.01 369.309L499.652 369.948C502.718 373 504.446 377.146 504.455 381.473L504.462 384.352C504.467 386.508 503.969 388.636 503.009 390.567C500.96 394.689 497 397.528 492.438 398.147L482.987 399.428C480.635 399.747 478.469 400.883 476.869 402.636C473.901 405.889 473.375 410.686 475.568 414.505L476.201 415.607C476.957 416.924 477.959 418.083 479.152 419.022L504.881 439.272C506.039 440.184 507.069 441.249 507.941 442.437L514.129 450.865C517.513 455.473 518.237 461.517 516.037 466.795Z" fill="#D64851"/>
<path d="M484.722 429.759L486.694 432.355C489.77 436.402 490.427 441.793 488.413 446.462C486.898 449.974 484.02 452.719 480.44 454.067L479.86 454.286C475.265 456.016 470.122 455.474 465.989 452.825L465.881 452.756C465.102 452.257 464.368 451.69 463.688 451.062L454.901 442.948C454.171 442.274 453.505 441.535 452.909 440.74L448.797 435.247C447.002 432.849 444.18 431.441 441.186 431.448L440.438 431.449C438.654 431.453 436.93 432.096 435.58 433.261C434.398 434.281 433.566 435.645 433.2 437.162L432.237 441.154C432.104 441.705 432.038 442.27 432.039 442.836C432.045 445.424 430.643 447.811 428.381 449.066L426.678 450.011C426.201 450.276 425.702 450.501 425.188 450.683L424 451.103C422.198 451.741 420.213 451.604 418.516 450.726C416.619 449.745 415.283 447.942 414.894 445.843L414.479 443.596C414.286 442.553 414.237 441.487 414.334 440.43L415.263 430.315C415.396 428.871 415.72 427.452 416.228 426.094L417.246 423.37C418.342 420.438 420.259 417.883 422.767 416.01L428.978 411.373C429.808 410.753 430.577 410.056 431.274 409.29L439.413 400.361C439.946 399.776 440.436 399.153 440.879 398.497L448.458 387.266L448.788 386.866C451.879 383.116 456.481 380.939 461.341 380.928L464.552 380.921L471.006 380.907C473.847 380.9 476.58 381.998 478.628 383.968C480.77 386.028 481.983 388.87 481.99 391.842L481.993 393.08C481.996 394.462 481.667 395.825 481.035 397.054C479.737 399.575 477.286 401.299 474.475 401.667L468.116 402.501C466.687 402.688 465.366 403.363 464.376 404.411C462.455 406.445 462.115 409.508 463.546 411.913L463.909 412.524C464.382 413.32 465.004 414.017 465.741 414.578L481.607 426.643C482.781 427.536 483.829 428.584 484.722 429.759Z" fill="black"/>
<path d="M703.877 558.895L711.969 570.36C715.233 574.983 722.018 575.187 725.554 570.768C726.275 569.866 727.172 569.121 728.191 568.578L730.772 567.201C734.677 565.119 739.221 564.577 743.505 565.683L752.466 567.995C756.011 568.91 759.753 568.701 763.174 567.398L766.697 566.056C770.23 564.71 773.128 562.087 774.819 558.706C777.374 553.596 782.596 550.368 788.31 550.368H825.211H871.361C872.764 550.368 874.162 550.201 875.525 549.871L892.503 545.755C894.749 545.211 896.866 544.231 898.735 542.872L903.58 539.348C908.153 536.022 910.859 530.709 910.859 525.055V457.527C910.859 455.539 910.523 453.565 909.867 451.689L907.951 446.216C906.747 442.776 904.509 439.792 901.542 437.673L891.826 430.733L875.175 421.482C874.044 420.854 872.985 420.102 872.017 419.242L855.12 404.222L841.192 391.409C839.176 389.554 837.618 387.255 836.642 384.695L833.903 377.502C833.1 375.396 831.902 373.462 830.373 371.806L821.622 362.326C818.277 358.701 813.568 356.64 808.636 356.64H742.961L725.703 359.037C721.083 359.679 716.904 362.121 714.077 365.831L711.229 369.568C708.884 372.646 707.614 376.409 707.614 380.279V449.766V467.276C707.614 473.673 704.157 479.571 698.576 482.697L696.487 483.867C692.708 485.983 689.838 489.413 688.421 493.506L686.369 499.432C685.156 502.938 685.076 506.738 686.143 510.292L688.808 519.176C689.929 522.912 688.962 526.963 686.276 529.791C681.74 534.565 682.454 542.243 687.793 546.098L699.786 554.76C701.368 555.903 702.751 557.3 703.877 558.895Z" fill="#D9D9D9" stroke="black" stroke-width="6.79749"/>
<path d="M339.865 676.044L261.016 676.499L214.453 617.628L260.342 559.584L339.191 559.129L391.184 616.609L339.865 676.044Z" fill="#D9D9D9"/>
<rect x="516.299" y="623.364" width="169.937" height="17.6735" transform="rotate(179.67 516.299 623.364)" fill="black"/>
<path d="M314.797 626.737C300.175 617.416 299.801 582.719 306.943 571.386C314.084 560.054 318.473 582.214 333.095 591.535C347.718 600.856 367.307 610.451 360.166 621.784C353.025 633.116 329.419 636.058 314.797 626.737Z" fill="black"/>
<path d="M313.767 608.111C299.664 617.684 301.197 652.371 308.958 663.573C316.718 674.774 319.887 652.548 333.991 642.975C348.094 633.402 367.147 623.467 359.387 612.265C351.626 601.064 327.871 598.538 313.767 608.111Z" fill="black"/>
<path d="M249.806 618.103C249.737 606.09 264.897 596.264 283.668 596.155C302.438 596.047 306.835 605.761 306.904 617.774C306.973 629.787 302.689 639.55 283.919 639.659C265.148 639.767 249.876 630.116 249.806 618.103Z" fill="#FFAA00"/>
<path d="M938.428 674.685L1017.28 675.14L1063.84 616.269L1017.95 558.225L939.102 557.77L887.109 615.25L938.428 674.685Z" fill="#D9D9D9"/>
<rect width="169.937" height="17.6735" transform="matrix(0.999983 0.0057672 0.0057672 -0.999983 761.994 622.005)" fill="black"/>
<path d="M963.498 625.377C978.12 616.057 978.494 581.359 971.352 570.026C964.211 558.694 959.822 580.854 945.2 590.175C930.577 599.496 910.987 609.091 918.129 620.424C925.27 631.756 948.875 634.698 963.498 625.377Z" fill="black"/>
<path d="M964.528 606.751C978.631 616.324 977.098 651.011 969.337 662.213C961.577 673.415 958.408 651.188 944.304 641.615C930.201 632.042 911.148 622.107 918.908 610.906C926.669 599.704 950.424 597.178 964.528 606.751Z" fill="black"/>
<path d="M1028.49 616.744C1028.56 604.731 1013.4 594.905 994.629 594.797C975.859 594.688 971.462 604.402 971.393 616.415C971.324 628.428 975.608 638.192 994.378 638.3C1013.15 638.408 1028.42 628.757 1028.49 616.744Z" fill="#FFAA00"/>
<path d="M579.82 903.158V982.009L638.958 1028.23L696.737 982.009V903.158L638.958 851.498L579.82 903.158Z" fill="#D9D9D9"/>
<rect width="169.937" height="17.6735" transform="matrix(0 1 1 0 631.486 726.423)" fill="black"/>
<path d="M629.276 927.943C638.681 942.512 673.38 942.685 684.671 935.478C695.962 928.272 673.777 924.011 664.372 909.442C654.967 894.874 645.259 875.34 633.967 882.546C622.676 889.753 619.871 913.375 629.276 927.943Z" fill="black"/>
<path d="M647.908 928.865C638.416 943.024 603.72 941.691 592.474 933.995C581.228 926.299 603.436 923.002 612.927 908.844C622.419 894.685 632.244 875.575 643.49 883.271C654.736 890.967 657.399 914.707 647.908 928.865Z" fill="black"/>
<path d="M638.279 992.885C650.293 992.885 660.031 977.668 660.031 958.897C660.031 940.126 650.293 935.786 638.279 935.786C626.266 935.786 616.527 940.126 616.527 958.897C616.527 977.668 626.266 992.885 638.279 992.885Z" fill="#FFAA00"/>
<path d="M579.82 322.653V243.802L638.958 197.579L696.737 243.802V322.653L638.958 374.313L579.82 322.653Z" fill="#D9D9D9"/>
<rect x="631.486" y="499.387" width="169.937" height="17.6735" transform="rotate(-90 631.486 499.387)" fill="black"/>
<ellipse cx="639.641" cy="614.265" rx="74.0926" ry="73.4129" transform="rotate(-90 639.641 614.265)" fill="#FFAA00"/>
<circle cx="638.281" cy="575.52" r="20.3925" transform="rotate(-90 638.281 575.52)" fill="#2A1352"/>
<circle cx="669.549" cy="636.696" r="20.3925" transform="rotate(-90 669.549 636.696)" fill="#2A1352"/>
<ellipse cx="605.652" cy="595.232" rx="21.0722" ry="20.3925" transform="rotate(-90 605.652 595.232)" fill="#2A1352"/>
<circle cx="634.201" cy="654.37" r="20.3925" transform="rotate(-90 634.201 654.37)" fill="#2A1352"/>
<circle cx="669.549" cy="597.271" r="20.3925" transform="rotate(-90 669.549 597.271)" fill="#2A1352"/>
<ellipse cx="605.652" cy="634.658" rx="21.0722" ry="20.3925" transform="rotate(-90 605.652 634.658)" fill="#2A1352"/>
<circle cx="1062.44" cy="163.592" r="20.3925" transform="rotate(-90 1062.44 163.592)" fill="#2A1352"/>
<circle cx="1093.71" cy="224.769" r="20.3925" transform="rotate(-90 1093.71 224.769)" fill="#2A1352"/>
<ellipse cx="1029.82" cy="183.304" rx="21.0722" ry="20.3925" transform="rotate(-90 1029.82 183.304)" fill="#2A1352"/>
<circle cx="1058.37" cy="242.442" r="20.3925" transform="rotate(-90 1058.37 242.442)" fill="#2A1352"/>
<circle cx="1093.71" cy="185.343" r="20.3925" transform="rotate(-90 1093.71 185.343)" fill="#2A1352"/>
<ellipse cx="1063.8" cy="202.337" rx="19.7127" ry="19.033" transform="rotate(-90 1063.8 202.337)" fill="#D9D9D9"/>
<ellipse cx="1029.82" cy="222.73" rx="21.0722" ry="20.3925" transform="rotate(-90 1029.82 222.73)" fill="#2A1352"/>
<path d="M726.664 523.832C741.183 521.795 760.41 544.36 762.011 555.78C763.613 567.199 748.66 555.102 734.142 557.139C719.624 559.175 701.756 563.801 700.154 552.381C698.553 540.961 712.146 525.868 726.664 523.832Z" fill="#1C5C3A"/>
<path d="M737.52 535.482C741.365 521.335 721.396 499.424 710.268 496.4C699.14 493.375 709.262 509.73 705.417 523.877C701.572 538.024 694.737 555.168 705.864 558.193C716.992 561.217 733.675 549.629 737.52 535.482Z" fill="#1C5C3A"/>
<path d="M629.276 297.867C638.681 283.299 673.38 283.126 684.671 290.332C695.962 297.539 673.777 301.8 664.372 316.368C654.967 330.937 645.259 350.471 633.967 343.264C622.676 336.058 619.871 312.436 629.276 297.867Z" fill="black"/>
<path d="M647.908 296.945C638.416 282.787 603.72 284.12 592.474 291.816C581.228 299.512 603.436 302.809 612.927 316.967C622.419 331.125 632.244 350.236 643.49 342.54C654.736 334.844 657.399 311.103 647.908 296.945Z" fill="black"/>
<path d="M551.581 706.826C537.192 708.897 518.136 685.946 516.548 674.331C514.961 662.716 529.781 675.02 544.17 672.949C558.558 670.878 576.267 666.173 577.854 677.788C579.442 689.403 565.969 704.755 551.581 706.826Z" fill="#1C5C3A"/>
<path d="M540.822 694.976C537.011 709.365 556.802 731.651 567.831 734.728C578.86 737.804 568.828 721.169 572.639 706.78C576.45 692.39 583.224 674.952 572.195 671.876C561.167 668.8 544.633 680.587 540.822 694.976Z" fill="#1C5C3A"/>
<path d="M736.533 693.43C739.84 707.712 719.056 728.851 707.822 731.453C696.588 734.054 707.321 718.094 704.014 703.811C700.707 689.529 694.526 672.138 705.76 669.537C716.994 666.936 733.226 679.147 736.533 693.43Z" fill="#1C5C3A"/>
<path d="M725.885 705.269C740.315 707.853 760.383 686.032 762.415 674.681C764.448 663.33 749.048 674.853 734.617 672.269C720.187 669.684 702.507 664.385 700.474 675.736C698.442 687.087 711.454 702.684 725.885 705.269Z" fill="#1C5C3A"/>
<path d="M546.282 533.357C543.535 518.956 565.128 498.645 576.456 496.484C587.783 494.324 576.435 509.852 579.181 524.253C581.928 538.654 587.426 556.273 576.098 558.433C564.771 560.594 549.028 547.758 546.282 533.357Z" fill="#1C5C3A"/>
<path d="M557.384 521.943C543.065 518.797 522.161 539.817 519.687 551.08C517.212 562.343 533.05 551.431 547.369 554.577C561.688 557.722 579.147 563.708 581.622 552.445C584.096 541.182 571.703 525.089 557.384 521.943Z" fill="#1C5C3A"/>
<path d="M673.628 468.119C681.887 468.119 673.628 486.035 673.628 501.427C673.628 516.819 666.932 529.296 658.673 529.296C650.414 529.296 643.719 516.819 643.719 501.427C643.719 486.035 665.369 468.119 673.628 468.119Z" fill="#C50016"/>
<path d="M606.332 468.799C614.591 468.799 635.562 486.035 635.562 501.427C635.562 516.819 628.866 529.296 620.607 529.296C612.348 529.296 605.653 516.819 605.653 501.427C605.653 486.035 598.073 468.799 606.332 468.799Z" fill="#C50016"/>
<path d="M491.455 580.505C491.455 572.245 509.371 580.505 524.763 580.505C540.155 580.505 552.633 587.2 552.633 595.459C552.633 603.718 540.155 610.414 524.763 610.414C509.371 610.414 491.455 588.764 491.455 580.505Z" fill="#C50016"/>
<path d="M492.504 647.796C492.504 639.537 509.74 618.566 525.132 618.566C540.524 618.566 553.002 625.262 553.002 633.521C553.002 641.78 540.524 648.475 525.132 648.475C509.74 648.475 492.504 656.055 492.504 647.796Z" fill="#C50016"/>
<path d="M785.476 577.785C785.476 569.526 767.561 577.785 752.169 577.785C736.777 577.785 724.299 584.48 724.299 592.739C724.299 600.999 736.777 607.694 752.169 607.694C767.561 607.694 785.476 586.044 785.476 577.785Z" fill="#C50016"/>
<path d="M784.427 645.076C784.427 636.817 767.191 615.847 751.799 615.847C736.407 615.847 723.93 622.542 723.93 630.801C723.93 639.06 736.407 645.756 751.799 645.756C767.191 645.756 784.427 653.335 784.427 645.076Z" fill="#C50016"/>
<path d="M674.085 760.411C682.344 760.411 674.085 742.495 674.085 727.103C674.085 711.711 667.389 699.233 659.13 699.233C650.871 699.233 644.176 711.711 644.176 727.103C644.176 742.495 665.826 760.411 674.085 760.411Z" fill="#C50016"/>
<path d="M606.791 759.731C615.05 759.731 636.021 742.495 636.021 727.103C636.021 711.711 629.325 699.233 621.066 699.233C612.807 699.233 606.112 711.711 606.112 727.103C606.112 742.495 598.532 759.731 606.791 759.731Z" fill="#C50016"/>
<path d="M638.279 232.926C650.293 232.926 660.031 248.143 660.031 266.913C660.031 285.684 650.293 290.024 638.279 290.024C626.266 290.024 616.527 285.684 616.527 266.913C616.527 248.143 626.266 232.926 638.279 232.926Z" fill="#FFAA00"/>
<path d="M787.487 492.425L781.311 489.835C777.221 488.12 774.006 484.815 772.406 480.68L769.81 473.974C767.894 469.024 768.506 463.452 771.45 459.035L774.108 455.048C774.642 454.247 775.246 453.494 775.913 452.8L790.195 437.923C790.88 437.209 791.629 436.559 792.432 435.981L802.203 428.946C805.98 426.226 808.219 421.856 808.219 417.202V416.166C808.219 413.289 807.163 410.512 805.251 408.361C803.643 406.552 801.516 405.284 799.161 404.73L792.548 403.174C791.669 402.967 790.769 402.863 789.865 402.863C785.662 402.863 781.781 400.61 779.695 396.961L778.262 394.452C777.841 393.716 777.484 392.946 777.195 392.15L776.559 390.402C775.511 387.518 775.743 384.324 777.198 381.622C778.759 378.723 781.561 376.698 784.803 376.126L789.081 375.371C790.504 375.12 791.954 375.059 793.393 375.19L811.548 376.841C812.948 376.968 814.325 377.275 815.646 377.756L824.15 380.848C827.064 381.908 829.615 383.775 831.505 386.233L841.254 398.906C841.887 399.729 842.598 400.49 843.376 401.178L858.997 414.997C859.584 415.517 860.209 415.994 860.865 416.424L879.592 428.693L883.666 431.952C887.536 435.048 889.788 439.735 889.788 444.691V453.844V464.08C889.788 468.407 888.07 472.556 885.01 475.616L884.37 476.256C881.311 479.315 877.161 481.034 872.835 481.034H869.956C867.8 481.034 865.673 480.532 863.744 479.567C859.626 477.508 856.796 473.543 856.188 468.979L854.927 459.526C854.613 457.172 853.483 455.004 851.733 453.4C848.487 450.425 843.69 449.888 839.868 452.073L838.764 452.704C837.445 453.457 836.284 454.456 835.343 455.647L815.034 481.331C814.12 482.487 813.053 483.514 811.863 484.384L803.422 490.552C798.805 493.926 792.76 494.637 787.487 492.425Z" fill="#D64851"/>
<path d="M824.591 461.188L821.991 463.155C817.936 466.222 812.544 466.867 807.88 464.842C804.371 463.319 801.632 460.435 800.292 456.853L800.075 456.272C798.355 451.673 798.908 446.532 801.567 442.404L801.636 442.297C802.137 441.519 802.706 440.786 803.335 440.107L811.469 431.338C812.144 430.61 812.885 429.945 813.681 429.351L819.184 425.251C821.585 423.462 823 420.643 823 417.649V416.901C823 415.117 822.36 413.392 821.198 412.039C820.181 410.855 818.819 410.019 817.303 409.65L813.313 408.678C812.762 408.544 812.198 408.476 811.631 408.476C809.043 408.476 806.66 407.07 805.409 404.804L804.468 403.1C804.204 402.622 803.981 402.123 803.8 401.608L803.382 400.419C802.749 398.616 802.89 396.631 803.772 394.936C804.757 393.042 806.562 391.709 808.663 391.325L810.911 390.915C811.955 390.724 813.02 390.678 814.077 390.777L824.19 391.729C825.633 391.865 827.052 392.192 828.408 392.703L831.131 393.727C834.06 394.83 836.611 396.752 838.478 399.264L843.102 405.485C843.719 406.317 844.415 407.087 845.179 407.786L854.09 415.945C854.673 416.48 855.295 416.971 855.95 417.415L867.164 425.02L867.564 425.35C871.307 428.45 873.474 433.056 873.474 437.916V441.127V447.581C873.474 450.423 872.37 453.153 870.396 455.197C868.331 457.334 865.486 458.541 862.514 458.541H861.276C859.894 458.541 858.532 458.21 857.305 457.574C854.786 456.271 853.068 453.816 852.706 451.004L851.886 444.644C851.702 443.214 851.031 441.892 849.985 440.899C847.954 438.973 844.893 438.627 842.484 440.052L841.872 440.414C841.075 440.885 840.376 441.506 839.814 442.241L827.714 458.081C826.818 459.253 825.768 460.298 824.591 461.188Z" fill="black"/>
<path d="M615.93 1133.64L630.724 1129.65C634.297 1128.68 638.092 1128.96 641.486 1130.43L648.766 1133.6C650.818 1134.49 653.032 1134.95 655.27 1134.95H666.379C668.912 1134.95 671.41 1134.36 673.675 1133.23L676.469 1131.83C681.096 1129.52 684.352 1125.15 685.243 1120.05L687.674 1106.17C688.265 1102.78 687.775 1099.3 686.274 1096.22L677.706 1078.61C676.809 1076.76 675.572 1075.1 674.06 1073.72L666.666 1066.94C662.662 1063.27 661.304 1057.53 663.237 1052.45L663.493 1051.78C664.746 1048.49 667.409 1045.94 670.748 1044.83C675.997 1043.08 681.755 1045.23 684.566 1050L692.584 1063.59C694.398 1066.67 697.173 1069.07 700.481 1070.41L705.725 1072.55C710.735 1074.59 716.43 1074.02 720.93 1071.02L724.681 1068.52C728.129 1066.22 732.324 1065.32 736.412 1066L744.077 1067.28C748.166 1067.96 752.36 1067.06 755.809 1064.76L775.163 1051.86C776.333 1051.07 777.271 1049.99 777.878 1048.72L786.236 1031.25C787.668 1028.25 784.104 1025.36 781.468 1027.38C780.756 1027.92 779.847 1028.14 778.967 1027.97L761.626 1024.72C759.625 1024.35 757.712 1023.6 755.986 1022.52L747.504 1017.22C744.257 1015.19 742.284 1011.63 742.284 1007.8V1003.55C742.284 1001.62 743.449 999.882 745.235 999.147C748.827 997.668 752.584 1000.88 751.684 1004.66L751.526 1005.32C750.912 1007.9 752.369 1010.52 754.884 1011.36L763.71 1014.3C769.306 1016.17 775.476 1014.64 779.561 1010.39L786.936 1002.71C788.374 1001.21 790.36 1000.36 792.437 1000.36H793.739C797.231 1000.36 800.063 997.531 800.063 994.038C800.063 992.03 799.109 990.142 797.493 988.95L761.809 962.625C759.699 961.069 757.996 959.027 756.843 956.673L745.496 933.507C743.575 929.584 744.359 924.874 747.448 921.785C749.364 919.868 751.964 918.792 754.674 918.792H755.418C762.055 918.792 767.435 924.172 767.435 930.808V931.821C767.435 932.649 767.338 933.473 767.146 934.278C765.559 940.943 770.613 947.341 777.464 947.341H780.08C782.898 947.341 785.636 946.402 787.861 944.672L793.342 940.408C795.521 938.714 797.234 936.494 798.321 933.957L802.944 923.171C805.349 917.559 810.686 913.76 816.776 913.325L827.022 912.593C836.621 911.908 844.725 919.638 844.494 929.259L842.382 1016.9C842.271 1021.52 840.206 1025.87 836.7 1028.88L650.917 1188.39C644.818 1193.63 635.814 1193.64 629.699 1188.42L437.607 1024.49C433.835 1021.27 431.732 1016.51 431.892 1011.55L434.528 929.822C434.812 921.021 442.028 914.034 450.834 914.034H462.907L472.855 914.996C479.56 915.645 485.177 920.349 486.993 926.836L488.275 931.415C488.583 932.513 489.004 933.576 489.533 934.586L494.069 943.244C495.388 945.763 497.997 947.341 500.84 947.341H503.923C508.189 947.341 510.964 942.852 509.056 939.036C508.658 938.24 508.45 937.361 508.45 936.47V931.088C508.45 923.848 513.345 917.523 520.353 915.706L520.954 915.55C524.696 914.58 528.67 915.154 531.985 917.142C537.062 920.188 539.759 926.029 538.785 931.869L537.705 938.352C537.243 941.125 536.071 943.733 534.304 945.92L523.736 959.005C523.064 959.837 522.311 960.601 521.489 961.287L502.333 977.25L497.994 980.049C490.776 984.706 491.581 995.506 499.409 999.041C501.317 999.903 502.935 1001.3 504.067 1003.06L506.306 1006.54C507.642 1008.62 509.945 1009.88 512.416 1009.88H516.257C519.409 1009.88 521.61 1006.76 520.55 1003.79C519.834 1001.78 520.6 999.551 522.395 998.409L523.297 997.835C525.4 996.497 528.117 996.625 530.084 998.155L530.415 998.412C531.996 999.642 532.921 1001.53 532.921 1003.54V1010.9C532.921 1015.05 531.344 1019.04 528.509 1022.06L525.424 1025.35C523.65 1027.24 521.451 1028.69 519.009 1029.56L516.379 1030.5C514.328 1031.23 512.088 1031.23 510.036 1030.5L503.568 1028.21C498.869 1026.54 494.288 1030.97 495.789 1035.72C496.069 1036.61 496.55 1037.42 497.195 1038.09L510.297 1051.71C512.207 1053.7 514.589 1055.17 517.221 1055.99L530.559 1060.13C532.125 1060.61 533.755 1060.86 535.395 1060.86H551.653C554.089 1060.86 556.494 1061.4 558.691 1062.46L564.096 1065.04C568.462 1067.13 573.531 1067.17 577.932 1065.15L583.35 1062.67C585.939 1061.48 588.172 1059.64 589.828 1057.32L598.493 1045.19C600.001 1043.08 602.436 1041.83 605.031 1041.83C608.619 1041.83 611.772 1044.2 612.757 1047.65L615.077 1055.77C616.022 1059.08 615.898 1062.6 614.723 1065.83L612.329 1072.41C611.515 1074.65 610.219 1076.69 608.533 1078.37L598.413 1088.49C597.355 1089.55 596.447 1090.75 595.715 1092.06L590.218 1101.87C588.335 1105.24 587.703 1109.16 588.436 1112.94L589.589 1118.9C590.697 1124.63 594.776 1129.33 600.288 1131.23L606.355 1133.32C609.442 1134.38 612.778 1134.5 615.93 1133.64Z" fill="#FFAA00"/>
<rect x="642.377" y="1214.48" width="19.033" height="282.92" transform="rotate(-130.062 642.377 1214.48)" fill="#D9D9D9"/>
<rect width="19.033" height="292.005" transform="matrix(-0.643618 0.765347 0.765347 0.643618 430.137 1014.7)" fill="#D9D9D9"/>
<path d="M1180.12 635.767L1176.12 620.973C1175.16 617.401 1175.43 613.606 1176.91 610.212L1180.07 602.932C1180.97 600.879 1181.43 598.665 1181.43 596.427L1181.42 585.318C1181.42 582.785 1180.83 580.287 1179.7 578.022L1178.3 575.228C1175.99 570.602 1171.62 567.347 1166.52 566.456L1152.63 564.027C1149.25 563.436 1145.77 563.927 1142.69 565.429L1125.08 573.999C1123.23 574.896 1121.57 576.133 1120.19 577.646L1113.41 585.041C1109.74 589.045 1104 590.404 1098.93 588.472L1098.25 588.216C1094.96 586.963 1092.41 584.301 1091.3 580.962C1089.55 575.713 1091.7 569.954 1096.47 567.143L1110.06 559.123C1113.14 557.308 1115.53 554.533 1116.88 551.225L1119.02 545.98C1121.06 540.971 1120.48 535.276 1117.48 530.776L1114.98 527.026C1112.68 523.577 1111.78 519.383 1112.46 515.295L1113.74 507.629C1114.42 503.541 1113.52 499.346 1111.22 495.898L1098.31 476.546C1097.53 475.375 1096.45 474.437 1095.18 473.831L1077.7 465.475C1074.71 464.044 1071.82 467.608 1073.83 470.244C1074.38 470.956 1074.59 471.865 1074.43 472.745L1071.18 490.087C1070.8 492.088 1070.06 494.001 1068.98 495.727L1063.68 504.209C1061.65 507.457 1058.09 509.43 1054.26 509.431L1050.01 509.431C1048.08 509.432 1046.34 508.267 1045.61 506.481C1044.13 502.889 1047.34 499.132 1051.12 500.031L1051.78 500.189C1054.36 500.803 1056.98 499.345 1057.82 496.83L1060.76 488.003C1062.62 482.407 1061.1 476.238 1056.85 472.153L1049.16 464.78C1047.66 463.342 1046.82 461.355 1046.82 459.279L1046.82 457.977C1046.82 454.484 1043.98 451.654 1040.49 451.654C1038.48 451.654 1036.6 452.608 1035.4 454.224L1009.08 489.912C1007.53 492.022 1005.49 493.726 1003.13 494.879L979.968 506.229C976.046 508.151 971.335 507.367 968.246 504.279C966.329 502.363 965.252 499.763 965.252 497.053L965.252 496.309C965.251 489.672 970.63 484.292 977.266 484.291L978.28 484.291C979.107 484.29 979.931 484.387 980.736 484.579C987.401 486.165 993.799 481.11 993.798 474.259L993.798 471.643C993.797 468.825 992.858 466.087 991.127 463.863L986.863 458.382C985.168 456.203 982.948 454.49 980.411 453.404L970.084 448.979C964.233 446.473 960.375 440.793 960.2 434.431L959.957 425.565C959.706 416.44 966.992 408.886 976.12 408.804L1064.33 408.02C1069.19 407.977 1073.81 410.103 1076.95 413.818L1235.07 601.356C1240.22 607.466 1240.19 616.41 1234.99 622.481L1073.44 811.179C1070.31 814.839 1065.72 816.927 1060.9 816.883L976.105 816.108C966.792 816.023 959.44 808.173 959.966 798.875L960.534 788.82L961.495 778.873C962.143 772.168 966.846 766.55 973.333 764.733L977.912 763.45C979.01 763.142 980.073 762.721 981.083 762.191L989.74 757.655C992.259 756.335 993.837 753.726 993.836 750.883L993.836 747.8C993.835 743.534 989.346 740.76 985.53 742.668C984.734 743.067 983.855 743.274 982.964 743.274L977.583 743.275C970.342 743.276 964.016 738.383 962.198 731.374L962.042 730.773C961.072 727.032 961.645 723.057 963.633 719.742C966.679 714.665 972.519 711.967 978.359 712.94L984.842 714.019C987.615 714.481 990.223 715.652 992.411 717.419L1005.5 727.985C1006.33 728.658 1007.09 729.41 1007.78 730.232L1023.75 749.386L1026.54 753.725C1031.2 760.941 1042 760.135 1045.54 752.307C1046.4 750.398 1047.79 748.781 1049.55 747.648L1053.04 745.409C1055.12 744.072 1056.37 741.77 1056.37 739.298L1056.37 735.457C1056.37 732.305 1053.25 730.105 1050.28 731.166C1048.28 731.881 1046.04 731.116 1044.9 729.321L1044.33 728.419C1042.99 726.316 1043.12 723.599 1044.65 721.632L1044.9 721.301C1046.13 719.72 1048.02 718.794 1050.03 718.794L1057.39 718.793C1061.54 718.792 1065.53 720.369 1068.55 723.204L1071.84 726.289C1073.74 728.062 1075.18 730.261 1076.05 732.703L1076.99 735.333C1077.72 737.383 1077.73 739.624 1077 741.676L1074.7 748.144C1073.04 752.843 1077.46 757.424 1082.22 755.922C1083.1 755.641 1083.91 755.16 1084.58 754.516L1098.21 741.412C1100.19 739.502 1101.66 737.119 1102.48 734.487L1106.62 721.148C1107.1 719.582 1107.35 717.952 1107.35 716.313L1107.35 700.055C1107.35 697.619 1107.89 695.214 1108.94 693.016L1111.53 687.611C1113.61 683.244 1113.66 678.175 1111.64 673.775L1109.15 668.357C1107.97 665.768 1106.12 663.535 1103.81 661.88L1091.67 653.217C1089.56 651.709 1088.31 649.274 1088.31 646.679C1088.31 643.091 1090.68 639.938 1094.13 638.952L1102.25 636.631C1105.56 635.686 1109.08 635.809 1112.31 636.984L1118.89 639.377C1121.13 640.191 1123.17 641.486 1124.85 643.172L1134.97 653.29C1136.03 654.349 1137.23 655.257 1138.54 655.988L1148.36 661.483C1151.72 663.367 1155.64 663.998 1159.43 663.264L1165.39 662.11C1171.11 661.001 1175.81 656.922 1177.71 651.41L1179.8 645.342C1180.86 642.255 1180.98 638.92 1180.12 635.767Z" fill="#FFAA00"/>
<rect x="1260.96" y="609.312" width="19.033" height="282.92" transform="rotate(139.93 1260.96 609.312)" fill="#D9D9D9"/>
<rect width="19.033" height="292.005" transform="matrix(0.765436 0.643512 0.643512 -0.765436 1061.2 821.576)" fill="#D9D9D9"/>
<path d="M100.234 586.639L104.41 601.385C105.418 604.946 105.186 608.743 103.751 612.155L100.673 619.472C99.8054 621.535 99.3714 623.755 99.3982 625.993L99.5314 637.101C99.5617 639.633 100.181 642.124 101.341 644.375L102.771 647.153C105.14 651.751 109.549 654.954 114.655 655.785L128.571 658.049C131.959 658.6 135.434 658.068 138.502 656.53L156.01 647.752C157.843 646.832 159.487 645.575 160.855 644.047L167.544 636.572C171.165 632.525 176.889 631.097 181.987 632.97L182.662 633.218C185.965 634.431 188.55 637.063 189.703 640.389C191.516 645.617 189.43 651.4 184.698 654.268L171.199 662.448C168.144 664.3 165.781 667.103 164.473 670.427L162.399 675.696C160.419 680.73 161.062 686.417 164.116 690.881L166.661 694.602C169.001 698.023 169.952 702.206 169.319 706.302L168.134 713.982C167.501 718.078 168.452 722.262 170.792 725.683L183.926 744.881C184.72 746.042 185.813 746.967 187.089 747.558L204.664 755.706C207.675 757.102 210.526 753.504 208.478 750.892C207.926 750.187 207.698 749.28 207.853 748.398L210.896 731.019C211.247 729.014 211.971 727.092 213.029 725.353L218.228 716.809C220.218 713.537 223.754 711.522 227.584 711.476L231.831 711.425C233.762 711.402 235.515 712.546 236.272 714.323C237.794 717.897 234.629 721.692 230.84 720.838L230.173 720.688C227.587 720.105 224.984 721.594 224.176 724.118L221.34 732.979C219.542 738.597 221.139 744.748 225.442 748.781L233.212 756.064C234.727 757.484 235.598 759.46 235.623 761.536L235.638 762.838C235.68 766.331 238.545 769.127 242.037 769.086C244.045 769.062 245.922 768.085 247.095 766.455L272.989 730.458C274.52 728.33 276.541 726.602 278.882 725.421L301.91 713.798C305.81 711.829 310.529 712.557 313.654 715.609C315.594 717.502 316.702 720.088 316.734 722.799L316.743 723.543C316.823 730.179 311.508 735.623 304.872 735.702L303.859 735.714C303.031 735.724 302.206 735.637 301.399 735.455C294.715 733.949 288.378 739.079 288.46 745.929L288.491 748.545C288.525 751.363 289.497 754.089 291.254 756.293L295.583 761.723C297.303 763.881 299.543 765.568 302.093 766.625L312.279 770.846C318.257 773.324 322.206 779.102 322.343 785.572L322.527 794.26C322.718 803.323 315.485 810.805 306.42 810.918L221.638 811.978C216.864 812.037 212.304 810.003 209.159 806.411L46.6553 620.781C41.3271 614.695 41.2636 605.623 46.5061 599.462L207.067 410.788C210.237 407.063 214.912 404.957 219.803 405.05L302.241 406.626C311.331 406.8 318.525 414.37 318.235 423.456L317.995 430.996L317.152 440.954C316.583 447.666 311.948 453.339 305.483 455.233L300.919 456.57C299.825 456.891 298.767 457.325 297.764 457.866L289.16 462.505C286.658 463.854 285.111 466.482 285.145 469.325L285.182 472.408C285.233 476.674 289.755 479.394 293.547 477.441C294.339 477.033 295.215 476.815 296.106 476.804L301.488 476.74C308.728 476.653 315.111 481.471 317.012 488.458L317.175 489.057C318.19 492.787 317.663 496.768 315.715 500.106C312.73 505.218 306.922 507.985 301.071 507.082L294.576 506.08C291.796 505.651 289.175 504.51 286.967 502.77L273.757 492.359C272.916 491.697 272.143 490.953 271.448 490.139L255.256 471.176L252.405 466.871C247.662 459.71 236.872 460.644 233.431 468.514C232.592 470.432 231.216 472.066 229.469 473.22L226.014 475.5C223.951 476.861 222.721 479.178 222.751 481.65L222.797 485.491C222.835 488.642 225.984 490.805 228.939 489.71C230.934 488.97 233.175 489.709 234.339 491.49L234.924 492.386C236.287 494.472 236.191 497.19 234.685 499.176L234.432 499.51C233.221 501.106 231.341 502.053 229.338 502.077L221.971 502.166C217.826 502.215 213.819 500.686 210.761 497.887L207.433 494.842C205.52 493.091 204.052 490.91 203.151 488.478L202.18 485.859C201.423 483.818 201.394 481.577 202.098 479.517L204.315 473.022C205.926 468.303 201.448 463.775 196.712 465.334C195.828 465.624 195.024 466.115 194.361 466.768L180.893 480.032C178.93 481.966 177.488 484.365 176.703 487.007L172.724 500.394C172.257 501.965 172.029 503.598 172.049 505.237L172.244 521.494C172.273 523.93 171.756 526.342 170.732 528.552L168.212 533.987C166.176 538.378 166.195 543.447 168.265 547.823L170.813 553.211C172.03 555.786 173.901 557.997 176.238 559.624L188.472 568.143C190.602 569.626 191.884 572.046 191.915 574.641C191.958 578.228 189.618 581.41 186.18 582.437L178.089 584.853C174.795 585.838 171.274 585.756 168.029 584.62L161.419 582.305C159.169 581.517 157.119 580.246 155.413 578.581L145.173 568.583C144.101 567.537 142.891 566.643 141.576 565.928L131.695 560.549C128.309 558.706 124.38 558.121 120.604 558.899L114.658 560.124C108.948 561.3 104.299 565.435 102.465 570.969L100.445 577.061C99.418 580.161 99.3444 583.497 100.234 586.639Z" fill="#FFAA00"/>
<rect x="19.7207" y="614.052" width="19.033" height="282.92" transform="rotate(-40.7488 19.7207 614.052)" fill="#D9D9D9"/>
<path d="M216.953 399.436L203.001 390.452L16.9926 613.083L31.7052 625.157L216.953 399.436Z" fill="#D9D9D9"/>
<path d="M616.083 90.8058L630.878 94.8043C634.45 95.7699 638.245 95.4921 641.639 94.0165L648.919 90.8513C650.971 89.9589 653.186 89.4984 655.424 89.4984H666.533C669.065 89.4984 671.563 90.0881 673.829 91.2207L676.623 92.6178C681.249 94.9312 684.505 99.3018 685.397 104.397L687.827 118.285C688.419 121.666 687.929 125.147 686.427 128.234L677.86 145.845C676.962 147.689 675.725 149.348 674.213 150.734L666.819 157.512C662.816 161.182 661.457 166.923 663.39 171.998L663.646 172.669C664.899 175.958 667.562 178.511 670.901 179.624C676.15 181.374 681.908 179.219 684.719 174.453L692.737 160.857C694.552 157.78 697.326 155.384 700.634 154.036L705.879 151.899C710.888 149.859 716.583 150.433 721.083 153.434L724.834 155.934C728.283 158.233 732.477 159.133 736.565 158.452L744.231 157.174C748.319 156.493 752.513 157.393 755.962 159.692L775.316 172.595C776.487 173.375 777.425 174.457 778.032 175.726L786.39 193.202C787.822 196.196 784.258 199.09 781.621 197.074C780.91 196.53 780 196.313 779.12 196.478L761.779 199.73C759.778 200.105 757.865 200.851 756.139 201.93L747.658 207.231C744.41 209.261 742.437 212.82 742.437 216.65V220.898C742.437 222.828 743.603 224.568 745.388 225.304C748.98 226.783 752.737 223.573 751.838 219.794L751.679 219.129C751.065 216.55 752.523 213.929 755.038 213.091L763.864 210.149C769.46 208.284 775.629 209.807 779.714 214.062L787.089 221.744C788.527 223.242 790.514 224.089 792.59 224.089H793.893C797.385 224.089 800.216 226.92 800.216 230.412C800.216 232.42 799.262 234.309 797.646 235.501L761.962 261.825C759.853 263.381 758.149 265.423 756.996 267.777L745.649 290.943C743.728 294.866 744.512 299.577 747.601 302.665C749.518 304.582 752.117 305.659 754.827 305.659H755.572C762.208 305.659 767.588 300.279 767.588 293.642V292.629C767.588 291.802 767.491 290.977 767.3 290.172C765.713 283.507 770.766 277.109 777.618 277.109H780.234C783.052 277.109 785.789 278.048 788.014 279.779L793.496 284.042C795.674 285.737 797.388 287.956 798.475 290.493L802.776 300.529C805.347 306.528 811.245 310.417 817.771 310.417H829.29C838.3 310.417 845.604 303.113 845.604 294.103V207.839C845.604 203.054 843.503 198.511 839.859 195.412L651.604 35.3011C645.495 30.1055 636.516 30.1203 630.424 35.3361L438.845 199.368C435.142 202.539 433.05 207.2 433.144 212.074L434.728 294.416C434.899 303.302 442.151 310.417 451.039 310.417H463.061L473.008 309.454C479.713 308.805 485.33 304.102 487.146 297.615L488.429 293.035C488.736 291.937 489.158 290.875 489.687 289.864L494.222 281.206C495.541 278.687 498.15 277.109 500.993 277.109H504.077C508.343 277.109 511.117 281.598 509.21 285.414C508.811 286.211 508.604 287.089 508.604 287.98V293.362C508.604 300.602 513.498 306.927 520.507 308.744L521.108 308.9C524.849 309.87 528.824 309.297 532.138 307.308C537.215 304.262 539.912 298.421 538.939 292.582L537.858 286.099C537.396 283.325 536.225 280.718 534.458 278.53L523.89 265.446C523.217 264.613 522.464 263.849 521.642 263.164L502.486 247.2L498.147 244.401C490.93 239.744 491.735 228.944 499.563 225.409C501.471 224.547 503.088 223.152 504.22 221.391L506.459 217.908C507.796 215.829 510.098 214.572 512.57 214.572H516.411C519.563 214.572 521.763 217.695 520.703 220.663C519.987 222.667 520.753 224.899 522.548 226.042L523.45 226.616C525.553 227.954 528.27 227.825 530.238 226.295L530.568 226.038C532.15 224.808 533.075 222.917 533.075 220.913V213.546C533.075 209.402 531.497 205.412 528.662 202.388L525.577 199.098C523.804 197.206 521.605 195.764 519.162 194.892L516.532 193.952C514.482 193.22 512.241 193.218 510.189 193.946L503.721 196.241C499.022 197.908 494.441 193.485 495.942 188.73C496.223 187.844 496.704 187.033 497.348 186.363L510.45 172.737C512.36 170.751 514.742 169.28 517.374 168.464L530.713 164.324C532.278 163.838 533.908 163.591 535.548 163.591H551.806C554.242 163.591 556.647 163.045 558.845 161.994L564.249 159.41C568.616 157.321 573.685 157.28 578.085 159.297L583.503 161.78C586.092 162.967 588.326 164.81 589.981 167.128L598.646 179.259C600.154 181.371 602.59 182.624 605.185 182.624C608.772 182.624 611.925 180.246 612.911 176.796L615.231 168.677C616.175 165.371 616.051 161.851 614.876 158.62L612.483 152.038C611.668 149.798 610.372 147.763 608.687 146.077L598.567 135.958C597.508 134.899 596.6 133.699 595.868 132.393L590.372 122.577C588.488 119.214 587.857 115.291 588.589 111.506L589.743 105.547C590.85 99.8227 594.929 95.1248 600.441 93.2241L606.509 91.1319C609.596 90.0674 612.931 89.9538 616.083 90.8058Z" fill="#FFAA00"/>
<path d="M642.529 9.96817L630.279 24.535L846.811 206.628L862.5 194.952L642.529 9.96817Z" fill="#D9D9D9"/>
<rect x="430.293" y="209.756" width="19.033" height="292.005" transform="rotate(-130.062 430.293 209.756)" fill="#D9D9D9"/>
<rect x="839.488" y="1032.31" width="190.33" height="19.033" transform="rotate(-90 839.488 1032.31)" fill="#D9D9D9"/>
<rect x="418.041" y="1029.59" width="190.33" height="19.033" transform="rotate(-90 418.041 1029.59)" fill="#D9D9D9"/>
<path d="M843.566 385.189V194.86L862.499 194.952L862.599 385.189H843.566Z" fill="#D9D9D9"/>
<rect x="418.041" y="387.908" width="190.33" height="19.033" transform="rotate(-90 418.041 387.908)" fill="#D9D9D9"/>
<rect x="1078.76" y="409.661" width="210.722" height="19.033" transform="rotate(-180 1078.76 409.661)" fill="#D9D9D9"/>
<path d="M1076 833.824H882.988V814.791H1073.32L1076 833.824Z" fill="#D9D9D9"/>
<rect x="393.572" y="409.661" width="190.33" height="19.033" transform="rotate(-180 393.572 409.661)" fill="#D9D9D9"/>
<path d="M393.572 828.386H204.5L203.243 809.353H393.572V828.386Z" fill="#D9D9D9"/>
<path d="M302.646 308.386L300.775 300.447L302.646 308.386L307.851 307.159C309.328 306.811 310.873 306.882 312.313 307.364L327.885 312.58L330.476 304.845L327.885 312.58C328.061 312.639 328.228 312.72 328.383 312.823L332.889 306.023L328.383 312.823L333.783 316.402C343.905 323.11 357.394 315.68 357.133 303.54L348.978 303.715L357.133 303.54C357.117 302.812 357.049 302.085 356.928 301.366L352.891 277.387L351.109 250.875C351.083 250.48 351.085 250.085 351.116 249.691L352.614 230.576C352.702 229.448 353.024 228.351 353.559 227.355L358.194 218.721C358.505 218.143 359.079 217.755 359.731 217.683L367.98 216.771C380.885 215.346 385.792 199.151 375.849 190.803C373.494 188.825 370.579 187.633 367.513 187.392L348.84 185.929C344.664 185.602 340.501 186.696 337.026 189.035C335.465 190.085 333.381 188.869 333.528 186.993L334.448 175.256L336.455 149.649C336.625 147.481 336.505 145.3 336.098 143.163L332.97 126.724C332.174 122.541 330.3 118.637 327.533 115.4L314.127 99.7147C309.91 94.781 303.907 91.7245 297.436 91.2175L267.702 88.8875C262.31 88.4649 256.93 89.8406 252.403 92.7995L256.865 99.6275L252.402 92.7995L244.2 98.1601C241.388 99.9984 237.61 99.12 235.897 96.2294C232.008 89.6678 225.024 85.5601 217.4 85.3496L133.157 83.023C120.128 82.6631 109.104 92.5788 108.086 105.573L101.492 189.717C101.029 195.626 102.726 201.503 106.269 206.255L112.809 201.38L106.269 206.255L107.658 208.118C109.962 211.208 109.788 215.489 107.242 218.383L101.805 224.56C100.268 226.306 98.9882 228.263 98.0036 230.371L91.5446 244.199C89.2289 249.157 88.6417 254.748 89.8768 260.079L97.8233 258.238L89.8768 260.079L94.0592 278.13C94.7148 280.96 95.869 283.65 97.4678 286.075L104.278 281.586L97.4678 286.075L106.461 299.717C108.622 302.995 111.54 305.705 114.969 307.618L132.545 317.424C135.624 319.142 139.039 320.174 142.555 320.45L164.749 322.189L172.955 322.832C178.657 323.279 182.141 329.302 179.684 334.467L176.383 341.408C174.865 344.599 174.387 348.186 175.017 351.664C177.822 367.156 198.436 370.71 206.267 357.051L207.626 354.681C207.728 354.502 207.866 354.345 208.029 354.219L216.027 348.08C217.626 346.854 219.622 346.262 221.631 346.419L239.817 347.844C240.482 347.896 241.138 348.03 241.77 348.242L268.001 357.027L270.591 349.292L268.001 357.027C268.222 357.101 268.435 357.197 268.638 357.313L270.051 358.123C284.581 366.453 301.984 353.456 298.271 337.249L295.454 319.756C295.192 318.129 295.429 316.459 296.135 314.969L297.145 312.835C298.207 310.593 300.231 308.955 302.646 308.386Z" fill="#C70016" stroke="white" stroke-width="16.314"/>
<rect x="297.939" y="301.81" width="10.876" height="61.2409" transform="rotate(140.073 297.939 301.81)" fill="#167241"/>
<circle cx="182.874" cy="221.334" r="20.3925" transform="rotate(-175.519 182.874 221.334)" fill="#2A1352"/>
<circle cx="246.318" cy="194.941" r="20.3925" transform="rotate(-175.519 246.318 194.941)" fill="#2A1352"/>
<ellipse cx="199.978" cy="255.403" rx="21.0722" ry="20.3925" transform="rotate(-175.519 199.978 255.403)" fill="#2A1352"/>
<circle cx="261.173" cy="231.561" r="20.3925" transform="rotate(-175.519 261.173 231.561)" fill="#2A1352"/>
<circle cx="207.013" cy="191.86" r="20.3925" transform="rotate(-175.519 207.013 191.86)" fill="#2A1352"/>
<ellipse cx="221.612" cy="223.006" rx="19.7127" ry="19.033" transform="rotate(-175.519 221.612 223.006)" fill="#D9D9D9"/>
<ellipse cx="239.29" cy="258.482" rx="21.0722" ry="20.3925" transform="rotate(-175.519 239.29 258.482)" fill="#2A1352"/>
<path d="M974.701 925.531L976.573 933.47L974.701 925.531L969.497 926.758C968.02 927.106 966.474 927.035 965.035 926.553L949.463 921.337L946.872 929.072L949.463 921.337C949.287 921.278 949.12 921.197 948.965 921.094L944.459 927.894L948.965 921.094L943.564 917.515C933.443 910.807 919.954 918.237 920.215 930.377L928.37 930.202L920.215 930.377C920.23 931.105 920.299 931.832 920.42 932.551L924.456 956.53L926.238 983.042C926.265 983.437 926.263 983.832 926.232 984.226L924.734 1003.34C924.646 1004.47 924.324 1005.57 923.789 1006.56L919.153 1015.2C918.843 1015.77 918.268 1016.16 917.616 1016.23L909.367 1017.15C896.463 1018.57 891.556 1034.77 901.499 1043.11C903.854 1045.09 906.769 1046.28 909.835 1046.52L928.508 1047.99C932.683 1048.32 936.847 1047.22 940.322 1044.88C941.882 1043.83 943.966 1045.05 943.819 1046.92L942.899 1058.66L940.893 1084.27C940.723 1086.44 940.843 1088.62 941.25 1090.75L944.378 1107.19C945.174 1111.38 947.048 1115.28 949.815 1118.52L963.221 1134.2C967.437 1139.14 973.441 1142.19 979.911 1142.7L1009.65 1145.03C1015.04 1145.45 1020.42 1144.08 1024.95 1141.12L1020.48 1134.29L1024.95 1141.12L1033.15 1135.76C1035.96 1133.92 1039.74 1134.8 1041.45 1137.69C1045.34 1144.25 1052.32 1148.36 1059.95 1148.57L1144.19 1150.89C1157.22 1151.25 1168.24 1141.34 1169.26 1128.34L1175.86 1044.2C1176.32 1038.29 1174.62 1032.41 1171.08 1027.66L1164.54 1032.54L1171.08 1027.66L1169.69 1025.8C1167.39 1022.71 1167.56 1018.43 1170.11 1015.53L1175.54 1009.36C1177.08 1007.61 1178.36 1005.65 1179.34 1003.55L1185.8 989.718C1188.12 984.76 1188.71 979.169 1187.47 973.838L1179.52 975.679L1187.47 973.838L1183.29 955.787C1182.63 952.957 1181.48 950.267 1179.88 947.842L1173.07 952.331L1179.88 947.842L1170.89 934.2C1168.73 930.922 1165.81 928.212 1162.38 926.299L1144.8 916.493C1141.72 914.775 1138.31 913.743 1134.79 913.467L1112.6 911.728L1104.39 911.085C1098.69 910.638 1095.21 904.615 1097.66 899.45L1100.96 892.509C1102.48 889.318 1102.96 885.731 1102.33 882.253C1099.53 866.761 1078.91 863.207 1071.08 876.866L1069.72 879.236C1069.62 879.415 1069.48 879.572 1069.32 879.698L1061.32 885.837C1059.72 887.063 1057.73 887.655 1055.72 887.498L1037.53 886.073C1036.87 886.021 1036.21 885.887 1035.58 885.675L1009.35 876.89L1006.76 884.625L1009.35 876.89C1009.13 876.816 1008.91 876.72 1008.71 876.604L1007.3 875.794C992.767 867.464 975.363 880.461 979.077 896.668L981.893 914.161C982.156 915.788 981.918 917.458 981.213 918.948L980.202 921.082C979.141 923.324 977.116 924.962 974.701 925.531Z" fill="#C70016" stroke="white" stroke-width="16.314"/>
<rect x="979.408" y="932.107" width="10.876" height="61.2409" transform="rotate(-39.9272 979.408 932.107)" fill="#167241"/>
<circle cx="1094.47" cy="1012.58" r="20.3925" transform="rotate(4.48057 1094.47 1012.58)" fill="#2A1352"/>
<circle cx="1031.03" cy="1038.98" r="20.3925" transform="rotate(4.48057 1031.03 1038.98)" fill="#2A1352"/>
<ellipse cx="1077.36" cy="978.515" rx="21.0722" ry="20.3925" transform="rotate(4.48057 1077.36 978.515)" fill="#2A1352"/>
<circle cx="1016.18" cy="1002.36" r="20.3925" transform="rotate(4.48057 1016.18 1002.36)" fill="#2A1352"/>
<circle cx="1070.34" cy="1042.06" r="20.3925" transform="rotate(4.48057 1070.34 1042.06)" fill="#2A1352"/>
<ellipse cx="1055.73" cy="1010.91" rx="19.7127" ry="19.033" transform="rotate(4.48057 1055.73 1010.91)" fill="#D9D9D9"/>
<ellipse cx="1038.06" cy="975.435" rx="21.0722" ry="20.3925" transform="rotate(4.48057 1038.06 975.435)" fill="#2A1352"/>
<path d="M314.883 910.576L313.011 918.515L314.883 910.576L320.087 911.802C321.564 912.151 323.11 912.08 324.549 911.598L340.121 906.382L342.712 914.117L340.121 906.382C340.297 906.323 340.464 906.242 340.619 906.139L345.125 912.938L340.619 906.139L346.02 902.56C356.141 895.851 369.63 903.282 369.369 915.422L361.214 915.246L369.369 915.422C369.354 916.15 369.285 916.877 369.164 917.596L365.128 941.575L363.346 968.087C363.319 968.481 363.321 968.877 363.352 969.271L364.85 988.386C364.938 989.514 365.26 990.611 365.795 991.607L370.431 1000.24C370.741 1000.82 371.316 1001.21 371.968 1001.28L380.217 1002.19C393.121 1003.62 398.028 1019.81 388.085 1028.16C385.73 1030.14 382.815 1031.33 379.749 1031.57L361.076 1033.03C356.901 1033.36 352.737 1032.27 349.262 1029.93C347.702 1028.88 345.618 1030.09 345.765 1031.97L346.684 1043.71L348.691 1069.31C348.861 1071.48 348.741 1073.66 348.334 1075.8L345.206 1092.24C344.41 1096.42 342.536 1100.32 339.769 1103.56L326.363 1119.25C322.147 1124.18 316.143 1127.24 309.673 1127.74L279.938 1130.07C274.546 1130.5 269.166 1129.12 264.639 1126.16L269.101 1119.33L264.639 1126.16L256.437 1120.8C253.624 1118.96 249.846 1119.84 248.133 1122.73C244.244 1129.29 237.261 1133.4 229.636 1133.61L145.394 1135.94C132.365 1136.3 121.34 1126.38 120.322 1113.39L113.728 1029.24C113.265 1023.34 114.963 1017.46 118.506 1012.71L125.045 1017.58L118.506 1012.71L119.895 1010.84C122.198 1007.75 122.025 1003.47 119.478 1000.58L114.042 994.402C112.505 992.655 111.225 990.699 110.24 988.591L103.781 974.763C101.465 969.805 100.878 964.214 102.113 958.883L110.06 960.724L102.113 958.883L106.296 940.832C106.951 938.002 108.105 935.312 109.704 932.886L116.514 937.376L109.704 932.886L118.697 919.245C120.858 915.967 123.776 913.257 127.205 911.344L144.781 901.538C147.861 899.82 151.276 898.788 154.792 898.512L176.986 896.773L185.191 896.13C190.893 895.683 194.377 889.66 191.92 884.495L188.619 877.554C187.101 874.363 186.624 870.775 187.253 867.298C190.058 851.806 210.672 848.252 218.503 861.91L219.862 864.281C219.965 864.46 220.102 864.617 220.266 864.743L228.264 870.881C229.862 872.108 231.858 872.7 233.867 872.543L252.053 871.118C252.718 871.066 253.374 870.932 254.007 870.72L280.237 861.935L282.827 869.67L280.237 861.935C280.458 861.861 280.672 861.765 280.874 861.649L282.287 860.839C296.817 852.508 314.221 865.506 310.507 881.713L307.691 899.206C307.428 900.833 307.666 902.502 308.371 903.993L309.382 906.127C310.443 908.369 312.468 910.006 314.883 910.576Z" fill="#C70016" stroke="white" stroke-width="16.314"/>
<rect width="10.876" height="61.2409" transform="matrix(-0.766861 -0.641813 -0.641813 0.766861 310.176 917.153)" fill="#167241"/>
<circle cx="20.3925" cy="20.3925" r="20.3925" transform="matrix(-0.996944 0.078121 0.078121 0.996944 213.854 975.706)" fill="#2A1352"/>
<circle cx="20.3925" cy="20.3925" r="20.3925" transform="matrix(-0.996944 0.078121 0.078121 0.996944 277.283 1002.1)" fill="#2A1352"/>
<ellipse cx="21.0722" cy="20.3925" rx="21.0722" ry="20.3925" transform="matrix(-0.996944 0.078121 0.078121 0.996944 231.631 941.584)" fill="#2A1352"/>
<circle cx="20.3925" cy="20.3925" r="20.3925" transform="matrix(-0.996944 0.078121 0.078121 0.996944 292.143 965.478)" fill="#2A1352"/>
<circle cx="20.3925" cy="20.3925" r="20.3925" transform="matrix(-0.996944 0.078121 0.078121 0.996944 237.986 1005.18)" fill="#2A1352"/>
<ellipse cx="19.7127" cy="19.033" rx="19.7127" ry="19.033" transform="matrix(-0.996944 0.078121 0.078121 0.996944 252.014 975.44)" fill="#D9D9D9"/>
<ellipse cx="21.0722" cy="20.3925" rx="21.0722" ry="20.3925" transform="matrix(-0.996944 0.078121 0.078121 0.996944 270.941 938.503)" fill="#2A1352"/>
<ellipse cx="638.64" cy="614.265" rx="19.7127" ry="19.033" transform="rotate(-90 638.64 614.265)" fill="#D9D9D9"/>
</g>
<defs>
<clipPath id="clip0_109_880">
<rect width="1224" height="1280" fill="white" transform="matrix(0 -1 1 0 0 1224)"/>
</clipPath>
</defs>
</svg>
