<svg width="1280" height="383" viewBox="0 0 1280 383" fill="none" xmlns="http://www.w3.org/2000/svg">
<path d="M479.102 125.84C473.612 120.975 471.533 115.739 473.589 112.676C475.645 109.612 480.725 109.539 486.215 114.403C491.705 119.268 492.801 127.788 493.047 129.946C490.397 130.227 484.593 130.704 479.102 125.84Z" fill="#D9D9D9"/>
<path d="M485.767 295.96C490.879 287.506 496.761 284.18 500.528 287.167C504.295 290.155 504.885 297.811 499.773 306.265C494.661 314.719 484.861 316.681 482.375 317.131C481.786 313.146 480.655 304.414 485.767 295.96Z" fill="#D9D9D9"/>
<path d="M528.865 307.251C523.756 298.795 523.104 291.308 526.864 288.309C530.624 285.309 537.082 287.36 542.19 295.817C547.299 304.273 545.463 315.49 544.959 318.318C541.499 317.554 533.973 315.707 528.865 307.251Z" fill="#D9D9D9"/>
<path d="M557.466 301.52C554.449 296.525 554.374 291.856 557.042 289.728C559.709 287.6 563.941 288.478 566.958 293.473C569.976 298.467 568.201 305.643 567.726 307.455C565.442 307.196 560.483 306.515 557.466 301.52Z" fill="#D9D9D9"/>
<path d="M573.743 340.264C566.977 340.516 562.556 337.386 562.416 332.648C562.275 327.909 566.033 323.327 572.799 323.075C579.565 322.823 585.048 329.95 586.413 331.783C584.586 334.403 580.509 340.012 573.743 340.264Z" fill="#D9D9D9"/>
<path d="M465.512 337.524C472.974 337.767 477.665 341.176 477.555 345.859C477.445 350.543 473.054 354.788 465.591 354.545C458.129 354.301 452.491 346.873 451.091 344.967C453.248 342.515 458.049 337.28 465.512 337.524Z" fill="#D9D9D9"/>
<path d="M438.553 236.488C444.464 234.254 448.86 234.97 449.75 238.055C450.64 241.14 448.076 245.312 442.165 247.546C436.253 249.779 430.276 246.75 428.778 245.957C429.962 243.669 432.641 238.722 438.553 236.488Z" fill="#D9D9D9"/>
<path d="M584.741 246.981C578.838 244.719 575.687 241.132 576.58 238.048C577.473 234.964 581.702 233.377 587.606 235.639C593.509 237.9 596.723 244.427 597.511 246.089C595.37 247.113 590.644 249.243 584.741 246.981Z" fill="#D9D9D9"/>
<path d="M459.331 296.532C463.464 292.73 467.519 292.318 469.556 295.223C471.592 298.127 471.124 303.031 466.991 306.833C462.858 310.634 456.494 309.105 454.886 308.687C454.952 306.056 455.199 300.333 459.331 296.532Z" fill="#D9D9D9"/>
<path d="M435.474 141.688C426.465 137.881 421.976 131.484 423.8 125.775C425.624 120.066 432.51 116.907 441.52 120.713C450.529 124.52 454.722 136.305 455.742 139.309C452.226 141.311 444.484 145.494 435.474 141.688Z" fill="#D9D9D9"/>
<path d="M553.259 114.021C558.139 108.364 562.923 106.635 565.322 109.35C567.721 112.065 567.164 117.858 562.285 123.516C557.406 129.173 549.9 129.38 548.003 129.397C548.084 126.345 548.38 119.678 553.259 114.021Z" fill="#D9D9D9"/>
<path d="M557.406 187.926C568.153 198.785 569.206 220.188 561.795 230.253C554.384 240.317 533.325 253.2 522.577 242.342C511.83 231.484 506.261 188.724 513.672 178.66C521.084 168.595 546.658 177.068 557.406 187.926Z" fill="#C70016"/>
<path d="M468.772 190.734C458.701 202.948 458.902 224.407 466.874 233.47C474.845 242.532 496.577 252.63 506.649 240.416C516.72 228.202 519.769 184.881 511.798 175.818C503.826 166.755 478.844 178.52 468.772 190.734Z" fill="#C70016"/>
<path d="M520.292 147.146C512.018 146.883 508.126 121.549 507.844 133.188C499.068 149.092 510.255 165.795 522.497 164.841C530.771 165.104 540.731 142.98 530.669 133.47C530.95 121.83 528.566 147.408 520.292 147.146Z" fill="#DF8200"/>
<path d="M518.835 331.622C510.562 331.359 505.543 352.606 505.782 342.723C497.728 328.727 509.646 315.224 521.828 316.751C530.102 317.014 539.059 336.352 528.586 343.824C528.348 353.707 527.109 331.885 518.835 331.622Z" fill="#DF8200"/>
<path d="M444.593 196.608C447.838 205.343 429.395 219.976 438.732 215.411C454.994 217.921 463.555 199.286 457.69 186.922C454.445 178.187 432.763 177.041 429.429 191.5C420.092 196.066 441.348 187.874 444.593 196.608Z" fill="#DF8200"/>
<path d="M576.968 180.827C582.18 173.45 602.08 185.306 594.196 177.974C588.524 160.312 570.162 160.348 563.379 172.078C558.167 179.454 567.424 201.975 580.124 198.592C588.009 205.924 571.755 188.203 576.968 180.827Z" fill="#DF8200"/>
<path d="M586.142 124.255C595.371 121.218 602.289 123.336 603.758 129.178C605.227 135.02 601.299 142.236 592.07 145.273C582.84 148.31 573.387 141.645 571.017 139.913C572.822 135.915 576.913 127.292 586.142 124.255Z" fill="#D9D9D9"/>
<ellipse cx="5.6501" cy="4.92536" rx="5.6501" ry="4.92536" transform="matrix(-0.00760746 0.999971 0.99995 0.00995632 516.939 112.785)" fill="#D9D9D9"/>
<ellipse cx="5.6501" cy="4.92536" rx="5.6501" ry="4.92536" transform="matrix(-0.00760746 0.999971 0.99995 0.00995632 461.574 267.648)" fill="#D9D9D9"/>
<ellipse cx="5.6501" cy="4.92536" rx="5.6501" ry="4.92536" transform="matrix(-0.00760746 0.999971 0.99995 0.00995632 560.135 262.979)" fill="#D9D9D9"/>
<ellipse cx="5.6501" cy="4.92536" rx="5.6501" ry="4.92536" transform="matrix(-0.00760746 0.999971 0.99995 0.00995632 469.949 137.748)" fill="#D9D9D9"/>
<ellipse cx="5.6501" cy="4.92536" rx="5.6501" ry="4.92536" transform="matrix(-0.00760746 0.999971 0.99995 0.00995632 480.801 330.006)" fill="#D9D9D9"/>
<ellipse cx="5.6501" cy="4.92536" rx="5.6501" ry="4.92536" transform="matrix(-0.00760746 0.999971 0.99995 0.00995632 544.842 330.646)" fill="#D9D9D9"/>
<ellipse cx="5.6501" cy="4.92536" rx="5.6501" ry="4.92536" transform="matrix(-0.00760746 0.999971 0.99995 0.00995632 546.283 141.334)" fill="#D9D9D9"/>
<path d="M483.427 234.448C487.236 257.031 516.294 265.382 531.525 261.475C546.756 257.567 556.372 235.963 552.563 213.38C548.754 190.797 523.982 169.111 508.751 173.018C493.52 176.925 479.618 211.865 483.427 234.448Z" fill="#D64851"/>
<path d="M496.834 222.06C499.606 238.5 513.313 242.9 524.312 240.078C535.31 237.257 542.091 223.085 539.318 206.645C536.545 190.205 522.233 169.281 511.235 172.103C500.236 174.924 494.061 205.62 496.834 222.06Z" fill="#6A2129"/>
<path d="M1058.78 134.059C1053.46 129.112 1051.45 123.801 1053.46 120.704C1055.47 117.608 1060.4 117.551 1065.73 122.498C1071.05 127.445 1072.09 136.08 1072.32 138.267C1069.75 138.542 1064.11 139.006 1058.78 134.059Z" fill="#D9D9D9"/>
<path d="M1064.79 306.424C1069.79 297.877 1075.51 294.527 1079.17 297.567C1082.82 300.606 1083.37 308.365 1078.38 316.912C1073.39 325.459 1063.86 327.413 1061.44 327.861C1060.88 323.822 1059.8 314.971 1064.79 306.424Z" fill="#D9D9D9"/>
<path d="M1106.65 318.013C1101.71 309.429 1101.1 301.842 1104.76 298.817C1108.42 295.791 1114.69 297.891 1119.64 306.475C1124.58 315.06 1122.76 326.417 1122.27 329.28C1118.9 328.494 1111.6 326.598 1106.65 318.013Z" fill="#D9D9D9"/>
<path d="M1134.46 312.305C1131.54 307.235 1131.48 302.504 1134.08 300.357C1136.68 298.211 1140.79 299.115 1143.71 304.185C1146.63 309.255 1144.88 316.519 1144.42 318.353C1142.2 318.082 1137.38 317.375 1134.46 312.305Z" fill="#D9D9D9"/>
<path d="M1150.17 351.612C1143.6 351.844 1139.31 348.657 1139.19 343.857C1139.06 339.056 1142.73 334.427 1149.3 334.195C1155.88 333.963 1161.19 341.202 1162.51 343.063C1160.73 345.712 1156.75 351.379 1150.17 351.612Z" fill="#D9D9D9"/>
<path d="M1030.97 332.182C1038.23 332.454 1042.78 335.924 1042.66 340.668C1042.54 345.412 1038.26 349.698 1031 349.426C1023.75 349.153 1018.29 341.609 1016.94 339.673C1019.04 337.196 1023.72 331.91 1030.97 332.182Z" fill="#D9D9D9"/>
<path d="M1019.07 246.015C1024.82 243.772 1029.09 244.512 1029.95 247.641C1030.8 250.769 1028.3 254.987 1022.55 257.229C1016.8 259.472 1011 256.382 1009.54 255.574C1010.7 253.26 1013.32 248.257 1019.07 246.015Z" fill="#D9D9D9"/>
<path d="M1161.12 257.147C1155.39 254.835 1152.34 251.19 1153.22 248.069C1154.09 244.949 1158.21 243.355 1163.94 245.666C1169.67 247.978 1172.78 254.601 1173.54 256.288C1171.45 257.317 1166.86 259.459 1161.12 257.147Z" fill="#D9D9D9"/>
<path d="M1039.1 306.915C1043.13 303.078 1047.07 302.675 1049.04 305.624C1051.01 308.573 1050.54 313.54 1046.51 317.377C1042.49 321.214 1036.31 319.643 1034.74 319.214C1034.82 316.548 1035.07 310.752 1039.1 306.915Z" fill="#D9D9D9"/>
<path d="M1016.34 149.965C1007.59 146.079 1003.24 139.582 1005.03 133.805C1006.82 128.027 1013.52 124.851 1022.27 128.738C1031.01 132.625 1035.06 144.579 1036.04 147.626C1032.62 149.641 1025.08 153.852 1016.34 149.965Z" fill="#D9D9D9"/>
<path d="M1130.88 122.343C1135.64 116.629 1140.29 114.894 1142.62 117.652C1144.94 120.411 1144.38 126.278 1139.63 131.993C1134.87 137.707 1127.57 137.891 1125.73 137.902C1125.82 134.811 1126.12 128.058 1130.88 122.343Z" fill="#D9D9D9"/>
<path d="M1134.72 197.227C1145.13 208.265 1146.1 229.951 1138.87 240.122C1131.64 250.293 1111.13 263.272 1100.72 252.235C1090.3 241.197 1085.01 197.86 1092.24 187.689C1099.47 177.519 1124.3 186.19 1134.72 197.227Z" fill="#C70016"/>
<path d="M1048.57 199.766C1038.75 212.105 1038.88 233.845 1046.61 243.054C1054.33 252.263 1075.42 262.566 1085.24 250.227C1095.07 237.888 1098.15 194.012 1090.42 184.803C1082.7 175.595 1058.39 187.427 1048.57 199.766Z" fill="#C70016"/>
<path d="M1098.76 155.784C1090.72 155.489 1087 129.809 1086.7 141.6C1078.13 157.683 1088.95 174.643 1100.85 173.719C1108.9 174.014 1118.64 151.633 1108.88 141.964C1109.19 130.172 1106.8 156.078 1098.76 155.784Z" fill="#DF8200"/>
<path d="M1096.84 342.667C1088.8 342.373 1083.87 363.88 1084.13 353.869C1076.34 339.662 1087.96 326.024 1099.79 327.612C1107.83 327.907 1116.48 347.529 1106.29 355.062C1106.03 365.074 1104.88 342.962 1096.84 342.667Z" fill="#DF8200"/>
<path d="M1025.05 205.635C1028.18 214.495 1010.22 229.256 1019.3 224.663C1035.1 227.262 1043.47 208.413 1037.81 195.867C1034.68 187.007 1013.61 185.772 1010.33 200.408C1001.24 205.001 1021.92 196.775 1025.05 205.635Z" fill="#DF8200"/>
<path d="M1153.75 190.102C1158.83 182.647 1178.14 194.726 1170.5 187.271C1165.04 169.359 1147.19 169.332 1140.56 181.192C1135.48 188.647 1144.41 211.494 1156.77 208.11C1164.41 215.565 1148.66 197.556 1153.75 190.102Z" fill="#DF8200"/>
<path d="M1162.82 132.823C1171.8 129.778 1178.52 131.947 1179.93 137.871C1181.34 143.794 1177.5 151.091 1168.52 154.136C1159.55 157.181 1150.38 150.396 1148.08 148.634C1149.84 144.59 1153.84 135.869 1162.82 132.823Z" fill="#D9D9D9"/>
<ellipse cx="5.7239" cy="4.78699" rx="5.7239" ry="4.78699" transform="matrix(-0.00999018 0.99995 0.999903 0.0139093 1095.59 120.964)" fill="#D9D9D9"/>
<ellipse cx="5.7239" cy="4.78699" rx="5.7239" ry="4.78699" transform="matrix(-0.00999018 0.99995 0.999903 0.0139093 1041.36 277.663)" fill="#D9D9D9"/>
<ellipse cx="5.7239" cy="4.78699" rx="5.7239" ry="4.78699" transform="matrix(-0.00999018 0.99995 0.999903 0.0139093 1137.16 273.27)" fill="#D9D9D9"/>
<ellipse cx="5.7239" cy="4.78699" rx="5.7239" ry="4.78699" transform="matrix(-0.00999018 0.99995 0.999903 0.0139093 1049.85 146.092)" fill="#D9D9D9"/>
<ellipse cx="5.7239" cy="4.78699" rx="5.7239" ry="4.78699" transform="matrix(-0.00999018 0.99995 0.999903 0.0139093 1059.88 340.9)" fill="#D9D9D9"/>
<ellipse cx="5.7239" cy="4.78699" rx="5.7239" ry="4.78699" transform="matrix(-0.00999018 0.99995 0.999903 0.0139093 1122.12 341.768)" fill="#D9D9D9"/>
<ellipse cx="5.7239" cy="4.78699" rx="5.7239" ry="4.78699" transform="matrix(-0.00999018 0.99995 0.999903 0.0139093 1124.03 149.987)" fill="#D9D9D9"/>
<path d="M1062.68 244.103C1066.32 266.994 1094.54 275.554 1109.36 271.648C1124.17 267.742 1133.57 245.888 1129.93 222.997C1126.29 200.106 1102.28 178.052 1087.46 181.958C1072.65 185.863 1059.04 221.212 1062.68 244.103Z" fill="#D64851"/>
<path d="M1075.76 231.598C1078.41 248.263 1091.71 252.767 1102.41 249.946C1113.11 247.125 1119.74 232.792 1117.09 216.128C1114.44 199.464 1100.59 178.217 1089.89 181.037C1079.19 183.858 1073.11 214.934 1075.76 231.598Z" fill="#6A2129"/>
<path d="M809.681 234.241L817.335 254.512L807.72 273.505L800.085 252.285L809.681 234.241Z" fill="#DF8200"/>
<path d="M762.532 346.958C756.989 346.002 753.798 342.582 754.303 338.539C754.808 334.495 758.467 331.259 764.011 332.215C769.554 333.171 773.088 340.165 773.96 341.955C772.129 343.862 768.076 347.914 762.532 346.958Z" fill="#D9D9D9"/>
<path d="M788.09 365.652C784.366 370.548 780.17 371.793 777.556 369.082C774.941 366.371 774.634 361.019 778.359 356.123C782.083 351.227 789.023 351.606 790.782 351.735C791.141 354.571 791.815 360.756 788.09 365.652Z" fill="#D9D9D9"/>
<path d="M809.838 370.279C809.295 376.801 806.532 380.698 803.054 380.309C799.575 379.92 796.63 375.808 797.172 369.287C797.715 362.765 803.513 358.29 805 357.182C806.719 359.225 810.38 363.757 809.838 370.279Z" fill="#D9D9D9"/>
<path d="M844.195 337.607C849.695 336.348 853.678 338.329 854.354 342.337C855.03 346.346 852.503 350.824 847.004 352.083C841.505 353.342 836.18 348.126 834.846 346.778C836.029 344.267 838.696 338.866 844.195 337.607Z" fill="#D9D9D9"/>
<path d="M831.988 358.665C834.9 364.263 834.687 369.319 831.704 371.448C828.721 373.577 824.255 372.353 821.344 366.755C818.433 361.156 820.777 353.509 821.398 351.58C823.822 352.009 829.077 353.067 831.988 358.665Z" fill="#D9D9D9"/>
<path d="M849.625 215.414C852.536 221.012 852.324 226.068 849.341 228.197C846.358 230.326 841.892 229.102 838.981 223.504C836.069 217.905 838.414 210.258 839.035 208.329C841.459 208.758 846.714 209.816 849.625 215.414Z" fill="#D9D9D9"/>
<path d="M752.992 192.728C747.387 190.99 743.142 192.616 742.184 196.554C741.227 200.492 743.551 205.179 749.156 206.917C754.76 208.655 760.602 203.92 762.067 202.693C761.006 200.085 758.597 194.466 752.992 192.728Z" fill="#D9D9D9"/>
<path d="M764.26 214.798C760.89 220.126 760.784 225.186 763.73 227.57C766.677 229.955 771.374 229.126 774.745 223.799C778.115 218.471 776.184 210.64 775.666 208.662C773.132 208.877 767.631 209.471 764.26 214.798Z" fill="#D9D9D9"/>
<path d="M870.583 106.904C878.927 108.168 883.758 113.542 883.038 120.117C882.318 126.691 876.848 132.122 868.504 130.859C860.16 129.595 854.779 118.45 853.45 115.595C856.184 112.412 862.239 105.641 870.583 106.904Z" fill="#D9D9D9"/>
<path d="M850.767 129.048C862.19 140.815 863.306 164.009 855.425 174.915C847.544 185.82 825.153 199.778 813.73 188.011C802.307 176.243 796.395 129.906 804.276 119.001C812.157 108.095 839.344 117.28 850.767 129.048Z" fill="#C70016"/>
<path d="M756.542 132.077C745.833 145.311 746.043 168.565 754.515 178.387C762.988 188.208 786.089 199.153 796.798 185.918C807.508 172.684 810.758 125.74 802.285 115.918C793.813 106.096 767.252 118.842 756.542 132.077Z" fill="#C70016"/>
<path d="M772.109 179.451C776.154 203.924 807.043 212.976 823.236 208.744C839.428 204.512 849.656 181.102 845.611 156.629C841.566 132.157 815.235 108.654 799.042 112.886C782.849 117.118 768.064 154.979 772.109 179.451Z" fill="#D64851"/>
<path d="M786.365 166.026C789.309 183.842 803.879 188.611 815.573 185.554C827.266 182.498 834.477 167.142 831.532 149.327C828.588 131.512 813.378 108.836 801.685 111.892C789.991 114.948 783.42 148.211 786.365 166.026Z" fill="#6A2129"/>
<path d="M837.1 335.27C844.624 327.29 846.302 310.315 841.926 301.844C837.549 293.373 824.386 281.814 816.862 289.794C809.338 297.774 803.722 331.472 808.098 339.943C812.475 348.414 829.576 343.25 837.1 335.27Z" fill="#C70016"/>
<path d="M779.321 327.555C773.306 317.209 774.43 300.137 780.057 293.415C785.685 286.692 800.35 279.998 806.365 290.344C812.381 300.691 812.369 335.369 806.742 342.091C801.114 348.813 785.336 337.902 779.321 327.555Z" fill="#C70016"/>
<path d="M790.912 293.657C794.446 275.913 813.816 271.062 823.587 275.114C833.357 279.167 838.641 296.961 835.107 314.705C831.574 332.449 814.386 348.181 804.616 344.129C794.845 340.076 787.379 311.4 790.912 293.657Z" fill="#D64851"/>
<path d="M799.1 304.351C801.672 291.434 810.83 288.779 817.886 291.705C824.941 294.632 828.715 306.333 826.143 319.25C823.571 332.167 813.253 347.941 806.198 345.014C799.142 342.088 796.527 317.268 799.1 304.351Z" fill="#6A2129"/>
<path d="M740.319 145.692C735.424 148.882 731.111 148.443 729.406 144.877C727.7 141.311 728.916 136.138 733.811 132.948C738.706 129.758 745.152 132.786 746.776 133.585C746.318 136.401 745.213 142.501 740.319 145.692Z" fill="#D9D9D9"/>
<path d="M741.513 125.767C732.885 126.03 727.267 121.655 727.113 115.116C726.96 108.577 731.775 102.302 740.402 102.04C749.03 101.778 755.981 111.68 757.712 114.226C755.368 117.818 750.14 125.505 741.513 125.767Z" fill="#D9D9D9"/>
<path d="M841.205 250.138C835.26 257.725 846.645 277.518 839.89 270.28C824.479 267.914 823.322 247.135 832.875 236.773C838.821 229.186 858.601 234.494 856.541 249.636C863.296 256.874 847.151 242.551 841.205 250.138Z" fill="#DF8200"/>
<path d="M780.325 251.68C774.296 244.186 756.57 256 763.245 248.657C766.407 230.861 784.213 231.048 792.341 242.953C798.37 250.447 792.375 273.122 779.615 269.6C772.94 276.943 786.354 259.174 780.325 251.68Z" fill="#DF8200"/>
<ellipse cx="5.72147" cy="5.67177" rx="5.72147" ry="5.67177" transform="matrix(-0.629081 0.77734 0.670485 0.741923 844.883 276.362)" fill="#D9D9D9"/>
<ellipse cx="5.72147" cy="5.67177" rx="5.72147" ry="5.67177" transform="matrix(-0.629081 0.77734 0.670485 0.741923 766.285 276.038)" fill="#D9D9D9"/>
<path d="M234.282 241.826L241.623 262.255L231.718 281.043L224.411 259.665L234.282 241.826Z" fill="#DF8200"/>
<path d="M298.449 147.848C303.369 150.983 305.354 155.481 303.686 159.072C302.018 162.663 297.629 164.224 292.709 161.089C287.789 157.953 286.538 149.963 286.248 147.93C288.529 146.879 293.529 144.713 298.449 147.848Z" fill="#D9D9D9"/>
<path d="M187.577 349.409C182.049 348.336 178.911 344.85 179.479 340.818C180.046 336.786 183.754 333.627 189.282 334.699C194.81 335.772 198.235 342.839 199.08 344.647C197.22 346.515 193.105 350.482 187.577 349.409Z" fill="#D9D9D9"/>
<path d="M210.674 372.763C206.875 377.58 202.66 378.737 200.088 375.972C197.516 373.207 197.291 367.849 201.09 363.032C204.89 358.215 211.822 358.74 213.579 358.905C213.895 361.748 214.473 367.946 210.674 372.763Z" fill="#D9D9D9"/>
<path d="M238.17 371.769C237.527 378.278 234.705 382.116 231.233 381.654C227.761 381.193 224.879 377.019 225.522 370.51C226.164 364.001 232.031 359.648 233.534 358.572C235.221 360.651 238.813 365.259 238.17 371.769Z" fill="#D9D9D9"/>
<path d="M277.884 341.397C283.402 340.254 287.354 342.318 287.969 346.34C288.583 350.362 285.988 354.786 280.47 355.929C274.952 357.072 269.708 351.746 268.396 350.37C269.617 347.884 272.367 342.54 277.884 341.397Z" fill="#D9D9D9"/>
<path d="M263.536 362.46C266.361 368.119 266.071 373.169 263.056 375.235C260.04 377.301 255.593 375.983 252.769 370.325C249.944 364.666 252.406 357.07 253.057 355.154C255.474 355.633 260.711 356.802 263.536 362.46Z" fill="#D9D9D9"/>
<path d="M287.035 203.045C292.553 201.901 296.505 203.965 297.119 207.987C297.734 212.01 295.138 216.433 289.62 217.577C284.103 218.72 278.859 213.393 277.546 212.017C278.768 209.531 281.517 204.188 287.035 203.045Z" fill="#D9D9D9"/>
<path d="M274.509 223.845C277.333 229.503 277.043 234.554 274.028 236.62C271.013 238.685 266.566 237.368 263.742 231.709C260.917 226.051 263.379 218.454 264.029 216.539C266.446 217.018 271.684 218.187 274.509 223.845Z" fill="#D9D9D9"/>
<path d="M178.241 199.128C172.664 197.273 168.393 198.809 167.376 202.726C166.358 206.644 168.61 211.379 174.187 213.234C179.764 215.089 185.677 210.479 187.161 209.282C186.14 206.652 183.817 200.984 178.241 199.128Z" fill="#D9D9D9"/>
<path d="M189.158 221.433C185.706 226.689 185.522 231.746 188.432 234.192C191.342 236.638 196.05 235.908 199.502 230.652C202.954 225.397 201.143 217.526 200.656 215.537C198.119 215.699 192.61 216.177 189.158 221.433Z" fill="#D9D9D9"/>
<path d="M297.127 115.792C305.45 117.231 310.198 122.706 309.377 129.265C308.556 135.823 303.003 141.138 294.68 139.699C286.357 138.26 281.148 127.004 279.863 124.121C282.645 120.997 288.804 114.354 297.127 115.792Z" fill="#D9D9D9"/>
<path d="M276.976 137.514C288.217 149.521 288.976 172.734 280.928 183.472C272.881 194.21 250.28 207.696 239.04 195.69C227.799 183.683 222.6 137.23 230.648 126.492C238.695 115.754 265.736 125.508 276.976 137.514Z" fill="#C70016"/>
<path d="M182.72 138.562C171.808 151.569 171.661 174.823 179.981 184.822C188.301 194.82 211.23 206.248 222.141 193.241C233.053 180.234 237.024 133.366 228.703 123.367C220.383 113.369 193.631 125.554 182.72 138.562Z" fill="#C70016"/>
<path d="M197.554 186.254C201.222 210.808 231.967 220.508 248.222 216.617C264.477 212.726 275.063 189.534 271.395 164.981C267.727 140.427 241.762 116.375 225.506 120.266C209.251 124.157 193.886 161.7 197.554 186.254Z" fill="#D64851"/>
<path d="M212.016 173.134C214.686 191.009 229.181 196.083 240.919 193.273C252.657 190.463 260.103 175.261 257.433 157.387C254.763 139.512 239.904 116.52 228.165 119.33C216.427 122.14 209.346 155.26 212.016 173.134Z" fill="#6A2129"/>
<path d="M260.14 343.415C267.785 335.594 269.724 318.657 265.479 310.096C261.233 301.534 248.25 289.7 240.605 297.521C232.959 305.342 226.826 338.916 231.071 347.478C235.317 356.039 252.495 351.236 260.14 343.415Z" fill="#C70016"/>
<path d="M202.488 334.488C196.633 324.017 198.019 306.972 203.749 300.369C209.479 293.766 224.244 287.38 230.1 297.852C235.955 308.323 235.41 342.995 229.68 349.598C223.951 356.201 208.343 344.96 202.488 334.488Z" fill="#C70016"/>
<path d="M214.603 300.839C218.408 283.173 237.851 278.729 247.557 282.987C257.264 287.244 262.273 305.147 258.467 322.813C254.662 340.48 237.235 355.849 227.528 351.592C217.822 347.334 210.798 318.506 214.603 300.839Z" fill="#D64851"/>
<path d="M222.624 311.703C225.394 298.843 234.592 296.381 241.601 299.455C248.61 302.529 252.204 314.308 249.434 327.169C246.664 340.03 236.105 355.584 229.096 352.51C222.087 349.435 219.854 324.564 222.624 311.703Z" fill="#6A2129"/>
<path d="M603.954 339.275C598.426 338.202 595.288 334.716 595.856 330.684C596.423 326.652 600.131 323.493 605.659 324.566C611.186 325.638 614.612 332.705 615.457 334.514C613.597 336.382 609.482 340.348 603.954 339.275Z" fill="#D9D9D9"/>
<path d="M627.053 362.628C623.254 367.445 619.039 368.601 616.467 365.836C613.895 363.071 613.67 357.713 617.469 352.896C621.269 348.079 628.201 348.604 629.958 348.77C630.273 351.612 630.852 357.811 627.053 362.628Z" fill="#D9D9D9"/>
<path d="M654.551 361.635C653.908 368.144 651.086 371.982 647.614 371.521C644.142 371.059 641.26 366.886 641.903 360.376C642.545 353.867 648.412 349.515 649.915 348.438C651.602 350.517 655.193 355.125 654.551 361.635Z" fill="#D9D9D9"/>
<path d="M694.263 331.263C699.781 330.12 703.733 332.184 704.348 336.206C704.962 340.228 702.367 344.652 696.849 345.795C691.331 346.939 686.087 341.612 684.775 340.236C685.996 337.75 688.746 332.407 694.263 331.263Z" fill="#D9D9D9"/>
<path d="M679.909 352.325C682.734 357.984 682.444 363.034 679.429 365.1C676.413 367.166 671.967 365.848 669.142 360.19C666.317 354.531 668.779 346.935 669.43 345.019C671.847 345.499 677.084 346.667 679.909 352.325Z" fill="#D9D9D9"/>
<path d="M676.519 333.282C684.164 325.461 686.103 308.525 681.857 299.963C677.612 291.401 664.629 279.567 656.983 287.388C649.338 295.209 643.204 328.783 647.45 337.345C651.696 345.906 668.874 341.103 676.519 333.282Z" fill="#C70016"/>
<path d="M618.865 324.354C613.009 313.882 614.396 296.837 620.126 290.234C625.856 283.631 640.621 277.245 646.477 287.717C652.332 298.189 651.787 332.86 646.057 339.463C640.327 346.066 624.72 334.825 618.865 324.354Z" fill="#C70016"/>
<path d="M630.982 290.706C634.787 273.039 654.23 268.596 663.936 272.853C673.643 277.11 678.651 295.013 674.846 312.679C671.041 330.346 653.614 345.715 643.907 341.458C634.201 337.201 627.177 308.372 630.982 290.706Z" fill="#D64851"/>
<path d="M639.003 301.567C641.773 288.706 650.971 286.244 657.98 289.318C664.989 292.393 668.583 304.172 665.813 317.032C663.043 329.893 652.484 345.447 645.475 342.373C638.465 339.299 636.233 314.428 639.003 301.567Z" fill="#6A2129"/>
<path d="M360.44 334.731C354.912 333.658 351.775 330.172 352.342 326.14C352.909 322.108 356.617 318.949 362.145 320.022C367.673 321.094 371.098 328.161 371.943 329.97C370.083 331.838 365.968 335.804 360.44 334.731Z" fill="#D9D9D9"/>
<path d="M384.039 362.161C380.24 366.978 376.026 368.135 373.453 365.369C370.881 362.604 370.656 357.246 374.456 352.429C378.255 347.612 385.187 348.137 386.944 348.303C387.26 351.145 387.839 357.344 384.039 362.161Z" fill="#D9D9D9"/>
<path d="M416.264 360.17C415.621 366.679 412.798 370.517 409.327 370.056C405.855 369.594 402.973 365.421 403.615 358.911C404.258 352.402 410.124 348.05 411.628 346.973C413.315 349.052 416.906 353.661 416.264 360.17Z" fill="#D9D9D9"/>
<path d="M444.227 356.993C447.052 362.652 446.762 367.702 443.747 369.768C440.732 371.834 436.285 370.516 433.46 364.858C430.636 359.199 433.098 351.603 433.748 349.687C436.165 350.167 441.403 351.335 444.227 356.993Z" fill="#D9D9D9"/>
<path d="M443.333 329.369C451.844 321.551 453.998 304.615 449.267 296.052C444.536 287.488 430.074 275.649 421.563 283.467C413.051 291.284 406.231 324.856 410.962 333.42C415.693 341.983 434.821 337.186 443.333 329.369Z" fill="#C70016"/>
<path d="M379.127 320.418C372.603 309.944 374.141 292.899 380.52 286.299C386.899 279.698 403.341 273.319 409.865 283.793C416.389 294.267 415.793 328.938 409.414 335.539C403.035 342.139 385.651 330.892 379.127 320.418Z" fill="#C70016"/>
<path d="M392.607 286.775C396.839 269.11 418.489 264.674 429.3 268.936C440.111 273.197 445.695 291.102 441.463 308.767C437.23 326.432 417.828 341.794 407.017 337.532C396.206 333.271 388.374 304.44 392.607 286.775Z" fill="#D64851"/>
<path d="M401.541 297.64C404.622 284.781 414.865 282.323 422.671 285.4C430.478 288.477 434.484 300.257 431.403 313.117C428.322 325.977 416.569 341.527 408.762 338.449C400.955 335.372 398.46 310.5 401.541 297.64Z" fill="#6A2129"/>
<path d="M166.29 151.832C161.347 154.919 157.042 154.39 155.392 150.789C153.741 147.188 155.036 142.041 159.979 138.954C164.923 135.867 171.321 139.031 172.933 139.863C172.431 142.669 171.233 148.746 166.29 151.832Z" fill="#D9D9D9"/>
<path d="M167.791 131.936C159.161 132.017 153.611 127.525 153.558 120.984C153.505 114.442 158.416 108.27 167.046 108.189C175.676 108.108 182.473 118.155 184.165 120.737C181.766 124.28 176.421 131.855 167.791 131.936Z" fill="#D9D9D9"/>
<path d="M265.55 258.384C259.489 265.845 270.568 285.874 263.925 278.495C248.553 275.805 247.716 255.006 257.426 244.846C263.488 237.385 283.184 243.108 280.891 258.204C287.534 265.583 271.611 250.923 265.55 258.384Z" fill="#DF8200"/>
<path d="M204.662 258.645C198.749 251.025 180.845 262.464 187.631 255.263C191.066 237.537 208.867 238.097 216.811 250.172C222.723 257.791 216.38 280.336 203.676 276.547C196.89 283.748 210.575 266.264 204.662 258.645Z" fill="#DF8200"/>
<ellipse cx="5.70564" cy="5.68769" rx="5.70564" ry="5.68769" transform="matrix(-0.642705 0.766114 0.657124 0.753782 268.828 284.682)" fill="#D9D9D9"/>
<ellipse cx="5.70564" cy="5.68769" rx="5.70564" ry="5.68769" transform="matrix(-0.642705 0.766114 0.657124 0.753782 190.248 282.706)" fill="#D9D9D9"/>
<path d="M125.101 316.418C131.075 309.628 136.906 307.704 139.804 311.18C142.702 314.656 141.982 321.813 136.007 328.603C130.033 335.393 120.904 335.306 118.597 335.24C118.717 331.46 119.126 323.208 125.101 316.418Z" fill="#D9D9D9"/>
<path d="M120.181 343.076C128.232 340.567 134.121 342.222 135.196 346.911C136.271 351.6 132.65 357.433 124.6 359.942C116.55 362.45 108.624 357.155 106.639 355.778C108.325 352.55 112.131 345.584 120.181 343.076Z" fill="#D9D9D9"/>
<path d="M103.445 347.574C114.424 336.306 117.215 311.908 111.124 299.575C105.033 287.242 86.4017 270.198 75.4229 281.466C64.4442 292.733 55.6234 341.1 61.7143 353.433C67.8051 365.766 92.4663 358.842 103.445 347.574Z" fill="#C70016"/>
<path d="M38.0969 286.251C43.5679 260.801 71.4797 254.395 85.4117 260.526C99.3436 266.657 106.526 292.446 101.055 317.896C95.5837 343.346 70.5596 365.49 56.6277 359.36C42.6957 353.229 32.6258 311.701 38.0969 286.251Z" fill="#D64851"/>
<path d="M49.6072 301.896C53.5899 283.369 66.7947 279.821 76.8553 284.248C86.9158 288.675 92.0695 305.642 88.0868 324.17C84.104 342.697 68.9392 365.106 58.8786 360.679C48.818 356.251 45.6244 320.424 49.6072 301.896Z" fill="#6A2129"/>
<ellipse cx="5.62624" cy="5.76624" rx="5.62624" ry="5.76624" transform="matrix(-0.707876 -0.706337 -0.589499 0.807769 160.812 368.418)" fill="#D9D9D9"/>
<path d="M928.653 340.458C923.125 339.385 919.988 335.899 920.555 331.867C921.122 327.835 924.83 324.676 930.358 325.748C935.886 326.821 939.311 333.887 940.156 335.696C938.296 337.564 934.181 341.53 928.653 340.458Z" fill="#D9D9D9"/>
<path d="M951.75 363.811C947.951 368.628 943.737 369.785 941.164 367.02C938.592 364.254 938.367 358.896 942.166 354.079C945.966 349.262 952.898 349.788 954.655 349.953C954.971 352.796 955.55 358.994 951.75 363.811Z" fill="#D9D9D9"/>
<path d="M979.244 362.816C978.601 369.326 975.779 373.164 972.307 372.702C968.835 372.241 965.953 368.067 966.596 361.558C967.239 355.049 973.105 350.696 974.608 349.619C976.296 351.698 979.887 356.307 979.244 362.816Z" fill="#D9D9D9"/>
<path d="M1004.61 353.509C1007.44 359.168 1007.15 364.218 1004.13 366.284C1001.12 368.349 996.67 367.032 993.845 361.373C991.02 355.715 993.482 348.118 994.133 346.203C996.55 346.682 1001.79 347.851 1004.61 353.509Z" fill="#D9D9D9"/>
<path d="M1001.21 334.464C1008.86 326.643 1010.8 309.706 1006.55 301.145C1002.31 292.583 989.322 280.749 981.677 288.57C974.031 296.39 967.898 329.965 972.144 338.526C976.389 347.088 993.567 342.284 1001.21 334.464Z" fill="#C70016"/>
<path d="M943.562 325.535C937.707 315.064 939.093 298.018 944.823 291.415C950.553 284.812 965.319 278.427 971.174 288.899C977.029 299.37 976.484 334.042 970.754 340.645C965.025 347.248 949.417 336.007 943.562 325.535Z" fill="#C70016"/>
<path d="M955.677 291.887C959.483 274.221 978.925 269.777 988.631 274.035C998.338 278.292 1003.35 296.195 999.541 313.861C995.736 331.528 978.309 346.897 968.603 342.639C958.896 338.382 951.872 309.554 955.677 291.887Z" fill="#D64851"/>
<path d="M963.702 302.75C966.472 289.89 975.67 287.428 982.679 290.502C989.689 293.576 993.283 305.355 990.512 318.216C987.742 331.077 977.183 346.631 970.174 343.557C963.165 340.482 960.932 315.611 963.702 302.75Z" fill="#6A2129"/>
<path d="M1180.04 338.311C1174.51 337.239 1171.37 333.752 1171.94 329.72C1172.5 325.688 1176.21 322.529 1181.74 323.602C1187.27 324.674 1190.69 331.741 1191.54 333.55C1189.68 335.418 1185.56 339.384 1180.04 338.311Z" fill="#D9D9D9"/>
<path d="M1203.13 361.665C1199.34 366.482 1195.12 367.638 1192.55 364.873C1189.98 362.108 1189.75 356.75 1193.55 351.933C1197.35 347.116 1204.28 347.641 1206.04 347.807C1206.36 350.649 1206.93 356.848 1203.13 361.665Z" fill="#D9D9D9"/>
<path d="M1230.63 360.67C1229.99 367.179 1227.17 371.017 1223.7 370.556C1220.22 370.094 1217.34 365.921 1217.98 359.411C1218.63 352.902 1224.49 348.55 1226 347.473C1227.68 349.552 1231.28 354.161 1230.63 360.67Z" fill="#D9D9D9"/>
<path d="M1252.6 332.318C1260.25 324.497 1262.19 307.561 1257.94 298.999C1253.7 290.437 1240.71 278.603 1233.07 286.424C1225.42 294.245 1219.29 327.819 1223.53 336.381C1227.78 344.943 1244.96 340.139 1252.6 332.318Z" fill="#C70016"/>
<path d="M1194.95 323.39C1189.1 312.918 1190.48 295.873 1196.21 289.27C1201.94 282.667 1216.71 276.282 1222.56 286.753C1228.42 297.225 1227.87 331.896 1222.14 338.499C1216.41 345.102 1200.81 333.861 1194.95 323.39Z" fill="#C70016"/>
<path d="M1207.06 289.741C1210.87 272.074 1230.31 267.631 1240.02 271.888C1249.72 276.145 1254.73 294.048 1250.93 311.715C1247.12 329.381 1229.69 344.75 1219.99 340.493C1210.28 336.236 1203.26 307.407 1207.06 289.741Z" fill="#D64851"/>
<path d="M1215.09 300.603C1217.86 287.742 1227.05 285.28 1234.06 288.354C1241.07 291.429 1244.67 303.208 1241.9 316.069C1239.13 328.929 1228.57 344.483 1221.56 341.409C1214.55 338.335 1212.32 313.464 1215.09 300.603Z" fill="#6A2129"/>
<path d="M157.847 29.8911C162.388 29.6452 165.501 31.804 165.806 35.1378C166.111 38.4716 163.787 41.735 159.245 41.9809C154.704 42.2268 150.699 37.2655 149.699 35.9893C150.812 34.1261 153.306 30.137 157.847 29.8911Z" fill="#D9D9D9"/>
<path d="M135.343 13.5376C137.43 8.93206 140.525 7.16752 143.059 8.8632C145.594 10.5589 146.768 14.7937 144.681 19.3992C142.593 24.0047 137.051 24.9681 135.64 25.1863C134.863 22.9787 133.255 18.1431 135.343 13.5376Z" fill="#D9D9D9"/>
<path d="M111.441 9.90745C110.734 4.57992 112.237 0.951137 115.049 0.627285C117.862 0.303433 120.902 3.06196 121.609 8.38949C122.315 13.717 118.518 18.3638 117.538 19.5237C115.826 18.1997 112.147 15.235 111.441 9.90745Z" fill="#D9D9D9"/>
<path d="M88.6347 21.5045C85.3633 17.5482 84.6511 13.4564 86.6347 11.2049C88.6183 8.95332 92.356 9.11859 95.6274 13.0749C98.8988 17.0311 98.379 23.59 98.2246 25.25C96.2372 25.349 91.9061 25.4607 88.6347 21.5045Z" fill="#D9D9D9"/>
<path d="M6.84317 233.593C5.41952 224.046 -17.8397 218.916 -7.4508 218.887C5.53936 209.17 22.1123 222.493 23.0159 236.584C24.4396 246.131 6.04601 257.053 -3.9208 245.211C-14.3097 245.24 8.26681 243.139 6.84317 233.593Z" fill="#DF8200"/>
<path d="M30.8418 228.022C16.0817 221.319 5.79221 201.402 8.33974 189.403C10.8873 177.403 24.9578 158.189 39.718 164.892C54.4781 171.595 78.2709 210.231 75.7234 222.23C73.1758 234.229 45.602 234.724 30.8418 228.022Z" fill="#C70016"/>
<path d="M22.3302 180.97C14.6456 158.373 35.9709 137.44 51.1895 134.121C66.408 130.803 85.3499 146.388 93.0345 168.985C100.719 191.582 89.643 222.885 74.4244 226.204C59.2059 229.523 30.0148 203.566 22.3302 180.97Z" fill="#D64851"/>
<path d="M40.0908 186.317C34.4966 169.867 44.3312 159.568 55.3209 157.171C66.3106 154.775 79.1486 164.783 84.7428 181.233C90.3371 197.683 88.0329 223.524 77.0433 225.921C66.0536 228.317 45.6851 202.767 40.0908 186.317Z" fill="#6A2129"/>
<path d="M109.681 190.296C113.78 175.375 104.262 155.122 92.8751 149.195C81.4884 143.268 56.7983 140.944 52.7002 155.865C48.6022 170.786 64.5884 212.824 75.9751 218.751C87.3617 224.678 105.583 205.216 109.681 190.296Z" fill="#C70016"/>
<path d="M129.434 191.391C137.587 195.834 149.2 175.829 145.884 186.189C149.54 205.086 133.474 213.406 121.824 205.654C113.67 201.211 110.778 176.193 123.529 173.542C126.844 163.181 121.281 186.947 129.434 191.391Z" fill="#DF8200"/>
<path d="M-7.88333 119.229C0.708115 124.714 7.47243 125.111 9.30804 120.637C11.1436 116.164 7.92498 108.822 -0.666467 103.337C-9.25791 97.8513 -18.7814 100.497 -21.1734 101.212C-19.7451 105.161 -16.4748 113.744 -7.88333 119.229Z" fill="#D9D9D9"/>
<path d="M104.779 123.303C100.723 128.078 99.7181 132.826 102.003 135.269C104.288 137.711 108.759 137.254 112.815 132.479C116.872 127.704 116.498 120.213 116.376 118.318C114.006 118.347 108.836 118.528 104.779 123.303Z" fill="#D9D9D9"/>
<ellipse cx="5.90292" cy="4.85294" rx="5.90292" ry="4.85294" transform="matrix(-0.473173 -0.88097 0.882139 -0.47099 75.4648 119.715)" fill="#D9D9D9"/>
<path d="M20.4121 90.2441C20.071 100.381 23.1525 107.594 27.9019 108.654C32.6514 109.715 37.295 104.883 37.6361 94.7463C37.9771 84.6098 30.9019 75.0816 29.0819 72.6982C26.4302 74.978 20.7531 80.1076 20.4121 90.2441Z" fill="#D9D9D9"/>
<path d="M54.3302 85.3244C54.1288 91.3113 56.3407 95.6592 59.7101 96.4116C63.0795 97.1641 66.3506 94.428 66.552 88.441C66.7535 82.4541 61.7026 76.6317 60.4036 75.1739C58.5338 76.4527 54.5317 79.3374 54.3302 85.3244Z" fill="#D9D9D9"/>
<path d="M-12.8507 50.733C-19.9543 54.7394 -34.7031 37.3925 -29.6742 46.4146C-29.8873 63.0093 -12.8856 70.0628 -2.98206 63.1108C4.12156 59.1045 2.51903 37.1634 -10.2785 35.0242C-15.3074 26.0021 -5.74709 46.7267 -12.8507 50.733Z" fill="#DF8200"/>
<path d="M108.779 88.7747C120.67 103.139 140.317 98.1599 147.024 89.7603C153.731 81.3608 149.669 62.6834 137.778 48.319C125.887 33.9545 102.822 28.0197 96.1157 36.4192C89.409 44.8188 96.8886 74.4103 108.779 88.7747Z" fill="#D64851"/>
<path d="M81.7431 63.6777C81.483 75.9621 90.8969 90.8835 99.2224 94.2501C107.548 97.6168 123.911 96.5845 124.171 84.3001C124.431 72.0157 107.333 40.6064 99.0072 37.2398C90.6816 33.8732 82.0031 51.3933 81.7431 63.6777Z" fill="#C70016"/>
<path d="M49.663 42.1252C43.626 44.9701 41.2889 49.8731 43.477 54.3144C45.6651 58.7558 51.1837 61.2799 57.2208 58.4349C63.2579 55.59 64.5744 46.5115 64.8742 44.1971C61.999 42.6072 55.7001 39.2803 49.663 42.1252Z" fill="#D9D9D9"/>
<ellipse cx="5.90292" cy="4.85294" rx="5.90292" ry="4.85294" transform="matrix(-0.473173 -0.88097 0.882139 -0.47099 20.9492 57.2627)" fill="#D9D9D9"/>
<path d="M110.799 75.1259C119.455 85.5828 128.922 83.5558 133.765 77.4902C138.608 71.4247 136.205 58.9975 127.548 48.5405C118.892 38.0835 101.928 28.7874 97.0846 34.8529C92.2415 40.9184 102.143 64.6689 110.799 75.1259Z" fill="#6A2129"/>
<path d="M129.417 28.7262C140.052 32.3145 149.911 46.8801 150.187 56.6722C150.462 66.4643 144.432 83.3059 133.797 79.7176C123.163 76.1294 101.554 48.3199 101.279 38.5278C101.003 28.7357 118.782 25.138 129.417 28.7262Z" fill="#C70016"/>
<path d="M70.7851 24.9184C65.0544 22.2855 60.7031 23.1882 59.7101 26.909C58.717 30.6299 61.0806 35.6275 66.8113 38.2605C72.542 40.8934 78.5368 37.1915 80.0405 36.2236C78.9633 33.481 76.5158 27.5513 70.7851 24.9184Z" fill="#D9D9D9"/>
<path d="M902.505 239.374C899.608 259.884 918.395 272.289 930.309 271.511C942.223 270.734 954.519 253.425 957.416 232.915C960.314 212.405 947.93 189.028 936.016 189.806C924.102 190.583 905.402 218.864 902.505 239.374Z" fill="#D64851"/>
<path d="M902.883 198.402C892.603 207.379 887.395 226.272 890.86 235.626C894.324 244.981 907.415 257.643 917.695 248.666C927.975 239.688 940.971 202.15 937.506 192.796C934.041 183.442 913.164 189.424 902.883 198.402Z" fill="#C70016"/>
<path d="M915.228 230.826C913.119 245.756 921.866 252.012 930.47 251.451C939.073 250.889 947.478 239.618 949.587 224.687C951.696 209.756 946.636 188.873 938.033 189.434C929.429 189.996 917.337 215.895 915.228 230.826Z" fill="#6A2129"/>
<path d="M967.248 211.392C972.258 222.808 967.676 241.801 959.842 249.353C952.009 256.906 933.67 264.556 928.659 253.139C923.649 241.723 930.314 203.175 938.148 195.623C945.982 188.071 962.237 199.976 967.248 211.392Z" fill="#C70016"/>
<path d="M668.144 243.133C665.565 261.393 682.291 272.437 692.898 271.744C703.505 271.052 714.451 255.642 717.03 237.382C719.61 219.123 708.585 198.311 697.978 199.003C687.371 199.696 670.723 224.874 668.144 243.133Z" fill="#D64851"/>
<path d="M668.485 206.658C659.333 214.65 654.696 231.47 657.781 239.798C660.866 248.126 672.52 259.4 681.672 251.407C690.825 243.415 702.394 209.995 699.31 201.667C696.225 193.339 677.638 198.666 668.485 206.658Z" fill="#C70016"/>
<path d="M679.473 235.524C677.596 248.817 685.383 254.386 693.043 253.886C700.702 253.386 708.185 243.351 710.062 230.059C711.94 216.766 707.436 198.174 699.776 198.674C692.116 199.174 681.351 222.231 679.473 235.524Z" fill="#6A2129"/>
<path d="M725.783 218.222C730.244 228.386 726.165 245.295 719.191 252.018C712.216 258.742 695.89 265.552 691.429 255.389C686.968 245.225 692.902 210.907 699.876 204.183C706.85 197.459 721.322 208.058 725.783 218.222Z" fill="#C70016"/>
<path d="M318.189 236.929C315.291 257.439 334.079 269.844 345.993 269.066C357.907 268.288 370.203 250.979 373.1 230.469C375.997 209.959 363.614 186.582 351.7 187.36C339.785 188.138 321.086 216.419 318.189 236.929Z" fill="#D64851"/>
<path d="M318.567 195.957C308.286 204.935 303.078 223.828 306.543 233.182C310.008 242.536 323.098 255.199 333.379 246.221C343.659 237.244 356.655 199.706 353.19 190.352C349.725 180.997 328.847 186.98 318.567 195.957Z" fill="#C70016"/>
<path d="M330.912 228.381C328.803 243.312 337.55 249.568 346.153 249.006C354.757 248.445 363.162 237.173 365.271 222.242C367.38 207.312 362.32 186.428 353.717 186.99C345.113 187.552 333.021 213.45 330.912 228.381Z" fill="#6A2129"/>
<path d="M382.929 208.948C387.94 220.364 383.358 239.357 375.524 246.909C367.69 254.461 349.352 262.111 344.341 250.695C339.33 239.279 345.996 200.731 353.83 193.179C361.663 185.626 377.919 197.532 382.929 208.948Z" fill="#C70016"/>
<path d="M104.369 239.07C100.841 252.303 103.085 261.126 109.56 261.657C116.036 262.187 124.128 255.078 127.656 241.844C131.184 228.611 123.922 217.492 122.033 214.72C117.556 218.156 107.897 225.836 104.369 239.07Z" fill="#D9D9D9"/>
<path d="M153 263.508C139.881 267.196 131.898 274.076 132.473 280.59C133.047 287.103 141.124 291.083 154.243 287.396C167.362 283.708 176.684 270.771 178.996 267.471C174.997 265.003 166.119 259.82 153 263.508Z" fill="#D9D9D9"/>
<path d="M1207.4 199.518C1214.76 193.276 1206.86 170.807 1212.36 179.619C1227.46 185.536 1224.88 206.642 1213.38 214.839C1206.02 221.081 1187.04 211.208 1191.85 196.496C1186.35 187.683 1200.03 205.761 1207.4 199.518Z" fill="#DF8200"/>
<path d="M1224.78 216.975C1222.7 200.899 1234.2 181.656 1245.74 177.495C1257.28 173.335 1281.02 175.163 1283.11 191.239C1285.19 207.315 1264.9 247.9 1253.36 252.061C1241.82 256.222 1226.87 233.051 1224.78 216.975Z" fill="#C70016"/>
<path d="M1260.27 184.938C1275.42 166.496 1304.45 173.582 1315.3 184.765C1326.14 195.948 1322.88 220.26 1307.73 238.702C1292.58 257.144 1260.14 264.234 1249.3 253.051C1238.45 241.868 1245.12 203.38 1260.27 184.938Z" fill="#D64851"/>
<path d="M1192.2 86.77C1186.26 104.447 1200.85 118.517 1211.52 119.788C1222.19 121.06 1235.92 107.762 1241.86 90.0854C1247.8 72.4086 1240.68 49.6808 1230.01 48.4094C1219.34 47.1381 1198.13 69.0932 1192.2 86.77Z" fill="#D64851"/>
<path d="M1265.1 202.847C1276.12 189.422 1290.06 192.35 1297.89 200.425C1305.72 208.501 1303.98 224.686 1292.95 238.111C1281.92 251.537 1258.75 263.201 1250.92 255.126C1243.09 247.05 1254.07 216.273 1265.1 202.847Z" fill="#6A2129"/>
<path d="M1199.27 50.5677C1188.7 56.8225 1180.98 72.688 1182.51 81.5375C1184.03 90.387 1193.54 103.748 1204.11 97.4931C1214.69 91.2383 1232.37 60.151 1230.84 51.3014C1229.31 42.4519 1209.85 44.3129 1199.27 50.5677Z" fill="#C70016"/>
<path d="M1298.4 264.084C1313.24 259.701 1325.43 240.936 1324.47 228.136C1323.5 215.335 1312.46 193.13 1297.62 197.513C1282.78 201.896 1255.48 237.641 1256.45 250.441C1257.42 263.242 1283.56 268.467 1298.4 264.084Z" fill="#C70016"/>
<path d="M1223.33 160.532C1227.16 165.519 1231.26 167.084 1233.65 164.751C1236.03 162.418 1236.06 157.367 1232.23 152.38C1228.4 147.393 1221.74 147.118 1220.05 147.079C1219.84 149.737 1219.5 155.545 1223.33 160.532Z" fill="#D9D9D9"/>
<path d="M1204.86 81.2948C1200.54 94.1632 1207.25 101.139 1214.96 102.057C1222.67 102.975 1231.96 94.3816 1236.28 81.5133C1240.61 68.645 1239.56 49.3287 1231.86 48.4107C1224.15 47.4926 1209.19 68.4265 1204.86 81.2948Z" fill="#6A2129"/>
<path d="M1254.1 72.6516C1256.66 83.5803 1249.48 99.6371 1241.3 105.033C1233.13 110.429 1215.64 114.183 1213.08 103.254C1210.52 92.3257 1222.76 59.3036 1230.94 53.9076C1239.12 48.5116 1251.55 61.7229 1254.1 72.6516Z" fill="#C70016"/>
<ellipse cx="5.90292" cy="4.85294" rx="5.90292" ry="4.85294" transform="matrix(0.499188 -0.866494 0.865255 0.501332 1259.29 144.018)" fill="#D9D9D9"/>
<path d="M1249.83 36.0231C1252.68 29.9054 1252.23 25.0259 1248.97 23.6284C1245.71 22.2309 1241.02 24.4382 1238.17 30.5559C1235.32 36.6737 1238.14 43.5948 1238.89 45.334C1241.44 44.3656 1246.98 42.1409 1249.83 36.0231Z" fill="#D9D9D9"/>
<path d="M1272.4 113.989C1273.89 119.495 1277.11 121.906 1280.37 120.312C1283.63 118.718 1285.82 114.061 1284.33 108.556C1282.83 103.05 1276.63 101.228 1275.05 100.795C1273.72 103.201 1270.9 108.483 1272.4 113.989Z" fill="#D9D9D9"/>
<path d="M1267.02 57.4998C1272.44 53.9432 1274.83 49.3053 1273.29 45.9002C1271.75 42.495 1267.19 41.3503 1261.77 44.9069C1256.35 48.4635 1254.52 56.4944 1254.08 58.5351C1256.43 59.3672 1261.6 61.0564 1267.02 57.4998Z" fill="#D9D9D9"/>
<path d="M1278.8 90.1728C1285.25 93.7065 1291.02 92.993 1293.4 88.716C1295.78 84.439 1294.3 78.4029 1287.85 74.8692C1281.4 71.3355 1272.7 75.1959 1270.51 76.2102C1271.04 79.5055 1272.35 86.6391 1278.8 90.1728Z" fill="#D9D9D9"/>
<path d="M825.776 88.7657C831.138 84.5938 835.922 84.4303 837.876 88.0318C839.83 91.6334 838.579 97.4037 833.216 101.576C827.854 105.747 820.66 103.428 818.846 102.805C819.303 99.6939 820.414 92.9376 825.776 88.7657Z" fill="#D9D9D9"/>
<path d="M500.761 70.5684C495.399 66.3966 490.615 66.2331 488.661 69.8346C486.707 73.4361 487.959 79.2064 493.321 83.3782C498.683 87.5501 505.877 85.2305 507.691 84.6079C507.234 81.4966 506.123 74.7403 500.761 70.5684Z" fill="#D9D9D9"/>
<path d="M799.624 69.5049C802.115 62.7273 806.171 59.3512 809.718 60.7247C813.266 62.0983 815.156 67.2798 812.666 74.0574C810.175 80.8351 802.753 83.9869 800.862 84.7535C799.654 82.1083 797.133 76.2826 799.624 69.5049Z" fill="#D9D9D9"/>
<path d="M765.25 69.0368C763.833 62.2862 765.545 56.9747 769.312 55.5373C773.079 54.1 777.42 56.6336 778.837 63.3842C780.254 70.1348 775.535 77.6101 774.313 79.4876C771.888 78.3627 766.667 75.7874 765.25 69.0368Z" fill="#D9D9D9"/>
<path d="M622.343 208.55C630.175 211.718 635.992 210.737 637.164 206.412C638.335 202.087 634.931 196.216 627.099 193.048C619.267 189.88 611.362 194.099 609.381 195.203C610.953 198.421 614.511 205.381 622.343 208.55Z" fill="#D9D9D9"/>
<path d="M530.792 44.6208C525.623 37.9062 519.884 36.2589 516.376 40.0631C512.869 43.8673 512.555 51.2886 517.724 58.0032C522.893 64.7177 532.337 64.0637 534.73 63.8529C535.164 59.9175 535.961 51.3353 530.792 44.6208Z" fill="#D9D9D9"/>
<ellipse cx="7.93259" cy="6.52157" rx="7.93259" ry="6.52157" transform="matrix(-0.00883214 -0.999961 0.99998 -0.00635576 652.744 164.936)" fill="#D9D9D9"/>
<path d="M568.247 46.2904C567.381 37.2646 563.541 31.9167 558.811 32.5195C554.081 33.1222 550.149 38.874 551.016 47.8998C551.882 56.9256 559.868 63.0184 561.914 64.5263C564.215 61.6636 569.114 55.3163 568.247 46.2904Z" fill="#D9D9D9"/>
<path d="M647.475 121.233C652.955 126.592 658.325 127.192 661.014 123.127C663.703 119.062 663.072 112.175 657.592 106.816C652.111 101.457 643.69 103.568 641.561 104.145C641.655 107.84 641.994 115.873 647.475 121.233Z" fill="#D9D9D9"/>
<path d="M602.788 59.4591C606.644 51.6489 606.256 44.6483 602.151 41.7541C598.047 38.8598 591.987 40.6381 588.132 48.4482C584.276 56.2584 587.619 66.8101 588.503 69.4713C591.796 68.8323 598.933 67.2693 602.788 59.4591Z" fill="#D9D9D9"/>
<path d="M638.673 89.2881C648.552 88.9877 654.756 84.2284 654.599 77.6537C654.443 71.079 648.618 65.0947 638.739 65.395C628.859 65.6954 621.412 76.0909 619.562 78.7599C622.424 82.2134 628.793 89.5884 638.673 89.2881Z" fill="#D9D9D9"/>
<ellipse cx="7.93259" cy="6.52157" rx="7.93259" ry="6.52157" transform="matrix(-0.00883214 -0.999961 0.99998 -0.00635576 688.174 177.6)" fill="#D9D9D9"/>
<path d="M684.546 123.485C680.563 130.479 680.475 137.032 684.012 140.034C687.548 143.036 693.149 141.827 697.132 134.833C701.115 127.839 698.749 117.757 698.116 115.211C695.093 115.562 688.529 116.49 684.546 123.485Z" fill="#D9D9D9"/>
<path d="M706.012 69.1936C697.053 68.802 691.208 73.1716 691.033 79.8216C690.859 86.4717 695.843 92.9243 704.802 93.3158C713.761 93.7074 721.003 83.7339 722.807 81.1689C720.381 77.4803 714.971 69.5851 706.012 69.1936Z" fill="#D9D9D9"/>
<path d="M741.89 61.9362C736.721 55.2217 730.982 53.5744 727.474 57.3785C723.966 61.1827 723.652 68.604 728.821 75.3186C733.99 82.0331 743.434 81.3792 745.828 81.1683C746.262 77.233 747.059 68.6507 741.89 61.9362Z" fill="#D9D9D9"/>
<path d="M209.542 63.2637C205.146 58.0837 200.497 56.9457 197.847 60.0716C195.198 63.1976 195.244 69.1019 199.64 74.2819C204.036 79.4619 211.552 78.662 213.455 78.4234C213.644 75.2845 213.938 68.4437 209.542 63.2637Z" fill="#D9D9D9"/>
<path d="M462.324 47.9889C461.002 40.8901 462.763 35.9156 466.514 35.2837C470.265 34.6518 474.538 38.1398 475.86 45.2386C477.182 52.3374 472.413 58.8389 471.179 60.464C468.789 58.8077 463.646 55.0878 462.324 47.9889Z" fill="#D9D9D9"/>
<path d="M432.537 65.151C427.87 60.0721 426.627 54.6318 429.131 51.4715C431.634 48.3112 436.661 48.2707 441.328 53.3495C445.995 58.4284 445.758 67.2656 445.668 69.5037C443.008 69.776 437.204 70.2299 432.537 65.151Z" fill="#D9D9D9"/>
<path d="M244.246 44.0035C240.559 36.374 235.278 33.5882 231.067 36.5949C226.856 39.6016 225.031 46.802 228.718 54.4315C232.405 62.061 241.783 63.3516 244.169 63.6345C245.399 59.871 247.933 51.6329 244.246 44.0035Z" fill="#D9D9D9"/>
<path d="M280.567 53.2976C281.563 44.2852 278.898 38.2653 274.145 37.8883C269.391 37.5113 264.367 42.3378 263.37 51.3502C262.373 60.3625 268.944 67.9591 270.639 69.8534C273.477 67.5218 279.57 62.3099 280.567 53.2976Z" fill="#D9D9D9"/>
<path d="M342.803 142.854C347.072 149.22 352.206 150.906 355.669 147.476C359.133 144.047 359.923 137.176 355.654 130.81C351.385 124.443 342.71 124.789 340.508 124.918C339.845 128.554 338.534 136.487 342.803 142.854Z" fill="#D9D9D9"/>
<path d="M311.686 73.2489C317.057 66.3919 318.108 59.4598 314.682 55.7876C311.256 52.1153 304.961 52.6172 299.59 59.4742C294.22 66.3312 295.335 77.3435 295.656 80.1292C299.01 80.1769 306.315 80.1059 311.686 73.2489Z" fill="#D9D9D9"/>
<path d="M340.714 109.784C350.446 111.509 357.492 108.119 358.683 101.651C359.873 95.1832 355.395 88.1346 345.663 86.4088C335.931 84.683 326.516 93.3365 324.159 95.5708C326.255 99.5366 330.982 108.058 340.714 109.784Z" fill="#D9D9D9"/>
<ellipse cx="7.93259" cy="6.52157" rx="7.93259" ry="6.52157" transform="matrix(-0.518543 -0.855052 0.856333 -0.516424 421.76 197.853)" fill="#D9D9D9"/>
<path d="M390.986 153.193C391.136 161.241 394.409 166.919 398.983 167.692C403.557 168.466 407.754 164.565 407.604 156.517C407.454 148.47 400.268 141.012 398.423 139.147C396.004 140.994 390.836 145.146 390.986 153.193Z" fill="#D9D9D9"/>
<path d="M381.694 95.5556C373.793 99.7966 371.001 106.539 374.249 112.345C377.497 118.151 385.079 121.15 392.979 116.909C400.88 112.668 402.01 100.395 402.249 97.2681C398.28 95.3366 389.595 91.3147 381.694 95.5556Z" fill="#D9D9D9"/>
<path d="M408.83 70.9847C400.956 67.8541 395.181 69.3706 394.109 74.433C393.038 79.4953 396.56 86.0351 404.434 89.1658C412.309 92.2964 420.092 86.9086 422.042 85.5044C420.404 81.8999 416.704 74.1154 408.83 70.9847Z" fill="#D9D9D9"/>
<path d="M1082.61 74.7175C1085.77 68.7008 1090.05 66.5728 1093.32 69.043C1096.59 71.5133 1097.84 77.2845 1094.68 83.3012C1091.53 89.3178 1084.02 90.1823 1082.11 90.3661C1081.24 87.3448 1079.45 80.7341 1082.61 74.7175Z" fill="#D9D9D9"/>
<path d="M848.361 17.5946C848.547 10.8032 845.846 6.85178 841.786 7.40995C837.727 7.96811 833.819 12.394 833.633 19.1854C833.447 25.9769 839.576 30.3998 841.152 31.4928C843.388 29.2826 848.175 24.3861 848.361 17.5946Z" fill="#D9D9D9"/>
<path d="M1050.83 68.0023C1050.29 60.8014 1052.59 56.0497 1056.39 55.8325C1060.19 55.6152 1064.05 59.5502 1064.59 66.7511C1065.12 73.9521 1059.67 79.892 1058.27 81.3723C1056.07 79.4641 1051.37 75.2032 1050.83 68.0023Z" fill="#D9D9D9"/>
<path d="M1019.34 81.7993C1015.26 76.2397 1014.62 70.696 1017.45 67.8289C1020.29 64.9619 1025.29 65.4721 1029.37 71.0317C1033.46 76.5912 1032.25 85.3492 1031.92 87.5639C1029.24 87.5433 1023.43 87.3588 1019.34 81.7993Z" fill="#D9D9D9"/>
<path d="M887.056 26.4298C889.405 18.2883 887.334 12.6882 882.191 12.1146C877.049 11.541 870.883 15.6829 868.533 23.8243C866.184 31.9658 872.303 39.1885 873.891 40.9922C877.319 39.0114 884.706 34.5712 887.056 26.4298Z" fill="#D9D9D9"/>
<ellipse cx="7.93259" cy="6.52157" rx="7.93259" ry="6.52157" transform="matrix(0.800532 -0.599289 0.597305 0.802014 862.322 195.948)" fill="#D9D9D9"/>
<path d="M907.887 57.6003C914.647 51.5569 916.682 45.296 913.395 41.8414C910.109 38.3869 903.146 38.6251 896.386 44.6685C889.626 50.7118 889.445 60.7543 889.442 63.296C893.112 63.4554 901.127 63.6436 907.887 57.6003Z" fill="#D9D9D9"/>
<path d="M894.422 165.822C893.349 173.412 896.045 178.094 900.914 177.854C905.782 177.614 910.957 173.027 912.03 165.437C913.104 157.847 906.415 152.311 904.689 150.938C901.768 153.201 895.495 158.232 894.422 165.822Z" fill="#D9D9D9"/>
<path d="M917.73 93.2311C926.307 91.7126 931.718 87.2543 931.62 82.2329C931.521 77.2116 926.5 73.382 917.923 74.9004C909.347 76.4189 902.824 85.3615 901.203 87.6494C903.668 89.9244 909.154 94.7495 917.73 93.2311Z" fill="#D9D9D9"/>
<path d="M914.948 139.812C921.041 147.595 928.55 149.775 933.755 145.756C938.96 141.736 940.333 133.499 934.24 125.716C928.148 117.933 915.361 118.088 912.115 118.178C911.027 122.53 908.856 132.029 914.948 139.812Z" fill="#D9D9D9"/>
<ellipse cx="7.93259" cy="6.52157" rx="7.93259" ry="6.52157" transform="matrix(-0.421768 -0.906704 0.907745 -0.419522 994.092 212.521)" fill="#D9D9D9"/>
<path d="M968.398 164.76C967.666 172.775 970.297 178.778 974.759 180.048C979.22 181.317 983.819 177.899 984.552 169.884C985.284 161.869 978.959 153.669 977.329 151.613C974.722 153.184 969.131 156.744 968.398 164.76Z" fill="#D9D9D9"/>
<path d="M965.474 106.452C957.156 109.802 953.642 116.199 956.235 122.325C958.827 128.452 966.035 132.264 974.353 128.913C982.67 125.563 985.137 113.487 985.718 110.406C981.984 108.051 973.792 103.102 965.474 106.452Z" fill="#D9D9D9"/>
<path d="M995.137 85.0009C987.653 81.0267 981.746 81.9015 980.127 86.8161C978.508 91.7306 981.292 98.6169 988.776 102.591C996.26 106.565 1004.59 102.063 1006.68 100.88C1005.45 97.1181 1002.62 88.9752 995.137 85.0009Z" fill="#D9D9D9"/>
</svg>
