<svg width="368" height="369" viewBox="0 0 368 369" fill="none" xmlns="http://www.w3.org/2000/svg">
<rect width="368" height="369" fill="black"/>
<rect x="58.793" y="122.517" width="34.2043" height="127.789" rx="17.1022" fill="#BD0B00"/>
<rect x="12" y="203.513" width="34.2043" height="127.789" rx="17.1022" transform="rotate(-90 12 203.513)" fill="#BD0B00"/>
<rect width="41.0222" height="137.336" rx="20.5111" transform="matrix(0.692944 -0.720991 0.710985 0.703207 12.957 151.596)" fill="#BD0B00"/>
<rect width="41.0222" height="137.336" rx="20.5111" transform="matrix(-0.692944 -0.720991 -0.710985 0.703207 139.027 151.596)" fill="#BD0B00"/>
<rect width="34.5521" height="126.832" rx="17.276" transform="matrix(0.692944 -0.720991 0.710985 0.703207 127.027 39.7446)" fill="#FFAA00"/>
<rect width="34.5396" height="126.878" rx="17.2698" transform="matrix(-0.710985 -0.703207 0.692944 -0.720991 152.402 129.767)" fill="#FFAA00"/>
<rect width="34.5521" height="126.832" rx="17.276" transform="matrix(0.692944 -0.720991 0.710985 0.703207 128.68 264.07)" fill="#FFAA00"/>
<rect width="34.5396" height="126.878" rx="17.2698" transform="matrix(-0.710985 -0.703207 0.692944 -0.720991 154.059 354.092)" fill="#FFAA00"/>
<rect width="34.5521" height="126.832" rx="17.276" transform="matrix(0.692944 -0.720991 0.710985 0.703207 241.881 148.261)" fill="#FFAA00"/>
<rect width="34.5396" height="126.878" rx="17.2698" transform="matrix(-0.710985 -0.703207 0.692944 -0.720991 267.256 238.283)" fill="#FFAA00"/>
<rect x="269.141" y="180.364" width="40.8021" height="42.1911" rx="20.4011" transform="rotate(-45 269.141 180.364)" fill="#BD0B00"/>
<rect x="156.977" y="295.13" width="40.8021" height="42.1911" rx="20.4011" transform="rotate(-45 156.977 295.13)" fill="#BD0B00"/>
<rect x="154.203" y="70.8057" width="40.8021" height="42.1911" rx="20.4011" transform="rotate(-45 154.203 70.8057)" fill="#BD0B00"/>
</svg>
