<svg width="1280" height="1224" viewBox="0 0 1280 1224" fill="none" xmlns="http://www.w3.org/2000/svg">
<g clip-path="url(#clip0_109_880)">
<rect width="1223.55" height="1732" transform="matrix(0 -1 1 0 -226 1223.55)" fill="black"/>
<path d="M697.956 670.862L686.665 679.195C682.112 682.556 682.051 689.344 686.544 692.785C687.461 693.487 688.225 694.369 688.79 695.376L690.221 697.927C692.385 701.787 693.023 706.318 692.008 710.625L689.886 719.633C689.046 723.197 689.334 726.933 690.709 730.326L692.126 733.82C693.546 737.323 696.229 740.165 699.645 741.784C704.808 744.23 708.146 749.384 708.267 755.095L709.047 791.988L710.023 838.128C710.052 839.531 710.249 840.925 710.608 842.281L715.082 859.168C715.674 861.402 716.698 863.498 718.096 865.337L721.722 870.108C725.144 874.609 730.513 877.202 736.166 877.082L803.678 875.654C805.666 875.612 807.632 875.235 809.494 874.539L814.926 872.508C818.34 871.231 821.276 868.93 823.331 865.92L830.065 856.059L838.961 839.216C839.565 838.072 840.294 836.997 841.133 836.011L855.793 818.8L868.308 804.605C870.121 802.549 872.386 800.944 874.926 799.914L882.058 797.023C884.147 796.176 886.055 794.937 887.678 793.374L896.971 784.424C900.524 781.003 902.486 776.252 902.382 771.321L900.993 705.66L898.231 688.457C897.492 683.851 894.962 679.725 891.193 676.977L887.396 674.209C884.269 671.93 880.48 670.739 876.611 670.821L807.141 672.291L789.634 672.661C783.238 672.796 777.269 669.465 774.026 663.951L772.812 661.887C770.616 658.154 767.126 655.357 763.004 654.027L757.036 652.101C753.505 650.962 749.705 650.963 746.174 652.104L737.348 654.956C733.636 656.156 729.566 655.276 726.682 652.649C721.813 648.216 714.152 649.092 710.41 654.511L702.004 666.684C700.895 668.291 699.527 669.702 697.956 670.862Z" fill="#D9D9D9" stroke="black" stroke-width="6.79749"/>
<path d="M766.53 752.161L768.376 747.484C770.172 742.933 773.743 739.31 778.267 737.447L783.445 735.316C788.86 733.087 795.021 733.632 799.962 736.777L803.14 738.8C804.036 739.371 804.88 740.019 805.662 740.739L820.615 754.498C821.418 755.237 822.152 756.047 822.809 756.919L829.956 766.417C832.755 770.136 837.172 772.281 841.826 772.183L842.861 772.161C845.737 772.1 848.492 770.986 850.602 769.029C852.376 767.384 853.599 765.23 854.103 762.864L855.519 756.219C855.707 755.336 855.792 754.434 855.773 753.531C855.684 749.328 857.854 745.4 861.459 743.238L863.937 741.752C864.663 741.316 865.426 740.943 866.216 740.636L867.95 739.964C870.811 738.855 874.009 739.019 876.741 740.417C879.672 741.916 881.756 744.674 882.397 747.904L883.198 751.944C883.508 753.508 883.609 755.106 883.499 756.697L882.263 774.44C882.155 775.987 881.848 777.514 881.349 778.982L878.666 786.877C877.565 790.116 875.564 792.974 872.897 795.117L860.941 804.723C860.048 805.441 859.225 806.242 858.484 807.116L845.182 822.81C844.622 823.471 844.111 824.171 843.652 824.905L831.846 843.784L829.167 847.282C825.842 851.623 820.724 854.217 815.257 854.333L806.916 854.509L797.135 854.716C792.519 854.814 788.054 853.074 784.722 849.88C781.389 846.685 779.462 842.298 779.364 837.682L779.313 835.256C779.268 833.1 779.725 830.964 780.648 829.015C782.619 824.854 786.524 821.941 791.074 821.236L800.499 819.776C802.845 819.413 804.989 818.236 806.555 816.453C809.461 813.145 809.896 808.338 807.631 804.562L806.977 803.472C806.197 802.17 805.173 801.03 803.963 800.114L778.038 780.492C776.741 779.51 775.583 778.357 774.596 777.065L768.968 769.695C765.139 764.681 764.214 758.029 766.53 752.161Z" fill="#D64851"/>
<path d="M798.195 789.483L796.173 786.925C793.021 782.936 792.263 777.558 794.188 772.853C795.636 769.313 798.462 766.513 802.015 765.098L802.591 764.868C807.153 763.052 812.305 763.496 816.488 766.067L816.596 766.133C817.385 766.618 818.129 767.171 818.821 767.786L827.76 775.732C828.503 776.392 829.183 777.119 829.794 777.902L834.009 783.317C835.849 785.679 838.697 787.034 841.691 786.971L842.439 786.955C844.222 786.917 845.933 786.242 847.261 785.051C848.424 784.01 849.23 782.63 849.567 781.106L850.454 777.097C850.577 776.543 850.632 775.978 850.621 775.411C850.566 772.824 851.922 770.411 854.16 769.113L855.845 768.136C856.317 767.862 856.811 767.628 857.322 767.436L858.502 766.994C860.291 766.322 862.278 766.421 863.992 767.267C865.907 768.212 867.277 769.989 867.705 772.081L868.163 774.319C868.376 775.359 868.445 776.423 868.368 777.482L867.63 787.613C867.525 789.059 867.227 790.484 866.746 791.851L865.779 794.595C864.738 797.547 862.871 800.137 860.398 802.057L854.276 806.811C853.458 807.447 852.703 808.158 852.02 808.937L844.051 818.018C843.529 818.613 843.051 819.245 842.621 819.909L835.255 831.282L834.933 831.688C831.914 835.496 827.354 837.76 822.495 837.862L819.285 837.93L812.832 838.067C809.991 838.127 807.238 837.081 805.153 835.151C802.973 833.131 801.706 830.313 801.643 827.341L801.617 826.104C801.588 824.722 801.89 823.353 802.499 822.113C803.749 819.568 806.168 817.797 808.971 817.376L815.313 816.422C816.738 816.208 818.046 815.508 819.016 814.442C820.899 812.371 821.18 809.303 819.705 806.925L819.33 806.321C818.842 805.534 818.207 804.849 817.459 804.302L801.368 792.539C800.177 791.669 799.109 790.641 798.195 789.483Z" fill="black"/>
<path d="M577.464 665.352L569.997 653.47C566.986 648.678 560.221 648.111 556.454 652.334C555.686 653.196 554.749 653.892 553.703 654.38L551.052 655.616C547.041 657.487 542.475 657.784 538.256 656.451L529.431 653.661C525.941 652.558 522.193 652.566 518.707 653.684L515.117 654.835C511.517 655.99 508.483 658.454 506.613 661.739C503.788 666.705 498.4 669.648 492.695 669.342L455.847 667.365L409.763 664.892C408.362 664.816 406.958 664.908 405.578 665.165L388.404 668.366C386.132 668.789 383.966 669.653 382.027 670.91L376.999 674.17C372.255 677.246 369.268 682.406 368.965 688.053L365.347 755.483C365.24 757.468 365.47 759.457 366.025 761.366L367.644 766.934C368.663 770.434 370.738 773.533 373.586 775.808L382.917 783.259L399.048 793.388C400.144 794.077 401.162 794.883 402.082 795.794L418.15 811.698L431.371 825.239C433.285 827.2 434.717 829.579 435.554 832.188L437.905 839.517C438.593 841.663 439.686 843.658 441.123 845.394L449.354 855.329C452.501 859.128 457.092 861.439 462.017 861.703L527.598 865.222L544.959 863.753C549.607 863.36 553.911 861.145 556.933 857.592L559.976 854.013C562.483 851.065 563.953 847.375 564.161 843.511L567.884 774.124L568.822 756.639C569.165 750.251 572.933 744.547 578.674 741.725L580.823 740.669C584.709 738.758 587.759 735.487 589.393 731.476L591.759 725.668C593.159 722.231 593.442 718.442 592.568 714.836L590.383 705.822C589.464 702.031 590.645 698.037 593.48 695.357C598.265 690.833 597.963 683.128 592.839 678.992L581.327 669.701C579.808 668.474 578.503 667.005 577.464 665.352Z" fill="#D9D9D9" stroke="black" stroke-width="6.79749"/>
<path d="M491.271 727.66L495.798 729.85C500.201 731.981 503.548 735.813 505.067 740.464L506.806 745.785C508.624 751.352 507.621 757.456 504.116 762.147L501.861 765.166C501.225 766.017 500.515 766.81 499.739 767.536L484.902 781.419C484.105 782.165 483.242 782.837 482.323 783.426L472.318 789.845C468.401 792.358 465.931 796.602 465.682 801.25L465.626 802.284C465.472 805.157 466.378 807.987 468.171 810.237C469.68 812.129 471.736 813.509 474.058 814.189L480.578 816.097C481.445 816.351 482.338 816.503 483.24 816.552C487.438 816.777 491.192 819.234 493.079 822.99L494.377 825.572C494.757 826.33 495.072 827.118 495.319 827.928L495.859 829.708C496.752 832.643 496.349 835.821 494.752 838.441C493.038 841.252 490.131 843.123 486.863 843.521L482.774 844.018C481.191 844.211 479.59 844.192 478.012 843.963L460.411 841.406C458.876 841.183 457.377 840.763 455.95 840.155L448.277 836.89C445.129 835.55 442.428 833.341 440.491 830.522L431.805 817.882C431.156 816.938 430.418 816.057 429.602 815.253L414.945 800.816C414.328 800.208 413.668 799.646 412.971 799.133L395.026 785.95L391.738 783.017C387.657 779.378 385.452 774.08 385.745 768.62L386.193 760.289L386.717 750.52C386.964 745.91 389.033 741.587 392.467 738.502C395.902 735.418 400.421 733.824 405.031 734.071L407.453 734.201C409.607 734.317 411.704 734.932 413.578 735.998C417.579 738.275 420.193 742.387 420.556 746.976L421.308 756.484C421.495 758.851 422.508 761.076 424.17 762.772C427.251 765.917 432.012 766.71 435.947 764.733L437.083 764.162C438.44 763.481 439.653 762.545 440.657 761.407L462.16 737.02C463.236 735.8 464.472 734.732 465.835 733.844L473.605 728.781C478.89 725.337 485.593 724.912 491.271 727.66Z" fill="#D64851"/>
<path d="M451.688 756.451L454.39 754.626C458.603 751.781 464.022 751.426 468.571 753.697C471.993 755.406 474.573 758.433 475.72 762.082L475.905 762.674C477.376 767.358 476.549 772.462 473.672 776.442L473.598 776.545C473.056 777.295 472.449 777.996 471.784 778.64L463.192 786.961C462.479 787.652 461.703 788.276 460.876 788.826L455.162 792.626C452.668 794.284 451.105 797.023 450.944 800.013L450.904 800.76C450.809 802.541 451.354 804.298 452.442 805.711C453.394 806.948 454.71 807.855 456.204 808.305L460.136 809.489C460.679 809.653 461.239 809.751 461.805 809.781C464.389 809.92 466.693 811.452 467.821 813.781L468.669 815.534C468.907 816.025 469.104 816.536 469.257 817.059L469.61 818.269C470.146 820.104 469.899 822.078 468.928 823.723C467.842 825.562 465.968 826.796 463.85 827.067L461.583 827.356C460.531 827.491 459.464 827.48 458.414 827.324L448.366 825.832C446.933 825.619 445.534 825.216 444.206 824.633L441.543 823.464C438.677 822.206 436.233 820.15 434.503 817.541L430.219 811.081C429.647 810.218 428.994 809.412 428.268 808.672L419.807 800.048C419.253 799.483 418.659 798.959 418.028 798.48L407.238 790.286L406.856 789.934C403.285 786.639 401.368 781.923 401.629 777.07L401.801 773.863L402.147 767.419C402.299 764.581 403.547 761.914 405.628 759.979C407.805 757.955 410.71 756.903 413.678 757.062L414.914 757.128C416.294 757.202 417.636 757.606 418.828 758.306C421.273 759.742 422.857 762.286 423.068 765.114L423.546 771.509C423.653 772.946 424.253 774.303 425.244 775.35C427.168 777.382 430.207 777.891 432.688 776.598L433.319 776.269C434.14 775.841 434.871 775.259 435.471 774.554L448.403 759.386C449.36 758.264 450.465 757.276 451.688 756.451Z" fill="black"/>
<path d="M450.341 362.891L450.229 363.048L450.136 363.216L440.923 379.887C440.417 380.802 439.813 381.659 439.12 382.442L424.157 399.351L411.394 413.286C409.899 414.918 408.046 416.18 405.979 416.973L398.793 419.729C396.284 420.691 393.982 422.124 392.011 423.952L382.55 432.724C378.237 436.723 375.792 442.342 375.805 448.223L375.952 513.898L375.952 514.132L375.985 514.365L378.421 531.617C379.198 537.125 382.121 542.101 386.553 545.462L390.296 548.301C393.972 551.089 398.462 552.593 403.076 552.583L472.562 552.428L490.073 552.389C495.24 552.377 500.01 555.159 502.544 559.661L503.719 561.748C506.252 566.247 510.349 569.661 515.233 571.339L521.164 573.377C525.348 574.815 529.878 574.899 534.112 573.619L542.99 570.934C545.557 570.157 548.344 570.816 550.292 572.658L552.53 570.293L550.292 572.658C556.572 578.597 566.646 577.637 571.691 570.619L580.326 558.607C581.246 557.327 582.372 556.208 583.659 555.296L595.105 547.177C601.567 542.594 601.831 533.096 595.634 528.161L593.517 530.82L595.634 528.161C595.092 527.729 594.643 527.192 594.316 526.581L591.321 528.187L594.316 526.581L592.934 524.003C591.245 520.853 590.799 517.184 591.684 513.721L593.977 504.755C595.058 500.526 594.799 496.065 593.236 491.99L591.886 488.469C590.228 484.145 587.006 480.6 582.858 478.538C578.895 476.568 576.386 472.528 576.376 468.102L576.294 431.201L576.191 385.051C576.187 383.378 575.984 381.712 575.587 380.087L571.433 363.118C570.778 360.442 569.604 357.921 567.979 355.696L564.444 350.858C560.466 345.415 554.125 342.203 547.383 342.218L479.856 342.369C477.485 342.374 475.133 342.779 472.897 343.567L467.428 345.495C463.33 346.94 459.778 349.617 457.26 353.159L450.341 362.891Z" fill="#D9D9D9" stroke="black" stroke-width="6.79749"/>
<path d="M514.671 467.222L512.737 471.863C510.855 476.379 507.216 479.934 502.657 481.711L497.441 483.743C491.984 485.87 485.834 485.208 480.954 481.971L477.815 479.888C476.929 479.3 476.098 478.636 475.329 477.901L460.64 463.862C459.851 463.108 459.132 462.284 458.492 461.4L451.525 451.769C448.797 447.998 444.422 445.769 439.768 445.779L438.732 445.781C435.855 445.788 433.08 446.85 430.933 448.766C429.128 450.378 427.865 452.508 427.316 454.864L425.775 461.481C425.57 462.36 425.468 463.261 425.47 464.164C425.479 468.368 423.235 472.254 419.59 474.347L417.085 475.787C416.35 476.209 415.58 476.567 414.785 476.859L413.039 477.498C410.157 478.553 406.962 478.328 404.257 476.879C401.355 475.325 399.324 472.527 398.745 469.286L398.02 465.231C397.739 463.662 397.668 462.062 397.809 460.474L399.38 442.757C399.517 441.213 399.853 439.692 400.38 438.233L403.212 430.39C404.374 427.173 406.428 424.353 409.135 422.261L421.271 412.883C422.177 412.182 423.015 411.397 423.773 410.537L437.369 395.097C437.941 394.448 438.466 393.757 438.939 393.032L451.1 374.38L453.845 370.933C457.251 366.656 462.417 364.158 467.885 364.146L476.228 364.128L486.012 364.106C490.628 364.096 495.059 365.919 498.331 369.176C501.602 372.433 503.446 376.857 503.456 381.473L503.462 383.899C503.467 386.056 502.969 388.184 502.009 390.115C499.96 394.237 496 397.076 491.438 397.695L481.987 398.976C479.635 399.295 477.469 400.431 475.869 402.184C472.901 405.437 472.375 410.234 474.568 414.052L475.201 415.155C475.957 416.471 476.959 417.63 478.152 418.569L503.701 438.678C504.979 439.684 506.115 440.859 507.077 442.17L512.565 449.645C516.299 454.73 517.098 461.399 514.671 467.222Z" fill="#D64851"/>
<path d="M483.723 429.306L485.695 431.902C488.771 435.95 489.428 441.341 487.414 446.009C485.899 449.522 483.021 452.267 479.441 453.615L478.861 453.834C474.266 455.564 469.123 455.022 464.99 452.373L464.882 452.304C464.103 451.805 463.369 451.238 462.689 450.61L453.902 442.496C453.172 441.822 452.506 441.083 451.91 440.287L447.798 434.794C446.003 432.397 443.181 430.989 440.187 430.995L439.439 430.997C437.655 431.001 435.931 431.644 434.581 432.809C433.399 433.829 432.567 435.193 432.201 436.71L431.238 440.702C431.105 441.253 431.039 441.818 431.04 442.384C431.046 444.972 429.644 447.358 427.382 448.614L425.679 449.559C425.202 449.824 424.703 450.049 424.189 450.231L423.001 450.651C421.199 451.289 419.214 451.152 417.517 450.274C415.62 449.293 414.284 447.49 413.895 445.391L413.48 443.144C413.287 442.1 413.238 441.035 413.335 439.978L414.264 429.863C414.397 428.419 414.721 427 415.229 425.642L416.247 422.918C417.343 419.986 419.26 417.431 421.768 415.558L427.979 410.92C428.809 410.301 429.577 409.604 430.275 408.838L438.414 399.909C438.947 399.324 439.437 398.701 439.88 398.045L447.459 386.814L447.789 386.414C450.88 382.664 455.482 380.487 460.342 380.476L463.553 380.469L470.007 380.455C472.848 380.448 475.581 381.546 477.629 383.516C479.771 385.576 480.984 388.418 480.991 391.39L480.994 392.628C480.997 394.01 480.668 395.373 480.036 396.601C478.738 399.122 476.287 400.847 473.476 401.215L467.117 402.049C465.688 402.236 464.367 402.91 463.377 403.958C461.455 405.993 461.116 409.056 462.547 411.461L462.91 412.072C463.383 412.868 464.005 413.565 464.742 414.126L480.608 426.191C481.782 427.084 482.83 428.132 483.723 429.306Z" fill="black"/>
<path d="M702.877 558.443L710.969 569.908C714.233 574.531 721.018 574.735 724.554 570.316C725.275 569.414 726.172 568.669 727.191 568.126L729.772 566.749C733.677 564.667 738.221 564.125 742.505 565.231L751.466 567.543C755.011 568.458 758.753 568.249 762.174 566.946L765.697 565.604C769.23 564.258 772.128 561.635 773.819 558.254C776.374 553.144 781.596 549.916 787.31 549.916H824.211H870.361C871.764 549.916 873.162 549.749 874.525 549.419L891.503 545.303C893.749 544.758 895.866 543.779 897.735 542.42L902.58 538.896C907.153 535.57 909.859 530.257 909.859 524.603V457.075C909.859 455.087 909.523 453.113 908.867 451.237L906.951 445.764C905.747 442.323 903.509 439.34 900.542 437.221L890.826 430.281L874.175 421.03C873.044 420.402 871.985 419.65 871.017 418.79L854.12 403.77L840.192 390.957C838.176 389.102 836.618 386.803 835.642 384.242L832.903 377.05C832.1 374.944 830.902 373.01 829.373 371.354L820.622 361.874C817.277 358.249 812.568 356.188 807.636 356.188H741.961L724.703 358.585C720.083 359.227 715.904 361.669 713.077 365.379L710.229 369.116C707.884 372.194 706.614 375.957 706.614 379.827V449.313V466.824C706.614 473.221 703.157 479.119 697.576 482.245L695.487 483.414C691.708 485.531 688.838 488.961 687.421 493.053L685.369 498.98C684.156 502.486 684.076 506.286 685.143 509.84L687.808 518.723C688.929 522.46 687.962 526.511 685.276 529.339C680.74 534.113 681.454 541.791 686.793 545.646L698.786 554.308C700.368 555.451 701.751 556.848 702.877 558.443Z" fill="#D9D9D9" stroke="black" stroke-width="6.79749"/>
<path d="M338.865 675.592L260.016 676.047L213.453 617.176L259.342 559.132L338.191 558.677L390.184 616.157L338.865 675.592Z" fill="#D9D9D9"/>
<rect x="515.299" y="622.912" width="169.937" height="17.6735" transform="rotate(179.67 515.299 622.912)" fill="black"/>
<path d="M313.797 626.285C299.175 616.964 298.801 582.266 305.943 570.934C313.084 559.602 317.473 581.762 332.095 591.083C346.718 600.404 366.307 609.999 359.166 621.331C352.025 632.664 328.419 635.606 313.797 626.285Z" fill="black"/>
<path d="M312.767 607.658C298.664 617.232 300.197 651.919 307.958 663.121C315.718 674.322 318.887 652.096 332.991 642.523C347.094 632.949 366.147 623.015 358.387 611.813C350.626 600.612 326.871 598.085 312.767 607.658Z" fill="black"/>
<path d="M248.806 617.651C248.737 605.638 263.897 595.812 282.668 595.703C301.438 595.595 305.835 605.309 305.904 617.322C305.973 629.335 301.689 639.098 282.919 639.207C264.148 639.315 248.876 629.664 248.806 617.651Z" fill="#FFAA00"/>
<path d="M937.428 674.233L1016.28 674.688L1062.84 615.817L1016.95 557.773L938.102 557.318L886.109 614.798L937.428 674.233Z" fill="#D9D9D9"/>
<rect width="169.937" height="17.6735" transform="matrix(0.999983 0.0057672 0.0057672 -0.999983 760.995 621.553)" fill="black"/>
<path d="M964.863 625.287C979.486 615.966 979.859 581.268 972.717 569.936C965.576 558.604 961.187 580.764 946.565 590.085C931.943 599.406 912.353 609.001 919.494 620.333C926.635 631.666 950.241 634.608 964.863 625.287Z" fill="black"/>
<path d="M965.893 606.66C979.996 616.234 978.463 650.921 970.702 662.123C962.942 673.324 959.773 651.098 945.67 641.524C931.566 631.951 912.513 622.017 920.274 610.815C928.034 599.614 951.79 597.087 965.893 606.66Z" fill="black"/>
<path d="M1027.49 616.292C1027.56 604.279 1012.4 594.453 993.628 594.344C974.858 594.236 970.461 603.95 970.392 615.963C970.323 627.976 974.607 637.739 993.377 637.848C1012.15 637.956 1027.42 628.305 1027.49 616.292Z" fill="#FFAA00"/>
<path d="M578.82 902.706V981.557L637.958 1027.78L695.737 981.557V902.706L637.958 851.045L578.82 902.706Z" fill="#D9D9D9"/>
<rect width="169.937" height="17.6735" transform="matrix(0 1 1 0 630.485 725.971)" fill="black"/>
<path d="M628.529 927.93C637.935 942.498 672.634 942.671 683.925 935.465C695.216 928.258 673.031 923.997 663.626 909.429C654.221 894.86 644.512 875.326 633.221 882.533C621.93 889.739 619.124 913.361 628.529 927.93Z" fill="black"/>
<path d="M647.161 928.852C637.67 943.01 602.974 941.677 591.728 933.981C580.482 926.285 602.69 922.988 612.181 908.83C621.673 894.672 631.498 875.561 642.744 883.257C653.99 890.953 656.653 914.693 647.161 928.852Z" fill="black"/>
<path d="M637.28 992.432C649.294 992.432 659.032 977.216 659.032 958.445C659.032 939.674 649.294 935.334 637.28 935.334C625.267 935.334 615.528 939.674 615.528 958.445C615.528 977.216 625.267 992.432 637.28 992.432Z" fill="#FFAA00"/>
<path d="M578.82 322.2V243.35L637.958 197.127L695.737 243.35V322.2L637.958 373.861L578.82 322.2Z" fill="#D9D9D9"/>
<rect x="630.485" y="498.935" width="169.937" height="17.6735" transform="rotate(-90 630.485 498.935)" fill="black"/>
<ellipse cx="638.642" cy="613.813" rx="74.0926" ry="73.4129" transform="rotate(-90 638.642 613.813)" fill="#FFAA00"/>
<circle cx="640.133" cy="576.393" r="20.3925" transform="rotate(-90 640.133 576.393)" fill="#2A1352"/>
<circle cx="670.133" cy="635.393" r="20.3925" transform="rotate(-90 670.133 635.393)" fill="#2A1352"/>
<ellipse cx="608.133" cy="596.072" rx="21.0722" ry="20.3925" transform="rotate(-90 608.133 596.072)" fill="#2A1352"/>
<circle cx="637.133" cy="652.393" r="20.3925" transform="rotate(-90 637.133 652.393)" fill="#2A1352"/>
<circle cx="671.289" cy="596.818" r="20.3925" transform="rotate(-90 671.289 596.818)" fill="#2A1352"/>
<ellipse cx="607.392" cy="634.205" rx="21.0722" ry="20.3925" transform="rotate(-90 607.392 634.205)" fill="#2A1352"/>
<path d="M725.723 519.624C740.241 517.587 759.468 540.152 761.07 551.572C762.671 562.991 747.719 550.894 733.201 552.931C718.682 554.967 700.815 559.593 699.213 548.173C697.611 536.753 711.205 521.66 725.723 519.624Z" fill="#1C5C3A"/>
<path d="M736.578 531.274C740.423 517.127 720.455 495.216 709.327 492.192C698.199 489.167 708.32 505.522 704.475 519.669C700.63 533.816 693.795 550.96 704.923 553.985C716.051 557.009 732.733 545.421 736.578 531.274Z" fill="#1C5C3A"/>
<path d="M630.529 296.948C639.935 282.38 674.634 282.207 685.925 289.413C697.216 296.62 675.031 300.881 665.626 315.449C656.221 330.018 646.512 349.552 635.221 342.345C623.93 335.139 621.124 311.517 630.529 296.948Z" fill="black"/>
<path d="M649.161 296.026C639.67 281.868 604.974 283.201 593.728 290.897C582.482 298.593 604.69 301.89 614.181 316.048C623.673 330.206 633.498 349.317 644.744 341.621C655.99 333.925 658.653 310.184 649.161 296.026Z" fill="black"/>
<path d="M553.659 704.659C539.27 706.73 520.214 683.779 518.627 672.164C517.039 660.548 531.859 672.853 546.248 670.781C560.637 668.71 578.345 664.005 579.933 675.62C581.52 687.236 568.048 702.588 553.659 704.659Z" fill="#1C5C3A"/>
<path d="M542.9 692.808C539.089 707.198 558.88 729.484 569.909 732.56C580.938 735.636 570.906 719.001 574.717 704.612C578.528 690.223 585.302 672.785 574.274 669.709C563.245 666.632 546.711 678.419 542.9 692.808Z" fill="#1C5C3A"/>
<path d="M735.949 694.101C739.256 708.383 718.472 729.523 707.238 732.124C696.004 734.725 706.737 718.765 703.43 704.483C700.123 690.2 693.942 672.809 705.176 670.208C716.41 667.607 732.642 679.818 735.949 694.101Z" fill="#1C5C3A"/>
<path d="M725.301 705.94C739.731 708.524 759.799 686.703 761.831 675.353C763.864 664.002 748.464 675.524 734.033 672.94C719.603 670.356 701.923 665.057 699.89 676.408C697.858 687.759 710.87 703.356 725.301 705.94Z" fill="#1C5C3A"/>
<path d="M544.356 533.138C541.609 518.738 563.203 498.426 574.53 496.265C585.857 494.105 574.509 509.634 577.255 524.034C580.002 538.435 585.5 556.054 574.172 558.214C562.845 560.375 547.103 547.539 544.356 533.138Z" fill="#1C5C3A"/>
<path d="M555.458 521.724C541.139 518.578 520.235 539.599 517.761 550.862C515.287 562.124 531.125 551.212 545.443 554.358C559.762 557.504 577.222 563.489 579.696 552.226C582.17 540.963 569.777 524.87 555.458 521.724Z" fill="#1C5C3A"/>
<path d="M672.628 467.667C680.887 467.667 672.628 485.583 672.628 500.975C672.628 516.367 665.932 528.844 657.673 528.844C649.414 528.844 642.719 516.367 642.719 500.975C642.719 485.583 664.369 467.667 672.628 467.667Z" fill="#C50016"/>
<path d="M605.333 468.347C613.592 468.347 634.563 485.583 634.563 500.975C634.563 516.367 627.867 528.844 619.608 528.844C611.349 528.844 604.654 516.367 604.654 500.975C604.654 485.583 597.074 468.347 605.333 468.347Z" fill="#C50016"/>
<path d="M490.454 580.052C490.454 571.793 508.37 580.052 523.762 580.052C539.154 580.052 551.632 586.748 551.632 595.007C551.632 603.266 539.154 609.961 523.762 609.961C508.37 609.961 490.454 588.312 490.454 580.052Z" fill="#C50016"/>
<path d="M491.505 647.344C491.505 639.085 508.741 618.114 524.133 618.114C539.525 618.114 552.003 624.81 552.003 633.069C552.003 641.328 539.525 648.023 524.133 648.023C508.741 648.023 491.505 655.603 491.505 647.344Z" fill="#C50016"/>
<path d="M784.476 577.333C784.476 569.074 766.561 577.333 751.169 577.333C735.777 577.333 723.299 584.028 723.299 592.287C723.299 600.546 735.777 607.242 751.169 607.242C766.561 607.242 784.476 585.592 784.476 577.333Z" fill="#C50016"/>
<path d="M783.428 644.624C783.428 636.365 766.192 615.395 750.8 615.395C735.408 615.395 722.931 622.09 722.931 630.349C722.931 638.608 735.408 645.303 750.8 645.303C766.192 645.303 783.428 652.883 783.428 644.624Z" fill="#C50016"/>
<path d="M673.085 759.959C681.344 759.959 673.085 742.043 673.085 726.651C673.085 711.259 666.389 698.781 658.13 698.781C649.871 698.781 643.176 711.259 643.176 726.651C643.176 742.043 664.826 759.959 673.085 759.959Z" fill="#C50016"/>
<path d="M605.79 759.279C614.049 759.279 635.02 742.043 635.02 726.651C635.02 711.259 628.324 698.781 620.065 698.781C611.806 698.781 605.111 711.259 605.111 726.651C605.111 742.043 597.531 759.279 605.79 759.279Z" fill="#C50016"/>
<path d="M637.28 232.474C649.294 232.474 659.032 247.69 659.032 266.461C659.032 285.232 649.294 289.572 637.28 289.572C625.267 289.572 615.528 285.232 615.528 266.461C615.528 247.69 625.267 232.474 637.28 232.474Z" fill="#FFAA00"/>
<path d="M785.61 491.605L780.973 489.66C776.461 487.768 772.914 484.121 771.148 479.559L769.127 474.338C767.013 468.877 767.688 462.728 770.936 457.855L773.026 454.721C773.615 453.836 774.282 453.006 775.018 452.24L789.09 437.581C789.846 436.794 790.671 436.077 791.557 435.439L801.204 428.494C804.981 425.774 807.22 421.404 807.22 416.749V415.714C807.22 412.837 806.164 410.059 804.252 407.909C802.644 406.1 800.517 404.832 798.162 404.278L791.549 402.722C790.67 402.515 789.77 402.411 788.866 402.411C784.663 402.411 780.782 400.158 778.696 396.509L777.263 394C776.842 393.264 776.485 392.494 776.196 391.697L775.56 389.95C774.512 387.066 774.744 383.872 776.199 381.17C777.76 378.271 780.562 376.246 783.804 375.674L787.86 374.958C789.43 374.681 791.03 374.614 792.618 374.758L810.331 376.369C811.876 376.509 813.395 376.848 814.853 377.378L822.69 380.228C825.905 381.397 828.72 383.458 830.806 386.17L840.157 398.326C840.855 399.234 841.639 400.074 842.497 400.833L857.906 414.464C858.555 415.038 859.244 415.564 859.968 416.038L878.593 428.241L882.034 430.994C886.304 434.409 888.789 439.581 888.789 445.049V453.392V463.176C888.789 467.792 886.956 472.219 883.691 475.484C880.427 478.748 876 480.582 871.383 480.582H868.957C866.801 480.582 864.674 480.08 862.745 479.115C858.627 477.056 855.797 473.091 855.189 468.527L853.928 459.073C853.614 456.72 852.484 454.552 850.734 452.948C847.488 449.973 842.691 449.436 838.868 451.621L837.764 452.251C836.446 453.005 835.285 454.004 834.344 455.195L814.178 480.698C813.169 481.974 811.992 483.107 810.679 484.067L803.191 489.539C798.098 493.261 791.428 494.045 785.61 491.605Z" fill="#D64851"/>
<path d="M823.591 460.736L820.991 462.703C816.936 465.77 811.544 466.415 806.88 464.39C803.371 462.867 800.632 459.983 799.292 456.4L799.075 455.82C797.355 451.221 797.908 446.079 800.567 441.952L800.636 441.845C801.137 441.066 801.706 440.334 802.335 439.655L810.469 430.886C811.144 430.158 811.885 429.493 812.681 428.899L818.184 424.799C820.585 423.01 822 420.191 822 417.196V416.448C822 414.665 821.36 412.94 820.198 411.586C819.181 410.402 817.819 409.567 816.303 409.198L812.313 408.226C811.762 408.092 811.198 408.024 810.631 408.024C808.043 408.024 805.66 406.618 804.409 404.352L803.468 402.647C803.204 402.17 802.981 401.671 802.8 401.156L802.382 399.966C801.749 398.164 801.89 396.179 802.772 394.484C803.757 392.589 805.562 391.257 807.663 390.873L809.911 390.463C810.955 390.272 812.02 390.226 813.077 390.325L823.19 391.277C824.633 391.412 826.052 391.74 827.408 392.25L830.131 393.275C833.06 394.378 835.611 396.3 837.478 398.812L842.102 405.033C842.719 405.864 843.415 406.635 844.179 407.334L853.09 415.493C853.673 416.028 854.295 416.519 854.95 416.963L866.164 424.567L866.564 424.898C870.307 427.998 872.474 432.604 872.474 437.464V440.675V447.129C872.474 449.971 871.37 452.701 869.396 454.744C867.331 456.882 864.486 458.089 861.514 458.089H860.276C858.894 458.089 857.532 457.757 856.305 457.122C853.786 455.819 852.068 453.364 851.706 450.552L850.886 444.192C850.702 442.762 850.031 441.439 848.985 440.447C846.954 438.521 843.893 438.175 841.484 439.6L840.872 439.961C840.075 440.433 839.376 441.053 838.814 441.789L826.714 457.628C825.818 458.801 824.768 459.846 823.591 460.736Z" fill="black"/>
<path d="M616.912 1132.66L627.463 1129.81C632.499 1128.44 637.849 1128.84 642.634 1130.92L646.49 1132.59C649.384 1133.85 652.506 1134.5 655.661 1134.5H664.383C667.571 1134.5 670.715 1133.76 673.566 1132.33C679.39 1129.42 683.488 1123.92 684.61 1117.51L686.301 1107.84C687.135 1103.08 686.444 1098.17 684.327 1093.82L677.263 1079.3C675.998 1076.7 674.254 1074.36 672.122 1072.4L665.666 1066.49C661.662 1062.82 660.304 1057.08 662.237 1052L662.493 1051.33C663.746 1048.04 666.409 1045.49 669.748 1044.37C674.997 1042.62 680.755 1044.78 683.566 1049.55L690.465 1061.24C693.005 1065.55 696.89 1068.91 701.521 1070.79L702.335 1071.12C708.839 1073.77 716.234 1073.03 722.078 1069.13C726.556 1066.15 732.003 1064.98 737.312 1065.86L740.469 1066.39C746.233 1067.35 752.147 1066.08 757.009 1062.84L774.163 1051.4C775.333 1050.62 776.271 1049.54 776.878 1048.27L785.236 1030.8C786.668 1027.8 783.104 1024.91 780.468 1026.92C779.756 1027.47 778.847 1027.68 777.967 1027.52L761.866 1024.5C759.046 1023.97 756.349 1022.92 753.915 1021.4L746.504 1016.77C743.257 1014.74 741.284 1011.18 741.284 1007.35V1003.1C741.284 1001.17 742.449 999.43 744.235 998.694C747.827 997.215 751.584 1000.43 750.684 1004.2L750.526 1004.87C749.912 1007.45 751.369 1010.07 753.884 1010.91L762.71 1013.85C768.306 1015.71 774.476 1014.19 778.561 1009.94L785.936 1002.25C787.374 1000.76 789.36 999.909 791.437 999.909H792.739C796.231 999.909 799.063 997.078 799.063 993.586C799.063 991.578 798.109 989.689 796.493 988.497L762.125 963.144C759.151 960.95 756.749 958.071 755.123 954.752L744.496 933.055C742.575 929.132 743.359 924.422 746.448 921.333C748.364 919.416 750.964 918.34 753.674 918.34H754.418C761.055 918.34 766.435 923.72 766.435 930.356V931.369C766.435 932.196 766.338 933.021 766.146 933.826C764.559 940.491 769.613 946.889 776.464 946.889H779.08C781.898 946.889 784.636 945.95 786.861 944.22L790.981 941.015C794.053 938.626 796.468 935.496 798.001 931.92L800.502 926.084C803.792 918.406 811.095 913.207 819.428 912.612C832.563 911.674 843.652 922.251 843.334 935.415L841.45 1013.6C841.295 1020.04 838.447 1026.11 833.599 1030.35L653.653 1187.75C644.978 1195.33 632.026 1195.33 623.356 1187.74L438.823 1026.11C433.642 1021.57 430.767 1014.95 430.989 1008.07L433.319 935.84C433.72 923.432 443.894 913.581 456.307 913.581H461.907L467.751 914.147C476.93 915.035 484.618 921.474 487.105 930.353C487.525 931.857 488.103 933.311 488.827 934.694L493.069 942.792C494.388 945.311 496.997 946.889 499.84 946.889H502.923C507.189 946.889 509.964 942.4 508.056 938.584C507.658 937.787 507.45 936.909 507.45 936.018V930.636C507.45 923.396 512.345 917.071 519.353 915.254L519.954 915.098C523.696 914.128 527.67 914.702 530.985 916.69C536.062 919.736 538.759 925.577 537.785 931.417L536.947 936.449C536.326 940.174 534.753 943.674 532.381 946.612L523.151 958.039C522.202 959.213 521.141 960.291 519.982 961.257L501.333 976.798L496.994 979.597C489.776 984.254 490.581 995.054 498.409 998.589C500.317 999.451 501.935 1000.85 503.067 1002.61L505.306 1006.09C506.642 1008.17 508.945 1009.43 511.416 1009.43H515.257C518.409 1009.43 520.61 1006.3 519.55 1003.33C518.834 1001.33 519.6 999.099 521.395 997.957L522.297 997.383C524.4 996.044 527.117 996.173 529.084 997.703L529.415 997.96C530.996 999.19 531.921 1001.08 531.921 1003.08V1009.31C531.921 1014.19 530.063 1018.88 526.725 1022.45L524.521 1024.8C522.684 1026.76 520.405 1028.25 517.875 1029.15L515.379 1030.05C513.328 1030.78 511.088 1030.78 509.036 1030.05L502.568 1027.76C497.869 1026.09 493.288 1030.51 494.789 1035.27C495.069 1036.15 495.55 1036.96 496.195 1037.64L508.103 1050.02C510.796 1052.82 514.155 1054.89 517.865 1056.04L528.591 1059.37C530.799 1060.06 533.097 1060.41 535.408 1060.41H549.136C552.57 1060.41 555.961 1061.18 559.059 1062.66L560.271 1063.24C566.428 1066.18 573.574 1066.24 579.778 1063.4L580.73 1062.96C584.381 1061.29 587.529 1058.69 589.863 1055.42L597.493 1044.74C599.001 1042.63 601.436 1041.37 604.031 1041.37C607.619 1041.37 610.772 1043.75 611.757 1047.2L613.896 1054.69C614.958 1058.4 614.819 1062.36 613.497 1066L611.836 1070.57C610.688 1073.72 608.861 1076.59 606.484 1078.97L598.067 1087.39C596.575 1088.88 595.295 1090.57 594.263 1092.41L590.369 1099.37C587.742 1104.06 586.862 1109.53 587.883 1114.8C589.428 1122.78 595.115 1129.34 602.8 1131.99L603.414 1132.2C607.766 1133.7 612.468 1133.86 616.912 1132.66Z" fill="#FFAA00"/>
<rect x="641.378" y="1214.03" width="19.033" height="282.92" transform="rotate(-130.062 641.378 1214.03)" fill="#D9D9D9"/>
<rect width="19.033" height="292.005" transform="matrix(-0.643618 0.765347 0.765347 0.643618 429.136 1014.24)" fill="#D9D9D9"/>
<path d="M1178.59 633.333L1175.73 622.783C1174.37 617.746 1174.76 612.396 1176.84 607.611L1178.52 603.755C1179.78 600.861 1180.43 597.739 1180.42 594.584L1180.42 585.862C1180.42 582.674 1179.68 579.53 1178.25 576.679C1175.34 570.856 1169.84 566.759 1163.43 565.637L1153.77 563.948C1149 563.115 1144.09 563.806 1139.74 565.923L1125.22 572.99C1122.62 574.255 1120.28 575.999 1118.33 578.131L1112.41 584.589C1108.74 588.592 1103 589.952 1097.92 588.019L1097.25 587.764C1093.96 586.511 1091.41 583.848 1090.3 580.51C1088.55 575.261 1090.7 569.502 1095.47 566.691L1107.16 559.79C1111.47 557.249 1114.83 553.364 1116.71 548.732L1117.04 547.919C1119.69 541.414 1118.95 534.019 1115.05 528.176C1112.06 523.698 1110.89 518.252 1111.78 512.943L1112.3 509.785C1113.26 504.021 1111.99 498.108 1108.75 493.246L1097.31 476.093C1096.53 474.923 1095.45 473.985 1094.18 473.378L1076.7 465.023C1073.71 463.591 1070.82 467.156 1072.83 469.792C1073.38 470.504 1073.59 471.413 1073.43 472.293L1070.41 488.394C1069.88 491.215 1068.83 493.912 1067.31 496.345L1062.68 503.757C1060.65 507.005 1057.09 508.978 1053.26 508.979L1049.01 508.979C1047.08 508.979 1045.34 507.814 1044.61 506.029C1043.13 502.437 1046.34 498.679 1050.12 499.579L1050.78 499.737C1053.36 500.351 1055.98 498.893 1056.82 496.378L1059.76 487.551C1061.62 481.955 1060.1 475.786 1055.84 471.701L1048.16 464.327C1046.66 462.89 1045.82 460.903 1045.82 458.827L1045.82 457.524C1045.82 454.032 1042.98 451.201 1039.49 451.202C1037.48 451.202 1035.59 452.156 1034.4 453.772L1009.05 488.144C1006.86 491.118 1003.98 493.52 1000.66 495.146L978.967 505.777C975.045 507.699 970.335 506.915 967.245 503.827C965.329 501.91 964.251 499.311 964.251 496.601L964.251 495.857C964.25 489.22 969.629 483.839 976.266 483.838L977.279 483.838C978.106 483.838 978.931 483.935 979.736 484.126C986.401 485.712 992.798 480.658 992.797 473.806L992.797 471.191C992.797 468.372 991.857 465.635 990.126 463.411L986.921 459.291C984.532 456.219 981.402 453.805 977.825 452.272L972.228 449.874C964.46 446.547 959.337 439.005 959.105 430.558C958.773 418.442 968.446 408.412 980.566 408.304L1060.29 407.595C1067.08 407.535 1073.55 410.48 1077.97 415.64L1233.08 596.897C1240.5 605.57 1240.44 618.375 1232.93 626.976L1074.46 808.529C1070.04 813.588 1063.63 816.465 1056.92 816.404L982.114 815.72C968.985 815.6 958.62 804.532 959.36 791.423L959.533 788.368L960.098 782.524C960.985 773.346 967.422 765.656 976.302 763.168C977.805 762.747 979.26 762.17 980.642 761.445L988.739 757.203C991.258 755.883 992.836 753.274 992.836 750.431L992.835 747.347C992.835 743.081 988.345 740.308 984.53 742.216C983.733 742.614 982.854 742.822 981.963 742.822L976.582 742.823C969.341 742.824 963.016 737.93 961.197 730.922L961.042 730.321C960.071 726.579 960.644 722.605 962.633 719.29C965.678 714.213 971.518 711.515 977.358 712.487L982.391 713.326C986.115 713.946 989.616 715.518 992.554 717.89L1003.98 727.119C1005.16 728.067 1006.23 729.128 1007.2 730.287L1022.74 748.934L1025.54 753.272C1030.2 760.489 1041 759.683 1044.54 751.854C1045.4 749.946 1046.79 748.328 1048.55 747.196L1052.04 744.957C1054.11 743.62 1055.37 741.318 1055.37 738.846L1055.37 735.005C1055.37 731.853 1052.25 729.653 1049.28 730.713C1047.28 731.429 1045.04 730.664 1043.9 728.869L1043.33 727.967C1041.99 725.864 1042.12 723.147 1043.65 721.18L1043.9 720.849C1045.13 719.267 1047.02 718.342 1049.03 718.342L1055.25 718.341C1060.13 718.34 1064.83 720.197 1068.39 723.535L1070.74 725.739C1072.7 727.576 1074.19 729.854 1075.1 732.384L1075.99 734.88C1076.72 736.931 1076.73 739.171 1076 741.223L1073.7 747.692C1072.04 752.391 1076.46 756.972 1081.21 755.469C1082.1 755.189 1082.91 754.708 1083.58 754.063L1095.97 742.153C1098.77 739.46 1100.84 736.101 1101.99 732.39L1105.32 721.664C1106 719.457 1106.35 717.158 1106.35 714.847L1106.35 701.119C1106.35 697.685 1107.12 694.294 1108.6 691.195L1109.18 689.983C1112.12 683.827 1112.18 676.68 1109.33 670.477L1108.9 669.524C1107.22 665.874 1104.62 662.726 1101.35 660.393L1090.67 652.765C1088.56 651.257 1087.31 648.821 1087.31 646.226C1087.31 642.639 1089.68 639.486 1093.13 638.499L1100.62 636.36C1104.34 635.297 1108.3 635.436 1111.93 636.758L1116.5 638.418C1119.66 639.566 1122.52 641.392 1124.9 643.768L1133.32 652.184C1134.81 653.677 1136.5 654.956 1138.35 655.988L1145.3 659.881C1149.99 662.507 1155.46 663.387 1160.74 662.365C1168.72 660.819 1175.27 655.131 1177.92 647.445L1178.13 646.832C1179.63 642.479 1179.79 637.777 1178.59 633.333Z" fill="#FFAA00"/>
<rect x="1259.96" y="608.859" width="19.033" height="282.92" transform="rotate(139.93 1259.96 608.859)" fill="#D9D9D9"/>
<rect width="19.033" height="292.005" transform="matrix(0.765436 0.643512 0.643512 -0.765436 1060.2 821.124)" fill="#D9D9D9"/>
<path d="M99.7941 588.163L102.772 598.678C104.193 603.699 103.866 609.053 101.843 613.862L100.213 617.738C98.9894 620.647 98.3776 623.776 98.4154 626.931L98.5199 635.652C98.5581 638.84 99.338 641.975 100.798 644.809C103.779 650.597 109.329 654.629 115.756 655.674L125.436 657.249C130.212 658.026 135.112 657.277 139.437 655.108L153.873 647.87C156.458 646.574 158.775 644.802 160.704 642.647L166.544 636.12C170.166 632.073 175.89 630.645 180.988 632.518L181.662 632.765C184.966 633.979 187.551 636.611 188.703 639.936C190.516 645.164 188.43 650.948 183.698 653.816L172.084 660.854C167.806 663.446 164.498 667.371 162.667 672.024L162.345 672.842C159.773 679.378 160.608 686.763 164.574 692.56C167.613 697.002 168.847 702.434 168.026 707.753L167.538 710.917C166.646 716.692 167.986 722.59 171.285 727.413L182.926 744.428C183.721 745.589 184.813 746.515 186.09 747.106L203.664 755.254C206.675 756.65 209.527 753.052 207.479 750.439C206.926 749.734 206.699 748.828 206.853 747.946L209.679 731.81C210.174 728.984 211.194 726.274 212.686 723.823L217.228 716.357C219.219 713.085 222.755 711.07 226.584 711.024L230.831 710.973C232.762 710.95 234.516 712.094 235.272 713.871C236.794 717.445 233.63 721.24 229.84 720.386L229.173 720.235C226.587 719.652 223.984 721.141 223.176 723.666L220.34 732.527C218.542 738.145 220.139 744.296 224.443 748.329L232.213 755.611C233.728 757.031 234.598 759.008 234.623 761.084L234.639 762.386C234.681 765.878 237.546 768.675 241.038 768.633C243.045 768.609 244.922 767.633 246.095 766.003L271.035 731.334C273.193 728.333 276.043 725.897 279.342 724.232L300.911 713.345C304.81 711.377 309.529 712.105 312.655 715.156C314.594 717.05 315.702 719.636 315.735 722.346L315.744 723.09C315.823 729.726 310.508 735.17 303.872 735.25L302.859 735.262C302.032 735.272 301.206 735.185 300.399 735.003C293.716 733.496 287.378 738.626 287.46 745.477L287.492 748.093C287.526 750.911 288.498 753.637 290.254 755.841L293.508 759.922C295.934 762.965 299.092 765.343 302.687 766.833L308.125 769.087C316.02 772.359 321.235 779.989 321.415 788.533C321.669 800.502 312.116 810.382 300.145 810.532L223.58 811.489C216.932 811.572 210.573 808.774 206.142 803.816L46.0199 624.63C38.2948 615.985 38.2115 602.942 45.8256 594.199L204.026 412.546C208.495 407.414 215.006 404.525 221.81 404.655L294.472 406.044C307.286 406.289 317.428 416.962 317.02 429.772L316.996 430.543L316.5 436.394C315.722 445.582 309.376 453.347 300.527 455.94C299.029 456.379 297.581 456.974 296.207 457.714L288.161 462.053C285.658 463.402 284.111 466.029 284.145 468.873L284.182 471.956C284.233 476.222 288.755 478.942 292.548 476.989C293.34 476.581 294.216 476.363 295.107 476.352L300.488 476.288C307.728 476.201 314.111 481.019 316.012 488.006L316.175 488.604C317.19 492.334 316.664 496.315 314.715 499.654C311.73 504.766 305.922 507.533 300.071 506.63L295.029 505.852C291.297 505.276 287.778 503.745 284.812 501.408L273.275 492.315C272.09 491.381 271 490.333 270.02 489.186L254.256 470.724L251.405 466.419C246.663 459.258 235.873 460.192 232.431 468.062C231.593 469.98 230.217 471.614 228.469 472.767L225.014 475.047C222.951 476.409 221.722 478.726 221.751 481.198L221.798 485.038C221.835 488.19 224.984 490.353 227.939 489.257C229.935 488.518 232.176 489.257 233.34 491.038L233.924 491.933C235.288 494.02 235.192 496.738 233.685 498.724L233.432 499.058C232.221 500.654 230.341 501.601 228.338 501.625L222.117 501.7C217.237 501.758 212.517 499.957 208.916 496.661L206.539 494.486C204.557 492.672 203.036 490.412 202.102 487.892L201.181 485.407C200.424 483.365 200.395 481.125 201.098 479.065L203.316 472.57C204.927 467.851 200.449 463.323 195.712 464.881C194.829 465.172 194.025 465.663 193.362 466.315L181.121 478.371C178.353 481.098 176.32 484.481 175.213 488.205L172.013 498.97C171.355 501.185 171.034 503.488 171.061 505.799L171.226 519.526C171.267 522.96 170.539 526.36 169.094 529.475L168.529 530.694C165.659 536.885 165.686 544.032 168.604 550.201L169.052 551.148C170.768 554.778 173.405 557.895 176.7 560.19L187.472 567.691C189.602 569.174 190.884 571.594 190.915 574.189C190.958 577.776 188.618 580.957 185.181 581.984L177.723 584.212C174.017 585.319 170.056 585.227 166.405 583.949L161.819 582.343C158.647 581.232 155.757 579.44 153.352 577.092L144.835 568.777C143.324 567.302 141.618 566.042 139.764 565.033L132.764 561.222C128.042 558.652 122.563 557.837 117.298 558.922C109.336 560.562 102.854 566.327 100.296 574.044L100.092 574.66C98.6436 579.03 98.5398 583.734 99.7941 588.163Z" fill="#FFAA00"/>
<rect x="18.7197" y="613.6" width="19.033" height="282.92" transform="rotate(-40.7488 18.7197 613.6)" fill="#D9D9D9"/>
<path d="M215.952 398.983L202 390L15.9916 612.63L30.7042 624.705L215.952 398.983Z" fill="#D9D9D9"/>
<path d="M617.065 90.8895L627.615 93.7409C632.652 95.1022 638.002 94.7105 642.787 92.6302L646.643 90.9536C649.536 89.6955 652.658 89.0462 655.813 89.0462L664.535 89.0462C667.723 89.0462 670.867 89.7885 673.719 91.2141C679.542 94.126 683.64 99.6273 684.762 106.041L686.453 115.701C687.287 120.468 686.597 125.376 684.48 129.728L677.415 144.249C676.15 146.849 674.406 149.188 672.275 151.142L665.818 157.06C661.815 160.73 660.456 166.471 662.389 171.546L662.645 172.217C663.898 175.506 666.561 178.059 669.9 179.172C675.149 180.922 680.908 178.767 683.718 174.001L690.617 162.303C693.158 157.995 697.042 154.64 701.674 152.753L702.487 152.421C708.992 149.771 716.387 150.518 722.231 154.414C726.709 157.399 732.155 158.568 737.464 157.683L740.622 157.157C746.386 156.196 752.299 157.465 757.161 160.707L774.315 172.143C775.486 172.923 776.424 174.005 777.031 175.274L785.389 192.749C786.821 195.744 783.257 198.638 780.62 196.622C779.909 196.078 778.999 195.861 778.119 196.026L762.019 199.045C759.198 199.574 756.501 200.626 754.067 202.147L746.657 206.779C743.409 208.808 741.436 212.368 741.436 216.198V220.445C741.436 222.376 742.602 224.116 744.387 224.851C747.979 226.331 751.736 223.121 750.837 219.342L750.678 218.676C750.064 216.098 751.522 213.477 754.037 212.639L762.863 209.697C768.459 207.832 774.628 209.355 778.713 213.61L786.088 221.292C787.526 222.79 789.513 223.637 791.589 223.637H792.892C796.384 223.637 799.215 226.468 799.215 229.96C799.215 231.968 798.261 233.857 796.645 235.049L762.277 260.402C759.303 262.596 756.901 265.475 755.276 268.794L744.648 290.491C742.727 294.414 743.511 299.124 746.6 302.213C748.517 304.13 751.116 305.206 753.826 305.206H754.571C761.207 305.206 766.587 299.826 766.587 293.19V292.177C766.587 291.35 766.49 290.525 766.299 289.72C764.712 283.055 769.766 276.657 776.617 276.657H779.233C782.051 276.657 784.788 277.596 787.013 279.326L791.133 282.531C794.205 284.92 796.62 288.05 798.153 291.626L800.038 296.025C803.663 304.481 811.978 309.965 821.179 309.965H821.603C834.305 309.965 844.603 299.667 844.603 286.965V210.436C844.603 203.715 841.663 197.33 836.555 192.96L653.61 36.4285C644.933 29.0046 632.124 29.0709 623.524 36.5842L440.064 196.874C434.949 201.343 432.071 207.845 432.201 214.637L433.601 287.407C433.841 299.935 444.066 309.965 456.596 309.965H462.06L467.903 309.399C477.082 308.511 484.771 302.072 487.257 293.193C487.678 291.689 488.255 290.235 488.979 288.852L493.221 280.754C494.541 278.235 497.149 276.657 499.993 276.657H503.076C507.342 276.657 510.116 281.146 508.209 284.962C507.81 285.759 507.603 286.637 507.603 287.528V292.91C507.603 300.15 512.497 306.475 519.506 308.292L520.107 308.448C523.848 309.418 527.823 308.844 531.137 306.856C536.214 303.81 538.911 297.969 537.938 292.129L537.099 287.097C536.478 283.372 534.905 279.872 532.533 276.934L523.303 265.507C522.355 264.333 521.294 263.255 520.135 262.289L501.485 246.748L497.146 243.949C489.929 239.292 490.734 228.492 498.562 224.957C500.47 224.095 502.087 222.699 503.219 220.938L505.458 217.456C506.795 215.377 509.097 214.12 511.569 214.12H515.41C518.562 214.12 520.762 217.243 519.702 220.211C518.986 222.215 519.752 224.447 521.547 225.589L522.45 226.163C524.552 227.502 527.269 227.373 529.237 225.843L529.567 225.586C531.149 224.356 532.074 222.465 532.074 220.461V214.24C532.074 209.359 530.216 204.661 526.878 201.1L524.674 198.749C522.836 196.789 520.558 195.295 518.027 194.392L515.531 193.5C513.481 192.768 511.24 192.766 509.188 193.494L502.72 195.789C498.021 197.456 493.44 193.033 494.941 188.278C495.222 187.391 495.703 186.581 496.347 185.911L508.256 173.526C510.949 170.725 514.307 168.653 518.018 167.501L528.743 164.172C530.951 163.487 533.249 163.139 535.561 163.139H549.288C552.723 163.139 556.114 162.37 559.212 160.888L560.424 160.308C566.58 157.364 573.726 157.306 579.93 160.149L580.883 160.586C584.533 162.259 587.682 164.858 590.016 168.126L597.645 178.807C599.153 180.919 601.589 182.172 604.184 182.172C607.771 182.172 610.924 179.794 611.91 176.344L614.048 168.861C615.111 165.141 614.971 161.182 613.649 157.546L611.989 152.98C610.84 149.821 609.013 146.953 606.637 144.576L598.22 136.159C596.727 134.667 595.447 132.976 594.416 131.134L590.521 124.179C587.895 119.489 587.014 114.02 588.035 108.743C589.58 100.761 595.267 94.2109 602.953 91.5607L603.566 91.3492C607.918 89.8485 612.621 89.6883 617.065 90.8895Z" fill="#FFAA00"/>
<path d="M641.529 9.51602L629.279 24.0828L845.811 206.175L861.5 194.5L641.529 9.51602Z" fill="#D9D9D9"/>
<rect x="429.294" y="209.304" width="19.033" height="292.005" transform="rotate(-130.062 429.294 209.304)" fill="#D9D9D9"/>
<rect x="838" y="1032" width="181" height="20" transform="rotate(-90 838 1032)" fill="#D9D9D9"/>
<rect x="417" y="1029" width="178" height="19" transform="rotate(-90 417 1029)" fill="#D9D9D9"/>
<path d="M843 371V194L861.9 194.086L862 371H843Z" fill="#D9D9D9"/>
<rect x="417" y="371" width="174" height="19" transform="rotate(-90 417 371)" fill="#D9D9D9"/>
<rect x="1078" y="409" width="195" height="19" transform="rotate(-180 1078 409)" fill="#D9D9D9"/>
<path d="M1075 833H883V814H1072.33L1075 833Z" fill="#D9D9D9"/>
<rect x="393" y="409" width="191" height="19" transform="rotate(-180 393 409)" fill="#D9D9D9"/>
<path d="M393 828H203.262L202 809H393V828Z" fill="#D9D9D9"/>
<ellipse cx="639.773" cy="614.712" rx="19.7127" ry="19.033" transform="rotate(-90 639.773 614.712)" fill="#D9D9D9"/>
<path d="M964.809 887.599L970.501 889.496L964.809 887.599L964.532 888.431C962.719 893.871 962.494 899.715 963.885 905.278L965.299 910.934C965.475 911.639 965.595 912.357 965.658 913.082L966.043 917.508C966.18 919.078 965.563 920.619 964.382 921.662C963.149 922.749 961.458 923.156 959.865 922.749L946.811 919.41C945.241 919.008 943.705 918.482 942.219 917.835L936.216 915.225C933.598 914.087 930.775 913.5 927.921 913.5C920.966 913.5 914.472 916.976 910.614 922.763L910.302 923.231L915.031 926.384L910.302 923.231C907.374 927.623 906.135 932.926 906.813 938.161L909.541 959.202L913.339 995.07C913.683 998.321 913.165 1001.61 911.837 1004.59L910.708 1007.13C908.899 1011.2 905.183 1014.11 900.795 1014.88L899.095 1015.18C894.406 1016.01 890.148 1018.44 887.049 1022.06L891.605 1025.96L887.049 1022.06L886.273 1022.96C881.871 1028.1 880.612 1035.22 882.987 1041.55C884.775 1046.32 888.443 1050.14 893.132 1052.13L898.016 1054.19C900.607 1055.29 903.335 1056.03 906.125 1056.39L920.903 1058.28C922.448 1058.48 924.015 1058.42 925.54 1058.1C926.866 1057.82 928.079 1058.91 927.944 1060.26L926.03 1079.4L926 1079.7V1080V1090.89C926 1098.72 927.644 1106.47 930.827 1113.63L931.858 1115.95C933.835 1120.4 936.384 1124.57 939.44 1128.36L944.399 1134.51C946.997 1137.73 949.994 1140.61 953.319 1143.07C960.128 1148.12 968.134 1151.3 976.547 1152.3L980.637 1152.78L981.346 1146.83L980.637 1152.78C984.845 1153.29 989.096 1153.31 993.308 1152.85L1006.35 1151.43C1009.96 1151.04 1013.46 1149.95 1016.65 1148.22L1019.14 1146.88C1023.99 1144.26 1030 1145.18 1033.83 1149.15C1037.98 1153.44 1043.57 1156.06 1049.52 1156.5L1076.56 1158.48L1076.78 1158.5H1077H1126H1126.36L1126.71 1158.46L1136.31 1157.32C1145.18 1156.26 1153.28 1151.76 1158.86 1144.78C1162.69 1139.99 1165.16 1134.25 1166 1128.16L1172.44 1081.32L1172.48 1081.04L1172.49 1080.75L1173.59 1054.78C1173.89 1047.73 1172.85 1040.69 1170.53 1034.02L1169.71 1031.64L1169.7 1031.61L1169.7 1031.61C1168.11 1026.39 1169.2 1020.74 1172.6 1016.48C1174.76 1013.77 1176.42 1010.69 1177.48 1007.39L1181.11 996.087C1184.12 986.731 1184.61 976.749 1182.54 967.143L1181.79 963.676C1180.37 957.055 1177.75 950.748 1174.07 945.061L1170.12 938.956C1164.56 930.373 1156.77 923.473 1147.57 919.006L1146.71 918.588C1143.66 917.109 1140.49 915.909 1137.23 915.003L1114.61 908.719L1114.34 908.644L1114.06 908.594L1100.15 906.098C1098.68 905.835 1097.45 904.841 1096.89 903.464C1096.52 902.577 1096.46 901.594 1096.71 900.668L1098.17 895.215C1099.14 891.634 1099.31 887.886 1098.67 884.232L1098.27 881.884C1097.46 877.277 1095.01 873.122 1091.36 870.2C1087.96 867.481 1083.73 866 1079.38 866H1077.58C1071.53 866 1065.7 868.254 1061.23 872.321L1057.75 875.483C1056.53 876.592 1055.2 877.575 1053.78 878.417L1053.41 878.637C1046.57 882.701 1038.34 883.74 1030.7 881.505L996.569 871.523C992.828 870.429 988.89 870.181 985.041 870.797L984.5 870.884C978.2 871.892 972.528 875.279 968.652 880.347C966.979 882.535 965.68 884.985 964.809 887.599Z" fill="#C70016" stroke="white" stroke-width="12"/>
<rect x="963" y="928.98" width="10.876" height="61.2409" transform="rotate(-39.9272 963 928.98)" fill="#167241"/>
<circle cx="1069.44" cy="1019.33" r="20.3925" transform="rotate(18.5926 1069.44 1019.33)" fill="#2A1352"/>
<circle cx="1005.4" cy="1027.98" r="20.3925" transform="rotate(18.5926 1005.4 1027.98)" fill="#2A1352"/>
<ellipse cx="1061.4" cy="984.369" rx="21.0722" ry="20.3925" transform="rotate(18.5926 1061.4 984.369)" fill="#2A1352"/>
<circle cx="998.422" cy="991.147" r="20.3925" transform="rotate(18.5926 998.422 991.147)" fill="#2A1352"/>
<circle cx="1041.52" cy="1040.15" r="20.3925" transform="rotate(18.5926 1041.52 1040.15)" fill="#2A1352"/>
<ellipse cx="1026.21" cy="970.372" rx="21.0722" ry="20.3925" transform="rotate(18.5926 1026.21 970.372)" fill="#2A1352"/>
<ellipse cx="1032.9" cy="1005.6" rx="19.7127" ry="19.033" transform="rotate(18.5926 1032.9 1005.6)" fill="#D9D9D9"/>
<path d="M964.809 335.901L970.501 334.004L964.809 335.901L964.532 335.069C962.719 329.629 962.494 323.785 963.885 318.222L965.299 312.566C965.475 311.861 965.595 311.143 965.658 310.418L966.043 305.992C966.18 304.422 965.563 302.881 964.382 301.838C963.149 300.751 961.458 300.344 959.865 300.751L946.811 304.09C945.241 304.492 943.705 305.018 942.219 305.665L936.216 308.275C933.598 309.413 930.775 310 927.921 310C920.966 310 914.472 306.524 910.614 300.737L910.302 300.269L915.031 297.116L910.302 300.269C907.374 295.877 906.135 290.574 906.813 285.339L909.541 264.298L913.339 228.43C913.683 225.179 913.165 221.895 911.837 218.907L910.708 216.367C908.899 212.295 905.183 209.39 900.795 208.615L899.095 208.315C894.406 207.488 890.148 205.059 887.049 201.444L891.605 197.539L887.049 201.444L886.273 200.538C881.871 195.403 880.612 188.279 882.987 181.946C884.775 177.179 888.443 173.355 893.132 171.372L898.016 169.305C900.607 168.209 903.335 167.472 906.125 167.114L920.903 165.22C922.448 165.022 924.015 165.083 925.54 165.4C926.866 165.677 928.079 164.586 927.944 163.238L926.03 144.097L926 143.799V143.5V132.611C926 124.775 927.644 117.027 930.827 109.867L931.858 107.547C933.835 103.098 936.384 98.926 939.44 95.1364L944.399 88.9869C946.997 85.7659 949.994 82.8892 953.319 80.4262C960.128 75.3831 968.134 72.2036 976.547 71.202L980.637 70.7151L981.346 76.673L980.637 70.7151C984.845 70.2142 989.096 70.1925 993.308 70.6504L1006.35 72.0683C1009.96 72.4605 1013.46 73.5499 1016.65 75.2759L1019.14 76.6211C1023.99 79.2441 1030 78.3156 1033.83 74.3496C1037.98 70.0568 1043.57 67.442 1049.52 67.0042L1076.56 65.0161L1076.78 65H1077H1126H1126.36L1126.71 65.0421L1136.31 66.1848C1145.18 67.2408 1153.28 71.7423 1158.86 78.7179C1162.69 83.5122 1165.16 89.2548 1166 95.3371L1172.44 142.182L1172.48 142.463L1172.49 142.747L1173.59 168.718C1173.89 175.769 1172.85 182.813 1170.53 189.479L1169.71 191.859L1169.7 191.893L1169.7 191.894C1168.11 197.106 1169.2 202.765 1172.6 207.019C1174.76 209.726 1176.42 212.805 1177.48 216.106L1181.11 227.413C1184.12 236.769 1184.61 246.751 1182.54 256.357L1181.79 259.824C1180.37 266.445 1177.75 272.752 1174.07 278.439L1170.12 284.544C1164.56 293.127 1156.77 300.027 1147.57 304.494L1146.71 304.912C1143.66 306.391 1140.49 307.591 1137.23 308.497L1114.61 314.781L1114.34 314.856L1114.06 314.906L1100.15 317.402C1098.68 317.665 1097.45 318.659 1096.89 320.036C1096.52 320.923 1096.46 321.906 1096.71 322.832L1098.17 328.285C1099.14 331.866 1099.31 335.614 1098.67 339.268L1098.27 341.616C1097.46 346.223 1095.01 350.378 1091.36 353.3C1087.96 356.019 1083.73 357.5 1079.38 357.5H1077.58C1071.53 357.5 1065.7 355.246 1061.23 351.179L1057.75 348.017C1056.53 346.908 1055.2 345.925 1053.78 345.083L1053.41 344.863C1046.57 340.799 1038.34 339.76 1030.7 341.995L996.569 351.977C992.828 353.071 988.89 353.319 985.041 352.703L984.5 352.616C978.2 351.608 972.528 348.221 968.652 343.153C966.979 340.965 965.68 338.515 964.809 335.901Z" fill="#C70016" stroke="white" stroke-width="12"/>
<rect width="10.876" height="61.2409" transform="matrix(0.766861 0.641813 0.641813 -0.766861 963 294.52)" fill="#167241"/>
<circle cx="20.3925" cy="20.3925" r="20.3925" transform="matrix(0.94781 -0.318837 -0.318837 -0.94781 1056.61 229.999)" fill="#2A1352"/>
<circle cx="20.3925" cy="20.3925" r="20.3925" transform="matrix(0.94781 -0.318837 -0.318837 -0.94781 992.572 221.352)" fill="#2A1352"/>
<ellipse cx="21.0722" cy="20.3925" rx="21.0722" ry="20.3925" transform="matrix(0.94781 -0.318837 -0.318837 -0.94781 1047.93 265.178)" fill="#2A1352"/>
<circle cx="20.3925" cy="20.3925" r="20.3925" transform="matrix(0.94781 -0.318837 -0.318837 -0.94781 985.596 258.183)" fill="#2A1352"/>
<circle cx="20.3925" cy="20.3925" r="20.3925" transform="matrix(0.94781 -0.318837 -0.318837 -0.94781 1028.7 209.178)" fill="#2A1352"/>
<ellipse cx="21.0722" cy="20.3925" rx="21.0722" ry="20.3925" transform="matrix(0.94781 -0.318837 -0.318837 -0.94781 1012.74 279.174)" fill="#2A1352"/>
<ellipse cx="19.7127" cy="19.033" rx="19.7127" ry="19.033" transform="matrix(0.94781 -0.318837 -0.318837 -0.94781 1020.29 242.225)" fill="#D9D9D9"/>
<path d="M310.691 337.901L304.999 336.004L310.691 337.901L310.968 337.069C312.781 331.629 313.006 325.785 311.615 320.222L310.201 314.566C310.025 313.861 309.905 313.143 309.842 312.418L309.457 307.992C309.32 306.422 309.937 304.881 311.118 303.838C312.351 302.751 314.042 302.344 315.635 302.751L328.689 306.09C330.259 306.492 331.795 307.018 333.281 307.665L339.284 310.275C341.902 311.413 344.725 312 347.579 312C354.534 312 361.028 308.524 364.886 302.737L365.198 302.269L360.469 299.116L365.198 302.269C368.126 297.877 369.365 292.574 368.687 287.339L365.959 266.298L362.161 230.43C361.817 227.179 362.335 223.895 363.663 220.907L364.792 218.367C366.601 214.295 370.317 211.39 374.705 210.615L376.405 210.315C381.094 209.488 385.352 207.059 388.451 203.444L383.895 199.539L388.451 203.444L389.227 202.538C393.629 197.403 394.888 190.279 392.513 183.946C390.725 179.179 387.057 175.355 382.368 173.372L377.484 171.305C374.893 170.209 372.165 169.472 369.375 169.114L354.597 167.22C353.052 167.022 351.485 167.083 349.96 167.4C348.634 167.677 347.421 166.586 347.556 165.238L349.47 146.097L349.5 145.799V145.5V134.611C349.5 126.775 347.856 119.027 344.673 111.867L343.642 109.547C341.665 105.098 339.116 100.926 336.06 97.1364L331.101 90.9869C328.503 87.7659 325.506 84.8892 322.181 82.4262C315.372 77.3831 307.366 74.2036 298.953 73.202L294.863 72.7151L294.154 78.673L294.863 72.7151C290.655 72.2142 286.404 72.1925 282.192 72.6504L269.146 74.0683C265.538 74.4605 262.04 75.5499 258.847 77.2759L256.358 78.6211C251.506 81.2441 245.5 80.3156 241.666 76.3496C237.517 72.0568 231.932 69.442 225.977 69.0042L198.94 67.0161L198.72 67H198.5H149.5H149.144L148.791 67.0421L139.192 68.1848C130.322 69.2408 122.222 73.7423 116.642 80.7179C112.807 85.5122 110.34 91.2548 109.503 97.3371L103.056 144.182L103.017 144.463L103.005 144.747L101.908 170.718C101.61 177.769 102.648 184.813 104.966 191.479L105.794 193.859L105.805 193.893L105.805 193.894C107.391 199.106 106.305 204.765 102.901 209.019C100.736 211.726 99.0817 214.805 98.0208 218.106L94.3862 229.413C91.3791 238.769 90.8867 248.751 92.9586 258.357L93.7064 261.824C95.1345 268.445 97.7519 274.752 101.432 280.439L105.382 286.544C110.936 295.127 118.734 302.027 127.931 306.494L128.792 306.912C131.837 308.391 135.01 309.591 138.271 310.497L160.894 316.781L161.164 316.856L161.44 316.906L175.35 319.402C176.816 319.665 178.047 320.659 178.614 322.036C178.98 322.923 179.042 323.906 178.793 324.832L177.325 330.285C176.361 333.866 176.191 337.614 176.826 341.268L177.234 343.616C178.036 348.223 180.493 352.378 184.145 355.3C187.544 358.019 191.767 359.5 196.119 359.5H197.922C203.969 359.5 209.799 357.246 214.273 353.179L217.751 350.017C218.971 348.908 220.3 347.925 221.718 347.083L222.088 346.863C228.933 342.799 237.159 341.76 244.8 343.995L278.931 353.977C282.672 355.071 286.61 355.319 290.459 354.703L291 354.616C297.3 353.608 302.972 350.221 306.848 345.153C308.521 342.965 309.82 340.515 310.691 337.901Z" fill="#C70016" stroke="white" stroke-width="12"/>
<rect x="312.5" y="296.52" width="10.876" height="61.2409" transform="rotate(140.073 312.5 296.52)" fill="#167241"/>
<circle cx="206.06" cy="206.168" r="20.3925" transform="rotate(-161.407 206.06 206.168)" fill="#2A1352"/>
<circle cx="270.101" cy="197.522" r="20.3925" transform="rotate(-161.407 270.101 197.522)" fill="#2A1352"/>
<ellipse cx="214.1" cy="241.131" rx="21.0722" ry="20.3925" transform="rotate(-161.407 214.1 241.131)" fill="#2A1352"/>
<circle cx="277.078" cy="234.353" r="20.3925" transform="rotate(-161.407 277.078 234.353)" fill="#2A1352"/>
<circle cx="233.978" cy="185.348" r="20.3925" transform="rotate(-161.407 233.978 185.348)" fill="#2A1352"/>
<ellipse cx="249.291" cy="255.128" rx="21.0722" ry="20.3925" transform="rotate(-161.407 249.291 255.128)" fill="#2A1352"/>
<ellipse cx="242.597" cy="219.9" rx="19.7127" ry="19.033" transform="rotate(-161.407 242.597 219.9)" fill="#D9D9D9"/>
<path d="M304.691 887.599L298.999 889.496L304.691 887.599L304.968 888.431C306.781 893.871 307.006 899.715 305.615 905.278L304.201 910.934C304.025 911.639 303.905 912.357 303.842 913.082L303.457 917.508C303.32 919.078 303.937 920.619 305.118 921.662C306.351 922.749 308.042 923.156 309.635 922.749L322.689 919.41C324.259 919.008 325.795 918.482 327.281 917.835L333.284 915.225C335.902 914.087 338.725 913.5 341.579 913.5C348.534 913.5 355.028 916.976 358.886 922.763L359.198 923.231L354.469 926.384L359.198 923.231C362.126 927.623 363.365 932.926 362.687 938.161L359.959 959.202L356.161 995.07C355.817 998.321 356.335 1001.61 357.663 1004.59L358.792 1007.13C360.601 1011.2 364.317 1014.11 368.705 1014.88L370.405 1015.18C375.094 1016.01 379.352 1018.44 382.451 1022.06L377.895 1025.96L382.451 1022.06L383.227 1022.96C387.629 1028.1 388.888 1035.22 386.513 1041.55C384.725 1046.32 381.057 1050.14 376.368 1052.13L371.484 1054.19C368.893 1055.29 366.165 1056.03 363.375 1056.39L348.597 1058.28C347.052 1058.48 345.485 1058.42 343.96 1058.1C342.634 1057.82 341.421 1058.91 341.556 1060.26L343.47 1079.4L343.5 1079.7V1080V1090.89C343.5 1098.72 341.856 1106.47 338.673 1113.63L337.642 1115.95C335.665 1120.4 333.116 1124.57 330.06 1128.36L325.101 1134.51C322.503 1137.73 319.506 1140.61 316.181 1143.07C309.372 1148.12 301.366 1151.3 292.953 1152.3L288.863 1152.78L288.154 1146.83L288.863 1152.78C284.655 1153.29 280.404 1153.31 276.192 1152.85L263.146 1151.43C259.538 1151.04 256.04 1149.95 252.847 1148.22L250.358 1146.88C245.506 1144.26 239.5 1145.18 235.666 1149.15C231.517 1153.44 225.932 1156.06 219.977 1156.5L192.94 1158.48L192.72 1158.5H192.5H143.5H143.144L142.791 1158.46L133.192 1157.32C124.322 1156.26 116.222 1151.76 110.642 1144.78C106.807 1139.99 104.34 1134.25 103.503 1128.16L97.056 1081.32L97.0173 1081.04L97.0053 1080.75L95.908 1054.78C95.61 1047.73 96.6477 1040.69 98.9662 1034.02L99.794 1031.64L99.8045 1031.61L99.8046 1031.61C101.391 1026.39 100.305 1020.74 96.9013 1016.48C94.7356 1013.77 93.0817 1010.69 92.0208 1007.39L88.3862 996.087C85.3791 986.731 84.8867 976.749 86.9586 967.143L87.7064 963.676C89.1345 957.055 91.7519 950.748 95.4316 945.061L99.3817 938.956C104.936 930.373 112.734 923.473 121.931 919.006L122.792 918.588C125.837 917.109 129.01 915.909 132.271 915.003L154.894 908.719L155.164 908.644L155.44 908.594L169.35 906.098C170.816 905.835 172.047 904.841 172.614 903.464C172.98 902.577 173.042 901.594 172.793 900.668L171.325 895.215C170.361 891.634 170.191 887.886 170.826 884.232L171.234 881.884C172.036 877.277 174.493 873.122 178.145 870.2C181.544 867.481 185.767 866 190.119 866H191.922C197.969 866 203.799 868.254 208.273 872.321L211.751 875.483C212.971 876.592 214.3 877.575 215.718 878.417L216.088 878.637C222.933 882.701 231.159 883.74 238.8 881.505L272.931 871.523C276.672 870.429 280.61 870.181 284.459 870.797L285 870.884C291.3 871.892 296.972 875.279 300.848 880.347C302.521 882.535 303.82 884.985 304.691 887.599Z" fill="#C70016" stroke="white" stroke-width="12"/>
<rect width="10.876" height="61.2409" transform="matrix(-0.766861 -0.641813 -0.641813 0.766861 306.5 928.98)" fill="#167241"/>
<circle cx="20.3925" cy="20.3925" r="20.3925" transform="matrix(-0.94781 0.318837 0.318837 0.94781 212.887 993.501)" fill="#2A1352"/>
<circle cx="20.3925" cy="20.3925" r="20.3925" transform="matrix(-0.94781 0.318837 0.318837 0.94781 276.928 1002.15)" fill="#2A1352"/>
<ellipse cx="21.0722" cy="20.3925" rx="21.0722" ry="20.3925" transform="matrix(-0.94781 0.318837 0.318837 0.94781 221.57 958.322)" fill="#2A1352"/>
<circle cx="20.3925" cy="20.3925" r="20.3925" transform="matrix(-0.94781 0.318837 0.318837 0.94781 283.904 965.317)" fill="#2A1352"/>
<circle cx="20.3925" cy="20.3925" r="20.3925" transform="matrix(-0.94781 0.318837 0.318837 0.94781 240.805 1014.32)" fill="#2A1352"/>
<ellipse cx="21.0722" cy="20.3925" rx="21.0722" ry="20.3925" transform="matrix(-0.94781 0.318837 0.318837 0.94781 256.762 944.326)" fill="#2A1352"/>
<ellipse cx="19.7127" cy="19.033" rx="19.7127" ry="19.033" transform="matrix(-0.94781 0.318837 0.318837 0.94781 249.213 981.275)" fill="#D9D9D9"/>
</g>
<defs>
<clipPath id="clip0_109_880">
<rect width="1223.55" height="1732" fill="white" transform="matrix(0 -1 1 0 -226 1223.55)"/>
</clipPath>
</defs>
</svg>
