<svg width="1920" height="550" viewBox="0 0 1920 550" fill="none" xmlns="http://www.w3.org/2000/svg">
<path d="M699.012 374.6C691.012 381.688 687.982 389.318 690.978 393.781C693.974 398.245 701.377 398.352 709.376 391.264C717.376 384.176 718.972 371.761 719.331 368.616C715.469 368.208 707.012 367.513 699.012 374.6Z" fill="#D9D9D9"/>
<path d="M708.72 126.716C716.168 139.035 724.74 143.881 730.229 139.528C735.718 135.175 736.577 124.019 729.129 111.701C721.68 99.3825 707.4 96.5236 703.778 95.8677C702.919 101.674 701.271 114.398 708.72 126.716Z" fill="#D9D9D9"/>
<path d="M771.518 110.264C764.074 122.585 763.124 133.494 768.603 137.864C774.082 142.235 783.49 139.246 790.934 126.924C798.378 114.603 795.703 98.2582 794.969 94.1375C789.927 95.2508 778.961 97.9418 771.518 110.264Z" fill="#D9D9D9"/>
<path d="M813.191 118.615C808.794 125.893 808.685 132.696 812.572 135.797C816.459 138.897 822.626 137.618 827.022 130.341C831.419 123.063 828.833 112.607 828.14 109.967C824.812 110.345 817.587 111.337 813.191 118.615Z" fill="#D9D9D9"/>
<path d="M836.911 62.1596C827.052 61.7923 820.611 66.3536 820.406 73.2575C820.202 80.1615 825.676 86.8379 835.535 87.2053C845.394 87.5726 853.383 77.188 855.373 74.5175C852.711 70.6991 846.77 62.527 836.911 62.1596Z" fill="#D9D9D9"/>
<path d="M679.208 66.1541C690.081 65.7992 696.917 60.8321 696.757 54.0083C696.596 47.1844 690.197 40.9982 679.324 41.353C668.451 41.7079 660.236 52.5308 658.195 55.3093C661.339 58.8815 668.335 66.5089 679.208 66.1541Z" fill="#D9D9D9"/>
<path d="M639.92 213.373C648.534 216.627 654.939 215.584 656.236 211.09C657.533 206.595 653.797 200.515 645.183 197.26C636.57 194.006 627.861 198.42 625.678 199.575C627.403 202.909 631.307 210.118 639.92 213.373Z" fill="#D9D9D9"/>
<path d="M852.937 198.084C844.335 201.38 839.744 206.607 841.045 211.1C842.347 215.593 848.509 217.907 857.111 214.611C865.713 211.315 870.395 201.806 871.544 199.383C868.424 197.892 861.539 194.788 852.937 198.084Z" fill="#D9D9D9"/>
<path d="M670.204 125.883C676.225 131.422 682.134 132.022 685.101 127.79C688.069 123.559 687.386 116.413 681.365 110.873C675.343 105.334 666.07 107.563 663.726 108.171C663.823 112.006 664.182 120.343 670.204 125.883Z" fill="#D9D9D9"/>
<path d="M635.435 351.505C622.307 357.051 615.766 366.374 618.424 374.692C621.082 383.01 631.116 387.613 644.244 382.067C657.372 376.521 663.481 359.348 664.966 354.971C659.844 352.054 648.563 345.959 635.435 351.505Z" fill="#D9D9D9"/>
<path d="M807.058 391.818C814.167 400.062 821.138 402.58 824.634 398.625C828.13 394.669 827.318 386.227 820.209 377.984C813.1 369.741 802.163 369.439 799.399 369.414C799.517 373.861 799.948 383.575 807.058 391.818Z" fill="#D9D9D9"/>
<path d="M813.1 284.132C828.76 268.31 830.295 237.123 819.496 222.458C808.697 207.793 778.012 189.021 762.352 204.842C746.692 220.664 738.577 282.969 749.376 297.634C760.175 312.299 797.44 299.953 813.1 284.132Z" fill="#C70016"/>
<path d="M683.951 280.04C669.276 262.243 669.57 230.976 681.185 217.77C692.8 204.564 724.466 189.852 739.141 207.649C753.817 225.446 758.259 288.568 746.644 301.774C735.028 314.98 698.627 297.837 683.951 280.04Z" fill="#C70016"/>
<path d="M759.029 343.555C746.973 343.938 741.302 380.852 740.892 363.892C728.104 340.718 744.404 316.381 762.242 317.77C774.298 317.388 788.81 349.624 774.149 363.482C774.559 380.442 771.084 343.172 759.029 343.555Z" fill="#DF8200"/>
<path d="M756.902 74.7516C744.847 75.1344 737.534 44.1752 737.882 58.5759C726.147 78.9705 743.512 98.6449 761.263 96.4204C773.318 96.0375 786.37 67.8591 771.111 56.9721C770.763 42.5714 768.958 74.3687 756.902 74.7516Z" fill="#DF8200"/>
<path d="M648.723 271.483C653.451 258.756 626.577 237.433 640.183 244.086C663.877 240.429 676.352 267.581 667.806 285.597C663.078 298.324 631.485 299.994 626.627 278.926C613.022 272.273 643.995 284.21 648.723 271.483Z" fill="#DF8200"/>
<path d="M841.606 294.476C849.201 305.224 878.198 287.949 866.709 298.633C858.445 324.368 831.69 324.316 821.806 307.224C814.212 296.476 827.7 263.661 846.205 268.591C857.694 257.907 834.011 283.729 841.606 294.476Z" fill="#DF8200"/>
<path d="M854.976 376.907C868.424 381.332 878.503 378.247 880.644 369.734C882.785 361.222 877.061 350.708 863.613 346.282C850.165 341.857 836.39 351.569 832.937 354.092C835.567 359.917 841.528 372.481 854.976 376.907Z" fill="#D9D9D9"/>
<ellipse cx="8.23277" cy="7.17675" rx="8.23277" ry="7.17675" transform="matrix(-0.00760746 -0.999971 0.99995 -0.00995632 754.139 393.618)" fill="#D9D9D9"/>
<ellipse cx="8.23277" cy="7.17675" rx="8.23277" ry="7.17675" transform="matrix(-0.00760746 -0.999971 0.99995 -0.00995632 673.468 167.969)" fill="#D9D9D9"/>
<ellipse cx="8.23277" cy="7.17675" rx="8.23277" ry="7.17675" transform="matrix(-0.00760746 -0.999971 0.99995 -0.00995632 817.08 174.773)" fill="#D9D9D9"/>
<ellipse cx="8.23277" cy="7.17675" rx="8.23277" ry="7.17675" transform="matrix(-0.00760746 -0.999971 0.99995 -0.00995632 685.673 357.246)" fill="#D9D9D9"/>
<ellipse cx="8.23277" cy="7.17675" rx="8.23277" ry="7.17675" transform="matrix(-0.00760746 -0.999971 0.99995 -0.00995632 701.483 77.1084)" fill="#D9D9D9"/>
<ellipse cx="8.23277" cy="7.17675" rx="8.23277" ry="7.17675" transform="matrix(-0.00760746 -0.999971 0.99995 -0.00995632 794.796 76.1758)" fill="#D9D9D9"/>
<ellipse cx="8.23277" cy="7.17675" rx="8.23277" ry="7.17675" transform="matrix(-0.00760746 -0.999971 0.99995 -0.00995632 796.9 352.023)" fill="#D9D9D9"/>
<path d="M705.31 216.346C710.86 183.44 753.199 171.272 775.393 176.965C797.586 182.658 811.598 214.138 806.047 247.044C800.497 279.95 764.401 311.548 742.208 305.855C720.015 300.162 699.759 249.252 705.31 216.346Z" fill="#D64851"/>
<path d="M724.846 234.394C728.886 210.44 748.858 204.029 764.884 208.141C780.91 212.252 790.79 232.901 786.75 256.856C782.709 280.81 761.856 311.299 745.83 307.188C729.804 303.077 720.805 258.349 724.846 234.394Z" fill="#6A2129"/>
<path d="M1543.66 362.624C1535.91 369.832 1532.98 377.571 1535.91 382.083C1538.83 386.595 1546.02 386.677 1553.78 379.47C1561.54 372.262 1563.05 359.679 1563.39 356.492C1559.64 356.091 1551.42 355.416 1543.66 362.624Z" fill="#D9D9D9"/>
<path d="M1552.42 111.47C1559.69 123.924 1568.04 128.804 1573.36 124.375C1578.68 119.946 1579.49 108.641 1572.21 96.1872C1564.94 83.7332 1551.05 80.8859 1547.53 80.2338C1546.71 86.1194 1545.15 99.0156 1552.42 111.47Z" fill="#D9D9D9"/>
<path d="M1613.41 94.5839C1606.21 107.092 1605.32 118.147 1610.65 122.555C1615.99 126.964 1625.13 123.904 1632.33 111.396C1639.53 98.8875 1636.88 82.3387 1636.16 78.1666C1631.26 79.3117 1620.61 82.0756 1613.41 94.5839Z" fill="#D9D9D9"/>
<path d="M1653.93 102.9C1649.68 110.288 1649.59 117.181 1653.38 120.309C1657.16 123.436 1663.15 122.119 1667.41 114.732C1671.66 107.344 1669.12 96.7601 1668.44 94.0879C1665.2 94.4825 1658.18 95.5124 1653.93 102.9Z" fill="#D9D9D9"/>
<path d="M1676.83 45.6271C1667.24 45.2888 1661 49.9318 1660.82 56.9267C1660.64 63.9215 1665.98 70.6664 1675.56 71.0047C1685.14 71.3431 1692.88 60.7953 1694.8 58.0831C1692.21 54.2239 1686.41 45.9655 1676.83 45.6271Z" fill="#D9D9D9"/>
<path d="M1503.14 73.9368C1513.7 73.54 1520.33 68.4845 1520.16 61.5721C1519.99 54.6596 1513.75 48.4145 1503.18 48.8113C1492.62 49.2081 1484.66 60.2007 1482.69 63.0224C1485.75 66.6305 1492.57 74.3336 1503.14 73.9368Z" fill="#D9D9D9"/>
<path d="M1485.8 199.493C1494.18 202.761 1500.4 201.682 1501.65 197.124C1502.89 192.566 1499.25 186.42 1490.87 183.152C1482.49 179.885 1474.03 184.386 1471.92 185.564C1473.6 188.935 1477.42 196.226 1485.8 199.493Z" fill="#D9D9D9"/>
<path d="M1692.78 183.271C1684.43 186.639 1679.98 191.95 1681.26 196.498C1682.54 201.045 1688.53 203.368 1696.88 199.999C1705.24 196.631 1709.76 186.981 1710.87 184.523C1707.83 183.023 1701.13 179.902 1692.78 183.271Z" fill="#D9D9D9"/>
<path d="M1514.98 110.752C1520.84 116.344 1526.59 116.931 1529.46 112.634C1532.33 108.337 1531.65 101.1 1525.78 95.5084C1519.92 89.9172 1510.91 92.2071 1508.63 92.8311C1508.74 96.7157 1509.11 105.161 1514.98 110.752Z" fill="#D9D9D9"/>
<path d="M1481.81 339.446C1469.07 345.11 1462.73 354.576 1465.34 362.994C1467.95 371.412 1477.71 376.04 1490.45 370.377C1503.2 364.713 1509.09 347.295 1510.52 342.855C1505.53 339.918 1494.55 333.783 1481.81 339.446Z" fill="#D9D9D9"/>
<path d="M1648.72 379.692C1655.65 388.018 1662.43 390.546 1665.82 386.527C1669.21 382.507 1668.39 373.958 1661.46 365.632C1654.53 357.305 1643.9 357.037 1641.21 357.021C1641.34 361.526 1641.79 371.365 1648.72 379.692Z" fill="#D9D9D9"/>
<path d="M1654.3 270.578C1669.48 254.496 1670.89 222.896 1660.35 208.077C1649.82 193.257 1619.94 174.345 1604.77 190.427C1589.59 206.51 1581.87 269.657 1592.41 284.476C1602.94 299.296 1639.13 286.661 1654.3 270.578Z" fill="#C70016"/>
<path d="M1528.78 266.878C1514.47 248.899 1514.67 217.222 1525.92 203.804C1537.17 190.386 1567.91 175.372 1582.22 193.352C1596.53 211.331 1601.02 275.263 1589.77 288.681C1578.52 302.099 1543.09 284.858 1528.78 266.878Z" fill="#C70016"/>
<path d="M1601.91 330.967C1590.19 331.396 1584.78 368.814 1584.34 351.633C1571.84 328.199 1587.62 303.486 1604.96 304.833C1616.68 304.404 1630.87 337.014 1616.66 351.104C1617.11 368.285 1613.63 330.538 1601.91 330.967Z" fill="#DF8200"/>
<path d="M1599.12 58.6583C1587.4 59.0875 1580.21 27.7489 1580.59 42.3366C1569.24 63.0379 1586.17 82.9098 1603.41 80.5953C1615.13 80.1661 1627.74 51.5746 1612.88 40.5978C1612.5 26.0101 1610.83 58.2291 1599.12 58.6583Z" fill="#DF8200"/>
<path d="M1494.51 258.328C1499.07 245.419 1472.9 223.91 1486.14 230.603C1509.15 226.817 1521.35 254.281 1513.1 272.561C1508.54 285.471 1477.84 287.272 1473.06 265.944C1459.82 259.252 1489.95 271.238 1494.51 258.328Z" fill="#DF8200"/>
<path d="M1682.03 280.963C1689.44 291.825 1717.58 274.225 1706.44 285.087C1698.48 311.187 1672.48 311.227 1662.82 293.945C1655.41 283.083 1668.43 249.793 1686.43 254.723C1697.57 243.861 1674.62 270.101 1682.03 280.963Z" fill="#DF8200"/>
<path d="M1695.26 364.421C1708.34 368.858 1718.12 365.698 1720.18 357.067C1722.24 348.436 1716.65 337.804 1703.57 333.367C1690.48 328.929 1677.12 338.816 1673.77 341.384C1676.35 347.276 1682.17 359.984 1695.26 364.421Z" fill="#D9D9D9"/>
<ellipse cx="8.3403" cy="6.97513" rx="8.3403" ry="6.97513" transform="matrix(-0.00999018 -0.99995 0.999903 -0.0139093 1597.3 381.703)" fill="#D9D9D9"/>
<ellipse cx="8.3403" cy="6.97513" rx="8.3403" ry="6.97513" transform="matrix(-0.00999018 -0.99995 0.999903 -0.0139093 1518.27 153.376)" fill="#D9D9D9"/>
<ellipse cx="8.3403" cy="6.97513" rx="8.3403" ry="6.97513" transform="matrix(-0.00999018 -0.99995 0.999903 -0.0139093 1657.87 159.777)" fill="#D9D9D9"/>
<ellipse cx="8.3403" cy="6.97513" rx="8.3403" ry="6.97513" transform="matrix(-0.00999018 -0.99995 0.999903 -0.0139093 1530.65 345.089)" fill="#D9D9D9"/>
<ellipse cx="8.3403" cy="6.97513" rx="8.3403" ry="6.97513" transform="matrix(-0.00999018 -0.99995 0.999903 -0.0139093 1545.26 61.2324)" fill="#D9D9D9"/>
<ellipse cx="8.3403" cy="6.97513" rx="8.3403" ry="6.97513" transform="matrix(-0.00999018 -0.99995 0.999903 -0.0139093 1635.94 59.9697)" fill="#D9D9D9"/>
<ellipse cx="8.3403" cy="6.97513" rx="8.3403" ry="6.97513" transform="matrix(-0.00999018 -0.99995 0.999903 -0.0139093 1638.74 339.412)" fill="#D9D9D9"/>
<path d="M1549.35 202.278C1554.65 168.923 1595.77 156.45 1617.35 162.142C1638.94 167.833 1652.64 199.676 1647.34 233.031C1642.03 266.386 1607.04 298.521 1585.45 292.83C1563.87 287.139 1544.04 235.632 1549.35 202.278Z" fill="#D64851"/>
<path d="M1568.39 220.496C1572.25 196.215 1591.64 189.652 1607.23 193.762C1622.82 197.872 1632.48 218.757 1628.61 243.038C1624.75 267.32 1604.57 298.279 1588.98 294.169C1573.39 290.059 1564.53 244.778 1568.39 220.496Z" fill="#6A2129"/>
<path d="M1180.69 216.646L1191.85 187.109L1177.84 159.434L1166.71 190.354L1180.69 216.646Z" fill="#DF8200"/>
<path d="M1111.99 52.4062C1103.92 53.7996 1099.27 58.7826 1100 64.674C1100.74 70.5654 1106.07 75.2816 1114.15 73.8882C1122.22 72.4948 1127.37 62.3047 1128.64 59.6955C1125.98 56.9171 1120.07 51.0128 1111.99 52.4062Z" fill="#D9D9D9"/>
<path d="M1149.24 25.1683C1143.81 18.0343 1137.7 16.2202 1133.89 20.17C1130.08 24.1199 1129.63 31.9188 1135.06 39.0529C1140.48 46.187 1150.59 45.6343 1153.16 45.4468C1153.68 41.315 1154.66 32.3024 1149.24 25.1683Z" fill="#D9D9D9"/>
<path d="M1180.92 18.4253C1180.13 8.92244 1176.11 3.24433 1171.04 3.81055C1165.97 4.37678 1161.68 10.3684 1162.47 19.8713C1163.26 29.3741 1171.71 35.8947 1173.87 37.5094C1176.38 34.5323 1181.71 27.9281 1180.92 18.4253Z" fill="#D9D9D9"/>
<path d="M1230.98 66.0309C1239 67.8655 1244.8 64.98 1245.79 59.1389C1246.77 53.2978 1243.09 46.7735 1235.08 44.9389C1227.06 43.1043 1219.3 50.7043 1217.36 52.6687C1219.09 56.3278 1222.97 64.1962 1230.98 66.0309Z" fill="#D9D9D9"/>
<path d="M1213.2 35.349C1217.44 27.1919 1217.13 19.8254 1212.79 16.7235C1208.44 13.6216 1201.93 15.4048 1197.69 23.5619C1193.45 31.7191 1196.87 42.8617 1197.77 45.6725C1201.3 45.0478 1208.96 43.5062 1213.2 35.349Z" fill="#D9D9D9"/>
<path d="M1238.89 244.078C1243.13 235.92 1242.83 228.554 1238.48 225.452C1234.13 222.35 1227.62 224.133 1223.38 232.29C1219.14 240.448 1222.56 251.59 1223.46 254.401C1226.99 253.776 1234.65 252.235 1238.89 244.078Z" fill="#D9D9D9"/>
<path d="M1098.09 277.134C1089.93 279.667 1083.74 277.298 1082.34 271.56C1080.95 265.821 1084.34 258.992 1092.5 256.46C1100.67 253.928 1109.18 260.826 1111.32 262.615C1109.77 266.415 1106.26 274.602 1098.09 277.134Z" fill="#D9D9D9"/>
<path d="M1114.51 244.974C1109.6 237.212 1109.45 229.838 1113.74 226.364C1118.03 222.89 1124.88 224.097 1129.79 231.86C1134.7 239.622 1131.89 251.033 1131.13 253.916C1127.44 253.602 1119.42 252.737 1114.51 244.974Z" fill="#D9D9D9"/>
<path d="M1269.43 402.189C1281.59 400.348 1288.63 392.516 1287.58 382.937C1286.53 373.357 1278.56 365.444 1266.4 367.285C1254.25 369.126 1246.41 385.365 1244.47 389.526C1248.45 394.163 1257.28 404.03 1269.43 402.189Z" fill="#D9D9D9"/>
<path d="M1240.56 369.922C1257.21 352.775 1258.83 318.979 1247.35 303.089C1235.86 287.198 1203.24 266.86 1186.59 284.007C1169.95 301.154 1161.34 368.671 1172.82 384.561C1184.3 400.452 1223.92 387.069 1240.56 369.922Z" fill="#C70016"/>
<path d="M1103.26 365.51C1087.66 346.226 1087.96 312.343 1100.31 298.032C1112.65 283.72 1146.32 267.774 1161.92 287.057C1177.52 306.341 1182.26 374.743 1169.91 389.054C1157.57 403.366 1118.87 384.794 1103.26 365.51Z" fill="#C70016"/>
<path d="M1125.95 296.479C1131.84 260.82 1176.85 247.63 1200.44 253.796C1224.04 259.963 1238.94 294.074 1233.05 329.733C1227.15 365.392 1188.79 399.638 1165.19 393.471C1141.6 387.304 1120.05 332.138 1125.95 296.479Z" fill="#D64851"/>
<path d="M1146.72 316.044C1151.01 290.085 1172.24 283.136 1189.28 287.589C1206.32 292.042 1216.83 314.417 1212.54 340.376C1208.24 366.335 1186.08 399.376 1169.04 394.923C1152.01 390.47 1142.43 342.002 1146.72 316.044Z" fill="#6A2129"/>
<path d="M1220.65 69.4362C1231.61 81.064 1234.06 105.798 1227.68 118.141C1221.3 130.484 1202.12 147.327 1191.16 135.699C1180.2 124.071 1172.01 74.9702 1178.39 62.627C1184.77 50.2839 1209.68 57.8084 1220.65 69.4362Z" fill="#C70016"/>
<path d="M1136.46 80.6767C1127.69 95.753 1129.33 120.628 1137.53 130.423C1145.73 140.218 1167.1 149.973 1175.86 134.897C1184.63 119.821 1184.61 69.2921 1176.41 59.497C1168.21 49.7019 1145.22 65.6005 1136.46 80.6767Z" fill="#C70016"/>
<path d="M1153.35 130.072C1158.5 155.926 1186.72 162.995 1200.96 157.09C1215.19 151.185 1222.89 125.257 1217.74 99.4024C1212.6 73.5482 1187.55 50.6238 1173.31 56.5287C1159.08 62.4337 1148.2 104.218 1153.35 130.072Z" fill="#D64851"/>
<path d="M1165.28 114.491C1169.03 133.313 1182.37 137.181 1192.65 132.917C1202.93 128.653 1208.43 111.602 1204.68 92.7812C1200.94 73.9599 1185.9 50.9765 1175.62 55.2406C1165.34 59.5047 1161.53 95.67 1165.28 114.491Z" fill="#6A2129"/>
<path d="M1079.63 345.671C1072.49 341.023 1066.21 341.662 1063.72 346.858C1061.24 352.054 1063.01 359.591 1070.14 364.24C1077.28 368.888 1086.67 364.476 1089.04 363.312C1088.37 359.209 1086.76 350.32 1079.63 345.671Z" fill="#D9D9D9"/>
<path d="M1081.37 374.704C1068.8 374.321 1060.61 380.696 1060.39 390.224C1060.16 399.752 1067.18 408.895 1079.75 409.277C1092.32 409.66 1102.45 395.231 1104.97 391.521C1101.56 386.286 1093.94 375.086 1081.37 374.704Z" fill="#D9D9D9"/>
<path d="M1226.63 193.485C1217.97 182.43 1234.56 153.589 1224.71 164.136C1202.26 167.584 1200.57 197.86 1214.49 212.959C1223.15 224.014 1251.98 216.279 1248.98 194.217C1258.82 183.67 1235.29 204.54 1226.63 193.485Z" fill="#DF8200"/>
<path d="M1137.92 191.238C1129.14 202.158 1103.31 184.944 1113.03 195.642C1117.64 221.573 1143.59 221.301 1155.43 203.954C1164.22 193.034 1155.48 159.995 1136.89 165.126C1127.16 154.427 1146.71 180.319 1137.92 191.238Z" fill="#DF8200"/>
<ellipse cx="8.33676" cy="8.26434" rx="8.33676" ry="8.26434" transform="matrix(-0.629081 -0.77734 0.670485 -0.741923 1231.99 155.272)" fill="#D9D9D9"/>
<ellipse cx="8.33676" cy="8.26434" rx="8.33676" ry="8.26434" transform="matrix(-0.629081 -0.77734 0.670485 -0.741923 1117.46 155.742)" fill="#D9D9D9"/>
<path d="M342.281 205.594L352.977 175.828L338.545 148.452L327.897 179.6L342.281 205.594Z" fill="#DF8200"/>
<path d="M435.777 342.528C442.946 337.959 445.838 331.406 443.408 326.173C440.978 320.941 434.582 318.666 427.413 323.235C420.244 327.803 418.421 339.446 417.998 342.408C421.322 343.939 428.608 347.096 435.777 342.528Z" fill="#D9D9D9"/>
<path d="M274.226 48.8371C266.172 50.4001 261.6 55.48 262.426 61.355C263.253 67.23 268.656 71.8334 276.711 70.2704C284.765 68.7074 289.756 58.4107 290.987 55.7752C288.277 53.0533 282.281 47.2741 274.226 48.8371Z" fill="#D9D9D9"/>
<path d="M307.884 14.8037C302.348 7.78489 296.207 6.09957 292.46 10.1289C288.712 14.1582 288.384 21.9653 293.92 28.9842C299.456 36.003 309.557 35.2379 312.117 34.9965C312.577 30.8545 313.42 21.8226 307.884 14.8037Z" fill="#D9D9D9"/>
<path d="M347.944 16.256C347.008 6.77124 342.895 1.17865 337.836 1.85132C332.777 2.52398 328.578 8.6049 329.515 18.0896C330.451 27.5744 338.999 33.9163 341.189 35.4852C343.648 32.4559 348.881 25.7407 347.944 16.256Z" fill="#D9D9D9"/>
<path d="M405.818 60.5094C413.858 62.1753 419.617 59.1682 420.512 53.3074C421.408 47.4465 417.626 41.0006 409.586 39.3347C401.546 37.6688 393.905 45.4307 391.993 47.4356C393.772 51.0579 397.779 58.8435 405.818 60.5094Z" fill="#D9D9D9"/>
<path d="M384.908 29.8186C389.024 21.5736 388.601 14.2147 384.208 11.2047C379.814 8.19462 373.335 10.1143 369.219 18.3594C365.103 26.6044 368.691 37.6734 369.639 40.4648C373.16 39.7659 380.792 38.0636 384.908 29.8186Z" fill="#D9D9D9"/>
<path d="M419.148 262.103C427.187 263.769 432.946 260.762 433.842 254.901C434.737 249.04 430.955 242.594 422.915 240.928C414.875 239.263 407.234 247.024 405.322 249.029C407.101 252.652 411.108 260.437 419.148 262.103Z" fill="#D9D9D9"/>
<path d="M400.897 231.794C405.013 223.549 404.59 216.19 400.197 213.18C395.804 210.17 389.324 212.09 385.208 220.335C381.093 228.58 384.68 239.649 385.628 242.44C389.149 241.741 396.781 240.039 400.897 231.794Z" fill="#D9D9D9"/>
<path d="M260.625 267.808C252.499 270.512 246.277 268.274 244.794 262.565C243.311 256.857 246.593 249.958 254.719 247.255C262.845 244.551 271.461 251.27 273.623 253.013C272.136 256.845 268.752 265.105 260.625 267.808Z" fill="#D9D9D9"/>
<path d="M276.529 235.31C271.5 227.652 271.232 220.283 275.471 216.719C279.711 213.155 286.572 214.218 291.602 221.876C296.632 229.534 293.993 241.003 293.283 243.901C289.587 243.665 281.559 242.968 276.529 235.31Z" fill="#D9D9D9"/>
<path d="M433.85 389.24C445.978 387.144 452.896 379.166 451.699 369.61C450.503 360.053 442.412 352.309 430.284 354.405C418.157 356.502 410.567 372.903 408.694 377.104C412.749 381.657 421.722 391.336 433.85 389.24Z" fill="#D9D9D9"/>
<path d="M404.488 357.588C420.866 340.094 421.972 306.269 410.246 290.623C398.52 274.976 365.588 255.327 349.21 272.821C332.832 290.315 325.256 358.002 336.982 373.649C348.708 389.295 388.109 375.082 404.488 357.588Z" fill="#C70016"/>
<path d="M267.15 356.061C251.252 337.108 251.037 303.224 263.16 288.656C275.284 274.087 308.693 257.435 324.592 276.388C340.491 295.34 346.277 363.632 334.153 378.201C322.03 392.769 283.049 375.014 267.15 356.061Z" fill="#C70016"/>
<path d="M288.761 286.568C294.105 250.791 338.904 236.657 362.589 242.327C386.275 247.996 401.699 281.789 396.354 317.566C391.009 353.343 353.175 388.39 329.49 382.72C305.804 377.05 283.416 322.346 288.761 286.568Z" fill="#D64851"/>
<path d="M309.838 305.688C313.729 279.643 334.849 272.249 351.953 276.344C369.056 280.438 379.906 302.588 376.015 328.633C372.124 354.678 350.473 388.18 333.369 384.086C316.266 379.991 305.947 331.733 309.838 305.688Z" fill="#6A2129"/>
<path d="M379.957 57.568C391.097 68.9635 393.922 93.6421 387.736 106.117C381.549 118.593 362.632 135.836 351.492 124.44C340.352 113.045 331.415 64.1234 337.601 51.6481C343.788 39.1729 368.817 46.1724 379.957 57.568Z" fill="#C70016"/>
<path d="M295.952 70.5775C287.42 85.8356 289.441 110.672 297.79 120.293C306.138 129.915 327.654 139.219 336.185 123.961C344.717 108.703 343.923 58.1825 335.574 48.5612C327.225 38.94 304.484 55.3194 295.952 70.5775Z" fill="#C70016"/>
<path d="M313.608 119.606C319.153 145.348 347.482 151.823 361.626 145.619C375.769 139.416 383.068 113.33 377.523 87.5881C371.978 61.8462 346.585 39.4518 332.442 45.6551C318.299 51.8583 308.064 93.8643 313.608 119.606Z" fill="#D64851"/>
<path d="M325.292 103.775C329.328 122.515 342.73 126.102 352.944 121.623C363.157 117.143 368.394 99.9799 364.357 81.2404C360.321 62.5009 344.935 39.8371 334.722 44.3166C324.509 48.7961 321.255 85.0358 325.292 103.775Z" fill="#6A2129"/>
<path d="M880.927 63.5998C872.873 65.1628 868.301 70.2426 869.128 76.1177C869.954 81.9927 875.357 86.5961 883.412 85.0331C891.466 83.4701 896.457 73.1734 897.688 70.5379C894.978 67.816 888.982 62.0368 880.927 63.5998Z" fill="#D9D9D9"/>
<path d="M914.588 29.5742C909.052 22.5554 902.912 20.8701 899.164 24.8994C895.416 28.9287 895.088 36.7358 900.624 43.7547C906.16 50.7735 916.261 50.0084 918.821 49.767C919.281 45.625 920.124 36.5931 914.588 29.5742Z" fill="#D9D9D9"/>
<path d="M954.652 31.0196C953.716 21.5349 949.603 15.9423 944.544 16.615C939.485 17.2877 935.286 23.3686 936.223 32.8533C937.159 42.338 945.707 48.68 947.897 50.2489C950.356 47.2196 955.589 40.5044 954.652 31.0196Z" fill="#D9D9D9"/>
<path d="M1012.52 75.274C1020.56 76.9399 1026.32 73.9329 1027.21 68.072C1028.11 62.2111 1024.33 55.7653 1016.29 54.0994C1008.25 52.4335 1000.61 60.1954 998.694 62.2003C1000.47 65.8226 1004.48 73.6081 1012.52 75.274Z" fill="#D9D9D9"/>
<path d="M991.601 44.5862C995.717 36.3412 995.295 28.9823 990.901 25.9723C986.508 22.9622 980.028 24.8819 975.912 33.1269C971.797 41.3719 975.384 52.441 976.332 55.2324C979.853 54.5335 987.486 52.8312 991.601 44.5862Z" fill="#D9D9D9"/>
<path d="M986.666 72.3346C997.806 83.7301 1000.63 108.409 994.445 120.884C988.258 133.359 969.341 150.602 958.201 139.207C947.061 127.811 938.124 78.89 944.31 66.4147C950.496 53.9395 975.526 60.939 986.666 72.3346Z" fill="#C70016"/>
<path d="M902.657 85.3421C894.125 100.6 896.146 125.437 904.495 135.058C912.843 144.679 934.359 153.983 942.89 138.725C951.422 123.467 950.628 72.9471 942.279 63.3259C933.931 53.7047 911.189 70.084 902.657 85.3421Z" fill="#C70016"/>
<path d="M920.309 134.372C925.853 160.114 954.183 166.588 968.326 160.385C982.469 154.182 989.768 128.096 984.223 102.354C978.678 76.6118 953.286 54.2174 939.142 60.4207C924.999 66.624 914.764 108.63 920.309 134.372Z" fill="#D64851"/>
<path d="M931.997 118.548C936.033 137.287 949.436 140.875 959.649 136.395C969.862 131.915 975.099 114.752 971.062 96.0128C967.026 77.2733 951.64 54.6096 941.427 59.0891C931.214 63.5686 927.96 99.8083 931.997 118.548Z" fill="#6A2129"/>
<path d="M526.104 70.2228C518.05 71.7858 513.478 76.8657 514.304 82.7407C515.131 88.6157 520.534 93.2191 528.588 91.6562C536.643 90.0932 541.634 79.7965 542.865 77.1609C540.155 74.439 534.159 68.6599 526.104 70.2228Z" fill="#D9D9D9"/>
<path d="M560.489 30.2549C554.953 23.2361 548.812 21.5507 545.064 25.5801C541.316 29.6094 540.988 37.4165 546.524 44.4353C552.06 51.4542 562.161 50.6891 564.721 50.4477C565.181 46.3056 566.025 37.2738 560.489 30.2549Z" fill="#D9D9D9"/>
<path d="M607.443 33.1564C606.507 23.6716 602.394 18.079 597.335 18.7517C592.276 19.4244 588.077 25.5053 589.014 34.99C589.95 44.4747 598.498 50.8167 600.688 52.3856C603.147 49.3563 608.38 42.6411 607.443 33.1564Z" fill="#D9D9D9"/>
<path d="M648.191 37.7844C652.307 29.5394 651.884 22.1806 647.491 19.1705C643.098 16.1604 636.618 18.0802 632.502 26.3252C628.387 34.5702 631.974 45.6392 632.922 48.4306C636.443 47.7317 644.075 46.0294 648.191 37.7844Z" fill="#D9D9D9"/>
<path d="M646.887 78.0356C659.29 89.4265 662.428 114.104 655.535 126.582C648.641 139.06 627.568 156.311 615.166 144.92C602.764 133.529 592.826 84.6111 599.72 72.1333C606.613 59.6555 634.485 66.6446 646.887 78.0356Z" fill="#C70016"/>
<path d="M553.332 91.0782C543.826 106.34 546.068 131.176 555.362 140.793C564.657 150.411 588.614 159.706 598.12 144.445C607.626 129.183 606.758 78.6634 597.464 69.0456C588.169 59.4278 562.838 75.8166 553.332 91.0782Z" fill="#C70016"/>
<path d="M572.977 140.097C579.144 165.837 610.69 172.3 626.443 166.091C642.196 159.882 650.332 133.792 644.165 108.053C637.999 82.3132 609.727 59.9293 593.975 66.1385C578.222 72.3476 566.81 114.358 572.977 140.097Z" fill="#D64851"/>
<path d="M585.996 124.268C590.485 143.006 605.409 146.587 616.785 142.104C628.16 137.62 633.997 120.455 629.508 101.717C625.019 82.979 607.892 60.3216 596.517 64.8053C585.142 69.289 581.507 105.53 585.996 124.268Z" fill="#6A2129"/>
<path d="M243.209 336.725C236.006 332.227 229.733 332.998 227.328 338.246C224.923 343.493 226.811 350.992 234.013 355.49C241.216 359.988 250.539 355.379 252.888 354.166C252.157 350.077 250.411 341.223 243.209 336.725Z" fill="#D9D9D9"/>
<path d="M245.399 365.716C232.824 365.598 224.737 372.144 224.66 381.675C224.583 391.206 231.738 400.2 244.313 400.318C256.888 400.436 266.793 385.797 269.258 382.035C265.763 376.872 257.974 365.834 245.399 365.716Z" fill="#D9D9D9"/>
<path d="M387.839 181.467C379.007 170.596 395.15 141.411 385.471 152.163C363.074 156.082 361.853 186.389 376.002 201.193C384.834 212.064 413.533 203.725 410.193 181.729C419.871 170.977 396.671 192.338 387.839 181.467Z" fill="#DF8200"/>
<path d="M299.118 181.09C290.503 192.192 264.415 175.524 274.303 186.016C279.308 211.846 305.246 211.029 316.82 193.435C325.436 182.333 316.193 149.482 297.682 155.003C287.794 144.511 307.734 169.987 299.118 181.09Z" fill="#DF8200"/>
<ellipse cx="8.31369" cy="8.28754" rx="8.31369" ry="8.28754" transform="matrix(-0.642705 -0.766114 0.657124 -0.753782 392.62 143.152)" fill="#D9D9D9"/>
<ellipse cx="8.31369" cy="8.28754" rx="8.31369" ry="8.28754" transform="matrix(-0.642705 -0.766114 0.657124 -0.753782 278.116 146.031)" fill="#D9D9D9"/>
<path d="M183.193 96.9096C191.898 106.804 200.393 109.607 204.616 104.542C208.839 99.4775 207.79 89.0486 199.085 79.1547C190.379 69.2608 177.078 69.3884 173.716 69.4843C173.892 74.992 174.487 87.0158 183.193 96.9096Z" fill="#D9D9D9"/>
<path d="M176.023 58.0624C187.753 61.7174 196.335 59.3062 197.901 52.4737C199.467 45.6412 194.192 37.1423 182.462 33.4873C170.732 29.8323 159.183 37.5479 156.29 39.5536C158.746 44.2581 164.293 54.4074 176.023 58.0624Z" fill="#D9D9D9"/>
<path d="M151.636 51.5109C167.633 67.9292 171.7 103.481 162.825 121.451C153.95 139.42 126.802 164.256 110.805 147.838C94.8074 131.419 81.9547 60.9438 90.8296 42.9739C99.7046 25.004 135.638 35.0926 151.636 51.5109Z" fill="#C70016"/>
<path d="M56.418 140.865C64.3898 177.949 105.06 187.282 125.36 178.349C145.661 169.416 156.126 131.839 148.154 94.7549C140.182 57.6711 103.72 25.4053 83.4193 34.3384C63.119 43.2714 48.4462 103.781 56.418 140.865Z" fill="#D64851"/>
<path d="M73.1925 118.066C78.9958 145.062 98.2364 150.233 112.896 143.782C127.555 137.331 135.064 112.608 129.261 85.6117C123.458 58.6155 101.361 25.9638 86.7019 32.4146C72.0426 38.8653 67.3892 91.0699 73.1925 118.066Z" fill="#6A2129"/>
<ellipse cx="8.59058" cy="8.80434" rx="8.59058" ry="8.80434" transform="matrix(-0.707876 0.706337 -0.589499 -0.807769 229.441 32.2471)" fill="#D9D9D9"/>
<path d="M1354.05 61.8771C1345.99 63.4401 1341.42 68.52 1342.25 74.395C1343.07 80.27 1348.48 84.8734 1356.53 83.3105C1364.59 81.7475 1369.58 71.4508 1370.81 68.8152C1368.1 66.0933 1362.1 60.3142 1354.05 61.8771Z" fill="#D9D9D9"/>
<path d="M1387.7 27.8506C1382.17 20.8318 1376.03 19.1464 1372.28 23.1758C1368.53 27.2051 1368.2 35.0122 1373.74 42.031C1379.28 49.0499 1389.38 48.2848 1391.94 48.0434C1392.4 43.9013 1393.24 34.8695 1387.7 27.8506Z" fill="#D9D9D9"/>
<path d="M1427.77 29.298C1426.83 19.8132 1422.72 14.2206 1417.66 14.8933C1412.6 15.566 1408.4 21.6469 1409.34 31.1316C1410.27 40.6164 1418.82 46.9583 1421.01 48.5272C1423.47 45.4979 1428.7 38.7827 1427.77 29.298Z" fill="#D9D9D9"/>
<path d="M1464.73 42.8625C1468.85 34.6175 1468.42 27.2587 1464.03 24.2486C1459.64 21.2386 1453.16 23.1583 1449.04 31.4033C1444.93 39.6483 1448.51 50.7174 1449.46 53.5087C1452.98 52.8098 1460.61 51.1076 1464.73 42.8625Z" fill="#D9D9D9"/>
<path d="M1459.77 70.6129C1470.91 82.0084 1473.74 106.687 1467.55 119.162C1461.37 131.637 1442.45 148.881 1431.31 137.485C1420.17 126.089 1411.23 77.1683 1417.42 64.6931C1423.6 52.2178 1448.63 59.2173 1459.77 70.6129Z" fill="#C70016"/>
<path d="M1375.77 83.6224C1367.24 98.8805 1369.26 123.717 1377.61 133.338C1385.96 142.96 1407.47 152.264 1416.01 137.006C1424.54 121.747 1423.74 71.2274 1415.4 61.6062C1407.05 51.9849 1384.31 68.3643 1375.77 83.6224Z" fill="#C70016"/>
<path d="M1393.42 132.648C1398.97 158.39 1427.3 164.865 1441.44 158.661C1455.59 152.458 1462.88 126.372 1457.34 100.63C1451.79 74.8882 1426.4 52.4938 1412.26 58.6971C1398.12 64.9003 1387.88 106.906 1393.42 132.648Z" fill="#D64851"/>
<path d="M1405.12 116.823C1409.15 135.563 1422.56 139.15 1432.77 134.67C1442.98 130.191 1448.22 113.028 1444.18 94.2882C1440.15 75.5487 1424.76 52.885 1414.55 57.3645C1404.33 61.844 1401.08 98.0837 1405.12 116.823Z" fill="#6A2129"/>
<path d="M1720.34 65.008C1712.29 66.571 1707.71 71.6508 1708.54 77.5259C1709.37 83.4009 1714.77 88.0043 1722.82 86.4413C1730.88 84.8783 1735.87 74.5816 1737.1 71.9461C1734.39 69.2242 1728.39 63.445 1720.34 65.008Z" fill="#D9D9D9"/>
<path d="M1753.99 30.9795C1748.46 23.9607 1742.32 22.2754 1738.57 26.3047C1734.82 30.334 1734.49 38.1411 1740.03 45.1599C1745.57 52.1788 1755.67 51.4137 1758.23 51.1723C1758.69 47.0302 1759.53 37.9984 1753.99 30.9795Z" fill="#D9D9D9"/>
<path d="M1794.06 32.4259C1793.12 22.9412 1789.01 17.3486 1783.95 18.0212C1778.89 18.6939 1774.69 24.7748 1775.63 34.2596C1776.57 43.7443 1785.12 50.0862 1787.31 51.6551C1789.76 48.6259 1795 41.9106 1794.06 32.4259Z" fill="#D9D9D9"/>
<path d="M1826.08 73.7398C1837.22 85.1354 1840.04 109.814 1833.85 122.289C1827.67 134.764 1808.75 152.008 1797.61 140.612C1786.47 129.216 1777.53 80.2952 1783.72 67.82C1789.91 55.3448 1814.94 62.3443 1826.08 73.7398Z" fill="#C70016"/>
<path d="M1742.07 86.7503C1733.54 102.008 1735.56 126.845 1743.91 136.466C1752.26 146.087 1773.77 155.392 1782.3 140.134C1790.84 124.875 1790.04 74.3553 1781.69 64.7341C1773.34 55.1129 1750.6 71.4922 1742.07 86.7503Z" fill="#C70016"/>
<path d="M1759.72 135.778C1765.26 161.52 1793.59 167.995 1807.73 161.791C1821.88 155.588 1829.18 129.502 1823.63 103.76C1818.09 78.0181 1792.69 55.6237 1778.55 61.827C1764.41 68.0302 1754.17 110.036 1759.72 135.778Z" fill="#D64851"/>
<path d="M1771.41 119.949C1775.45 138.689 1788.85 142.276 1799.06 137.796C1809.28 133.317 1814.51 116.154 1810.48 97.4142C1806.44 78.6747 1791.05 56.0109 1780.84 60.4904C1770.63 64.97 1767.37 101.21 1771.41 119.949Z" fill="#6A2129"/>
<path d="M230.907 514.406C237.524 514.764 242.06 511.618 242.504 506.761C242.949 501.903 239.562 497.148 232.945 496.79C226.328 496.431 220.492 503.66 219.035 505.52C220.656 508.235 224.29 514.047 230.907 514.406Z" fill="#D9D9D9"/>
<path d="M198.114 538.234C201.156 544.945 205.665 547.516 209.358 545.045C213.051 542.574 214.762 536.404 211.72 529.693C208.679 522.983 200.603 521.579 198.548 521.261C197.416 524.478 195.072 531.524 198.114 538.234Z" fill="#D9D9D9"/>
<path d="M130.056 526.625C125.289 532.39 124.252 538.352 127.142 541.633C130.032 544.914 135.478 544.673 140.245 538.908C145.012 533.143 144.255 523.586 144.03 521.168C141.134 521.023 134.823 520.861 130.056 526.625Z" fill="#D9D9D9"/>
<path d="M10.8766 217.592C8.80219 231.502 -25.0888 238.977 -9.95118 239.02C8.97681 253.178 33.1252 233.766 34.442 213.233C36.5163 199.323 9.71504 183.407 -4.80761 200.663C-19.9452 200.62 12.951 203.682 10.8766 217.592Z" fill="#DF8200"/>
<path d="M45.8479 225.709C24.3409 235.475 9.3481 264.497 13.0601 281.981C16.7721 299.465 37.2743 327.461 58.7814 317.695C80.2884 307.928 114.957 251.632 111.245 234.148C107.533 216.664 67.355 215.942 45.8479 225.709Z" fill="#C70016"/>
<path d="M33.4448 294.268C22.2475 327.194 53.3207 357.695 75.4957 362.531C97.6706 367.367 125.271 344.657 136.468 311.731C147.665 278.805 131.526 233.193 109.351 228.357C87.1764 223.521 44.6421 261.342 33.4448 294.268Z" fill="#D64851"/>
<path d="M59.3244 286.477C51.173 310.446 65.5031 325.453 81.5161 328.945C97.5292 332.437 116.235 317.854 124.387 293.885C132.538 269.915 129.181 232.262 113.168 228.77C97.1548 225.278 67.4758 262.507 59.3244 286.477Z" fill="#6A2129"/>
<path d="M160.722 280.681C166.694 302.422 152.825 331.933 136.234 340.569C119.642 349.205 83.6662 352.59 77.6949 330.849C71.7237 309.108 95.0172 247.855 111.609 239.219C128.2 230.582 154.751 258.94 160.722 280.681Z" fill="#C70016"/>
<path d="M189.506 279.084C201.386 272.609 218.306 301.76 213.474 286.663C218.803 259.128 195.392 247.005 178.417 258.3C166.536 264.775 162.322 301.228 180.901 305.091C185.732 320.188 177.626 285.559 189.506 279.084Z" fill="#DF8200"/>
<path d="M-10.581 384.233C1.93759 376.241 11.7939 375.663 14.4685 382.181C17.1432 388.7 12.4533 399.398 -0.0653153 407.39C-12.5839 415.383 -26.4606 411.528 -29.946 410.487C-27.8648 404.731 -23.0996 392.226 -10.581 384.233Z" fill="#D9D9D9"/>
<path d="M153.582 378.293C147.671 371.336 146.207 364.418 149.536 360.859C152.865 357.299 159.38 357.965 165.291 364.923C171.202 371.881 170.657 382.797 170.479 385.557C167.025 385.515 159.493 385.251 153.582 378.293Z" fill="#D9D9D9"/>
<ellipse cx="8.60116" cy="7.07122" rx="8.60116" ry="7.07122" transform="matrix(-0.473173 0.88097 0.882139 0.47099 110.87 383.523)" fill="#D9D9D9"/>
<path d="M30.6514 426.463C30.1545 411.693 34.6445 401.183 41.5649 399.637C48.4854 398.092 55.2516 405.133 55.7486 419.903C56.2456 434.672 45.9362 448.556 43.2843 452.029C39.4206 448.707 31.1484 441.233 30.6514 426.463Z" fill="#D9D9D9"/>
<path d="M80.0709 433.632C79.7773 424.908 83.0004 418.573 87.9099 417.477C92.8195 416.38 97.5857 420.367 97.8792 429.09C98.1728 437.814 90.8131 446.298 88.9203 448.422C86.1959 446.559 80.3644 442.355 80.0709 433.632Z" fill="#D9D9D9"/>
<path d="M-17.8158 484.037C-28.1665 478.2 -49.657 503.476 -42.3294 490.33C-42.6399 466.149 -17.8667 455.872 -3.43621 466.002C6.91449 471.839 4.57943 503.81 -14.0679 506.927C-21.3955 520.073 -7.46514 489.875 -17.8158 484.037Z" fill="#DF8200"/>
<path d="M159.406 428.606C176.733 407.676 205.36 414.931 215.132 427.17C224.905 439.409 218.986 466.624 201.659 487.554C184.333 508.485 150.726 517.132 140.954 504.893C131.182 492.654 142.08 449.537 159.406 428.606Z" fill="#D64851"/>
<path d="M120.019 465.176C119.64 447.277 133.357 425.535 145.488 420.629C157.619 415.724 181.462 417.228 181.841 435.128C182.22 453.027 157.305 498.794 145.174 503.699C133.043 508.605 120.398 483.076 120.019 465.176Z" fill="#C70016"/>
<path d="M73.2748 496.579C64.4781 492.434 61.0727 485.29 64.261 478.818C67.4493 472.347 75.4906 468.669 84.2872 472.814C93.0839 476.96 95.0022 490.188 95.439 493.56C91.2495 495.877 82.0714 500.725 73.2748 496.579Z" fill="#D9D9D9"/>
<ellipse cx="8.60116" cy="7.07122" rx="8.60116" ry="7.07122" transform="matrix(-0.473173 0.88097 0.882139 0.47099 31.4307 474.523)" fill="#D9D9D9"/>
<path d="M162.354 448.492C174.967 433.255 188.761 436.209 195.818 445.047C202.875 453.885 199.373 471.992 186.759 487.229C174.146 502.466 149.428 516.012 142.371 507.174C135.314 498.336 149.741 463.729 162.354 448.492Z" fill="#6A2129"/>
<path d="M189.485 516.101C204.981 510.873 219.348 489.649 219.749 475.381C220.15 461.113 211.364 436.573 195.868 441.802C180.372 447.03 148.886 487.551 148.485 501.819C148.084 516.088 173.989 521.33 189.485 516.101Z" fill="#C70016"/>
<path d="M104.047 521.65C95.6964 525.486 89.3562 524.171 87.9092 518.75C86.4622 513.328 89.9062 506.046 98.2564 502.209C106.607 498.373 115.342 503.767 117.533 505.177C115.963 509.174 112.397 517.814 104.047 521.65Z" fill="#D9D9D9"/>
<path d="M1315.95 209.167C1311.73 179.282 1339.1 161.207 1356.46 162.34C1373.82 163.473 1391.74 188.694 1395.96 218.58C1400.18 248.465 1382.14 282.527 1364.78 281.394C1347.42 280.26 1320.17 239.053 1315.95 209.167Z" fill="#D64851"/>
<path d="M1316.5 268.867C1301.52 255.786 1293.93 228.257 1298.98 214.627C1304.03 200.997 1323.1 182.546 1338.08 195.627C1353.06 208.708 1372 263.405 1366.95 277.035C1361.9 290.666 1331.48 281.948 1316.5 268.867Z" fill="#C70016"/>
<path d="M1334.49 221.625C1331.41 199.869 1344.16 190.753 1356.7 191.572C1369.23 192.39 1381.48 208.814 1384.55 230.569C1387.62 252.325 1380.25 282.754 1367.72 281.936C1355.18 281.117 1337.56 243.38 1334.49 221.625Z" fill="#6A2129"/>
<path d="M1410.28 249.939C1417.58 233.305 1410.91 205.63 1399.49 194.626C1388.08 183.621 1361.36 172.475 1354.06 189.109C1346.75 205.744 1356.47 261.912 1367.88 272.916C1379.3 283.921 1402.98 266.574 1410.28 249.939Z" fill="#C70016"/>
<path d="M974.462 203.69C970.703 177.084 995.075 160.992 1010.53 162.001C1025.99 163.01 1041.94 185.464 1045.69 212.07C1049.45 238.676 1033.39 269.001 1017.93 267.992C1002.48 266.983 978.22 230.296 974.462 203.69Z" fill="#D64851"/>
<path d="M974.958 256.839C961.622 245.193 954.866 220.684 959.361 208.55C963.855 196.415 980.836 179.989 994.172 191.634C1007.51 203.28 1024.37 251.976 1019.87 264.111C1015.38 276.245 988.294 268.484 974.958 256.839Z" fill="#C70016"/>
<path d="M990.969 214.777C988.233 195.409 999.58 187.293 1010.74 188.022C1021.9 188.751 1032.8 203.372 1035.54 222.741C1038.28 242.11 1031.71 269.2 1020.55 268.471C1009.39 267.743 993.705 234.146 990.969 214.777Z" fill="#6A2129"/>
<path d="M1058.45 239.99C1064.95 225.18 1059 200.542 1048.84 190.745C1038.68 180.948 1014.89 171.024 1008.39 185.834C1001.89 200.643 1010.53 250.649 1020.7 260.446C1030.86 270.243 1051.95 254.799 1058.45 239.99Z" fill="#C70016"/>
<path d="M464.54 212.731C460.318 182.846 487.693 164.77 505.053 165.904C522.413 167.037 540.329 192.258 544.551 222.143C548.773 252.028 530.729 286.091 513.369 284.957C496.009 283.824 468.761 242.616 464.54 212.731Z" fill="#D64851"/>
<path d="M465.092 272.433C450.113 259.352 442.524 231.823 447.573 218.193C452.622 204.562 471.695 186.112 486.675 199.193C501.654 212.274 520.59 266.971 515.542 280.601C510.493 294.231 480.072 285.514 465.092 272.433Z" fill="#C70016"/>
<path d="M483.08 225.187C480.007 203.431 492.753 194.316 505.289 195.134C517.825 195.953 530.072 212.376 533.145 234.132C536.218 255.888 528.845 286.317 516.309 285.498C503.773 284.68 486.154 246.943 483.08 225.187Z" fill="#6A2129"/>
<path d="M558.874 253.501C566.175 236.866 559.498 209.192 548.084 198.187C536.669 187.183 509.948 176.036 502.647 192.671C495.346 209.305 505.058 265.473 516.473 276.478C527.887 287.482 551.573 270.135 558.874 253.501Z" fill="#C70016"/>
<path d="M152.982 209.611C147.842 190.328 151.112 177.472 160.547 176.699C169.983 175.927 181.774 186.285 186.915 205.568C192.056 224.85 181.473 241.051 178.721 245.091C172.198 240.084 158.123 228.893 152.982 209.611Z" fill="#D9D9D9"/>
<path d="M223.844 174.003C204.728 168.63 193.096 158.604 193.933 149.113C194.77 139.623 206.54 133.823 225.655 139.197C244.771 144.57 258.354 163.42 261.722 168.229C255.896 171.825 242.959 179.377 223.844 174.003Z" fill="#D9D9D9"/>
<path d="M1760.2 267.243C1770.93 276.338 1759.42 309.078 1767.43 296.237C1789.44 287.616 1785.68 256.862 1768.92 244.92C1758.19 235.824 1730.54 250.209 1737.55 271.647C1729.53 284.487 1749.48 258.147 1760.2 267.243Z" fill="#DF8200"/>
<path d="M1785.54 241.805C1782.5 265.229 1799.26 293.268 1816.07 299.331C1832.88 305.393 1867.48 302.73 1870.52 279.305C1873.56 255.88 1844 196.743 1827.18 190.681C1810.37 184.618 1788.57 218.38 1785.54 241.805Z" fill="#C70016"/>
<path d="M1837.25 288.486C1859.33 315.358 1901.63 305.032 1917.43 288.737C1933.23 272.443 1928.48 237.017 1906.4 210.145C1884.32 183.273 1837.06 172.943 1821.26 189.238C1805.46 205.532 1815.18 261.614 1837.25 288.486Z" fill="#D64851"/>
<path d="M1738.06 431.529C1729.4 405.772 1750.66 385.27 1766.21 383.418C1781.76 381.565 1801.77 400.941 1810.42 426.698C1819.08 452.455 1808.71 485.572 1793.16 487.424C1777.6 489.277 1746.71 457.286 1738.06 431.529Z" fill="#D64851"/>
<path d="M1844.28 262.393C1860.35 281.955 1880.66 277.689 1892.06 265.922C1903.47 254.155 1900.94 230.572 1884.87 211.01C1868.8 191.447 1835.03 174.451 1823.62 186.218C1812.22 197.984 1828.21 242.83 1844.28 262.393Z" fill="#6A2129"/>
<path d="M1748.37 484.275C1732.96 475.162 1721.72 452.044 1723.94 439.149C1726.17 426.255 1740.01 406.787 1755.43 415.901C1770.84 425.014 1796.59 470.312 1794.37 483.206C1792.14 496.101 1763.78 493.389 1748.37 484.275Z" fill="#C70016"/>
<path d="M1892.8 173.163C1914.43 179.549 1932.19 206.891 1930.79 225.543C1929.38 244.195 1913.29 276.55 1891.67 270.164C1870.04 263.777 1830.27 211.693 1831.68 193.041C1833.09 174.39 1871.18 166.776 1892.8 173.163Z" fill="#C70016"/>
<path d="M1783.43 324.049C1789.01 316.783 1794.98 314.502 1798.46 317.901C1801.93 321.301 1801.97 328.66 1796.39 335.927C1790.81 343.193 1781.1 343.594 1778.64 343.651C1778.34 339.778 1777.85 331.315 1783.43 324.049Z" fill="#D9D9D9"/>
<path d="M1756.52 439.503C1750.22 420.753 1760 410.588 1771.23 409.25C1782.46 407.913 1796 420.435 1802.3 439.185C1808.6 457.936 1807.08 486.081 1795.85 487.419C1784.62 488.757 1762.82 458.254 1756.52 439.503Z" fill="#6A2129"/>
<path d="M1828.26 452.099C1831.99 436.174 1821.53 412.778 1809.61 404.916C1797.7 397.053 1772.21 391.583 1768.49 407.507C1764.76 423.432 1782.6 471.548 1794.51 479.411C1806.42 487.273 1824.54 468.023 1828.26 452.099Z" fill="#C70016"/>
<path d="M1906.62 147.865C1907.38 134.356 1941.07 135.345 1925.7 131.492C1905.11 112.449 1882.47 125.952 1883.12 146.332C1882.35 159.84 1911.11 182.638 1924.19 168.887C1939.56 172.739 1905.86 161.373 1906.62 147.865Z" fill="#DF8200"/>
<ellipse cx="8.60116" cy="7.07122" rx="8.60116" ry="7.07122" transform="matrix(0.499188 0.866494 0.865255 -0.501332 1835.82 348.113)" fill="#D9D9D9"/>
<path d="M1822.04 505.471C1826.19 514.386 1825.54 521.495 1820.78 523.532C1816.03 525.568 1809.19 522.352 1805.04 513.438C1800.89 504.523 1805.01 494.439 1806.09 491.905C1809.82 493.316 1817.88 496.557 1822.04 505.471Z" fill="#D9D9D9"/>
<path d="M1854.92 391.865C1857.1 383.843 1861.79 380.331 1866.54 382.653C1871.29 384.975 1874.48 391.76 1872.3 399.783C1870.13 407.805 1861.09 410.459 1858.78 411.09C1856.84 407.585 1852.74 399.888 1854.92 391.865Z" fill="#D9D9D9"/>
<path d="M1847.09 474.175C1854.98 479.358 1858.47 486.115 1856.22 491.077C1853.98 496.039 1847.33 497.707 1839.44 492.524C1831.54 487.342 1828.87 475.64 1828.23 472.667C1831.66 471.454 1839.19 468.993 1847.09 474.175Z" fill="#D9D9D9"/>
<path d="M1864.24 426.571C1873.64 421.422 1882.06 422.461 1885.53 428.693C1888.99 434.925 1886.84 443.721 1877.44 448.87C1868.04 454.019 1855.36 448.394 1852.17 446.916C1852.94 442.114 1854.84 431.72 1864.24 426.571Z" fill="#D9D9D9"/>
<path d="M1890.5 373.319C1890.31 358.468 1895.01 349.788 1901.96 350.951C1908.91 352.115 1915.53 361.739 1915.72 376.591C1915.92 391.442 1905.32 401.202 1902.6 403.615C1898.81 398.812 1890.69 388.171 1890.5 373.319Z" fill="#D9D9D9"/>
<ellipse cx="8.60116" cy="7.07122" rx="8.60116" ry="7.07122" transform="matrix(0.499188 0.866494 0.865255 -0.501332 1913.81 426.271)" fill="#D9D9D9"/>
<path d="M1204.14 428.619C1211.96 434.698 1218.93 434.937 1221.78 429.689C1224.62 424.441 1222.8 416.033 1214.98 409.954C1207.17 403.875 1196.69 407.255 1194.05 408.163C1194.71 412.696 1196.33 422.541 1204.14 428.619Z" fill="#D9D9D9"/>
<path d="M730.567 455.134C722.753 461.213 715.783 461.451 712.936 456.203C710.089 450.956 711.913 442.548 719.726 436.469C727.539 430.39 738.021 433.77 740.664 434.677C739.999 439.211 738.38 449.055 730.567 455.134Z" fill="#D9D9D9"/>
<path d="M1166.04 456.685C1169.67 466.561 1175.58 471.48 1180.75 469.479C1185.92 467.477 1188.67 459.927 1185.04 450.051C1181.41 440.176 1170.6 435.583 1167.84 434.466C1166.08 438.321 1162.41 446.809 1166.04 456.685Z" fill="#D9D9D9"/>
<path d="M1115.95 457.366C1113.89 467.203 1116.38 474.942 1121.87 477.036C1127.36 479.131 1133.69 475.439 1135.75 465.603C1137.82 455.766 1130.94 444.874 1129.16 442.138C1125.63 443.778 1118.02 447.53 1115.95 457.366Z" fill="#D9D9D9"/>
<path d="M907.725 254.08C919.137 249.464 927.614 250.892 929.32 257.194C931.027 263.497 926.067 272.051 914.655 276.668C903.244 281.284 891.724 275.136 888.837 273.528C891.128 268.838 896.313 258.697 907.725 254.08Z" fill="#D9D9D9"/>
<path d="M774.323 492.945C766.792 502.729 758.429 505.129 753.318 499.586C748.207 494.043 747.75 483.229 755.282 473.445C762.813 463.662 776.574 464.614 780.062 464.922C780.694 470.656 781.855 483.161 774.323 492.945Z" fill="#D9D9D9"/>
<ellipse cx="11.5586" cy="9.50259" rx="11.5586" ry="9.50259" transform="matrix(-0.00883214 0.999961 0.99998 0.00635576 952.02 317.631)" fill="#D9D9D9"/>
<path d="M828.901 490.507C827.638 503.659 822.044 511.451 815.151 510.573C808.259 509.695 802.531 501.314 803.793 488.162C805.056 475.011 816.691 466.133 819.673 463.936C823.026 468.107 830.164 477.356 828.901 490.507Z" fill="#D9D9D9"/>
<path d="M944.346 381.313C952.331 373.503 960.155 372.629 964.074 378.552C967.992 384.475 967.072 394.51 959.087 402.319C951.101 410.128 938.83 407.051 935.728 406.211C935.865 400.827 936.36 389.122 944.346 381.313Z" fill="#D9D9D9"/>
<path d="M879.229 471.322C884.847 482.702 884.282 492.903 878.301 497.12C872.32 501.337 863.491 498.746 857.873 487.366C852.256 475.986 857.127 460.611 858.414 456.733C863.213 457.664 873.611 459.942 879.229 471.322Z" fill="#D9D9D9"/>
<path d="M931.515 427.857C945.911 428.295 954.95 435.229 954.722 444.809C954.494 454.389 946.007 463.109 931.611 462.672C917.216 462.234 906.365 447.087 903.669 443.198C907.84 438.166 917.12 427.419 931.515 427.857Z" fill="#D9D9D9"/>
<ellipse cx="11.5586" cy="9.50259" rx="11.5586" ry="9.50259" transform="matrix(-0.00883214 0.999961 0.99998 0.00635576 1003.65 299.18)" fill="#D9D9D9"/>
<path d="M998.36 378.029C992.556 367.838 992.428 358.288 997.581 353.914C1002.73 349.541 1010.9 351.302 1016.7 361.493C1022.5 371.684 1019.06 386.375 1018.13 390.085C1013.73 389.572 1004.16 388.22 998.36 378.029Z" fill="#D9D9D9"/>
<path d="M1029.64 457.139C1016.59 457.709 1008.07 451.342 1007.81 441.653C1007.56 431.963 1014.82 422.561 1027.88 421.99C1040.93 421.42 1051.48 435.952 1054.11 439.69C1050.58 445.064 1042.69 456.568 1029.64 457.139Z" fill="#D9D9D9"/>
<path d="M1081.92 467.713C1074.38 477.497 1066.02 479.897 1060.91 474.354C1055.8 468.811 1055.34 457.998 1062.87 448.214C1070.41 438.43 1084.17 439.383 1087.65 439.69C1088.29 445.424 1089.45 457.93 1081.92 467.713Z" fill="#D9D9D9"/>
<path d="M306.232 465.779C299.827 473.326 293.053 474.985 289.193 470.43C285.332 465.875 285.399 457.272 291.805 449.724C298.21 442.176 309.162 443.342 311.935 443.689C312.21 448.263 312.638 458.231 306.232 465.779Z" fill="#D9D9D9"/>
<path d="M674.559 488.037C672.632 498.381 675.199 505.629 680.665 506.55C686.131 507.471 692.356 502.388 694.283 492.045C696.209 481.701 689.26 472.228 687.462 469.86C683.979 472.273 676.485 477.693 674.559 488.037Z" fill="#D9D9D9"/>
<path d="M631.156 463.028C624.355 470.429 622.544 478.356 626.192 482.961C629.84 487.566 637.165 487.625 643.965 480.224C650.766 472.824 650.42 459.947 650.288 456.686C646.413 456.289 637.956 455.628 631.156 463.028Z" fill="#D9D9D9"/>
<path d="M356.796 493.84C351.424 504.957 343.729 509.016 337.593 504.635C331.456 500.254 328.798 489.762 334.17 478.645C339.543 467.528 353.208 465.648 356.684 465.236C358.476 470.72 362.169 482.723 356.796 493.84Z" fill="#D9D9D9"/>
<path d="M409.721 480.299C411.174 493.431 407.29 502.202 400.364 502.752C393.438 503.301 386.117 496.268 384.664 483.136C383.212 470.004 392.786 458.935 395.255 456.175C399.391 459.572 408.268 467.167 409.721 480.299Z" fill="#D9D9D9"/>
<path d="M500.403 349.808C506.623 340.531 514.104 338.075 519.15 343.072C524.197 348.069 525.348 358.08 519.128 367.357C512.907 376.634 500.266 376.13 497.058 375.942C496.092 370.644 494.183 359.085 500.403 349.808Z" fill="#D9D9D9"/>
<path d="M455.065 451.227C462.89 461.218 464.422 471.319 459.43 476.67C454.438 482.021 445.266 481.289 437.44 471.298C429.614 461.307 431.239 445.261 431.707 441.202C436.594 441.132 447.239 441.236 455.065 451.227Z" fill="#D9D9D9"/>
<path d="M497.365 397.993C511.546 395.478 521.812 400.418 523.547 409.843C525.283 419.267 518.758 429.538 504.577 432.052C490.396 434.567 476.677 421.958 473.243 418.702C476.297 412.924 483.184 400.507 497.365 397.993Z" fill="#D9D9D9"/>
<ellipse cx="11.5586" cy="9.50259" rx="11.5586" ry="9.50259" transform="matrix(-0.518543 0.855052 0.856333 0.516424 615.453 269.668)" fill="#D9D9D9"/>
<path d="M570.612 334.742C570.831 323.016 575.6 314.742 582.265 313.615C588.929 312.488 595.045 318.172 594.826 329.898C594.608 341.624 584.137 352.491 581.448 355.208C577.924 352.517 570.394 346.468 570.612 334.742Z" fill="#D9D9D9"/>
<path d="M557.074 418.727C545.562 412.548 541.494 402.723 546.226 394.263C550.958 385.804 562.006 381.433 573.518 387.613C585.031 393.792 586.676 411.677 587.026 416.232C581.242 419.047 568.586 424.907 557.074 418.727Z" fill="#D9D9D9"/>
<path d="M596.611 454.528C585.138 459.09 576.723 456.88 575.162 449.504C573.601 442.128 578.733 432.598 590.206 428.037C601.68 423.475 613.022 431.326 615.863 433.372C613.476 438.624 608.085 449.967 596.611 454.528Z" fill="#D9D9D9"/>
<path d="M1578.38 449.088C1582.98 457.855 1589.23 460.956 1593.99 457.356C1598.76 453.757 1600.57 445.348 1595.98 436.581C1591.38 427.814 1580.44 426.554 1577.65 426.287C1576.38 430.689 1573.78 440.321 1578.38 449.088Z" fill="#D9D9D9"/>
<path d="M1237.05 532.321C1237.33 542.217 1233.39 547.975 1227.48 547.161C1221.56 546.348 1215.87 539.899 1215.59 530.003C1215.32 520.107 1224.25 513.663 1226.55 512.07C1229.81 515.291 1236.78 522.425 1237.05 532.321Z" fill="#D9D9D9"/>
<path d="M1532.07 458.872C1531.29 469.365 1534.64 476.288 1540.17 476.605C1545.71 476.921 1551.34 471.188 1552.12 460.695C1552.9 450.203 1544.96 441.548 1542.91 439.391C1539.71 442.171 1532.86 448.38 1532.07 458.872Z" fill="#D9D9D9"/>
<path d="M1486.19 438.767C1480.25 446.868 1479.31 454.946 1483.44 459.124C1487.57 463.301 1494.86 462.558 1500.81 454.457C1506.76 446.356 1505.01 433.595 1504.52 430.368C1500.62 430.398 1492.14 430.667 1486.19 438.767Z" fill="#D9D9D9"/>
<path d="M1293.44 519.449C1296.86 531.312 1293.84 539.472 1286.35 540.307C1278.86 541.143 1269.87 535.108 1266.45 523.245C1263.02 511.382 1271.94 500.858 1274.25 498.23C1279.25 501.116 1290.01 507.586 1293.44 519.449Z" fill="#D9D9D9"/>
<ellipse cx="11.5586" cy="9.50259" rx="11.5586" ry="9.50259" transform="matrix(0.800532 0.599289 0.597305 -0.802014 1257.4 272.442)" fill="#D9D9D9"/>
<path d="M1323.79 474.03C1333.64 482.836 1336.61 491.959 1331.82 496.993C1327.03 502.026 1316.88 501.679 1307.03 492.873C1297.18 484.068 1296.92 469.435 1296.92 465.731C1302.26 465.499 1313.94 465.225 1323.79 474.03Z" fill="#D9D9D9"/>
<path d="M1304.17 316.338C1302.61 305.279 1306.54 298.457 1313.63 298.807C1320.72 299.157 1328.27 305.841 1329.83 316.9C1331.39 327.959 1321.65 336.025 1319.13 338.027C1314.88 334.728 1305.74 327.398 1304.17 316.338Z" fill="#D9D9D9"/>
<path d="M1338.13 422.113C1350.63 424.326 1358.51 430.822 1358.37 438.138C1358.23 445.455 1350.91 451.035 1338.41 448.823C1325.92 446.61 1316.41 433.58 1314.05 430.246C1317.64 426.931 1325.63 419.901 1338.13 422.113Z" fill="#D9D9D9"/>
<path d="M1334.08 354.24C1342.96 342.899 1353.9 339.723 1361.48 345.58C1369.07 351.437 1371.07 363.439 1362.19 374.78C1353.31 386.12 1334.68 385.894 1329.95 385.763C1328.37 379.422 1325.2 365.581 1334.08 354.24Z" fill="#D9D9D9"/>
<ellipse cx="11.5586" cy="9.50259" rx="11.5586" ry="9.50259" transform="matrix(-0.421768 0.906704 0.907745 0.419522 1449.4 248.295)" fill="#D9D9D9"/>
<path d="M1411.96 317.888C1410.9 306.209 1414.73 297.462 1421.23 295.612C1427.73 293.763 1434.43 298.743 1435.5 310.422C1436.57 322.101 1427.35 334.049 1424.98 337.045C1421.18 334.756 1413.03 329.568 1411.96 317.888Z" fill="#D9D9D9"/>
<path d="M1407.7 402.85C1395.58 397.969 1390.46 388.649 1394.24 379.722C1398.01 370.795 1408.52 365.24 1420.64 370.122C1432.76 375.003 1436.35 392.6 1437.2 397.089C1431.76 400.52 1419.82 407.732 1407.7 402.85Z" fill="#D9D9D9"/>
<path d="M1450.92 434.104C1440.02 439.895 1431.41 438.62 1429.05 431.459C1426.69 424.298 1430.75 414.264 1441.65 408.473C1452.56 402.683 1464.69 409.244 1467.74 410.966C1465.94 416.448 1461.83 428.313 1450.92 434.104Z" fill="#D9D9D9"/>
</svg>
