<svg width="1920" height="568" viewBox="0 0 1920 568" fill="none" xmlns="http://www.w3.org/2000/svg">
<path d="M700.594 186.861C692.455 179.649 689.372 171.887 692.42 167.345C695.468 162.803 703 162.695 711.139 169.906C719.278 177.118 720.902 189.75 721.267 192.949C717.338 193.365 708.733 194.072 700.594 186.861Z" fill="#D9D9D9"/>
<path d="M710.478 439.066C718.057 426.533 726.778 421.602 732.363 426.031C737.948 430.46 738.822 441.811 731.243 454.344C723.665 466.877 709.135 469.786 705.451 470.453C704.577 464.546 702.9 451.6 710.478 439.066Z" fill="#D9D9D9"/>
<path d="M774.374 455.805C766.8 443.269 765.834 432.17 771.408 427.723C776.983 423.276 786.556 426.317 794.129 438.854C801.703 451.39 798.982 468.02 798.234 472.213C793.104 471.08 781.947 468.342 774.374 455.805Z" fill="#D9D9D9"/>
<path d="M816.772 447.31C812.298 439.905 812.187 432.983 816.142 429.828C820.097 426.674 826.371 427.975 830.844 435.38C835.318 442.784 832.687 453.423 831.982 456.109C828.596 455.724 821.245 454.715 816.772 447.31Z" fill="#D9D9D9"/>
<path d="M840.902 504.749C830.871 505.123 824.318 500.482 824.109 493.457C823.901 486.433 829.471 479.64 839.502 479.266C849.534 478.893 857.662 489.458 859.687 492.176C856.978 496.061 850.933 504.375 840.902 504.749Z" fill="#D9D9D9"/>
<path d="M680.45 500.686C691.513 501.047 698.468 506.101 698.305 513.044C698.142 519.987 691.631 526.281 680.568 525.92C669.505 525.559 661.147 514.547 659.071 511.72C662.269 508.086 669.387 500.325 680.45 500.686Z" fill="#D9D9D9"/>
<path d="M640.479 350.897C649.243 347.586 655.759 348.647 657.079 353.22C658.399 357.793 654.598 363.979 645.833 367.291C637.069 370.602 628.209 366.111 625.988 364.936C627.742 361.544 631.714 354.209 640.479 350.897Z" fill="#D9D9D9"/>
<path d="M857.207 366.456C848.455 363.103 843.783 357.785 845.108 353.213C846.432 348.641 852.702 346.287 861.454 349.641C870.206 352.994 874.97 362.67 876.138 365.134C872.964 366.651 865.959 369.81 857.207 366.456Z" fill="#D9D9D9"/>
<path d="M671.284 439.917C677.411 434.28 683.423 433.67 686.442 437.976C689.461 442.281 688.767 449.552 682.64 455.188C676.513 460.824 667.079 458.556 664.694 457.938C664.792 454.036 665.157 445.553 671.284 439.917Z" fill="#D9D9D9"/>
<path d="M635.916 210.355C622.559 204.712 615.903 195.227 618.608 186.763C621.312 178.3 631.521 173.617 644.878 179.26C658.235 184.903 664.451 202.376 665.962 206.829C660.751 209.796 649.273 215.998 635.916 210.355Z" fill="#D9D9D9"/>
<path d="M810.537 169.337C817.77 160.95 824.863 158.387 828.42 162.412C831.977 166.437 831.151 175.026 823.918 183.413C816.684 191.8 805.557 192.107 802.744 192.132C802.864 187.608 803.303 177.724 810.537 169.337Z" fill="#D9D9D9"/>
<path d="M816.686 278.907C832.619 295.005 834.181 326.736 823.194 341.657C812.206 356.578 780.986 375.678 765.052 359.58C749.119 343.482 740.862 280.09 751.85 265.169C762.838 250.248 800.753 262.809 816.686 278.907Z" fill="#C70016"/>
<path d="M685.28 283.067C670.348 301.175 670.647 332.988 682.465 346.424C694.283 359.86 726.501 374.83 741.432 356.722C756.364 338.615 760.884 274.39 749.066 260.954C737.248 247.518 700.211 264.96 685.28 283.067Z" fill="#C70016"/>
<path d="M761.659 218.446C749.393 218.056 743.622 180.498 743.205 197.753C730.194 221.331 746.779 246.094 764.929 244.68C777.195 245.069 791.96 212.27 777.043 198.17C777.46 180.915 773.925 218.835 761.659 218.446Z" fill="#DF8200"/>
<path d="M759.498 491.937C747.232 491.547 739.792 523.047 740.146 508.395C728.206 487.644 745.874 467.627 763.934 469.89C776.2 470.28 789.48 498.95 773.954 510.027C773.6 524.679 771.764 492.327 759.498 491.937Z" fill="#DF8200"/>
<path d="M649.434 291.776C654.245 304.725 626.902 326.419 640.745 319.651C664.852 323.371 677.545 295.745 668.85 277.415C664.04 264.466 631.895 262.766 626.952 284.203C613.109 290.971 644.623 278.826 649.434 291.776Z" fill="#DF8200"/>
<path d="M845.68 268.378C853.407 257.442 882.91 275.019 871.221 264.149C862.813 237.964 835.591 238.017 825.535 255.407C817.807 266.343 831.531 299.73 850.359 294.715C862.048 305.585 837.953 279.313 845.68 268.378Z" fill="#DF8200"/>
<path d="M859.286 184.51C872.969 180.007 883.224 183.147 885.402 191.808C887.58 200.468 881.756 211.166 868.074 215.669C854.391 220.172 840.376 210.29 836.862 207.723C839.538 201.796 845.603 189.013 859.286 184.51Z" fill="#D9D9D9"/>
<ellipse cx="8.37645" cy="7.302" rx="8.37645" ry="7.302" transform="matrix(-0.00760746 0.999971 0.99995 0.00995632 756.692 167.505)" fill="#D9D9D9"/>
<ellipse cx="8.37645" cy="7.302" rx="8.37645" ry="7.302" transform="matrix(-0.00760746 0.999971 0.99995 0.00995632 674.61 397.096)" fill="#D9D9D9"/>
<ellipse cx="8.37645" cy="7.302" rx="8.37645" ry="7.302" transform="matrix(-0.00760746 0.999971 0.99995 0.00995632 820.729 390.174)" fill="#D9D9D9"/>
<ellipse cx="8.37645" cy="7.302" rx="8.37645" ry="7.302" transform="matrix(-0.00760746 0.999971 0.99995 0.00995632 687.026 204.513)" fill="#D9D9D9"/>
<ellipse cx="8.37645" cy="7.302" rx="8.37645" ry="7.302" transform="matrix(-0.00760746 0.999971 0.99995 0.00995632 703.117 489.541)" fill="#D9D9D9"/>
<ellipse cx="8.37645" cy="7.302" rx="8.37645" ry="7.302" transform="matrix(-0.00760746 0.999971 0.99995 0.00995632 798.056 490.489)" fill="#D9D9D9"/>
<ellipse cx="8.37645" cy="7.302" rx="8.37645" ry="7.302" transform="matrix(-0.00760746 0.999971 0.99995 0.00995632 800.19 209.829)" fill="#D9D9D9"/>
<path d="M707.01 347.875C712.657 381.355 755.735 393.735 778.316 387.943C800.896 382.15 815.153 350.121 809.506 316.641C803.859 283.161 767.133 251.011 744.552 256.803C721.972 262.596 701.363 314.394 707.01 347.875Z" fill="#D64851"/>
<path d="M726.885 329.508C730.996 353.881 751.316 360.403 767.622 356.22C783.928 352.037 793.98 331.028 789.869 306.655C785.758 282.282 764.541 251.262 748.236 255.444C731.93 259.627 722.774 305.135 726.885 329.508Z" fill="#6A2129"/>
<path d="M1559.99 199.043C1552.1 191.71 1549.13 183.835 1552.1 179.245C1555.07 174.654 1562.4 174.57 1570.29 181.903C1578.18 189.237 1579.72 202.04 1580.07 205.282C1576.25 205.69 1567.88 206.377 1559.99 199.043Z" fill="#D9D9D9"/>
<path d="M1568.9 454.581C1576.3 441.91 1584.79 436.944 1590.21 441.451C1595.62 445.957 1596.44 457.459 1589.04 470.13C1581.64 482.802 1567.51 485.699 1563.93 486.362C1563.1 480.374 1561.5 467.253 1568.9 454.581Z" fill="#D9D9D9"/>
<path d="M1630.96 471.763C1623.63 459.037 1622.73 447.79 1628.16 443.304C1633.59 438.818 1642.88 441.932 1650.21 454.658C1657.53 467.385 1654.84 484.222 1654.11 488.467C1649.12 487.302 1638.29 484.49 1630.96 471.763Z" fill="#D9D9D9"/>
<path d="M1672.18 463.3C1667.86 455.783 1667.77 448.77 1671.62 445.588C1675.47 442.406 1681.57 443.745 1685.89 451.262C1690.22 458.779 1687.64 469.547 1686.94 472.266C1683.65 471.865 1676.51 470.817 1672.18 463.3Z" fill="#D9D9D9"/>
<path d="M1695.48 521.574C1685.73 521.919 1679.38 517.195 1679.19 510.078C1679.01 502.961 1684.44 496.098 1694.19 495.754C1703.94 495.41 1711.81 506.142 1713.77 508.901C1711.13 512.828 1705.23 521.23 1695.48 521.574Z" fill="#D9D9D9"/>
<path d="M1518.76 492.768C1529.51 493.172 1536.26 498.316 1536.08 505.349C1535.9 512.382 1529.56 518.736 1518.81 518.332C1508.05 517.928 1499.96 506.744 1497.95 503.873C1501.07 500.202 1508.01 492.365 1518.76 492.768Z" fill="#D9D9D9"/>
<path d="M1501.11 365.021C1509.64 361.697 1515.97 362.794 1517.24 367.432C1518.51 372.069 1514.8 378.323 1506.27 381.648C1497.74 384.972 1489.14 380.392 1486.99 379.194C1488.7 375.763 1492.58 368.346 1501.11 365.021Z" fill="#D9D9D9"/>
<path d="M1711.72 381.528C1703.22 378.101 1698.7 372.697 1700 368.071C1701.3 363.444 1707.4 361.081 1715.89 364.508C1724.39 367.935 1728.99 377.753 1730.12 380.254C1727.03 381.78 1720.22 384.956 1711.72 381.528Z" fill="#D9D9D9"/>
<path d="M1530.81 455.308C1536.78 449.619 1542.62 449.021 1545.54 453.393C1548.47 457.765 1547.77 465.129 1541.8 470.818C1535.83 476.507 1526.67 474.177 1524.35 473.542C1524.46 469.589 1524.84 460.997 1530.81 455.308Z" fill="#D9D9D9"/>
<path d="M1497.06 222.625C1484.1 216.863 1477.66 207.231 1480.31 198.666C1482.96 190.101 1492.89 185.393 1505.86 191.155C1518.82 196.917 1524.82 214.64 1526.28 219.156C1521.2 222.145 1510.03 228.388 1497.06 222.625Z" fill="#D9D9D9"/>
<path d="M1666.88 181.675C1673.93 173.203 1680.83 170.631 1684.28 174.72C1687.72 178.81 1686.9 187.508 1679.84 195.98C1672.79 204.452 1661.98 204.725 1659.24 204.741C1659.37 200.158 1659.83 190.147 1666.88 181.675Z" fill="#D9D9D9"/>
<path d="M1672.56 292.695C1688.01 309.058 1689.44 341.209 1678.72 356.288C1668 371.366 1637.6 390.608 1622.16 374.245C1606.72 357.882 1598.87 293.633 1609.59 278.555C1620.31 263.477 1657.12 276.332 1672.56 292.695Z" fill="#C70016"/>
<path d="M1544.85 296.457C1530.29 314.75 1530.49 346.98 1541.94 360.632C1553.39 374.285 1584.66 389.56 1599.22 371.267C1613.78 352.974 1618.35 287.926 1606.9 274.274C1595.45 260.622 1559.41 278.164 1544.85 296.457Z" fill="#C70016"/>
<path d="M1619.25 231.253C1607.33 230.816 1601.83 192.745 1601.37 210.225C1588.66 234.069 1604.72 259.213 1622.36 257.843C1634.28 258.28 1648.72 225.1 1634.26 210.764C1634.71 193.283 1631.17 231.689 1619.25 231.253Z" fill="#DF8200"/>
<path d="M1616.41 508.313C1604.49 507.876 1597.17 539.762 1597.56 524.92C1586.01 503.857 1603.24 483.638 1620.78 485.993C1632.7 486.43 1645.53 515.52 1630.41 526.689C1630.03 541.531 1628.33 508.75 1616.41 508.313Z" fill="#DF8200"/>
<path d="M1509.99 305.158C1514.63 318.293 1487.99 340.178 1501.46 333.368C1524.88 337.22 1537.3 309.276 1528.9 290.677C1524.26 277.542 1493.02 275.71 1488.16 297.409C1474.68 304.219 1505.35 292.023 1509.99 305.158Z" fill="#DF8200"/>
<path d="M1700.78 282.129C1708.32 271.077 1736.95 288.984 1725.61 277.932C1717.51 251.377 1691.06 251.337 1681.24 268.92C1673.7 279.971 1686.94 313.842 1705.26 308.826C1716.59 319.878 1693.24 293.18 1700.78 282.129Z" fill="#DF8200"/>
<path d="M1714.23 197.21C1727.54 192.696 1737.49 195.912 1739.59 204.693C1741.68 213.474 1735.99 224.292 1722.68 228.807C1709.37 233.322 1695.78 223.263 1692.37 220.65C1694.99 214.655 1700.92 201.725 1714.23 197.21Z" fill="#D9D9D9"/>
<ellipse cx="8.48586" cy="7.09685" rx="8.48586" ry="7.09685" transform="matrix(-0.00999018 0.99995 0.999903 0.0139093 1614.56 179.632)" fill="#D9D9D9"/>
<ellipse cx="8.48586" cy="7.09685" rx="8.48586" ry="7.09685" transform="matrix(-0.00999018 0.99995 0.999903 0.0139093 1534.16 411.941)" fill="#D9D9D9"/>
<ellipse cx="8.48586" cy="7.09685" rx="8.48586" ry="7.09685" transform="matrix(-0.00999018 0.99995 0.999903 0.0139093 1676.2 405.428)" fill="#D9D9D9"/>
<ellipse cx="8.48586" cy="7.09685" rx="8.48586" ry="7.09685" transform="matrix(-0.00999018 0.99995 0.999903 0.0139093 1546.75 216.884)" fill="#D9D9D9"/>
<ellipse cx="8.48586" cy="7.09685" rx="8.48586" ry="7.09685" transform="matrix(-0.00999018 0.99995 0.999903 0.0139093 1561.62 505.691)" fill="#D9D9D9"/>
<ellipse cx="8.48586" cy="7.09685" rx="8.48586" ry="7.09685" transform="matrix(-0.00999018 0.99995 0.999903 0.0139093 1653.88 506.979)" fill="#D9D9D9"/>
<ellipse cx="8.48586" cy="7.09685" rx="8.48586" ry="7.09685" transform="matrix(-0.00999018 0.99995 0.999903 0.0139093 1656.72 222.659)" fill="#D9D9D9"/>
<path d="M1565.77 362.189C1571.17 396.126 1613.01 408.816 1634.97 403.026C1656.93 397.235 1670.87 364.836 1665.47 330.899C1660.08 296.962 1624.47 264.266 1602.51 270.057C1580.55 275.847 1560.38 328.252 1565.77 362.189Z" fill="#D64851"/>
<path d="M1585.15 343.65C1589.08 368.356 1608.81 375.033 1624.67 370.851C1640.53 366.669 1650.36 345.42 1646.43 320.715C1642.5 296.009 1621.96 264.51 1606.1 268.692C1590.25 272.874 1581.22 318.945 1585.15 343.65Z" fill="#6A2129"/>
<path d="M1190.69 347.569L1202.04 377.621L1187.79 405.779L1176.47 374.32L1190.69 347.569Z" fill="#DF8200"/>
<path d="M1120.79 514.675C1112.57 513.257 1107.84 508.187 1108.59 502.193C1109.34 496.199 1114.76 491.4 1122.98 492.818C1131.2 494.235 1136.44 504.603 1137.73 507.258C1135.02 510.085 1129.01 516.092 1120.79 514.675Z" fill="#D9D9D9"/>
<path d="M1158.68 542.388C1153.16 549.646 1146.94 551.492 1143.06 547.473C1139.19 543.455 1138.73 535.52 1144.25 528.261C1149.77 521.002 1160.06 521.565 1162.67 521.756C1163.2 525.959 1164.2 535.129 1158.68 542.388Z" fill="#D9D9D9"/>
<path d="M1190.92 549.246C1190.12 558.915 1186.02 564.692 1180.87 564.116C1175.71 563.54 1171.34 557.444 1172.15 547.775C1172.95 538.106 1181.55 531.472 1183.75 529.829C1186.3 532.858 1191.73 539.578 1190.92 549.246Z" fill="#D9D9D9"/>
<path d="M1241.86 500.811C1250.01 498.945 1255.91 501.881 1256.92 507.824C1257.92 513.767 1254.17 520.405 1246.02 522.271C1237.87 524.138 1229.97 516.405 1228 514.407C1229.75 510.684 1233.7 502.678 1241.86 500.811Z" fill="#D9D9D9"/>
<path d="M1223.76 532.03C1228.07 540.329 1227.76 547.824 1223.34 550.98C1218.91 554.136 1212.29 552.322 1207.98 544.023C1203.66 535.723 1207.14 524.386 1208.06 521.526C1211.65 522.162 1219.44 523.73 1223.76 532.03Z" fill="#D9D9D9"/>
<path d="M1249.91 319.655C1254.22 327.954 1253.91 335.449 1249.49 338.605C1245.06 341.761 1238.44 339.947 1234.13 331.648C1229.81 323.348 1233.29 312.011 1234.21 309.151C1237.8 309.787 1245.59 311.355 1249.91 319.655Z" fill="#D9D9D9"/>
<path d="M1106.65 286.021C1098.34 283.445 1092.05 285.855 1090.63 291.693C1089.21 297.532 1092.65 304.48 1100.96 307.056C1109.27 309.633 1117.93 302.614 1120.1 300.794C1118.53 296.928 1114.96 288.598 1106.65 286.021Z" fill="#D9D9D9"/>
<path d="M1123.35 318.743C1118.35 326.641 1118.2 334.143 1122.56 337.678C1126.93 341.213 1133.9 339.984 1138.89 332.086C1143.89 324.188 1141.03 312.578 1140.26 309.645C1136.5 309.964 1128.35 310.845 1123.35 318.743Z" fill="#D9D9D9"/>
<path d="M1280.98 158.785C1293.35 160.658 1300.51 168.626 1299.44 178.373C1298.37 188.12 1290.26 196.171 1277.89 194.298C1265.52 192.425 1257.55 175.902 1255.58 171.669C1259.63 166.951 1268.61 156.912 1280.98 158.785Z" fill="#D9D9D9"/>
<path d="M1251.6 191.615C1268.53 209.062 1270.19 243.447 1258.5 259.615C1246.82 275.782 1213.63 296.476 1196.69 279.03C1179.76 261.583 1170.99 192.888 1182.68 176.72C1194.36 160.553 1234.66 174.169 1251.6 191.615Z" fill="#C70016"/>
<path d="M1111.91 196.106C1096.03 215.726 1096.34 250.201 1108.9 264.762C1121.46 279.323 1155.71 295.548 1171.59 275.928C1187.46 256.308 1192.28 186.712 1179.72 172.151C1167.16 157.59 1127.78 176.486 1111.91 196.106Z" fill="#C70016"/>
<path d="M1134.99 266.339C1140.98 302.62 1186.78 316.041 1210.78 309.767C1234.79 303.493 1249.95 268.786 1243.95 232.505C1237.96 196.224 1198.92 161.38 1174.92 167.655C1150.91 173.929 1128.99 230.058 1134.99 266.339Z" fill="#D64851"/>
<path d="M1156.12 246.435C1160.49 272.847 1182.09 279.917 1199.42 275.386C1216.76 270.855 1227.45 248.09 1223.08 221.678C1218.72 195.266 1196.17 161.648 1178.83 166.179C1161.5 170.71 1151.75 220.023 1156.12 246.435Z" fill="#6A2129"/>
<path d="M1231.33 497.347C1242.49 485.516 1244.98 460.35 1238.49 447.792C1232 435.233 1212.49 418.097 1201.33 429.927C1190.18 441.758 1181.85 491.716 1188.34 504.275C1194.83 516.833 1220.18 509.177 1231.33 497.347Z" fill="#C70016"/>
<path d="M1145.68 485.908C1136.76 470.569 1138.43 445.26 1146.77 435.294C1155.11 425.327 1176.86 415.402 1185.77 430.742C1194.69 446.081 1194.67 497.491 1186.33 507.457C1177.99 517.424 1154.6 501.247 1145.68 485.908Z" fill="#C70016"/>
<path d="M1162.87 435.652C1168.1 409.346 1196.82 402.154 1211.31 408.162C1225.79 414.17 1233.62 440.551 1228.39 466.856C1223.15 493.162 1197.67 516.486 1183.18 510.478C1168.7 504.47 1157.63 461.957 1162.87 435.652Z" fill="#D64851"/>
<path d="M1175 451.505C1178.82 432.355 1192.39 428.42 1202.85 432.758C1213.31 437.097 1218.91 454.444 1215.1 473.594C1211.28 492.744 1195.99 516.128 1185.53 511.79C1175.07 507.451 1171.19 470.655 1175 451.505Z" fill="#6A2129"/>
<path d="M1087.86 216.288C1080.6 221.018 1074.21 220.368 1071.68 215.081C1069.15 209.795 1070.95 202.126 1078.21 197.396C1085.47 192.666 1095.02 197.156 1097.43 198.339C1096.75 202.514 1095.11 211.559 1087.86 216.288Z" fill="#D9D9D9"/>
<path d="M1089.63 186.755C1076.84 187.144 1068.51 180.659 1068.28 170.964C1068.05 161.27 1075.19 151.968 1087.98 151.579C1100.77 151.19 1111.08 165.87 1113.64 169.645C1110.17 174.971 1102.42 186.366 1089.63 186.755Z" fill="#D9D9D9"/>
<path d="M1237.42 371.136C1228.61 382.384 1245.49 411.728 1235.47 400.997C1212.63 397.489 1210.91 366.684 1225.07 351.322C1233.89 340.074 1263.21 347.944 1260.16 370.392C1270.17 381.122 1246.24 359.888 1237.42 371.136Z" fill="#DF8200"/>
<path d="M1147.17 373.421C1138.23 362.311 1111.95 379.825 1121.85 368.94C1126.54 342.557 1152.94 342.833 1164.99 360.483C1173.92 371.593 1165.04 405.209 1146.12 399.989C1136.22 410.874 1156.11 384.531 1147.17 373.421Z" fill="#DF8200"/>
<ellipse cx="8.48225" cy="8.40857" rx="8.48225" ry="8.40857" transform="matrix(-0.629081 0.77734 0.670485 0.741923 1242.88 410.016)" fill="#D9D9D9"/>
<ellipse cx="8.48225" cy="8.40857" rx="8.48225" ry="8.40857" transform="matrix(-0.629081 0.77734 0.670485 0.741923 1126.35 409.531)" fill="#D9D9D9"/>
<path d="M337.645 358.813L348.528 389.099L333.843 416.953L323.01 385.261L337.645 358.813Z" fill="#DF8200"/>
<path d="M432.774 219.485C440.068 224.133 443.011 230.801 440.538 236.125C438.066 241.449 431.558 243.763 424.264 239.115C416.97 234.467 415.115 222.621 414.685 219.607C418.067 218.049 425.48 214.837 432.774 219.485Z" fill="#D9D9D9"/>
<path d="M268.401 518.305C260.206 516.715 255.554 511.547 256.395 505.569C257.236 499.592 262.733 494.908 270.929 496.498C279.124 498.088 284.202 508.565 285.454 511.246C282.697 514.016 276.596 519.896 268.401 518.305Z" fill="#D9D9D9"/>
<path d="M302.645 552.931C297.013 560.073 290.765 561.787 286.952 557.688C283.138 553.588 282.805 545.645 288.437 538.503C294.07 531.362 304.347 532.141 306.952 532.386C307.42 536.601 308.278 545.79 302.645 552.931Z" fill="#D9D9D9"/>
<path d="M343.41 551.457C342.457 561.107 338.272 566.797 333.125 566.113C327.978 565.429 323.705 559.242 324.658 549.591C325.611 539.941 334.308 533.488 336.536 531.892C339.038 534.974 344.362 541.807 343.41 551.457Z" fill="#D9D9D9"/>
<path d="M402.284 506.428C410.464 504.733 416.324 507.793 417.235 513.756C418.146 519.719 414.298 526.277 406.117 527.972C397.937 529.667 390.163 521.77 388.218 519.73C390.028 516.044 394.104 508.123 402.284 506.428Z" fill="#D9D9D9"/>
<path d="M381.013 537.656C385.2 546.045 384.771 553.532 380.3 556.595C375.83 559.657 369.238 557.704 365.05 549.315C360.863 540.926 364.512 529.664 365.477 526.824C369.06 527.535 376.825 529.267 381.013 537.656Z" fill="#D9D9D9"/>
<path d="M415.85 301.319C424.03 299.624 429.889 302.683 430.8 308.646C431.711 314.61 427.863 321.168 419.683 322.863C411.503 324.558 403.728 316.66 401.783 314.621C403.593 310.935 407.669 303.014 415.85 301.319Z" fill="#D9D9D9"/>
<path d="M397.28 332.155C401.468 340.544 401.038 348.031 396.568 351.094C392.098 354.156 385.505 352.203 381.318 343.814C377.13 335.425 380.78 324.163 381.744 321.323C385.328 322.034 393.093 323.766 397.28 332.155Z" fill="#D9D9D9"/>
<path d="M254.558 295.512C246.29 292.762 239.96 295.039 238.451 300.847C236.942 306.655 240.281 313.674 248.548 316.425C256.816 319.175 265.583 312.34 267.783 310.566C266.27 306.667 262.826 298.263 254.558 295.512Z" fill="#D9D9D9"/>
<path d="M270.744 328.58C265.626 336.372 265.353 343.869 269.667 347.495C273.981 351.122 280.962 350.039 286.079 342.248C291.197 334.456 288.512 322.787 287.79 319.839C284.029 320.079 275.861 320.788 270.744 328.58Z" fill="#D9D9D9"/>
<path d="M430.815 171.964C443.155 174.097 450.193 182.214 448.976 191.937C447.758 201.66 439.527 209.54 427.187 207.407C414.848 205.274 407.126 188.586 405.22 184.312C409.345 179.68 418.475 169.831 430.815 171.964Z" fill="#D9D9D9"/>
<path d="M400.937 204.165C417.601 221.964 418.726 256.379 406.796 272.299C394.865 288.218 361.359 308.211 344.695 290.411C328.03 272.612 320.323 203.743 332.253 187.824C344.184 171.904 384.273 186.365 400.937 204.165Z" fill="#C70016"/>
<path d="M261.199 205.72C245.023 225.003 244.804 259.479 257.139 274.302C269.474 289.125 303.467 306.067 319.643 286.784C335.819 267.5 341.706 198.017 329.371 183.194C317.036 168.371 277.375 186.436 261.199 205.72Z" fill="#C70016"/>
<path d="M283.191 276.426C288.629 312.827 334.209 327.209 358.308 321.44C382.407 315.671 398.1 281.289 392.662 244.888C387.224 208.486 348.73 172.828 324.631 178.596C300.532 184.365 277.753 240.024 283.191 276.426Z" fill="#D64851"/>
<path d="M304.631 256.974C308.589 283.473 330.078 290.996 347.48 286.831C364.883 282.665 375.921 260.128 371.963 233.628C368.004 207.129 345.975 173.042 328.573 177.208C311.17 181.374 300.672 230.475 304.631 256.974Z" fill="#6A2129"/>
<path d="M375.973 509.421C387.307 497.827 390.182 472.717 383.888 460.024C377.593 447.332 358.346 429.787 347.011 441.382C335.677 452.976 326.583 502.751 332.878 515.444C339.172 528.137 364.639 521.016 375.973 509.421Z" fill="#C70016"/>
<path d="M290.502 496.186C281.821 480.662 283.877 455.392 292.371 445.603C300.866 435.814 322.757 426.347 331.437 441.872C340.118 457.396 339.31 508.798 330.816 518.587C322.321 528.376 299.183 511.711 290.502 496.186Z" fill="#C70016"/>
<path d="M308.467 446.302C314.108 420.111 342.932 413.524 357.322 419.835C371.712 426.147 379.138 452.688 373.497 478.879C367.855 505.07 342.019 527.855 327.629 521.544C313.239 515.232 302.825 472.493 308.467 446.302Z" fill="#D64851"/>
<path d="M320.358 462.407C324.465 443.341 338.101 439.691 348.492 444.249C358.884 448.806 364.212 466.269 360.105 485.336C355.998 504.402 340.344 527.462 329.953 522.904C319.561 518.346 316.251 481.474 320.358 462.407Z" fill="#6A2129"/>
<path d="M885.688 503.283C877.493 501.693 872.841 496.524 873.682 490.547C874.523 484.569 880.021 479.885 888.216 481.476C896.411 483.066 901.489 493.542 902.741 496.224C899.984 498.993 893.883 504.873 885.688 503.283Z" fill="#D9D9D9"/>
<path d="M919.94 537.907C914.308 545.048 908.06 546.763 904.247 542.663C900.433 538.564 900.099 530.62 905.732 523.479C911.365 516.338 921.642 517.116 924.247 517.362C924.715 521.576 925.573 530.766 919.94 537.907Z" fill="#D9D9D9"/>
<path d="M960.705 536.432C959.752 546.082 955.567 551.772 950.42 551.088C945.273 550.403 941 544.216 941.953 534.566C942.906 524.916 951.603 518.463 953.831 516.867C956.333 519.949 961.657 526.781 960.705 536.432Z" fill="#D9D9D9"/>
<path d="M1019.58 491.405C1027.76 489.71 1033.62 492.769 1034.53 498.732C1035.44 504.695 1031.59 511.254 1023.41 512.949C1015.23 514.644 1007.46 506.746 1005.51 504.707C1007.32 501.021 1011.4 493.1 1019.58 491.405Z" fill="#D9D9D9"/>
<path d="M998.297 522.631C1002.48 531.02 1002.05 538.508 997.585 541.57C993.115 544.633 986.522 542.679 982.334 534.291C978.147 525.902 981.797 514.639 982.761 511.799C986.344 512.51 994.109 514.242 998.297 522.631Z" fill="#D9D9D9"/>
<path d="M993.27 494.398C1004.6 482.803 1007.48 457.694 1001.18 445.001C994.89 432.308 975.642 414.764 964.308 426.358C952.974 437.953 943.88 487.728 950.175 500.421C956.469 513.114 981.935 505.992 993.27 494.398Z" fill="#C70016"/>
<path d="M907.798 481.163C899.117 465.639 901.173 440.369 909.667 430.579C918.162 420.79 940.053 411.324 948.733 426.848C957.414 442.373 956.606 493.774 948.112 503.563C939.617 513.353 916.479 496.687 907.798 481.163Z" fill="#C70016"/>
<path d="M925.76 431.277C931.401 405.086 960.225 398.498 974.615 404.81C989.005 411.121 996.431 437.663 990.79 463.854C985.148 490.045 959.312 512.83 944.922 506.519C930.532 500.207 920.118 457.468 925.76 431.277Z" fill="#D64851"/>
<path d="M937.651 447.38C941.758 428.314 955.394 424.664 965.785 429.221C976.177 433.779 981.505 451.242 977.398 470.308C973.291 489.375 957.637 512.434 947.246 507.876C936.854 503.319 933.544 466.447 937.651 447.38Z" fill="#6A2129"/>
<path d="M524.677 496.549C516.482 494.958 511.831 489.79 512.671 483.812C513.512 477.835 519.01 473.151 527.205 474.741C535.4 476.331 540.478 486.808 541.731 489.489C538.973 492.259 532.872 498.139 524.677 496.549Z" fill="#D9D9D9"/>
<path d="M559.662 537.213C554.029 544.354 547.781 546.069 543.968 541.969C540.155 537.869 539.821 529.926 545.454 522.785C551.086 515.643 561.364 516.422 563.969 516.667C564.436 520.882 565.295 530.071 559.662 537.213Z" fill="#D9D9D9"/>
<path d="M607.434 534.26C606.481 543.91 602.297 549.6 597.15 548.916C592.002 548.231 587.73 542.044 588.683 532.394C589.636 522.744 598.332 516.291 600.561 514.695C603.063 517.777 608.387 524.609 607.434 534.26Z" fill="#D9D9D9"/>
<path d="M648.896 529.553C653.083 537.942 652.653 545.429 648.183 548.492C643.713 551.555 637.121 549.601 632.933 541.212C628.745 532.824 632.395 521.561 633.36 518.721C636.943 519.432 644.708 521.164 648.896 529.553Z" fill="#D9D9D9"/>
<path d="M647.564 488.599C660.183 477.01 663.376 451.902 656.362 439.206C649.348 426.51 627.908 408.958 615.289 420.548C602.67 432.138 592.559 481.909 599.573 494.605C606.587 507.3 634.945 500.189 647.564 488.599Z" fill="#C70016"/>
<path d="M552.378 475.328C542.706 459.8 544.987 434.531 554.443 424.745C563.9 414.959 588.276 405.502 597.948 421.03C607.62 436.558 606.737 487.959 597.28 497.745C587.823 507.531 562.05 490.856 552.378 475.328Z" fill="#C70016"/>
<path d="M572.365 425.448C578.639 399.26 610.736 392.684 626.764 399.001C642.792 405.319 651.07 431.863 644.796 458.052C638.521 484.241 609.756 507.016 593.729 500.698C577.701 494.381 566.091 451.637 572.365 425.448Z" fill="#D64851"/>
<path d="M585.61 441.561C590.178 422.496 605.362 418.852 616.936 423.414C628.51 427.976 634.449 445.441 629.881 464.506C625.314 483.571 607.888 506.623 596.314 502.061C584.741 497.499 581.042 460.626 585.61 441.561Z" fill="#6A2129"/>
<path d="M236.843 225.394C229.514 229.97 223.132 229.186 220.686 223.847C218.239 218.508 220.159 210.878 227.487 206.302C234.816 201.725 244.301 206.415 246.691 207.649C245.947 211.809 244.171 220.817 236.843 225.394Z" fill="#D9D9D9"/>
<path d="M239.07 195.898C226.276 196.018 218.047 189.358 217.969 179.66C217.891 169.963 225.171 160.812 237.965 160.692C250.759 160.572 260.837 175.467 263.345 179.294C259.789 184.547 251.864 195.778 239.07 195.898Z" fill="#D9D9D9"/>
<path d="M384 383.359C375.014 394.42 391.439 424.114 381.591 413.174C358.802 409.187 357.56 378.35 371.956 363.288C380.942 352.227 410.142 360.713 406.743 383.092C416.591 394.032 392.986 372.298 384 383.359Z" fill="#DF8200"/>
<path d="M293.73 383.745C284.964 372.449 258.421 389.408 268.482 378.733C273.574 352.453 299.965 353.284 311.742 371.184C320.507 382.481 311.103 415.904 292.269 410.287C282.209 420.962 302.496 395.042 293.73 383.745Z" fill="#DF8200"/>
<ellipse cx="8.45878" cy="8.43218" rx="8.45878" ry="8.43218" transform="matrix(-0.642705 0.766114 0.657124 0.753782 388.856 422.348)" fill="#D9D9D9"/>
<ellipse cx="8.45878" cy="8.43218" rx="8.45878" ry="8.43218" transform="matrix(-0.642705 0.766114 0.657124 0.753782 272.365 419.417)" fill="#D9D9D9"/>
<path d="M175.779 469.397C184.637 459.33 193.28 456.479 197.577 461.631C201.873 466.784 200.806 477.395 191.949 487.462C183.091 497.528 169.558 497.399 166.137 497.301C166.316 491.697 166.922 479.464 175.779 469.397Z" fill="#D9D9D9"/>
<path d="M168.483 508.918C180.418 505.199 189.15 507.653 190.743 514.604C192.336 521.556 186.969 530.203 175.034 533.922C163.1 537.641 151.349 529.791 148.406 527.75C150.905 522.963 156.548 512.637 168.483 508.918Z" fill="#D9D9D9"/>
<path d="M143.673 515.588C159.95 498.883 164.088 462.711 155.058 444.427C146.028 426.144 118.406 400.875 102.13 417.58C85.8535 434.285 72.7765 505.99 81.8063 524.274C90.8362 542.557 127.397 532.293 143.673 515.588Z" fill="#C70016"/>
<path d="M46.7926 424.674C54.9036 386.943 96.2837 377.447 116.938 386.536C137.593 395.625 148.241 433.858 140.13 471.588C132.019 509.319 94.9197 542.148 74.2651 533.059C53.6106 523.97 38.6817 462.405 46.7926 424.674Z" fill="#D64851"/>
<path d="M63.857 447.867C69.7616 420.4 89.338 415.139 104.253 421.703C119.168 428.266 126.809 453.421 120.904 480.888C115 508.355 92.5172 541.577 77.6021 535.014C62.687 528.45 57.9524 475.335 63.857 447.867Z" fill="#6A2129"/>
<ellipse cx="8.34108" cy="8.54863" rx="8.34108" ry="8.54863" transform="matrix(-0.707876 -0.706337 -0.589499 0.807769 228.72 546.487)" fill="#D9D9D9"/>
<path d="M1367.07 505.037C1358.87 503.447 1354.22 498.278 1355.06 492.301C1355.9 486.323 1361.4 481.639 1369.6 483.23C1377.79 484.82 1382.87 495.296 1384.12 497.978C1381.36 500.747 1375.26 506.627 1367.07 505.037Z" fill="#D9D9D9"/>
<path d="M1401.31 539.658C1395.68 546.799 1389.43 548.514 1385.62 544.414C1381.8 540.315 1381.47 532.371 1387.1 525.23C1392.74 518.089 1403.01 518.867 1405.62 519.113C1406.09 523.327 1406.94 532.517 1401.31 539.658Z" fill="#D9D9D9"/>
<path d="M1442.08 538.183C1441.12 547.834 1436.94 553.524 1431.79 552.84C1426.64 552.155 1422.37 545.968 1423.32 536.318C1424.28 526.668 1432.97 520.215 1435.2 518.619C1437.7 521.701 1443.03 528.533 1442.08 538.183Z" fill="#D9D9D9"/>
<path d="M1479.68 524.386C1483.87 532.775 1483.44 540.262 1478.97 543.325C1474.5 546.388 1467.9 544.434 1463.72 536.045C1459.53 527.657 1463.18 516.394 1464.14 513.554C1467.73 514.265 1475.49 515.997 1479.68 524.386Z" fill="#D9D9D9"/>
<path d="M1474.64 496.151C1485.97 484.556 1488.85 459.447 1482.55 446.754C1476.26 434.061 1457.01 416.517 1445.68 428.111C1434.34 439.706 1425.25 489.481 1431.54 502.174C1437.84 514.867 1463.3 507.745 1474.64 496.151Z" fill="#C70016"/>
<path d="M1389.17 482.915C1380.49 467.391 1382.55 442.121 1391.04 432.331C1399.53 422.542 1421.43 413.076 1430.11 428.6C1438.79 444.124 1437.98 495.526 1429.48 505.315C1420.99 515.105 1397.85 498.439 1389.17 482.915Z" fill="#C70016"/>
<path d="M1407.13 433.03C1412.78 406.839 1441.6 400.251 1455.99 406.563C1470.38 412.874 1477.81 439.416 1472.16 465.607C1466.52 491.798 1440.69 514.583 1426.3 508.272C1411.91 501.96 1401.49 459.221 1407.13 433.03Z" fill="#D64851"/>
<path d="M1419.03 449.136C1423.14 430.069 1436.77 426.42 1447.16 430.977C1457.56 435.535 1462.88 452.998 1458.78 472.064C1454.67 491.131 1439.02 514.19 1428.62 509.632C1418.23 505.075 1414.92 468.202 1419.03 449.136Z" fill="#6A2129"/>
<path d="M1739.75 501.854C1731.56 500.264 1726.91 495.095 1727.75 489.118C1728.59 483.14 1734.09 478.457 1742.28 480.047C1750.48 481.637 1755.55 492.114 1756.81 494.795C1754.05 497.564 1747.95 503.445 1739.75 501.854Z" fill="#D9D9D9"/>
<path d="M1774 536.477C1768.37 543.619 1762.12 545.333 1758.3 541.234C1754.49 537.134 1754.16 529.191 1759.79 522.049C1765.42 514.908 1775.7 515.686 1778.3 515.932C1778.77 520.146 1779.63 529.336 1774 536.477Z" fill="#D9D9D9"/>
<path d="M1814.76 535.002C1813.81 544.652 1809.63 550.342 1804.48 549.658C1799.33 548.973 1795.06 542.786 1796.01 533.136C1796.96 523.486 1805.66 517.033 1807.89 515.437C1810.39 518.519 1815.72 525.352 1814.76 535.002Z" fill="#D9D9D9"/>
<path d="M1847.34 492.97C1858.67 481.375 1861.54 456.266 1855.25 443.573C1848.96 430.88 1829.71 413.336 1818.37 424.931C1807.04 436.525 1797.95 486.3 1804.24 498.993C1810.53 511.686 1836 504.564 1847.34 492.97Z" fill="#C70016"/>
<path d="M1761.87 479.734C1753.19 464.21 1755.25 438.94 1763.74 429.151C1772.23 419.362 1794.12 409.895 1802.81 425.419C1811.49 440.944 1810.68 492.346 1802.18 502.135C1793.69 511.924 1770.55 495.259 1761.87 479.734Z" fill="#C70016"/>
<path d="M1779.82 429.847C1785.46 403.656 1814.28 397.068 1828.67 403.38C1843.06 409.692 1850.49 436.233 1844.85 462.424C1839.21 488.615 1813.37 511.4 1798.98 505.089C1784.59 498.777 1774.18 456.038 1779.82 429.847Z" fill="#D64851"/>
<path d="M1791.72 445.951C1795.82 426.885 1809.46 423.235 1819.85 427.793C1830.24 432.35 1835.57 449.813 1831.46 468.88C1827.36 487.946 1811.7 511.005 1801.31 506.448C1790.92 501.89 1787.61 465.018 1791.72 445.951Z" fill="#6A2129"/>
<path d="M224.327 44.6144C231.059 44.2498 235.675 47.4504 236.127 52.3929C236.579 57.3354 233.133 62.1733 226.4 62.5379C219.668 62.9025 213.73 55.5472 212.247 53.6551C213.897 50.893 217.594 44.979 224.327 44.6144Z" fill="#D9D9D9"/>
<path d="M190.963 20.3682C194.057 13.5404 198.645 10.9244 202.403 13.4383C206.161 15.9522 207.901 22.2304 204.806 29.0582C201.712 35.886 193.495 37.3143 191.404 37.6378C190.252 34.3649 187.868 27.196 190.963 20.3682Z" fill="#D9D9D9"/>
<path d="M155.528 14.985C154.481 7.08675 156.708 1.70697 160.878 1.22685C165.048 0.746727 169.555 4.83633 170.602 12.7346C171.65 20.6328 166.02 27.5217 164.567 29.2413C162.029 27.2785 156.576 22.8832 155.528 14.985Z" fill="#D9D9D9"/>
<path d="M121.715 32.1778C116.865 26.3125 115.809 20.2463 118.75 16.9084C121.691 13.5704 127.232 13.8154 132.082 19.6807C136.932 25.546 136.162 35.2698 135.933 37.7307C132.986 37.8775 126.565 38.0431 121.715 32.1778Z" fill="#D9D9D9"/>
<path d="M0.457345 346.608C-1.65325 332.455 -36.1357 324.849 -20.7339 324.805C-1.47559 310.401 23.0942 330.152 24.434 351.043C26.5446 365.195 -0.724468 381.389 -15.5006 363.832C-30.9024 363.875 2.56794 360.76 0.457345 346.608Z" fill="#DF8200"/>
<path d="M36.039 338.348C14.1566 328.411 -1.09785 298.883 2.67893 281.094C6.45571 263.305 27.3157 234.82 49.1981 244.757C71.0805 254.694 106.354 311.973 102.577 329.762C98.8004 347.551 57.9214 348.285 36.039 338.348Z" fill="#C70016"/>
<path d="M23.4161 268.591C12.0234 235.09 43.6389 204.057 66.2008 199.137C88.7628 194.217 116.845 217.323 128.237 250.823C139.63 284.323 123.209 330.732 100.647 335.652C78.0854 340.572 34.8088 302.091 23.4161 268.591Z" fill="#D64851"/>
<path d="M49.746 276.519C41.4523 252.132 56.0325 236.863 72.325 233.31C88.6175 229.757 107.65 244.594 115.944 268.982C124.238 293.369 120.822 331.68 104.529 335.233C88.2366 338.786 58.0396 300.907 49.746 276.519Z" fill="#6A2129"/>
<path d="M152.921 282.419C158.997 260.298 144.886 230.272 128.005 221.485C111.124 212.698 74.5201 209.254 68.4446 231.375C62.3692 253.495 86.0692 315.817 102.95 324.604C119.831 333.391 146.846 304.539 152.921 282.419Z" fill="#C70016"/>
<path d="M182.203 284.039C194.291 290.627 211.506 260.968 206.59 276.328C212.012 304.344 188.192 316.678 170.921 305.186C158.833 298.598 154.545 261.509 173.448 257.578C178.364 242.218 170.116 277.451 182.203 284.039Z" fill="#DF8200"/>
<path d="M-21.3806 177.06C-8.64353 185.192 1.38477 185.78 4.10611 179.148C6.82745 172.516 2.05569 161.631 -10.6814 153.499C-23.4185 145.367 -37.5373 149.289 -41.0836 150.349C-38.966 156.204 -34.1177 168.928 -21.3806 177.06Z" fill="#D9D9D9"/>
<path d="M145.654 183.099C139.64 190.178 138.151 197.216 141.538 200.837C144.925 204.459 151.554 203.781 157.568 196.702C163.582 189.623 163.027 178.517 162.846 175.708C159.332 175.75 151.669 176.019 145.654 183.099Z" fill="#D9D9D9"/>
<ellipse cx="8.75126" cy="7.19462" rx="8.75126" ry="7.19462" transform="matrix(-0.473173 -0.88097 0.882139 -0.47099 102.188 177.779)" fill="#D9D9D9"/>
<path d="M20.5714 134.086C20.0657 149.114 24.6341 159.808 31.6753 161.38C38.7165 162.953 45.6009 155.789 46.1065 140.761C46.6121 125.733 36.1229 111.608 33.4247 108.074C29.4935 111.454 21.077 119.059 20.5714 134.086Z" fill="#D9D9D9"/>
<path d="M70.8574 126.794C70.5588 135.67 73.8381 142.116 78.8333 143.231C83.8285 144.347 88.6779 140.291 88.9766 131.415C89.2752 122.539 81.7871 113.907 79.8613 111.746C77.0893 113.642 71.156 117.918 70.8574 126.794Z" fill="#D9D9D9"/>
<path d="M151.579 131.908C169.208 153.204 198.335 145.822 208.278 133.369C218.221 120.917 212.198 93.227 194.57 71.9313C176.941 50.6356 142.748 41.837 132.805 54.2896C122.862 66.7422 133.951 110.612 151.579 131.908Z" fill="#D64851"/>
<path d="M111.498 94.7028C111.113 112.915 125.069 135.036 137.412 140.027C149.755 145.018 174.014 143.488 174.399 125.276C174.785 107.064 149.436 60.4989 137.093 55.5078C124.75 50.5167 111.884 76.4908 111.498 94.7028Z" fill="#C70016"/>
<path d="M63.942 62.7473C54.9918 66.965 51.527 74.2338 54.7709 80.8182C58.0149 87.4026 66.1965 91.1446 75.1466 86.927C84.0968 82.7093 86.0486 69.2501 86.493 65.8189C82.2304 63.4619 72.8922 58.5296 63.942 62.7473Z" fill="#D9D9D9"/>
<ellipse cx="8.75126" cy="7.19462" rx="8.75126" ry="7.19462" transform="matrix(-0.473173 -0.88097 0.882139 -0.47099 21.373 85.1934)" fill="#D9D9D9"/>
<path d="M154.574 111.675C167.408 127.178 181.442 124.173 188.622 115.18C195.802 106.188 192.239 87.7644 179.406 72.2616C166.572 56.7588 141.422 42.977 134.242 51.9693C127.062 60.9616 141.741 96.1724 154.574 111.675Z" fill="#6A2129"/>
<path d="M182.176 42.8834C197.942 48.2031 212.56 69.797 212.968 84.3141C213.376 98.8312 204.437 123.799 188.67 118.48C172.904 113.16 140.869 71.9316 140.46 57.4145C140.052 42.8974 166.409 37.5637 182.176 42.8834Z" fill="#C70016"/>
<path d="M95.2548 37.241C86.7589 33.3376 80.308 34.6758 78.8358 40.1921C77.3636 45.7084 80.8676 53.1176 89.3636 57.0209C97.8595 60.9243 106.747 55.4362 108.976 54.0013C107.379 49.9352 103.751 41.1444 95.2548 37.241Z" fill="#D9D9D9"/>
<path d="M1328.3 355.178C1324.01 385.585 1351.86 403.976 1369.52 402.823C1387.19 401.67 1405.41 376.008 1409.71 345.602C1414.01 315.195 1395.65 280.538 1377.98 281.691C1360.32 282.845 1332.6 324.771 1328.3 355.178Z" fill="#D64851"/>
<path d="M1328.86 294.435C1313.62 307.744 1305.9 335.753 1311.04 349.621C1316.17 363.489 1335.58 382.262 1350.82 368.953C1366.06 355.643 1385.33 299.992 1380.19 286.124C1375.06 272.256 1344.1 281.125 1328.86 294.435Z" fill="#C70016"/>
<path d="M1347.16 342.504C1344.04 364.639 1357.01 373.914 1369.76 373.081C1382.52 372.248 1394.98 355.538 1398.1 333.403C1401.23 311.267 1393.73 280.307 1380.97 281.14C1368.22 281.972 1350.29 320.368 1347.16 342.504Z" fill="#6A2129"/>
<path d="M1424.29 313.694C1431.72 330.619 1424.92 358.777 1413.31 369.973C1401.7 381.17 1374.51 392.511 1367.08 375.586C1359.65 358.661 1369.53 301.513 1381.15 290.316C1392.76 279.12 1416.86 296.77 1424.29 313.694Z" fill="#C70016"/>
<path d="M980.857 360.75C977.033 387.821 1001.83 404.194 1017.56 403.167C1033.28 402.141 1049.51 379.295 1053.33 352.225C1057.16 325.154 1040.81 294.3 1025.09 295.326C1009.36 296.353 984.681 333.68 980.857 360.75Z" fill="#D64851"/>
<path d="M981.365 306.675C967.796 318.524 960.923 343.461 965.496 355.807C970.069 368.154 987.346 384.866 1000.91 373.017C1014.48 361.169 1031.64 311.623 1027.06 299.277C1022.49 286.93 994.934 294.826 981.365 306.675Z" fill="#C70016"/>
<path d="M997.653 349.468C994.87 369.174 1006.41 377.431 1017.77 376.69C1029.13 375.949 1040.22 361.072 1043 341.365C1045.79 321.658 1039.11 294.095 1027.75 294.836C1016.4 295.578 1000.44 329.761 997.653 349.468Z" fill="#6A2129"/>
<path d="M1066.31 323.818C1072.92 338.886 1066.87 363.954 1056.53 373.922C1046.19 383.89 1021.99 393.987 1015.38 378.919C1008.76 363.851 1017.56 312.973 1027.9 303.005C1038.24 293.037 1059.69 308.75 1066.31 323.818Z" fill="#C70016"/>
<path d="M462.035 351.552C457.739 381.959 485.592 400.35 503.255 399.197C520.918 398.044 539.147 372.382 543.442 341.976C547.738 311.569 529.379 276.912 511.716 278.065C494.053 279.219 466.33 321.145 462.035 351.552Z" fill="#D64851"/>
<path d="M462.595 290.809C447.354 304.118 439.633 332.127 444.769 345.995C449.906 359.863 469.313 378.636 484.554 365.327C499.795 352.017 519.061 296.366 513.924 282.498C508.788 268.63 477.836 277.499 462.595 290.809Z" fill="#C70016"/>
<path d="M480.894 338.881C477.768 361.017 490.736 370.291 503.49 369.459C516.245 368.626 528.706 351.916 531.833 329.781C534.959 307.645 527.458 276.685 514.703 277.518C501.948 278.35 484.021 316.746 480.894 338.881Z" fill="#6A2129"/>
<path d="M558.019 310.069C565.447 326.994 558.654 355.152 547.04 366.348C535.427 377.545 508.239 388.886 500.81 371.961C493.382 355.036 503.264 297.888 514.877 286.691C526.491 275.495 550.59 293.145 558.019 310.069Z" fill="#C70016"/>
<path d="M145.043 354.723C139.813 374.342 143.14 387.423 152.74 388.209C162.341 388.995 174.337 378.456 179.568 358.837C184.798 339.218 174.031 322.734 171.231 318.624C164.594 323.719 150.274 335.104 145.043 354.723Z" fill="#D9D9D9"/>
<path d="M217.139 390.956C197.69 396.423 185.855 406.624 186.706 416.28C187.558 425.937 199.533 431.837 218.982 426.37C238.431 420.903 252.251 401.724 255.678 396.831C249.75 393.172 236.588 385.489 217.139 390.956Z" fill="#D9D9D9"/>
<path d="M1780.32 296.092C1791.23 286.838 1779.52 253.526 1787.67 266.591C1810.06 275.363 1806.23 306.653 1789.19 318.805C1778.27 328.059 1750.14 313.423 1757.27 291.611C1749.11 278.546 1769.4 305.346 1780.32 296.092Z" fill="#DF8200"/>
<path d="M1806.09 321.969C1802.99 298.135 1820.04 269.607 1837.15 263.439C1854.26 257.27 1889.46 259.981 1892.55 283.814C1895.64 307.647 1865.56 367.816 1848.46 373.985C1831.35 380.153 1809.18 345.802 1806.09 321.969Z" fill="#C70016"/>
<path d="M1858.71 274.473C1881.17 247.132 1924.21 257.639 1940.28 274.218C1956.36 290.796 1951.52 326.84 1929.06 354.181C1906.6 381.522 1858.51 392.033 1842.43 375.454C1826.36 358.875 1836.25 301.814 1858.71 274.473Z" fill="#D64851"/>
<path d="M1757.78 128.938C1748.98 155.144 1770.6 176.004 1786.43 177.888C1802.25 179.773 1822.6 160.059 1831.41 133.853C1840.21 107.646 1829.66 73.9515 1813.84 72.0667C1798.02 70.1819 1766.58 102.731 1757.78 128.938Z" fill="#D64851"/>
<path d="M1865.86 301.026C1882.21 281.123 1902.87 285.463 1914.48 297.435C1926.09 309.407 1923.51 333.402 1907.16 353.306C1890.81 373.21 1856.45 390.502 1844.84 378.53C1833.23 366.558 1849.5 320.93 1865.86 301.026Z" fill="#6A2129"/>
<path d="M1768.27 75.2655C1752.59 84.5384 1741.15 108.059 1743.41 121.179C1745.68 134.299 1759.77 154.107 1775.45 144.834C1791.13 135.561 1817.33 89.4729 1815.07 76.3532C1812.8 63.2336 1783.95 65.9926 1768.27 75.2655Z" fill="#C70016"/>
<path d="M1915.23 391.81C1937.23 385.312 1955.3 357.493 1953.87 338.516C1952.44 319.539 1936.07 286.619 1914.07 293.117C1892.07 299.615 1851.61 352.608 1853.04 371.585C1854.47 390.562 1893.23 398.308 1915.23 391.81Z" fill="#C70016"/>
<path d="M1803.94 238.29C1809.62 245.683 1815.7 248.004 1819.23 244.545C1822.77 241.086 1822.81 233.598 1817.13 226.205C1811.46 218.812 1801.58 218.404 1799.08 218.346C1798.77 222.287 1798.26 230.897 1803.94 238.29Z" fill="#D9D9D9"/>
<path d="M1776.56 120.818C1770.15 139.896 1780.1 150.238 1791.53 151.599C1802.96 152.96 1816.73 140.219 1823.14 121.142C1829.55 102.064 1828.01 73.4271 1816.58 72.0661C1805.15 70.705 1782.97 101.74 1776.56 120.818Z" fill="#6A2129"/>
<path d="M1849.56 108.004C1853.35 124.206 1842.7 148.011 1830.58 156.011C1818.46 164.01 1792.53 169.576 1788.74 153.374C1784.95 137.172 1803.1 88.2153 1815.22 80.2156C1827.34 72.2159 1845.77 91.802 1849.56 108.004Z" fill="#C70016"/>
<path d="M1929.29 417.55C1930.06 431.294 1964.34 430.289 1948.7 434.208C1927.75 453.584 1904.71 439.845 1905.37 419.11C1904.6 405.366 1933.86 382.17 1947.16 396.161C1962.8 392.242 1928.52 403.806 1929.29 417.55Z" fill="#DF8200"/>
<ellipse cx="8.75126" cy="7.19462" rx="8.75126" ry="7.19462" transform="matrix(0.499188 -0.866494 0.865255 0.501332 1857.25 213.809)" fill="#D9D9D9"/>
<path d="M1843.23 53.7046C1847.45 44.6349 1846.79 37.4009 1841.95 35.3291C1837.12 33.2573 1830.16 36.5296 1825.94 45.5993C1821.72 54.6691 1825.9 64.9298 1827.01 67.5083C1830.8 66.0726 1839.01 62.7743 1843.23 53.7046Z" fill="#D9D9D9"/>
<path d="M1876.68 169.292C1878.9 177.454 1883.67 181.028 1888.5 178.665C1893.33 176.303 1896.58 169.399 1894.37 161.237C1892.15 153.074 1882.96 150.373 1880.61 149.732C1878.64 153.298 1874.47 161.129 1876.68 169.292Z" fill="#D9D9D9"/>
<path d="M1868.71 85.5438C1876.75 80.271 1880.3 73.3953 1878.01 68.347C1875.72 63.2988 1868.97 61.6016 1860.93 66.8744C1852.9 72.1472 1850.18 84.0533 1849.53 87.0786C1853.02 88.3124 1860.68 90.8166 1868.71 85.5438Z" fill="#D9D9D9"/>
<path d="M1886.17 133.983C1895.73 139.222 1904.3 138.164 1907.82 131.823C1911.35 125.482 1909.16 116.534 1899.59 111.295C1890.03 106.056 1877.13 111.779 1873.88 113.283C1874.67 118.168 1876.61 128.744 1886.17 133.983Z" fill="#D9D9D9"/>
<path d="M1912.88 188.161C1912.69 203.271 1917.47 212.103 1924.54 210.919C1931.61 209.736 1938.35 199.943 1938.54 184.832C1938.74 169.722 1927.96 159.792 1925.19 157.337C1921.33 162.223 1913.08 173.05 1912.88 188.161Z" fill="#D9D9D9"/>
<path d="M1214.55 131.895C1222.5 125.711 1229.59 125.468 1232.49 130.807C1235.38 136.147 1233.53 144.701 1225.58 150.886C1217.63 157.071 1206.96 153.632 1204.27 152.709C1204.95 148.097 1206.6 138.08 1214.55 131.895Z" fill="#D9D9D9"/>
<path d="M732.706 104.917C724.756 98.732 717.664 98.4896 714.767 103.829C711.87 109.168 713.726 117.723 721.676 123.908C729.626 130.093 740.29 126.654 742.98 125.731C742.303 121.118 740.656 111.102 732.706 104.917Z" fill="#D9D9D9"/>
<path d="M1175.78 103.342C1179.47 93.2938 1185.48 88.2886 1190.74 90.325C1196 92.3613 1198.8 100.043 1195.11 110.091C1191.42 120.139 1180.42 124.812 1177.61 125.948C1175.82 122.027 1172.08 113.39 1175.78 103.342Z" fill="#D9D9D9"/>
<path d="M1124.82 102.646C1122.72 92.638 1125.25 84.7635 1130.84 82.6326C1136.42 80.5017 1142.86 84.2579 1144.96 94.2659C1147.06 104.274 1140.06 115.356 1138.25 118.14C1134.66 116.472 1126.92 112.654 1124.82 102.646Z" fill="#D9D9D9"/>
<path d="M912.955 309.478C924.566 314.175 933.19 312.721 934.927 306.309C936.664 299.897 931.617 291.193 920.006 286.496C908.395 281.799 896.675 288.054 893.738 289.691C896.068 294.462 901.344 304.781 912.955 309.478Z" fill="#D9D9D9"/>
<path d="M777.228 66.4514C769.565 56.4969 761.056 54.0547 755.856 59.6945C750.656 65.3343 750.19 76.3367 757.853 86.2912C765.517 96.2457 779.518 95.2762 783.066 94.9636C783.709 89.1293 784.891 76.4059 777.228 66.4514Z" fill="#D9D9D9"/>
<ellipse cx="11.7603" cy="9.66842" rx="11.7603" ry="9.66842" transform="matrix(-0.00883214 -0.999961 0.99998 -0.00635576 958.027 244.821)" fill="#D9D9D9"/>
<path d="M832.758 68.9241C831.473 55.543 825.781 47.6146 818.768 48.5082C811.756 49.4018 805.927 57.929 807.212 71.31C808.497 84.6911 820.335 93.7238 823.368 95.9592C826.78 91.7153 834.042 82.3051 832.758 68.9241Z" fill="#D9D9D9"/>
<path d="M950.216 180.028C958.34 187.973 966.301 188.863 970.288 182.837C974.275 176.81 973.339 166.6 965.214 158.655C957.089 150.709 944.604 153.84 941.448 154.695C941.587 160.172 942.091 172.082 950.216 180.028Z" fill="#D9D9D9"/>
<path d="M883.967 88.4475C889.683 76.8686 889.108 66.4901 883.023 62.1992C876.938 57.9084 867.954 60.5447 862.239 72.1235C856.523 83.7023 861.479 99.3455 862.789 103.291C867.671 102.344 878.251 100.026 883.967 88.4475Z" fill="#D9D9D9"/>
<path d="M937.163 132.67C951.81 132.225 961.007 125.169 960.775 115.422C960.543 105.675 951.908 96.8026 937.261 97.2479C922.614 97.6932 911.574 113.105 908.831 117.062C913.074 122.182 922.516 133.115 937.163 132.67Z" fill="#D9D9D9"/>
<ellipse cx="11.7603" cy="9.66842" rx="11.7603" ry="9.66842" transform="matrix(-0.00883214 -0.999961 0.99998 -0.00635576 1010.55 263.594)" fill="#D9D9D9"/>
<path d="M1005.17 183.367C999.265 193.736 999.135 203.452 1004.38 207.903C1009.62 212.353 1017.92 210.561 1023.83 200.192C1029.73 189.823 1026.23 174.875 1025.29 171.101C1020.81 171.622 1011.08 172.998 1005.17 183.367Z" fill="#D9D9D9"/>
<path d="M1037 102.881C1023.72 102.3 1015.05 108.778 1014.79 118.637C1014.53 128.496 1021.92 138.062 1035.2 138.642C1048.49 139.223 1059.22 124.437 1061.9 120.634C1058.3 115.166 1050.28 103.461 1037 102.881Z" fill="#D9D9D9"/>
<path d="M1090.19 92.1204C1082.52 82.1659 1074.01 79.7237 1068.81 85.3635C1063.61 91.0033 1063.15 102.006 1070.81 111.96C1078.47 121.915 1092.48 120.945 1096.02 120.633C1096.67 114.798 1097.85 102.075 1090.19 92.1204Z" fill="#D9D9D9"/>
<path d="M300.962 94.0868C294.445 86.4073 287.552 84.7201 283.625 89.3544C279.697 93.9887 279.765 102.742 286.282 110.422C292.8 118.101 303.942 116.915 306.764 116.561C307.044 111.908 307.479 101.766 300.962 94.0868Z" fill="#D9D9D9"/>
<path d="M675.718 71.4416C673.759 60.9174 676.37 53.5426 681.931 52.6057C687.492 51.6688 693.827 56.8399 695.787 67.3641C697.747 77.8884 690.676 87.5269 688.847 89.9362C685.304 87.4808 677.678 81.9659 675.718 71.4416Z" fill="#D9D9D9"/>
<path d="M631.565 96.8853C624.646 89.3557 622.804 81.2902 626.515 76.605C630.227 71.9198 637.679 71.8596 644.598 79.3892C651.518 86.9188 651.166 100.02 651.032 103.338C647.089 103.742 638.485 104.415 631.565 96.8853Z" fill="#D9D9D9"/>
<path d="M352.413 65.5337C346.946 54.2228 339.117 50.0927 332.874 54.5503C326.63 59.0078 323.925 69.6826 329.392 80.9936C334.858 92.3045 348.761 94.2178 352.299 94.6373C354.121 89.0577 357.879 76.8446 352.413 65.5337Z" fill="#D9D9D9"/>
<path d="M406.261 79.3136C407.739 65.9525 403.788 57.0278 396.741 56.4689C389.694 55.91 382.245 63.0655 380.767 76.4265C379.289 89.7876 389.031 101.05 391.543 103.858C395.751 100.402 404.783 92.6747 406.261 79.3136Z" fill="#D9D9D9"/>
<path d="M498.527 212.084C504.856 221.523 512.466 224.022 517.601 218.937C522.736 213.853 523.907 203.668 517.578 194.229C511.249 184.79 498.388 185.302 495.123 185.494C494.14 190.884 492.198 202.646 498.527 212.084Z" fill="#D9D9D9"/>
<path d="M452.394 108.891C460.356 98.7252 461.915 88.4482 456.835 83.004C451.756 77.5597 442.423 78.3038 434.461 88.4695C426.499 98.6352 428.152 114.961 428.628 119.091C433.601 119.162 444.431 119.057 452.394 108.891Z" fill="#D9D9D9"/>
<path d="M495.434 163.054C509.863 165.613 520.308 160.586 522.073 150.998C523.839 141.409 517.2 130.959 502.772 128.4C488.343 125.842 474.385 138.671 470.891 141.983C473.999 147.863 481.006 160.496 495.434 163.054Z" fill="#D9D9D9"/>
<ellipse cx="11.7603" cy="9.66842" rx="11.7603" ry="9.66842" transform="matrix(-0.518543 -0.855052 0.856333 -0.516424 615.582 293.619)" fill="#D9D9D9"/>
<path d="M569.963 227.414C570.185 239.345 575.038 247.763 581.818 248.91C588.599 250.056 594.821 244.273 594.599 232.342C594.377 220.412 583.724 209.355 580.988 206.591C577.402 209.329 569.741 215.484 569.963 227.414Z" fill="#D9D9D9"/>
<path d="M556.181 141.964C544.468 148.251 540.329 158.247 545.144 166.855C549.958 175.462 561.199 179.909 572.912 173.621C584.625 167.334 586.3 149.138 586.655 144.503C580.77 141.639 567.894 135.676 556.181 141.964Z" fill="#D9D9D9"/>
<path d="M596.418 105.534C584.744 100.893 576.182 103.141 574.594 110.646C573.006 118.151 578.228 127.847 589.901 132.488C601.575 137.129 613.115 129.142 616.005 127.06C613.577 121.716 608.092 110.175 596.418 105.534Z" fill="#D9D9D9"/>
<path d="M1595.32 111.068C1599.99 102.148 1606.35 98.9929 1611.2 102.655C1616.04 106.317 1617.89 114.873 1613.21 123.793C1608.54 132.713 1597.4 133.995 1594.57 134.267C1593.28 129.788 1590.64 119.988 1595.32 111.068Z" fill="#D9D9D9"/>
<path d="M1248.03 26.3827C1248.31 16.3141 1244.31 10.4561 1238.29 11.2836C1232.27 12.1111 1226.48 18.6725 1226.2 28.7411C1225.92 38.8097 1235.01 45.3667 1237.35 46.9872C1240.66 43.7104 1247.76 36.4513 1248.03 26.3827Z" fill="#D9D9D9"/>
<path d="M1548.2 101.112C1547.41 90.4364 1550.81 83.3919 1556.44 83.0698C1562.07 82.7478 1567.8 88.5815 1568.6 99.2571C1569.39 109.933 1561.31 118.739 1559.23 120.933C1555.97 118.104 1549 111.788 1548.2 101.112Z" fill="#D9D9D9"/>
<path d="M1501.51 121.568C1495.46 113.325 1494.51 105.107 1498.72 100.856C1502.92 96.6056 1510.33 97.3621 1516.39 105.604C1522.44 113.846 1520.65 126.83 1520.16 130.114C1516.19 130.083 1507.57 129.81 1501.51 121.568Z" fill="#D9D9D9"/>
<path d="M1305.4 39.4816C1308.88 27.4117 1305.81 19.1094 1298.19 18.259C1290.57 17.4086 1281.42 23.549 1277.94 35.619C1274.46 47.6889 1283.53 58.3968 1285.88 61.0709C1290.97 58.1342 1301.92 51.5516 1305.4 39.4816Z" fill="#D9D9D9"/>
<ellipse cx="11.7603" cy="9.66842" rx="11.7603" ry="9.66842" transform="matrix(0.800532 -0.599289 0.597305 0.802014 1268.73 290.798)" fill="#D9D9D9"/>
<path d="M1336.28 85.6908C1346.3 76.7313 1349.32 67.4493 1344.45 62.3278C1339.58 57.2064 1329.25 57.5595 1319.23 66.519C1309.21 75.4784 1308.94 90.3668 1308.94 94.1349C1314.38 94.3712 1326.26 94.6502 1336.28 85.6908Z" fill="#D9D9D9"/>
<path d="M1316.32 246.134C1314.73 257.386 1318.72 264.328 1325.94 263.972C1333.16 263.615 1340.83 256.815 1342.42 245.563C1344.01 234.31 1334.1 226.104 1331.54 224.067C1327.21 227.423 1317.91 234.882 1316.32 246.134Z" fill="#D9D9D9"/>
<path d="M1350.88 138.514C1363.59 136.263 1371.61 129.653 1371.47 122.209C1371.32 114.765 1363.88 109.087 1351.16 111.338C1338.45 113.59 1328.78 126.847 1326.37 130.239C1330.03 133.612 1338.16 140.765 1350.88 138.514Z" fill="#D9D9D9"/>
<path d="M1346.75 207.573C1355.78 219.112 1366.91 222.344 1374.63 216.385C1382.35 210.426 1384.38 198.214 1375.35 186.675C1366.32 175.136 1347.36 175.367 1342.55 175.5C1340.93 181.951 1337.72 196.034 1346.75 207.573Z" fill="#D9D9D9"/>
<ellipse cx="11.7603" cy="9.66842" rx="11.7603" ry="9.66842" transform="matrix(-0.421768 -0.906704 0.907745 -0.419522 1464.08 315.368)" fill="#D9D9D9"/>
<path d="M1425.99 244.559C1424.91 256.442 1428.81 265.342 1435.42 267.224C1442.04 269.106 1448.86 264.039 1449.94 252.156C1451.03 240.273 1441.65 228.116 1439.23 225.068C1435.37 227.397 1427.08 232.676 1425.99 244.559Z" fill="#D9D9D9"/>
<path d="M1421.66 158.118C1409.32 163.084 1404.11 172.567 1407.96 181.65C1411.8 190.733 1422.49 196.384 1434.82 191.417C1447.15 186.451 1450.81 168.547 1451.67 163.979C1446.13 160.488 1433.99 153.151 1421.66 158.118Z" fill="#D9D9D9"/>
<path d="M1465.63 126.314C1454.54 120.422 1445.78 121.719 1443.38 129.005C1440.98 136.291 1445.11 146.5 1456.2 152.392C1467.3 158.284 1479.64 151.608 1482.74 149.855C1480.92 144.278 1476.73 132.206 1465.63 126.314Z" fill="#D9D9D9"/>
</svg>
